<svg width="480" height="480" viewBox="0 0 480 480" fill="none" xmlns="http://www.w3.org/2000/svg">
<path d="M218.462 340.308L214.769 337.846L293.538 198.154L218.462 340.308Z" stroke="black" stroke-width="2"/>
<path d="M262.154 304.615L250.462 296.615L238.154 307.692L253.538 319.385L262.154 314.462V304.615Z" fill="black" stroke="black" stroke-width="2"/>
<path d="M153.846 236.308H160.615L238.154 288C235.532 290.477 230.799 294.511 227.57 296.071L225.845 297.386L224.676 296.515C224.655 296.5 224.635 296.485 224.615 296.469L153.846 243.692V236.308Z" fill="black"/>
<path d="M238.154 288L160.615 236.308H153.846V243.692L224.615 296.469M238.154 288L225.845 297.386M238.154 288C234.462 291.487 226.585 298.063 224.615 296.469M226.462 297.846L225.845 297.386M225.845 297.386L224.615 296.469" stroke="black" stroke-width="2"/>
<rect x="1" y="1" width="478" height="478" rx="65.4615" stroke="black" stroke-width="2"/>
<rect x="14.5385" y="14.5386" width="449.692" height="449.692" rx="65.4615" stroke="black" stroke-width="2"/>
<rect x="28.0769" y="26.8462" width="422.615" height="423.846" rx="56.8462" stroke="black" stroke-width="2"/>
<rect x="33" y="26.8462" width="412.769" height="416.462" rx="56.8462" stroke="black" stroke-width="2"/>
<mask id="path-9-inside-1_333_8188" fill="white">
<path d="M34 199.231C34 172.041 56.0414 150 83.2308 150H396.769C423.959 150 446 172.041 446 199.231V390.769C446 417.959 423.959 440 396.769 440H83.2308C56.0414 440 34 417.959 34 390.769V199.231Z"/>
</mask>
<path d="M34 199.231C34 170.385 57.3845 147 86.2308 147H393.769C422.615 147 446 170.385 446 199.231C446 173.698 423.959 153 396.769 153H83.2308C56.0414 153 34 173.698 34 199.231ZM446 440H34H446ZM34 440V150V440ZM446 150V440V150Z" fill="black" mask="url(#path-9-inside-1_333_8188)"/>
<rect x="189.308" y="37.9231" width="101.385" height="86.6154" rx="7.61539" stroke="black" stroke-width="2"/>
<rect x="327.154" y="44.0769" width="97.6923" height="74.3077" rx="7.61539" stroke="black" stroke-width="2"/>
<rect x="55.1539" y="44.0769" width="97.6923" height="74.3077" rx="7.61539" stroke="black" stroke-width="2"/>
<path d="M391.385 211.692L351.385 235.077" stroke="black" stroke-width="2"/>
<path d="M315.392 167.384L292.17 207.479" stroke="black" stroke-width="2"/>
<path d="M159.549 168.365L183.864 207.807" stroke="black" stroke-width="2"/>
<path d="M83.6924 212.284L123.917 235.279" stroke="black" stroke-width="2"/>
<path d="M90.7788 390.5L129.814 365.539" stroke="black" stroke-width="2"/>
<path d="M164.02 429.708L187.483 389.754" stroke="black" stroke-width="2"/>
<path d="M314.737 431.374L290.462 391.909" stroke="black" stroke-width="2"/>
<path d="M390.774 389.314L350.769 365.937" stroke="black" stroke-width="2"/>
<path d="M209.231 324.308L207.385 314.462L336 205.539H342.769V212.308L217.231 326.154L209.231 324.308Z" fill="black" stroke="black" stroke-width="2"/>
<circle cx="239.385" cy="297.231" r="3.30769" stroke="black" stroke-width="2"/>
<rect x="161" y="342.385" width="156.769" height="39.8462" rx="2.69231" stroke="black" stroke-width="2"/>
<path d="M209.381 375.692H188.542V371.299L197.162 363.473C199.143 361.66 200.496 360.209 201.221 359.121C202.002 358.005 202.393 356.82 202.393 355.564C202.393 354.309 201.932 353.319 201.012 352.593C200.091 351.84 198.878 351.463 197.371 351.463C194.637 351.463 192.001 352.579 189.462 354.811V348.618C191.833 346.749 194.679 345.814 197.999 345.814C200.788 345.814 203.216 346.637 205.28 348.283C207.344 349.929 208.377 352.091 208.377 354.769C208.377 356.834 207.916 358.661 206.996 360.251C206.159 361.758 204.555 363.613 202.183 365.817L197.162 370.42H209.381V375.692ZM226.041 376.278C223.446 376.278 221.173 375.553 219.22 374.102C217.323 372.679 215.872 370.838 214.868 368.579C213.892 366.319 213.403 363.808 213.403 361.046C213.403 358.312 213.878 355.829 214.826 353.598C215.83 351.254 217.309 349.371 219.262 347.948C221.243 346.526 223.502 345.814 226.041 345.814C229.891 345.814 232.946 347.307 235.205 350.292C237.493 353.249 238.637 356.834 238.637 361.046C238.637 365.259 237.493 368.844 235.205 371.801C232.946 374.786 229.891 376.278 226.041 376.278ZM221.229 367.867C222.456 369.708 224.06 370.629 226.041 370.629C228.05 370.629 229.64 369.708 230.811 367.867C232.011 365.998 232.611 363.724 232.611 361.046C232.611 358.34 232.011 356.08 230.811 354.267C229.64 352.398 228.05 351.463 226.041 351.463C224.032 351.463 222.428 352.398 221.229 354.267C220.029 356.08 219.429 358.34 219.429 361.046C219.429 363.724 220.029 365.998 221.229 367.867ZM263.078 375.692H242.239V371.299L250.859 363.473C252.84 361.66 254.193 360.209 254.918 359.121C255.699 358.005 256.09 356.82 256.09 355.564C256.09 354.309 255.629 353.319 254.709 352.593C253.788 351.84 252.575 351.463 251.068 351.463C248.334 351.463 245.698 352.579 243.159 354.811V348.618C245.531 346.749 248.376 345.814 251.696 345.814C254.486 345.814 256.913 346.637 258.977 348.283C261.042 349.929 262.074 352.091 262.074 354.769C262.074 356.834 261.613 358.661 260.693 360.251C259.856 361.758 258.252 363.613 255.88 365.817L250.859 370.42H263.078V375.692ZM287.27 375.692H266.431V371.299L275.051 363.473C277.032 361.66 278.385 360.209 279.11 359.121C279.891 358.005 280.282 356.82 280.282 355.564C280.282 354.309 279.822 353.319 278.901 352.593C277.98 351.84 276.767 351.463 275.26 351.463C272.527 351.463 269.89 352.579 267.352 354.811V348.618C269.723 346.749 272.568 345.814 275.888 345.814C278.678 345.814 281.105 346.637 283.169 348.283C285.234 349.929 286.266 352.091 286.266 354.769C286.266 356.834 285.806 358.661 284.885 360.251C284.048 361.758 282.444 363.613 280.073 365.817L275.051 370.42H287.27V375.692Z" fill="black"/>
</svg>
