<svg width="737" height="956" viewBox="0 0 737 956" fill="none" xmlns="http://www.w3.org/2000/svg">
<path d="M81.0622 582H78.1209V573.665H81.0622C82.3958 573.665 83.4874 574.054 84.3368 574.831C85.1862 575.609 85.6109 576.61 85.6109 577.832C85.6109 579.063 85.1862 580.067 84.3368 580.845C83.4953 581.615 82.4038 582 81.0622 582ZM79.4308 574.867V580.797H80.9431C81.991 580.797 82.8047 580.531 83.3842 579.999C83.9716 579.46 84.2654 578.737 84.2654 577.832C84.2654 576.927 83.9716 576.205 83.3842 575.665C82.8047 575.133 81.991 574.867 80.9431 574.867H79.4308ZM88.7584 582H87.4486V573.665H88.7584V582ZM93.5325 582.155C92.2624 582.155 91.2184 581.857 90.4008 581.262V579.845C90.7263 580.13 91.1748 580.385 91.7464 580.607C92.3179 580.821 92.8895 580.928 93.4611 580.928C94.0247 580.928 94.4852 580.817 94.8424 580.595C95.2076 580.373 95.3902 580.071 95.3902 579.69C95.3902 579.388 95.2671 579.13 95.021 578.916C94.9257 578.829 94.7829 578.745 94.5923 578.666C94.3621 578.555 93.9811 578.424 93.4492 578.273L93.2825 578.225C92.83 578.098 92.4688 577.983 92.1989 577.88C91.9845 577.801 91.7067 577.662 91.3653 577.463C90.7937 577.106 90.5079 576.546 90.5079 575.784C90.5079 575.093 90.7779 574.542 91.3177 574.129C91.8654 573.716 92.6037 573.51 93.5325 573.51C94.5407 573.51 95.4298 573.74 96.1999 574.2V575.51C95.3505 574.994 94.4693 574.736 93.5563 574.736C93.0006 574.736 92.5759 574.835 92.2822 575.034C91.9964 575.224 91.8535 575.478 91.8535 575.796C91.8535 576.066 92.0163 576.316 92.3418 576.546C92.3894 576.578 92.4569 576.614 92.5442 576.653C92.6315 576.685 92.7307 576.721 92.8419 576.761C92.953 576.8 93.0324 576.828 93.08 576.844L94.0327 577.118C94.6122 577.292 95.1202 577.499 95.5569 577.737C96.2951 578.134 96.6881 578.777 96.7357 579.666C96.7357 580.436 96.4301 581.043 95.8188 581.488C95.2076 581.933 94.4455 582.155 93.5325 582.155ZM102.381 582.155C101.135 582.155 100.087 581.75 99.2378 580.94C98.4042 580.123 97.9875 579.087 97.9875 577.832C97.9875 576.578 98.4042 575.546 99.2378 574.736C100.063 573.919 101.111 573.51 102.381 573.51C103.231 573.51 103.985 573.696 104.644 574.069V575.391C103.969 574.955 103.219 574.736 102.393 574.736C101.52 574.736 100.79 575.03 100.202 575.617C99.6228 576.197 99.333 576.935 99.333 577.832C99.333 578.729 99.6268 579.472 100.214 580.059C100.802 580.639 101.544 580.928 102.441 580.928C103.394 580.928 104.187 580.674 104.823 580.166V581.488C104.124 581.933 103.31 582.155 102.381 582.155ZM108.19 580.047C108.754 580.635 109.445 580.928 110.262 580.928C111.08 580.928 111.771 580.635 112.334 580.047C112.898 579.444 113.18 578.706 113.18 577.832C113.18 576.951 112.898 576.217 112.334 575.629C111.771 575.034 111.08 574.736 110.262 574.736C109.445 574.736 108.754 575.034 108.19 575.629C107.635 576.209 107.357 576.943 107.357 577.832C107.357 578.721 107.635 579.46 108.19 580.047ZM113.311 580.916C112.501 581.742 111.485 582.155 110.262 582.155C109.04 582.155 108.024 581.742 107.214 580.916C106.412 580.075 106.011 579.047 106.011 577.832C106.011 576.61 106.412 575.586 107.214 574.76C108.024 573.926 109.04 573.51 110.262 573.51C111.485 573.51 112.501 573.926 113.311 574.76C114.121 575.586 114.525 576.61 114.525 577.832C114.525 579.055 114.121 580.083 113.311 580.916ZM116.191 578.475V573.665H117.501V578.523C117.501 579.293 117.695 579.888 118.084 580.309C118.473 580.722 119.005 580.928 119.68 580.928C120.355 580.928 120.887 580.722 121.276 580.309C121.672 579.888 121.871 579.293 121.871 578.523V573.665H123.181V578.475C123.181 579.642 122.855 580.547 122.204 581.19C121.545 581.833 120.704 582.155 119.68 582.155C118.656 582.155 117.814 581.837 117.155 581.202C116.512 580.559 116.191 579.65 116.191 578.475ZM126.422 582H125.136V573.665H126.279L130.983 579.702V573.665H132.269V582H131.161L126.422 575.939V582ZM133.703 574.867V573.665H140.526V574.867H137.763V582H136.454V574.867H133.703Z" fill="black"/>
<path d="M80.0622 748H77.1209V739.665H80.0622C81.3958 739.665 82.4874 740.054 83.3368 740.831C84.1862 741.609 84.6109 742.61 84.6109 743.832C84.6109 745.063 84.1862 746.067 83.3368 746.845C82.4953 747.615 81.4038 748 80.0622 748ZM78.4308 740.867V746.797H79.9431C80.991 746.797 81.8047 746.531 82.3842 745.999C82.9716 745.46 83.2654 744.737 83.2654 743.832C83.2654 742.927 82.9716 742.205 82.3842 741.665C81.8047 741.133 80.991 740.867 79.9431 740.867H78.4308ZM87.7584 748H86.4486V739.665H87.7584V748ZM92.5325 748.155C91.2624 748.155 90.2184 747.857 89.4008 747.262V745.845C89.7263 746.13 90.1748 746.385 90.7464 746.607C91.3179 746.821 91.8895 746.928 92.4611 746.928C93.0247 746.928 93.4852 746.817 93.8424 746.595C94.2076 746.373 94.3902 746.071 94.3902 745.69C94.3902 745.388 94.2671 745.13 94.021 744.916C93.9257 744.829 93.7829 744.745 93.5923 744.666C93.3621 744.555 92.9811 744.424 92.4492 744.273L92.2825 744.225C91.83 744.098 91.4688 743.983 91.1989 743.88C90.9845 743.801 90.7067 743.662 90.3653 743.463C89.7937 743.106 89.5079 742.546 89.5079 741.784C89.5079 741.093 89.7779 740.542 90.3177 740.129C90.8654 739.716 91.6037 739.51 92.5325 739.51C93.5407 739.51 94.4298 739.74 95.1999 740.2V741.51C94.3505 740.994 93.4693 740.736 92.5563 740.736C92.0006 740.736 91.5759 740.835 91.2822 741.034C90.9964 741.224 90.8535 741.478 90.8535 741.796C90.8535 742.066 91.0163 742.316 91.3418 742.546C91.3894 742.578 91.4569 742.614 91.5442 742.653C91.6315 742.685 91.7307 742.721 91.8419 742.761C91.953 742.8 92.0324 742.828 92.08 742.844L93.0327 743.118C93.6122 743.292 94.1202 743.499 94.5569 743.737C95.2951 744.134 95.6881 744.777 95.7357 745.666C95.7357 746.436 95.4301 747.043 94.8188 747.488C94.2076 747.933 93.4455 748.155 92.5325 748.155ZM101.381 748.155C100.135 748.155 99.0872 747.75 98.2378 746.94C97.4042 746.123 96.9875 745.087 96.9875 743.832C96.9875 742.578 97.4042 741.546 98.2378 740.736C99.0634 739.919 100.111 739.51 101.381 739.51C102.231 739.51 102.985 739.696 103.644 740.069V741.391C102.969 740.955 102.219 740.736 101.393 740.736C100.52 740.736 99.7898 741.03 99.2023 741.617C98.6228 742.197 98.333 742.935 98.333 743.832C98.333 744.729 98.6268 745.472 99.2142 746.059C99.8017 746.639 100.544 746.928 101.441 746.928C102.394 746.928 103.187 746.674 103.823 746.166V747.488C103.124 747.933 102.31 748.155 101.381 748.155ZM107.19 746.047C107.754 746.635 108.445 746.928 109.262 746.928C110.08 746.928 110.771 746.635 111.334 746.047C111.898 745.444 112.18 744.706 112.18 743.832C112.18 742.951 111.898 742.217 111.334 741.629C110.771 741.034 110.08 740.736 109.262 740.736C108.445 740.736 107.754 741.034 107.19 741.629C106.635 742.209 106.357 742.943 106.357 743.832C106.357 744.721 106.635 745.46 107.19 746.047ZM112.311 746.916C111.501 747.742 110.485 748.155 109.262 748.155C108.04 748.155 107.024 747.742 106.214 746.916C105.412 746.075 105.011 745.047 105.011 743.832C105.011 742.61 105.412 741.586 106.214 740.76C107.024 739.926 108.04 739.51 109.262 739.51C110.485 739.51 111.501 739.926 112.311 740.76C113.121 741.586 113.525 742.61 113.525 743.832C113.525 745.055 113.121 746.083 112.311 746.916ZM115.191 744.475V739.665H116.501V744.523C116.501 745.293 116.695 745.888 117.084 746.309C117.473 746.722 118.005 746.928 118.68 746.928C119.355 746.928 119.887 746.722 120.276 746.309C120.672 745.888 120.871 745.293 120.871 744.523V739.665H122.181V744.475C122.181 745.642 121.855 746.547 121.204 747.19C120.545 747.833 119.704 748.155 118.68 748.155C117.656 748.155 116.814 747.837 116.155 747.202C115.512 746.559 115.191 745.65 115.191 744.475ZM125.422 748H124.136V739.665H125.279L129.983 745.702V739.665H131.269V748H130.161L125.422 741.939V748ZM132.703 740.867V739.665H139.526V740.867H136.763V748H135.454V740.867H132.703Z" fill="black"/>
<path d="M80.0622 920H77.1209V911.665H80.0622C81.3958 911.665 82.4874 912.054 83.3368 912.831C84.1862 913.609 84.6109 914.61 84.6109 915.832C84.6109 917.063 84.1862 918.067 83.3368 918.845C82.4953 919.615 81.4038 920 80.0622 920ZM78.4308 912.867V918.797H79.9431C80.991 918.797 81.8047 918.531 82.3842 917.999C82.9716 917.46 83.2654 916.737 83.2654 915.832C83.2654 914.927 82.9716 914.205 82.3842 913.665C81.8047 913.133 80.991 912.867 79.9431 912.867H78.4308ZM87.7584 920H86.4486V911.665H87.7584V920ZM92.5325 920.155C91.2624 920.155 90.2184 919.857 89.4008 919.262V917.845C89.7263 918.13 90.1748 918.385 90.7464 918.607C91.3179 918.821 91.8895 918.928 92.4611 918.928C93.0247 918.928 93.4852 918.817 93.8424 918.595C94.2076 918.373 94.3902 918.071 94.3902 917.69C94.3902 917.388 94.2671 917.13 94.021 916.916C93.9257 916.829 93.7829 916.745 93.5923 916.666C93.3621 916.555 92.9811 916.424 92.4492 916.273L92.2825 916.225C91.83 916.098 91.4688 915.983 91.1989 915.88C90.9845 915.801 90.7067 915.662 90.3653 915.463C89.7937 915.106 89.5079 914.546 89.5079 913.784C89.5079 913.093 89.7779 912.542 90.3177 912.129C90.8654 911.716 91.6037 911.51 92.5325 911.51C93.5407 911.51 94.4298 911.74 95.1999 912.2V913.51C94.3505 912.994 93.4693 912.736 92.5563 912.736C92.0006 912.736 91.5759 912.835 91.2822 913.034C90.9964 913.224 90.8535 913.478 90.8535 913.796C90.8535 914.066 91.0163 914.316 91.3418 914.546C91.3894 914.578 91.4569 914.614 91.5442 914.653C91.6315 914.685 91.7307 914.721 91.8419 914.761C91.953 914.8 92.0324 914.828 92.08 914.844L93.0327 915.118C93.6122 915.292 94.1202 915.499 94.5569 915.737C95.2951 916.134 95.6881 916.777 95.7357 917.666C95.7357 918.436 95.4301 919.043 94.8188 919.488C94.2076 919.933 93.4455 920.155 92.5325 920.155ZM101.381 920.155C100.135 920.155 99.0872 919.75 98.2378 918.94C97.4042 918.123 96.9875 917.087 96.9875 915.832C96.9875 914.578 97.4042 913.546 98.2378 912.736C99.0634 911.919 100.111 911.51 101.381 911.51C102.231 911.51 102.985 911.696 103.644 912.069V913.391C102.969 912.955 102.219 912.736 101.393 912.736C100.52 912.736 99.7898 913.03 99.2023 913.617C98.6228 914.197 98.333 914.935 98.333 915.832C98.333 916.729 98.6268 917.472 99.2142 918.059C99.8017 918.639 100.544 918.928 101.441 918.928C102.394 918.928 103.187 918.674 103.823 918.166V919.488C103.124 919.933 102.31 920.155 101.381 920.155ZM107.19 918.047C107.754 918.635 108.445 918.928 109.262 918.928C110.08 918.928 110.771 918.635 111.334 918.047C111.898 917.444 112.18 916.706 112.18 915.832C112.18 914.951 111.898 914.217 111.334 913.629C110.771 913.034 110.08 912.736 109.262 912.736C108.445 912.736 107.754 913.034 107.19 913.629C106.635 914.209 106.357 914.943 106.357 915.832C106.357 916.721 106.635 917.46 107.19 918.047ZM112.311 918.916C111.501 919.742 110.485 920.155 109.262 920.155C108.04 920.155 107.024 919.742 106.214 918.916C105.412 918.075 105.011 917.047 105.011 915.832C105.011 914.61 105.412 913.586 106.214 912.76C107.024 911.926 108.04 911.51 109.262 911.51C110.485 911.51 111.501 911.926 112.311 912.76C113.121 913.586 113.525 914.61 113.525 915.832C113.525 917.055 113.121 918.083 112.311 918.916ZM115.191 916.475V911.665H116.501V916.523C116.501 917.293 116.695 917.888 117.084 918.309C117.473 918.722 118.005 918.928 118.68 918.928C119.355 918.928 119.887 918.722 120.276 918.309C120.672 917.888 120.871 917.293 120.871 916.523V911.665H122.181V916.475C122.181 917.642 121.855 918.547 121.204 919.19C120.545 919.833 119.704 920.155 118.68 920.155C117.656 920.155 116.814 919.837 116.155 919.202C115.512 918.559 115.191 917.65 115.191 916.475ZM125.422 920H124.136V911.665H125.279L129.983 917.702V911.665H131.269V920H130.161L125.422 913.939V920ZM132.703 912.867V911.665H139.526V912.867H136.763V920H135.454V912.867H132.703Z" fill="black"/>
<path d="M88.0503 291.857V283.669M88.0503 283.669C99.089 282.509 121.989 282.032 125.28 289.401M88.0503 283.669L79 289.401V295.133M125.28 289.401C128.571 296.77 123.497 330.273 120.549 346.104M125.28 289.401C137.279 285.853 161.893 281.377 164.361 291.857M120.549 346.104H117.875M120.549 346.104C137.663 342.501 153.871 346.104 159.836 348.355M164.361 291.857C166.829 302.338 162.373 333.89 159.836 348.355M164.361 291.857L173 301.888L168.269 359M159.836 348.355L168.269 359M168.269 359C156.613 356.612 130.998 352.327 121.783 354.292" stroke="black"/>
<path d="M118.433 349.056L95.9587 290L45.8557 307.02M118.433 349.056L124 359.924C111.216 366.417 83.3814 379.322 74.3092 378.994C65.2371 378.666 65.4433 372.159 66.6804 368.946M118.433 349.056L69.7732 367.757M66.6804 368.946L69.7732 367.757M66.6804 368.946L44 316.862L45.8557 307.02M45.8557 307.02L69.7732 367.757" stroke="black"/>
<path d="M463 686L688 684" stroke="black"/>
<path d="M463 707L688 705" stroke="black"/>
<path d="M102 504L159 520.966L157.497 539.379M157.497 539.379L156.957 546L107.108 532.552L105.473 524.069L157.497 539.379Z" stroke="black"/>
<path d="M427 901V866L335 867.433L344.2 883.398L335 901H427Z" stroke="black"/>
<path d="M419.375 810.673V793H430L424.167 803.396L430 814H400V810.673H419.375Z" stroke="black"/>
<path d="M348.625 810.673V793H338L343.833 803.396L338 814H368V810.673H348.625Z" stroke="black"/>
<path d="M352 809V785H416V809H352Z" stroke="black"/>
<path d="M232.194 925.187C230.69 925.187 229.425 924.698 228.4 923.721C227.394 922.734 226.891 921.484 226.891 919.97C226.891 918.456 227.394 917.211 228.4 916.233C229.396 915.247 230.661 914.753 232.194 914.753C233.219 914.753 234.129 914.978 234.925 915.429V917.024C234.11 916.497 233.205 916.233 232.208 916.233C231.155 916.233 230.273 916.588 229.564 917.297C228.865 917.996 228.515 918.887 228.515 919.97C228.515 921.053 228.87 921.948 229.579 922.657C230.288 923.357 231.183 923.707 232.266 923.707C233.416 923.707 234.374 923.4 235.14 922.787V924.382C234.297 924.919 233.315 925.187 232.194 925.187ZM239.205 922.643C239.885 923.352 240.719 923.707 241.706 923.707C242.692 923.707 243.526 923.352 244.206 922.643C244.886 921.915 245.227 921.024 245.227 919.97C245.227 918.906 244.886 918.02 244.206 917.311C243.526 916.593 242.692 916.233 241.706 916.233C240.719 916.233 239.885 916.593 239.205 917.311C238.534 918.011 238.199 918.897 238.199 919.97C238.199 921.043 238.534 921.934 239.205 922.643ZM245.385 923.692C244.407 924.689 243.181 925.187 241.706 925.187C240.23 925.187 239.004 924.689 238.026 923.692C237.059 922.677 236.575 921.436 236.575 919.97C236.575 918.494 237.059 917.259 238.026 916.262C239.004 915.256 240.23 914.753 241.706 914.753C243.181 914.753 244.407 915.256 245.385 916.262C246.362 917.259 246.851 918.494 246.851 919.97C246.851 921.445 246.362 922.686 245.385 923.692ZM248.861 920.746V914.94H250.442V920.804C250.442 921.733 250.676 922.451 251.146 922.959C251.615 923.457 252.257 923.707 253.072 923.707C253.886 923.707 254.528 923.457 254.997 922.959C255.476 922.451 255.716 921.733 255.716 920.804V914.94H257.297V920.746C257.297 922.154 256.904 923.247 256.118 924.023C255.323 924.799 254.307 925.187 253.072 925.187C251.836 925.187 250.82 924.804 250.025 924.037C249.249 923.261 248.861 922.164 248.861 920.746ZM261.237 925H259.656V914.94H263.982C265.036 914.94 265.855 915.213 266.44 915.759C267.043 916.286 267.345 916.985 267.345 917.857C267.345 918.729 267.043 919.448 266.44 920.013C265.855 920.569 265.036 920.847 263.982 920.847H261.237V925ZM261.237 916.391V919.395H263.853C264.447 919.395 264.912 919.266 265.247 919.007C265.582 918.739 265.75 918.365 265.75 917.886C265.75 917.407 265.582 917.038 265.247 916.779C264.921 916.521 264.456 916.391 263.853 916.391H261.237ZM271.443 922.643C272.123 923.352 272.956 923.707 273.943 923.707C274.93 923.707 275.764 923.352 276.444 922.643C277.124 921.915 277.464 921.024 277.464 919.97C277.464 918.906 277.124 918.02 276.444 917.311C275.764 916.593 274.93 916.233 273.943 916.233C272.956 916.233 272.123 916.593 271.443 917.311C270.772 918.011 270.437 918.897 270.437 919.97C270.437 921.043 270.772 921.934 271.443 922.643ZM277.622 923.692C276.645 924.689 275.419 925.187 273.943 925.187C272.468 925.187 271.241 924.689 270.264 923.692C269.296 922.677 268.813 921.436 268.813 919.97C268.813 918.494 269.296 917.259 270.264 916.262C271.241 915.256 272.468 914.753 273.943 914.753C275.419 914.753 276.645 915.256 277.622 916.262C278.6 917.259 279.088 918.494 279.088 919.97C279.088 921.445 278.6 922.686 277.622 923.692ZM282.78 925H281.228V914.94H282.607L288.284 922.226V914.94H289.836V925H288.5L282.78 917.685V925ZM301.02 925.187C299.516 925.187 298.251 924.698 297.226 923.721C296.22 922.734 295.717 921.484 295.717 919.97C295.717 918.456 296.22 917.211 297.226 916.233C298.223 915.247 299.487 914.753 301.02 914.753C302.045 914.753 302.956 914.978 303.751 915.429V917.024C302.936 916.497 302.031 916.233 301.035 916.233C299.981 916.233 299.099 916.588 298.39 917.297C297.691 917.996 297.341 918.887 297.341 919.97C297.341 921.053 297.696 921.948 298.405 922.657C299.114 923.357 300.009 923.707 301.092 923.707C302.242 923.707 303.2 923.4 303.966 922.787V924.382C303.123 924.919 302.141 925.187 301.02 925.187ZM308.031 922.643C308.711 923.352 309.545 923.707 310.532 923.707C311.518 923.707 312.352 923.352 313.032 922.643C313.713 921.915 314.053 921.024 314.053 919.97C314.053 918.906 313.713 918.02 313.032 917.311C312.352 916.593 311.518 916.233 310.532 916.233C309.545 916.233 308.711 916.593 308.031 917.311C307.36 918.011 307.025 918.897 307.025 919.97C307.025 921.043 307.36 921.934 308.031 922.643ZM314.211 923.692C313.233 924.689 312.007 925.187 310.532 925.187C309.056 925.187 307.83 924.689 306.853 923.692C305.885 922.677 305.401 921.436 305.401 919.97C305.401 918.494 305.885 917.259 306.853 916.262C307.83 915.256 309.056 914.753 310.532 914.753C312.007 914.753 313.233 915.256 314.211 916.262C315.188 917.259 315.677 918.494 315.677 919.97C315.677 921.445 315.188 922.686 314.211 923.692ZM321.366 925H317.816V914.94H321.366C322.975 914.94 324.293 915.409 325.318 916.348C326.343 917.287 326.856 918.494 326.856 919.97C326.856 921.455 326.343 922.667 325.318 923.606C324.302 924.535 322.985 925 321.366 925ZM319.397 916.391V923.548H321.222C322.487 923.548 323.469 923.228 324.168 922.586C324.877 921.934 325.232 921.062 325.232 919.97C325.232 918.878 324.877 918.006 324.168 917.354C323.469 916.712 322.487 916.391 321.222 916.391H319.397ZM336.346 925H329.002V914.94H336.159V916.391H330.583V918.906H335.124V920.358H330.583V923.548H336.346V925ZM338.769 920.085C338.482 920.085 338.237 919.989 338.036 919.798C337.844 919.596 337.749 919.352 337.749 919.065C337.749 918.787 337.844 918.552 338.036 918.36C338.237 918.159 338.482 918.059 338.769 918.059C339.037 918.059 339.272 918.159 339.473 918.36C339.674 918.552 339.775 918.787 339.775 919.065C339.775 919.352 339.674 919.596 339.473 919.798C339.282 919.989 339.047 920.085 338.769 920.085ZM338.769 925.115C338.482 925.115 338.237 925.019 338.036 924.828C337.844 924.626 337.749 924.382 337.749 924.095C337.749 923.817 337.844 923.582 338.036 923.39C338.237 923.189 338.482 923.089 338.769 923.089C339.037 923.089 339.272 923.189 339.473 923.39C339.674 923.582 339.775 923.817 339.775 924.095C339.775 924.382 339.674 924.626 339.473 924.828C339.282 925.019 339.047 925.115 338.769 925.115ZM348.711 925.187C347.178 925.187 345.918 924.828 344.931 924.109V922.399C345.324 922.744 345.865 923.05 346.555 923.319C347.245 923.577 347.935 923.707 348.624 923.707C349.305 923.707 349.86 923.572 350.292 923.304C350.732 923.036 350.953 922.672 350.953 922.212C350.953 921.848 350.804 921.536 350.507 921.278C350.392 921.172 350.22 921.072 349.99 920.976C349.712 920.842 349.252 920.684 348.61 920.502L348.409 920.444C347.863 920.291 347.427 920.152 347.101 920.027C346.842 919.932 346.507 919.764 346.095 919.524C345.405 919.093 345.06 918.418 345.06 917.498C345.06 916.665 345.386 915.999 346.038 915.5C346.699 915.002 347.59 914.753 348.711 914.753C349.927 914.753 351.001 915.031 351.93 915.587V917.168C350.905 916.545 349.841 916.233 348.739 916.233C348.069 916.233 347.556 916.353 347.202 916.593C346.857 916.823 346.684 917.129 346.684 917.512C346.684 917.838 346.881 918.14 347.274 918.418C347.331 918.456 347.412 918.499 347.518 918.547C347.623 918.586 347.743 918.629 347.877 918.677C348.011 918.724 348.107 918.758 348.165 918.777L349.314 919.108C350.014 919.318 350.627 919.568 351.154 919.855C352.045 920.334 352.519 921.11 352.577 922.183C352.577 923.113 352.208 923.845 351.47 924.382C350.732 924.919 349.812 925.187 348.711 925.187ZM359.39 925.187C357.886 925.187 356.621 924.698 355.596 923.721C354.59 922.734 354.087 921.484 354.087 919.97C354.087 918.456 354.59 917.211 355.596 916.233C356.593 915.247 357.857 914.753 359.39 914.753C360.416 914.753 361.326 914.978 362.121 915.429V917.024C361.307 916.497 360.401 916.233 359.405 916.233C358.351 916.233 357.469 916.588 356.76 917.297C356.061 917.996 355.711 918.887 355.711 919.97C355.711 921.053 356.066 921.948 356.775 922.657C357.484 923.357 358.38 923.707 359.462 923.707C360.612 923.707 361.57 923.4 362.337 922.787V924.382C361.493 924.919 360.511 925.187 359.39 925.187ZM365.852 925H364.271V914.94H365.852V918.906H371.097V914.94H372.678V925H371.097V920.358H365.852V925ZM377.447 922.643C378.127 923.352 378.96 923.707 379.947 923.707C380.934 923.707 381.768 923.352 382.448 922.643C383.128 921.915 383.468 921.024 383.468 919.97C383.468 918.906 383.128 918.02 382.448 917.311C381.768 916.593 380.934 916.233 379.947 916.233C378.96 916.233 378.127 916.593 377.447 917.311C376.776 918.011 376.441 918.897 376.441 919.97C376.441 921.043 376.776 921.934 377.447 922.643ZM383.626 923.692C382.649 924.689 381.423 925.187 379.947 925.187C378.472 925.187 377.245 924.689 376.268 923.692C375.3 922.677 374.817 921.436 374.817 919.97C374.817 918.494 375.3 917.259 376.268 916.262C377.245 915.256 378.472 914.753 379.947 914.753C381.423 914.753 382.649 915.256 383.626 916.262C384.604 917.259 385.092 918.494 385.092 919.97C385.092 921.445 384.604 922.686 383.626 923.692ZM389.502 922.643C390.183 923.352 391.016 923.707 392.003 923.707C392.99 923.707 393.823 923.352 394.504 922.643C395.184 921.915 395.524 921.024 395.524 919.97C395.524 918.906 395.184 918.02 394.504 917.311C393.823 916.593 392.99 916.233 392.003 916.233C391.016 916.233 390.183 916.593 389.502 917.311C388.832 918.011 388.496 918.897 388.496 919.97C388.496 921.043 388.832 921.934 389.502 922.643ZM395.682 923.692C394.705 924.689 393.478 925.187 392.003 925.187C390.527 925.187 389.301 924.689 388.324 923.692C387.356 922.677 386.872 921.436 386.872 919.97C386.872 918.494 387.356 917.259 388.324 916.262C389.301 915.256 390.527 914.753 392.003 914.753C393.478 914.753 394.705 915.256 395.682 916.262C396.659 917.259 397.148 918.494 397.148 919.97C397.148 921.445 396.659 922.686 395.682 923.692ZM406.229 925H399.287V914.94H400.883V923.548H406.229V925ZM410.262 925.187C409.179 925.187 408.235 924.957 407.43 924.497V923.017C408.254 923.525 409.174 923.778 410.19 923.778C410.908 923.778 411.517 923.596 412.015 923.232C412.513 922.859 412.762 922.365 412.762 921.752C412.762 921.168 412.528 920.689 412.058 920.315C411.598 919.941 410.99 919.754 410.233 919.754C409.457 919.754 408.652 919.898 407.818 920.186L408.48 914.94H413.653V916.32H409.629L409.342 918.633C409.735 918.528 410.156 918.475 410.607 918.475C411.689 918.475 412.585 918.777 413.294 919.381C414.003 919.984 414.357 920.775 414.357 921.752C414.357 922.806 413.965 923.639 413.179 924.253C412.393 924.875 411.421 925.187 410.262 925.187ZM418.767 925.187C417.684 925.187 416.74 924.957 415.935 924.497V923.017C416.759 923.525 417.679 923.778 418.695 923.778C419.413 923.778 420.022 923.596 420.52 923.232C421.018 922.859 421.267 922.365 421.267 921.752C421.267 921.168 421.033 920.689 420.563 920.315C420.103 919.941 419.495 919.754 418.738 919.754C417.962 919.754 417.157 919.898 416.323 920.186L416.985 914.94H422.158V916.32H418.134L417.847 918.633C418.24 918.528 418.661 918.475 419.112 918.475C420.194 918.475 421.09 918.777 421.799 919.381C422.508 919.984 422.862 920.775 422.862 921.752C422.862 922.806 422.47 923.639 421.684 924.253C420.898 924.875 419.926 925.187 418.767 925.187ZM428.45 925.187C427.233 925.187 426.27 924.77 425.561 923.937C424.872 923.103 424.527 921.948 424.527 920.473C424.527 918.863 424.924 917.508 425.72 916.406C426.505 915.304 427.607 914.753 429.025 914.753C429.859 914.753 430.596 914.964 431.238 915.385V916.823C430.615 916.401 429.935 916.19 429.197 916.19C428.23 916.19 427.487 916.526 426.97 917.196C426.462 917.877 426.189 918.691 426.151 919.639C426.735 918.883 427.602 918.504 428.752 918.504C429.662 918.504 430.429 918.801 431.051 919.395C431.674 919.989 431.985 920.76 431.985 921.709C431.985 922.734 431.645 923.572 430.965 924.224C430.294 924.866 429.456 925.187 428.45 925.187ZM428.349 923.793C428.953 923.793 429.447 923.601 429.83 923.218C430.223 922.825 430.419 922.332 430.419 921.738C430.419 921.153 430.218 920.684 429.815 920.329C429.423 919.965 428.929 919.783 428.335 919.783C427.846 919.783 427.382 919.936 426.941 920.243C426.52 920.55 426.242 920.928 426.108 921.378C426.165 922.135 426.39 922.729 426.783 923.16C427.176 923.582 427.698 923.793 428.349 923.793Z" fill="black"/>
<path d="M237.427 878H236.072V869.377H240.001C240.888 869.377 241.582 869.603 242.083 870.055C242.592 870.514 242.847 871.106 242.847 871.828C242.847 872.428 242.678 872.941 242.342 873.368C242.013 873.787 241.558 874.066 240.974 874.206L243.684 878H242.046L239.447 874.354H237.427V878ZM237.427 870.621V873.159H239.915C240.408 873.159 240.79 873.048 241.061 872.826C241.34 872.605 241.479 872.288 241.479 871.878C241.479 871.484 241.34 871.176 241.061 870.954C240.79 870.732 240.408 870.621 239.915 870.621H237.427ZM246.523 878H245.168V869.377H246.523V878ZM252.977 878.16C251.687 878.16 250.603 877.741 249.724 876.904C248.862 876.058 248.431 874.986 248.431 873.689C248.431 872.391 248.862 871.323 249.724 870.486C250.579 869.64 251.663 869.217 252.977 869.217C253.855 869.217 254.635 869.41 255.317 869.796V871.163C254.619 870.712 253.843 870.486 252.989 870.486C252.086 870.486 251.33 870.79 250.722 871.397C250.123 871.997 249.823 872.761 249.823 873.689C249.823 874.617 250.127 875.384 250.735 875.992C251.342 876.592 252.11 876.891 253.038 876.891C254.024 876.891 254.845 876.629 255.502 876.103V877.47C254.779 877.93 253.937 878.16 252.977 878.16ZM258.986 875.98C259.569 876.587 260.283 876.891 261.129 876.891C261.975 876.891 262.69 876.587 263.273 875.98C263.856 875.356 264.147 874.592 264.147 873.689C264.147 872.777 263.856 872.017 263.273 871.41C262.69 870.794 261.975 870.486 261.129 870.486C260.283 870.486 259.569 870.794 258.986 871.41C258.411 872.009 258.124 872.769 258.124 873.689C258.124 874.608 258.411 875.372 258.986 875.98ZM264.283 876.879C263.445 877.733 262.394 878.16 261.129 878.16C259.865 878.16 258.813 877.733 257.976 876.879C257.146 876.009 256.732 874.945 256.732 873.689C256.732 872.424 257.146 871.364 257.976 870.51C258.813 869.648 259.865 869.217 261.129 869.217C262.394 869.217 263.445 869.648 264.283 870.51C265.12 871.364 265.539 872.424 265.539 873.689C265.539 874.953 265.12 876.017 264.283 876.879ZM266.094 870.621V869.377H273.153V870.621H270.295V878H268.94V870.621H266.094ZM273.962 870.621V869.377H281.02V870.621H278.162V878H276.807V870.621H273.962ZM281.908 878H280.467L284.236 869.328H285.542L289.311 878H287.858L286.922 875.857H282.832L281.908 878ZM284.877 871.04L283.3 874.662H286.453L284.877 871.04ZM296.893 878H293.85V869.377H296.893C298.273 869.377 299.402 869.779 300.281 870.584C301.159 871.389 301.599 872.424 301.599 873.689C301.599 874.961 301.159 876 300.281 876.805C299.41 877.602 298.281 878 296.893 878ZM295.205 870.621V876.756H296.77C297.854 876.756 298.696 876.481 299.295 875.931C299.903 875.372 300.207 874.625 300.207 873.689C300.207 872.752 299.903 872.005 299.295 871.447C298.696 870.896 297.854 870.621 296.77 870.621H295.205ZM304.855 878H303.5V869.377H304.855V878ZM242.022 896H236.072V887.377H237.439V894.756H242.022V896ZM244.099 896H242.657L246.427 887.328H247.732L251.502 896H250.048L249.112 893.857H245.022L244.099 896ZM247.067 889.04L245.49 892.662H248.644L247.067 889.04ZM250.949 888.621V887.377H258.007V888.621H255.149V896H253.794V888.621H250.949ZM265.111 896H262.068V887.377H265.111C266.49 887.377 267.619 887.779 268.498 888.584C269.377 889.389 269.816 890.424 269.816 891.689C269.816 892.961 269.377 894 268.498 894.805C267.628 895.602 266.498 896 265.111 896ZM263.423 888.621V894.756H264.987C266.071 894.756 266.913 894.481 267.513 893.931C268.12 893.372 268.424 892.625 268.424 891.689C268.424 890.752 268.12 890.005 267.513 889.447C266.913 888.896 266.071 888.621 264.987 888.621H263.423ZM273.072 896H271.717V887.377H273.072V896ZM279.526 896.16C278.237 896.16 277.153 895.741 276.274 894.904C275.412 894.058 274.981 892.986 274.981 891.689C274.981 890.391 275.412 889.323 276.274 888.486C277.128 887.64 278.212 887.217 279.526 887.217C280.405 887.217 281.185 887.41 281.867 887.796V889.163C281.169 888.712 280.393 888.486 279.538 888.486C278.635 888.486 277.88 888.79 277.272 889.397C276.672 889.997 276.373 890.761 276.373 891.689C276.373 892.617 276.676 893.384 277.284 893.992C277.892 894.592 278.66 894.891 279.588 894.891C280.573 894.891 281.394 894.629 282.051 894.103V895.47C281.329 895.93 280.487 896.16 279.526 896.16ZM284.35 896H282.909L286.678 887.328H287.984L291.753 896H290.3L289.364 893.857H285.274L284.35 896ZM287.319 889.04L285.742 892.662H288.895L287.319 889.04ZM294.448 896H293.093V887.377H297.022C297.909 887.377 298.603 887.603 299.104 888.055C299.613 888.514 299.868 889.106 299.868 889.828C299.868 890.428 299.699 890.941 299.363 891.368C299.034 891.787 298.578 892.066 297.995 892.206L300.705 896H299.067L296.468 892.354H294.448V896ZM294.448 888.621V891.159H296.936C297.429 891.159 297.811 891.048 298.082 890.826C298.361 890.605 298.5 890.288 298.5 889.878C298.5 889.484 298.361 889.176 298.082 888.954C297.811 888.732 297.429 888.621 296.936 888.621H294.448ZM303.482 896H302.127V887.377H306.056C306.943 887.377 307.637 887.603 308.138 888.055C308.647 888.514 308.902 889.106 308.902 889.828C308.902 890.428 308.734 890.941 308.397 891.368C308.069 891.787 307.613 892.066 307.03 892.206L309.74 896H308.101L305.502 892.354H303.482V896ZM303.482 888.621V891.159H305.97C306.463 891.159 306.845 891.048 307.116 890.826C307.395 890.605 307.535 890.288 307.535 889.878C307.535 889.484 307.395 889.176 307.116 888.954C306.845 888.732 306.463 888.621 305.97 888.621H303.482ZM311.802 896H310.361L314.13 887.328H315.436L319.205 896H317.752L316.815 893.857H312.726L311.802 896ZM314.771 889.04L313.194 892.662H316.347L314.771 889.04Z" fill="black"/>
<path d="M608.216 231.924H597.796L598.098 230.099H608.518L608.216 231.924Z" fill="black"/>
<path d="M261 787L266 785" stroke="black"/>
<path d="M736 1H1.82123L1 955H736V1Z" stroke="black" stroke-width="2"/>
<path d="M37 52H701" stroke="black"/>
<path d="M37 214H701" stroke="black" stroke-width="2"/>
<path d="M37 248H701" stroke="black" stroke-width="2"/>
<path d="M136 20H138V42H136V20Z" fill="black"/>
<path d="M131 20H134V42H131V20Z" fill="black"/>
<path d="M123 20H125V42H123V20Z" fill="black"/>
<path d="M116 20H121V42H116V20Z" fill="black"/>
<path d="M110 20H112V42H110V20Z" fill="black"/>
<path d="M106 20H108V42H106V20Z" fill="black"/>
<path d="M102 20H104V42H102V20Z" fill="black"/>
<path d="M95 20H99V42H95V20Z" fill="black"/>
<path d="M89 20H91V42H89V20Z" fill="black"/>
<path d="M83 20H87V42H83V20Z" fill="black"/>
<path d="M76 20H78V42H76V20Z" fill="black"/>
<path d="M72 20H74V42H72V20Z" fill="black"/>
<path d="M65 20H69V42H65V20Z" fill="black"/>
<path d="M59 20H62V42H59V20Z" fill="black"/>
<path d="M79 20H82V42H79V20Z" fill="black"/>
<path d="M54 20H56V42H54V20Z" fill="black"/>
<path d="M48 20H51V42H48V20Z" fill="black"/>
<path d="M41 20H43V42H41V20Z" fill="black"/>
<path d="M44 20H45V42H44V20Z" fill="black"/>
<path d="M91 20H92V42H91V20Z" fill="black"/>
<path d="M115 20H116V42H115V20Z" fill="black"/>
<path d="M126 20H127V42H126V20Z" fill="black"/>
<path d="M37 20H39V42H37V20Z" fill="black"/>
<path d="M161.659 43.0509H160.411L157.382 34.0897H158.948L161.073 40.7851L163.237 34.0769H164.345L166.509 40.7851L168.634 34.0897H170.175L167.132 43.0509H165.898L163.785 36.4191L161.659 43.0509ZM175.221 43.0509H173.973L170.944 34.0897H172.509L174.635 40.7851L176.799 34.0769H177.907L180.071 40.7851L182.196 34.0897H183.736L180.694 43.0509H179.46L177.346 36.4191L175.221 43.0509ZM188.783 43.0509H187.535L184.506 34.0897H186.071L188.197 40.7851L190.361 34.0769H191.468L193.632 40.7851L195.758 34.0897H197.298L194.256 43.0509H193.021L190.908 36.4191L188.783 43.0509ZM198.022 43.1018C197.767 43.1018 197.551 43.017 197.372 42.8473C197.203 42.669 197.118 42.4527 197.118 42.1981C197.118 41.952 197.203 41.7441 197.372 41.5743C197.551 41.3961 197.767 41.307 198.022 41.307C198.259 41.307 198.467 41.3961 198.645 41.5743C198.824 41.7441 198.913 41.952 198.913 42.1981C198.913 42.4527 198.824 42.669 198.645 42.8473C198.476 43.017 198.268 43.1018 198.022 43.1018ZM198.752 35.3753V34.0897H206.046V35.3753H203.093V43H201.693V35.3753H198.752ZM208.946 40.9124C209.549 41.5404 210.287 41.8544 211.161 41.8544C212.035 41.8544 212.774 41.5404 213.376 40.9124C213.979 40.2675 214.28 39.4783 214.28 38.5448C214.28 37.6029 213.979 36.8179 213.376 36.19C212.774 35.5535 212.035 35.2353 211.161 35.2353C210.287 35.2353 209.549 35.5535 208.946 36.19C208.352 36.8094 208.055 37.5944 208.055 38.5448C208.055 39.4953 208.352 40.2845 208.946 40.9124ZM214.42 41.8417C213.554 42.7242 212.468 43.1655 211.161 43.1655C209.854 43.1655 208.768 42.7242 207.903 41.8417C207.046 40.9421 206.617 39.8432 206.617 38.5448C206.617 37.238 207.046 36.1433 207.903 35.2607C208.768 34.3697 209.854 33.9242 211.161 33.9242C212.468 33.9242 213.554 34.3697 214.42 35.2607C215.286 36.1433 215.718 37.238 215.718 38.5448C215.718 39.8517 215.286 40.9506 214.42 41.8417ZM220.757 43H217.613V34.0897H220.757C222.183 34.0897 223.35 34.5055 224.258 35.3371C225.166 36.1687 225.62 37.238 225.62 38.5448C225.62 39.8602 225.166 40.9337 224.258 41.7653C223.358 42.5884 222.191 43 220.757 43ZM219.013 35.3753V41.7144H220.63C221.75 41.7144 222.62 41.4301 223.239 40.8615C223.867 40.2845 224.181 39.5122 224.181 38.5448C224.181 37.5774 223.867 36.8052 223.239 36.2281C222.62 35.6596 221.75 35.3753 220.63 35.3753H219.013ZM227.548 43H226.059L229.954 34.0387H231.304L235.199 43H233.697L232.729 40.7851H228.503L227.548 43ZM230.616 35.8081L228.987 39.5504H232.245L230.616 35.8081ZM239.31 43H237.91V38.9649L234.461 34.0897H236.09L238.636 37.692L241.181 34.0897H242.76L239.31 38.9267V43ZM245.441 43H244.066V34.0897H245.288L250.316 40.5433V34.0897H251.691V43H250.507L245.441 36.5209V43ZM260.415 43H253.911V34.0897H260.25V35.3753H255.311V37.6029H259.334V38.8885H255.311V41.7144H260.415V43ZM265.617 43.0509H264.369L261.34 34.0897H262.906L265.031 40.7851L267.195 34.0769H268.303L270.467 40.7851L272.592 34.0897H274.133L271.09 43.0509H269.856L267.743 36.4191L265.617 43.0509ZM278.441 43.1655C277.083 43.1655 275.967 42.8473 275.093 42.2108V40.696C275.441 41.0015 275.92 41.2731 276.531 41.5107C277.142 41.7398 277.753 41.8544 278.364 41.8544C278.967 41.8544 279.459 41.7356 279.841 41.498C280.231 41.2604 280.426 40.9379 280.426 40.5306C280.426 40.2081 280.295 39.9323 280.032 39.7032C279.93 39.6098 279.777 39.5207 279.573 39.4359C279.327 39.3171 278.92 39.177 278.351 39.0158L278.173 38.9649C277.689 38.8291 277.303 38.7061 277.015 38.5957C276.786 38.5109 276.489 38.3624 276.124 38.1502C275.513 37.7684 275.207 37.1701 275.207 36.3554C275.207 35.6172 275.496 35.0274 276.073 34.5861C276.658 34.1448 277.448 33.9242 278.441 33.9242C279.518 33.9242 280.469 34.1703 281.292 34.6625V36.0627C280.384 35.5111 279.442 35.2353 278.466 35.2353C277.872 35.2353 277.418 35.3414 277.104 35.5535C276.798 35.7572 276.646 36.0287 276.646 36.3682C276.646 36.6567 276.82 36.924 277.168 37.1701C277.219 37.204 277.291 37.2422 277.384 37.2847C277.477 37.3186 277.583 37.3568 277.702 37.3992C277.821 37.4416 277.906 37.4713 277.957 37.4883L278.975 37.7811C279.595 37.9678 280.138 38.1884 280.604 38.443C281.394 38.8673 281.814 39.5547 281.865 40.5051C281.865 41.3283 281.538 41.9774 280.884 42.4527C280.231 42.9279 279.416 43.1655 278.441 43.1655ZM284.03 43.1018C283.775 43.1018 283.559 43.017 283.381 42.8473C283.211 42.669 283.126 42.4527 283.126 42.1981C283.126 41.952 283.211 41.7441 283.381 41.5743C283.559 41.3961 283.775 41.307 284.03 41.307C284.267 41.307 284.475 41.3961 284.653 41.5743C284.832 41.7441 284.921 41.952 284.921 42.1981C284.921 42.4527 284.832 42.669 284.653 42.8473C284.484 43.017 284.276 43.1018 284.03 43.1018ZM290.199 43.1655C288.867 43.1655 287.747 42.7327 286.839 41.8671C285.948 40.9931 285.502 39.8856 285.502 38.5448C285.502 37.204 285.948 36.1009 286.839 35.2353C287.721 34.3612 288.842 33.9242 290.199 33.9242C291.107 33.9242 291.914 34.1236 292.618 34.5225V35.9354C291.897 35.4686 291.095 35.2353 290.212 35.2353C289.279 35.2353 288.498 35.5493 287.87 36.1772C287.25 36.7967 286.941 37.5859 286.941 38.5448C286.941 39.5038 287.255 40.2972 287.883 40.9252C288.511 41.5446 289.304 41.8544 290.263 41.8544C291.281 41.8544 292.13 41.5828 292.809 41.0397V42.4527C292.062 42.9279 291.192 43.1655 290.199 43.1655ZM296.409 40.9124C297.011 41.5404 297.75 41.8544 298.624 41.8544C299.498 41.8544 300.236 41.5404 300.839 40.9124C301.441 40.2675 301.742 39.4783 301.742 38.5448C301.742 37.6029 301.441 36.8179 300.839 36.19C300.236 35.5535 299.498 35.2353 298.624 35.2353C297.75 35.2353 297.011 35.5535 296.409 36.19C295.815 36.8094 295.518 37.5944 295.518 38.5448C295.518 39.4953 295.815 40.2845 296.409 40.9124ZM301.882 41.8417C301.017 42.7242 299.931 43.1655 298.624 43.1655C297.317 43.1655 296.231 42.7242 295.365 41.8417C294.508 40.9421 294.08 39.8432 294.08 38.5448C294.08 37.238 294.508 36.1433 295.365 35.2607C296.231 34.3697 297.317 33.9242 298.624 33.9242C299.931 33.9242 301.017 34.3697 301.882 35.2607C302.748 36.1433 303.181 37.238 303.181 38.5448C303.181 39.8517 302.748 40.9506 301.882 41.8417ZM306.476 43H305.076V34.0897H306.501L309.391 38.0993L312.255 34.0897H313.655V43H312.255V36.2281L309.773 39.5886H308.958L306.476 36.2281V43Z" fill="black"/>
<path d="M88.2352 889.454L87.7252 892.559C87.1635 892.174 86.3948 891.827 85.4192 891.516C84.5323 891.236 83.6232 891.095 82.6919 891.095C81.8197 891.095 81.1324 891.236 80.6298 891.516C80.142 891.797 79.8981 892.204 79.8981 892.736C79.8981 893.135 80.1494 893.46 80.652 893.712L81.4058 894.022L82.448 894.332L83.5566 894.665C84.8279 895.094 85.8183 895.589 86.5278 896.151C87.4148 896.816 87.8582 897.762 87.8582 898.989C87.8582 900.467 87.3261 901.672 86.2618 902.603C85.1827 903.549 83.8449 904.096 82.2484 904.244L81.9158 906.417H79.0333L79.3659 904.177C77.5625 903.941 76.1656 903.431 75.1752 902.647L75.6852 899.388C76.2617 899.964 77.0599 900.438 78.0799 900.807C79.1442 901.191 80.2085 901.384 81.2728 901.384C81.7754 901.384 82.2484 901.339 82.6919 901.251C83.1797 901.132 83.6084 900.911 83.9779 900.585C84.3475 900.26 84.5323 899.868 84.5323 899.41C84.5323 898.908 84.281 898.523 83.7784 898.257C83.4827 898.08 83.2019 897.954 82.9358 897.88L82.448 897.703C82.3593 897.673 82.1597 897.614 81.8493 897.525C81.5537 897.437 81.3689 897.378 81.295 897.348C80.4524 897.082 79.8537 896.875 79.4989 896.727C79.0407 896.535 78.5751 896.284 78.102 895.973C77.1116 895.367 76.6164 894.406 76.6164 893.091C76.6164 891.642 77.1042 890.511 78.0799 889.698C79.0851 888.87 80.3563 888.383 81.8937 888.235L82.2484 886.062H85.1309L84.7762 888.324C86.1361 888.516 87.2891 888.893 88.2352 889.454ZM94.9072 904H91.7808L93.7099 891.893L90.1622 893.556L90.65 890.43L94.5968 888.479H97.3685L94.9072 904ZM103.763 898.656C102.403 898.627 101.317 898.191 100.504 897.348C99.6757 896.476 99.2618 895.389 99.2618 894.089C99.2618 892.389 99.8236 890.977 100.947 889.854C102.07 888.73 103.534 888.168 105.337 888.168C107.096 888.168 108.478 888.737 109.484 889.876C110.474 890.999 110.969 892.463 110.969 894.266C110.969 896.927 110.252 899.255 108.818 901.251C108.139 902.197 107.281 902.943 106.246 903.49C105.212 904.037 104.088 904.31 102.876 904.31C101.28 904.31 100.008 903.926 99.0623 903.157L99.5057 900.297C100.407 901.051 101.516 901.428 102.832 901.428C104 901.428 105.005 901.029 105.847 900.231C106.705 899.418 107.222 898.412 107.399 897.215C106.527 898.176 105.315 898.656 103.763 898.656ZM102.41 893.8C102.41 894.495 102.632 895.064 103.076 895.508C103.519 895.951 104.103 896.173 104.827 896.173C105.419 896.173 105.988 895.995 106.535 895.641C107.096 895.271 107.532 894.798 107.843 894.222C107.872 894.015 107.887 893.874 107.887 893.8C107.887 892.958 107.636 892.27 107.133 891.738C106.631 891.191 105.98 890.918 105.182 890.918C104.369 890.918 103.704 891.191 103.186 891.738C102.669 892.27 102.41 892.958 102.41 893.8ZM113.138 904.244C112.591 904.244 112.133 904.059 111.764 903.69C111.394 903.305 111.209 902.84 111.209 902.293C111.209 901.761 111.394 901.31 111.764 900.94C112.133 900.556 112.591 900.364 113.138 900.364C113.656 900.364 114.099 900.556 114.469 900.94C114.853 901.31 115.045 901.761 115.045 902.293C115.045 902.84 114.853 903.305 114.469 903.69C114.099 904.059 113.656 904.244 113.138 904.244ZM123.879 888.168C125.756 888.168 127.234 888.811 128.313 890.097C129.392 891.354 129.932 893.032 129.932 895.131C129.932 897.378 129.296 899.44 128.025 901.317C127.404 902.234 126.606 902.965 125.63 903.512C124.669 904.044 123.635 904.31 122.526 904.31C120.663 904.31 119.185 903.675 118.091 902.404C117.012 901.132 116.473 899.447 116.473 897.348C116.473 895.072 117.108 893.009 118.38 891.162C119 890.245 119.791 889.521 120.752 888.989C121.728 888.442 122.77 888.168 123.879 888.168ZM122.659 901.317C123.487 901.317 124.226 900.984 124.876 900.319C126.118 899.063 126.739 897.355 126.739 895.197C126.739 894.059 126.488 893.106 125.985 892.337C125.497 891.553 124.751 891.162 123.746 891.162C122.903 891.162 122.156 891.494 121.506 892.16C120.279 893.446 119.666 895.153 119.666 897.282C119.666 898.42 119.91 899.381 120.397 900.164C120.9 900.933 121.654 901.317 122.659 901.317ZM139.491 888.168C141.368 888.168 142.846 888.811 143.925 890.097C145.004 891.354 145.544 893.032 145.544 895.131C145.544 897.378 144.908 899.44 143.637 901.317C143.016 902.234 142.218 902.965 141.242 903.512C140.282 904.044 139.247 904.31 138.138 904.31C136.276 904.31 134.797 903.675 133.704 902.404C132.624 901.132 132.085 899.447 132.085 897.348C132.085 895.072 132.721 893.009 133.992 891.162C134.613 890.245 135.403 889.521 136.364 888.989C137.34 888.442 138.382 888.168 139.491 888.168ZM138.271 901.317C139.099 901.317 139.838 900.984 140.489 900.319C141.73 899.063 142.351 897.355 142.351 895.197C142.351 894.059 142.1 893.106 141.597 892.337C141.109 891.553 140.363 891.162 139.358 891.162C138.515 891.162 137.769 891.494 137.118 892.16C135.891 893.446 135.278 895.153 135.278 897.282C135.278 898.42 135.522 899.381 136.01 900.164C136.512 900.933 137.266 901.317 138.271 901.317Z" fill="black"/>
<path d="M361.547 878.158L361.062 881.112C360.527 880.746 359.795 880.416 358.867 880.12C358.023 879.853 357.158 879.719 356.272 879.719C355.442 879.719 354.787 879.853 354.309 880.12C353.845 880.387 353.613 880.774 353.613 881.281C353.613 881.66 353.852 881.97 354.33 882.209L355.048 882.505L356.039 882.8L357.095 883.116C358.304 883.524 359.247 883.996 359.922 884.53C360.766 885.163 361.188 886.064 361.188 887.231C361.188 888.638 360.682 889.784 359.669 890.671C358.642 891.571 357.369 892.091 355.85 892.232L355.533 894.3H352.79L353.106 892.169C351.39 891.944 350.061 891.458 349.118 890.713L349.604 887.611C350.152 888.16 350.912 888.61 351.883 888.961C352.895 889.327 353.908 889.51 354.921 889.51C355.399 889.51 355.85 889.468 356.272 889.383C356.736 889.271 357.144 889.06 357.495 888.75C357.847 888.441 358.023 888.068 358.023 887.632C358.023 887.154 357.784 886.788 357.306 886.535C357.024 886.366 356.757 886.246 356.504 886.176L356.039 886.007C355.955 885.979 355.765 885.923 355.47 885.839C355.188 885.754 355.013 885.698 354.942 885.67C354.14 885.416 353.571 885.22 353.233 885.079C352.797 884.896 352.354 884.657 351.904 884.361C350.961 883.785 350.49 882.87 350.49 881.618C350.49 880.24 350.954 879.164 351.883 878.39C352.839 877.602 354.049 877.138 355.512 876.997L355.85 874.929H358.593L358.255 877.082C359.549 877.264 360.647 877.623 361.547 878.158ZM363.739 881.344L364.246 878.2C365.442 877.356 366.848 876.934 368.466 876.934C369.859 876.934 371.026 877.342 371.969 878.158C372.911 878.974 373.383 880.057 373.383 881.407C373.383 882.392 373.08 883.327 372.475 884.214C371.884 885.086 370.921 886.057 369.584 887.126L366.799 889.341H373.003L372.602 892H362.072L362.431 889.784L367.242 885.86C368.382 884.931 369.176 884.193 369.627 883.644C370.091 883.081 370.323 882.49 370.323 881.872C370.323 881.21 370.105 880.697 369.669 880.331C369.233 879.965 368.635 879.783 367.875 879.783C366.454 879.783 365.076 880.303 363.739 881.344ZM380.602 882.209C382.135 882.209 383.366 882.652 384.294 883.538C385.237 884.425 385.708 885.515 385.708 886.809C385.708 888.525 385.082 889.869 383.83 890.839C382.592 891.81 381.024 892.295 379.125 892.295C377.254 892.295 375.756 891.902 374.63 891.114L375.052 888.244C376.304 889.13 377.655 889.573 379.104 889.573C380.046 889.573 380.869 889.362 381.572 888.94C382.29 888.504 382.649 887.836 382.649 886.936C382.649 886.246 382.367 885.698 381.805 885.29C381.242 884.868 380.447 884.657 379.42 884.657C378.407 884.657 377.296 884.826 376.086 885.163L378.196 877.229H386.194L385.814 879.846H380.095L379.42 882.315C379.842 882.244 380.236 882.209 380.602 882.209ZM388.914 892.232C388.393 892.232 387.957 892.056 387.605 891.705C387.254 891.339 387.078 890.896 387.078 890.375C387.078 889.869 387.254 889.44 387.605 889.088C387.957 888.722 388.393 888.539 388.914 888.539C389.406 888.539 389.828 888.722 390.18 889.088C390.546 889.44 390.728 889.869 390.728 890.375C390.728 890.896 390.546 891.339 390.18 891.705C389.828 892.056 389.406 892.232 388.914 892.232ZM399.135 876.934C400.921 876.934 402.328 877.546 403.355 878.77C404.382 879.965 404.895 881.562 404.895 883.56C404.895 885.698 404.29 887.66 403.081 889.447C402.49 890.319 401.73 891.015 400.802 891.536C399.887 892.042 398.903 892.295 397.848 892.295C396.075 892.295 394.668 891.691 393.627 890.481C392.6 889.271 392.087 887.667 392.087 885.67C392.087 883.503 392.692 881.541 393.902 879.783C394.492 878.91 395.245 878.221 396.159 877.715C397.088 877.194 398.08 876.934 399.135 876.934ZM397.974 889.447C398.762 889.447 399.465 889.13 400.084 888.497C401.266 887.302 401.857 885.677 401.857 883.623C401.857 882.54 401.618 881.632 401.139 880.901C400.675 880.155 399.965 879.783 399.008 879.783C398.206 879.783 397.496 880.099 396.877 880.732C395.709 881.956 395.126 883.581 395.126 885.606C395.126 886.69 395.358 887.604 395.822 888.35C396.3 889.081 397.018 889.447 397.974 889.447ZM413.992 876.934C415.779 876.934 417.185 877.546 418.212 878.77C419.239 879.965 419.753 881.562 419.753 883.56C419.753 885.698 419.148 887.66 417.938 889.447C417.347 890.319 416.587 891.015 415.659 891.536C414.745 892.042 413.76 892.295 412.705 892.295C410.932 892.295 409.526 891.691 408.485 890.481C407.458 889.271 406.944 887.667 406.944 885.67C406.944 883.503 407.549 881.541 408.759 879.783C409.35 878.91 410.102 878.221 411.017 877.715C411.945 877.194 412.937 876.934 413.992 876.934ZM412.831 889.447C413.619 889.447 414.323 889.13 414.942 888.497C416.123 887.302 416.714 885.677 416.714 883.623C416.714 882.54 416.475 881.632 415.997 880.901C415.532 880.155 414.822 879.783 413.865 879.783C413.064 879.783 412.353 880.099 411.734 880.732C410.567 881.956 409.983 883.581 409.983 885.606C409.983 886.69 410.215 887.604 410.679 888.35C411.157 889.081 411.875 889.447 412.831 889.447Z" fill="black"/>
<rect x="38" y="60" width="662" height="142" rx="11" stroke="black" stroke-width="2"/>
<path d="M171 153.223H20V193H171L158.485 172.907L171 153.223Z" fill="white"/>
<path d="M36.6894 134L27.8988 144.099L20 153.223M20 153.223H171L158.485 172.907L171 193H20V153.223Z" stroke="black" stroke-width="2"/>
<rect x="38" y="271" width="145" height="152" rx="11" stroke="black" stroke-width="2"/>
<path d="M77.0892 163.451L76.3336 168.05C75.5015 167.48 74.3627 166.966 72.9173 166.506C71.6034 166.09 70.2565 165.882 68.8769 165.882C67.5848 165.882 66.5665 166.09 65.8219 166.506C65.0992 166.922 64.7379 167.524 64.7379 168.313C64.7379 168.904 65.1102 169.386 65.8547 169.758L66.9716 170.218L68.5155 170.678L70.158 171.171C72.0413 171.806 73.5086 172.539 74.5598 173.371C75.8737 174.357 76.5307 175.758 76.5307 177.576C76.5307 180.007 75.5781 181.934 73.6729 183.358C71.7895 184.759 69.4572 185.46 66.676 185.46C64.9459 185.46 63.2706 185.241 61.6501 184.803C60.0295 184.365 58.7265 183.763 57.741 182.996L58.4965 178.167C59.3506 179.021 60.5332 179.722 62.0442 180.27C63.621 180.839 65.1978 181.124 66.7745 181.124C67.5191 181.124 68.2199 181.058 68.8769 180.927C69.5996 180.752 70.2346 180.423 70.7821 179.941C71.3296 179.459 71.6034 178.879 71.6034 178.2C71.6034 177.456 71.2311 176.886 70.4865 176.492C70.0485 176.229 69.6324 176.043 69.2382 175.934L68.5155 175.671C68.3841 175.627 68.0885 175.539 67.6286 175.408C67.1906 175.277 66.9169 175.189 66.8074 175.145C65.5591 174.751 64.6722 174.444 64.1466 174.225C63.4677 173.941 62.7779 173.568 62.0771 173.109C60.6098 172.211 59.8762 170.787 59.8762 168.838C59.8762 166.473 60.7631 164.666 62.537 163.418C64.3546 162.17 66.5993 161.546 69.2711 161.546C72.337 161.546 74.943 162.181 77.0892 163.451ZM95.3502 181.518C95.5692 181.518 95.843 181.463 96.1714 181.354L95.6459 184.704C95.0327 185.099 94.2224 185.296 93.215 185.296C91.2222 185.296 90.0396 184.617 89.6673 183.259C88.1782 184.704 86.3605 185.427 84.2144 185.427C82.4405 185.427 81.017 184.956 79.944 184.015C78.8709 183.073 78.3344 181.846 78.3344 180.335C78.3344 178.54 78.9913 177.127 80.3053 176.098C81.6631 175.069 83.2727 174.554 85.1341 174.554C87.0613 174.554 88.8023 174.97 90.3571 175.802C90.4447 175.255 90.4885 174.861 90.4885 174.62C90.4885 172.846 89.0979 171.959 86.3167 171.959C84.5866 171.959 82.9442 172.331 81.3893 173.076L81.9806 169.232C83.6231 168.532 85.5393 168.181 87.7292 168.181C89.8535 168.181 91.6164 168.652 93.0179 169.594C94.4195 170.535 95.1203 172.003 95.1203 173.996C95.1203 174.543 95.0436 175.2 94.8903 175.966L94.3647 179.153C94.2552 179.876 94.2005 180.303 94.2005 180.434C94.2005 181.157 94.5837 181.518 95.3502 181.518ZM89.6016 180.237L89.9301 178.529C88.9665 177.872 87.7621 177.543 86.3167 177.543C85.3093 177.543 84.4881 177.751 83.853 178.167C83.2398 178.583 82.9332 179.175 82.9332 179.941C82.9332 180.576 83.1851 181.069 83.6888 181.419C84.2144 181.748 84.9261 181.912 85.824 181.912C86.5466 181.912 87.2584 181.759 87.9592 181.452C88.6599 181.124 89.2074 180.719 89.6016 180.237ZM102.037 162.006H106.669L103.942 179.186C103.855 179.799 103.811 180.16 103.811 180.27C103.811 180.971 104.216 181.321 105.026 181.321C105.442 181.321 105.848 181.233 106.242 181.058L105.683 184.869C104.939 185.241 103.997 185.427 102.858 185.427C101.632 185.427 100.679 185.109 100 184.474C99.3434 183.839 99.015 182.92 99.015 181.715C99.015 181.365 99.0807 180.708 99.212 179.744L102.037 162.006ZM118.291 181.485C120.087 181.485 121.828 181.036 123.514 180.138L122.956 183.949C121.554 184.934 119.616 185.427 117.141 185.427C114.71 185.427 112.685 184.704 111.064 183.259C109.466 181.814 108.666 179.908 108.666 177.543C108.666 174.915 109.531 172.703 111.261 170.908C113.013 169.09 115.203 168.181 117.831 168.181C120.087 168.181 121.883 168.849 123.218 170.185C124.576 171.543 125.255 173.218 125.255 175.211C125.255 176.087 125.156 177.04 124.959 178.069H113.134C113.199 179.164 113.703 180.007 114.645 180.598C115.586 181.189 116.802 181.485 118.291 181.485ZM113.462 175.112H120.788V174.882C120.788 173.963 120.503 173.229 119.933 172.682C119.386 172.112 118.619 171.827 117.634 171.827C116.627 171.827 115.74 172.123 114.973 172.714C114.207 173.284 113.703 174.083 113.462 175.112ZM142.241 170.054L141.616 173.897C139.821 172.583 137.861 171.926 135.736 171.926C133.985 171.926 133.109 172.364 133.109 173.24C133.109 173.634 133.317 173.941 133.733 174.16C134.149 174.379 135.123 174.718 136.656 175.178C138.321 175.66 139.547 176.284 140.335 177.051C141.146 177.795 141.551 178.748 141.551 179.908C141.551 181.682 140.806 183.051 139.317 184.015C137.85 184.956 136.109 185.427 134.094 185.427C132.714 185.427 131.335 185.252 129.955 184.901C128.597 184.529 127.502 184.058 126.67 183.489L127.261 179.58C129.123 180.96 131.378 181.649 134.028 181.649C135.89 181.649 136.82 181.179 136.82 180.237C136.82 179.777 136.459 179.416 135.736 179.153C135.43 179 134.707 178.737 133.568 178.364C131.751 177.817 130.404 177.193 129.528 176.492C128.674 175.769 128.247 174.861 128.247 173.766C128.247 171.948 128.948 170.568 130.349 169.627C131.773 168.663 133.514 168.181 135.572 168.181C138.288 168.181 140.511 168.805 142.241 170.054Z" fill="black"/>
<rect x="38" y="440" width="145" height="152" rx="11" stroke="black" stroke-width="2"/>
<rect x="38" y="608" width="145" height="152" rx="11" stroke="black" stroke-width="2"/>
<rect x="38" y="777" width="145" height="152" rx="11" stroke="black" stroke-width="2"/>
<rect x="387" y="429" width="317" height="195" rx="11" stroke="black" stroke-width="2"/>
<path d="M663.573 611.815L666.964 613.792L666.614 612.128L664.249 611.811L661.363 609.664L661.409 616.164L666.986 616.958L670.013 615.27M670.013 615.27L668.63 610.613L661.36 609.164L661.021 609L664.208 605.978L674.017 608.409L670.013 615.27Z" stroke="black"/>
<path d="M630 572C630.763 572.05 632.607 572.315 633.879 572.973C635.469 573.795 646.764 578.216 652.048 578.846" stroke="black"/>
<path d="M675.601 585.148C681.166 586.045 692.405 588.828 692.846 592.788C693.396 597.738 693.779 603.35 689.14 603.712C684.501 604.075 678.352 609.732 653.009 599.342C632.734 591.03 625.477 587.426 624.383 586.663C621.101 584.484 615.154 579.66 617.616 577.794C620.079 575.927 621.834 574.462 622.403 573.962" stroke="black"/>
<path d="M616.537 579.996C616.137 580.763 615.583 582.622 616.565 583.925C617.793 585.553 636.286 595.901 640.12 597.348C643.186 598.505 658.238 603.823 665.381 606.338C670.256 607.559 680.734 609.898 683.65 609.484C687.296 608.968 693.003 604.999 693.155 601.887" stroke="black"/>
<path d="M672 594L672.043 600.204L674.457 600.187M674.457 600.187L674.417 594.46L676.486 594.446L676.532 600.968M674.457 600.187L676.532 600.968M676.532 600.968L679.29 600.949M679.29 600.949L679.248 594.904L682.006 594.885L682.04 599.657L679.29 600.949Z" stroke="black"/>
<path d="M670.734 583.286C669.927 585.403 669.277 586.925 669.052 587.422L670.779 589.719L672.523 594.491L681.77 595.911C681.879 595.305 682.097 593.797 682.089 592.609C682.078 591.125 677.444 588.848 676.582 587.864C675.719 586.88 675.367 585.398 675.694 583.251C676.021 581.104 675.509 581.273 672.423 580.305C669.337 579.336 671.741 580.639 670.734 583.286Z" stroke="black"/>
<path d="M640 564C647.426 566.462 662.623 572.154 664.001 575.225C665.38 578.296 648.575 569.021 640 564Z" stroke="black"/>
<path d="M631.556 567.06C630.402 567.607 628.791 569.084 631.58 570.616C635.067 572.532 637.489 571.222 643.068 574.415C648.647 577.609 657.014 582.077 660.329 584.316C663.644 586.556 667.809 586.204 667.614 583.134C667.419 580.064 669.496 579.08 666.367 578.617C663.238 578.154 644.956 571.169 641.46 567.961C638.664 565.394 638.076 564.213 638.132 563.943" stroke="black"/>
<path d="M625.028 579.361L623.871 585.154L627.469 585.955L627.428 580.17L627.98 585.621L629.655 580.651L629.177 585.613L631.232 585.929L631.705 580.14L631.736 584.603L634.131 584.586L634.093 579.297M625.028 579.361L634.093 579.297M625.028 579.361L622.593 573.592M634.093 579.297L634.083 577.81L628.575 572.889L628.557 570.41L628.532 566.774L624.934 565.972L621.036 571.124L622.593 573.592M622.593 573.592L626.18 572.906" stroke="black"/>
<path d="M592.055 571.82C592.182 573.487 593.062 576.63 595.559 575.862C598.057 575.093 599.838 574.58 600.416 574.42L601.771 569.406M601.771 569.406L596.9 568.814C596.662 567.93 596.326 566.159 596.882 566.155C597.438 566.152 600.93 565.084 602.606 564.551L601.771 569.406ZM619.131 566.469C619.597 566.726 620.39 567.524 619.842 568.654C619.294 569.783 609.44 572.428 604.582 573.609M606.599 563.898L605.595 569.379C608.37 568.577 614.789 566.875 618.262 566.475C621.736 566.075 611.934 564.59 606.599 563.898Z" stroke="black"/>
<path d="M615.112 539.802L615.429 534.941L611.215 534.97L610.711 538.214L613.52 538.194L614.088 544.021L608.158 549.894L607.149 556.218L627.005 557.86C627.121 557.644 627.28 556.984 626.993 556.079C626.706 555.174 618.953 544.851 615.112 539.802Z" stroke="black"/>
<path d="M603.3 556.718L597.119 560L599.799 546.38L600.428 542.976L605.032 547.477L603.3 556.718Z" stroke="black"/>
<path d="M614.047 543.677L614.038 542.414L614.029 541.151L607.703 541.669L608.569 539.768L614.024 540.362L614.007 537.993L601.516 536.975L598.02 539.842L604.04 545.8L609.688 548.918L612.303 545.742M614.047 543.677L606.835 543.254M614.047 543.677L612.303 545.742M612.303 545.742L606.316 544.363" stroke="black"/>
<path d="M592.007 536L594.333 534.984L598 534.958" stroke="black"/>
<path d="M587 535L599.049 541.916" stroke="black"/>
<path d="M616.496 529.976L613.011 531.621L615.308 535.01L615.34 539.55C619.632 544.925 628.716 557.227 630.717 563.439C632.719 569.651 636.563 565.992 638.235 563.386L636.628 558.696" stroke="black"/>
<path d="M577 533C577.238 534.221 578.78 536.921 583.048 537.958C588.382 539.254 592.688 540.724 596.129 541.533C599.571 542.342 599.568 542.009 599.922 543.506C600.206 544.704 600.056 546.228 599.946 546.84" stroke="black"/>
<path d="M567 521L570.024 536.212L575.887 540.384C582.014 541.476 594.82 543.914 597.024 544.936C599.227 545.957 599.324 546.648 599.097 546.866C597.859 549.899 595.502 557.975 595.97 566.01C596.439 574.044 594.485 574.339 593.449 573.482L589.995 570.265" stroke="black"/>
<path d="M595 511C596.119 512.148 598.79 514.338 600.521 513.91C602.251 513.482 603.567 512.674 604.009 512.324" stroke="black"/>
<path d="M588 511C590.129 512.586 595.093 515.789 597.917 515.911C600.741 516.034 604.501 515.332 606.028 514.965" stroke="black"/>
<path d="M629.274 512.428C629.265 511.133 627.308 508.879 626.331 507.914L624.632 509.869L626.376 514.392L618.848 515.417L615.412 513.983L614.091 520.957L617.201 524.823L617.231 529.196L621.346 529.815C624.653 537.297 631.82 553.099 634.036 556.452C636.805 560.644 645.837 554.102 646.858 553.123C647.878 552.144 648.55 550.195 648.171 545.015C647.795 539.874 638.165 537.669 633.994 536.714L633.897 536.692C629.78 535.749 629.067 531.705 628.368 529.766C627.669 527.827 629.286 514.048 629.274 512.428Z" stroke="black"/>
<path d="M620 504.979L617.6 504.996L617.021 508L620.016 507.312L620 504.979Z" fill="#D9D9D9" stroke="black"/>
<path d="M536.334 519.938L525.049 527C529.5 526.503 538.741 525.507 540.095 525.498C541.786 525.486 541.606 523.916 542.615 523.036C543.624 522.156 542.435 521.466 542.26 520.595C542.119 519.897 538.251 519.866 536.334 519.938Z" stroke="black"/>
<path d="M615.69 473.965L615.676 471.995L624.305 473.248L624.36 481.129L626.949 484.999M615.69 473.965L622.119 474.905L622.132 476.711L615.707 476.428M615.69 473.965L615.707 476.428M615.707 476.428L622.135 477.204L620.628 479.185L615.722 478.562M615.707 476.428L615.722 478.562M623.047 486.72L627.093 485.214L626.949 484.999M623.047 486.72L620.646 481.811L616.585 481.183L615.722 478.562M623.047 486.72L623.159 502.645L619.474 507.432M623.047 486.72L620.078 497.249L619.474 507.432M626.949 484.999L627.102 506.886L624.564 510.188M624.564 510.188L619.474 507.432M624.564 510.188L626.117 514.774L618.857 515.974L615.297 514.357L616.773 507.944L619.474 507.432" stroke="black"/>
<path d="M575.088 503.551L580.273 507.963L612.744 507.736L614.087 503.278C611.626 503.454 606.116 503.366 603.767 501.603C600.83 499.399 604.978 502.865 601.212 504.798C598.199 506.344 589.537 505.939 585.582 505.543L584.881 503.483C590.326 504.133 601.211 504.671 601.19 501.621C601.163 497.808 603.722 495.248 593.914 493.092C586.067 491.367 585.365 490.927 585.995 490.923" stroke="black"/>
<path d="M564.055 530.355C565.015 533.742 567.843 538.282 570.358 540.24M554.474 522.283C554.489 524.399 548.262 525.582 546.714 527.058C545.166 528.534 529.403 528.156 526.114 528.342C522.825 528.527 519.899 531.152 519.397 533.597C518.894 536.042 525.826 536.645 530.345 539.055C534.865 541.465 528.641 542.973 529 544.761C529.359 546.549 535.757 545.202 544.944 546.277C554.13 547.352 554.083 540.679 555.639 540.343C557.196 540.006 556.51 540.988 556.176 542.78C555.842 544.573 547.586 552.607 531.1 547.839C514.614 543.071 505.789 544.11 503.537 544.126C501.286 544.141 494.366 545.167 490.294 557.24C481.684 564.299 495.303 579.993 500.318 578.981C504.33 578.172 515.765 583.756 520.981 586.649C524.288 589.013 531.799 593.215 535.386 591.106C539.87 588.47 565.107 581.62 577.056 581.536C586.616 581.469 590.892 570.588 591.836 565.156C591.848 558.645 591.662 545.397 590.825 544.491C589.778 543.359 575.216 541.345 572.444 541.202C571.813 541.169 571.099 540.816 570.358 540.24M554.474 522.283C554.459 520.167 545.667 525.926 544.795 525.118C543.924 524.31 547.187 520.381 543.363 518.455C539.54 516.528 535.233 519.814 534.006 517.706C532.779 515.599 531.539 511.701 532.224 510.557C532.909 509.413 537.038 505.477 543.272 505.434C548.259 505.399 551.565 502.663 552.595 501.299M554.474 522.283L556.381 522.596C556.568 524.548 558.493 527.464 558.504 528.929C558.514 530.394 557.159 534.798 560.648 538.354C564.136 541.911 567.103 545.146 568.319 545.625C569.291 546.009 569.642 545.019 569.696 544.476L566.909 542.217M566.909 542.217L570.358 540.24M566.909 542.217C563.888 539.471 558.391 532.641 560.57 527.287M560.189 522.243C561.215 520.446 563.791 517.335 564.298 515.541M612.57 508.855L614.096 504.287" stroke="black"/>
<path d="M567.014 542L570 539.979" stroke="black"/>
<path d="M567.485 489.906C566.606 491.166 563.961 493.432 560.405 492.41C556.849 491.387 554.704 497.686 554.077 500.963C555.394 503.191 558.031 508.201 558.047 510.427C558.066 513.208 556.709 522.055 558.137 523.354C559.566 524.653 568.68 508.552 568.131 506.101C567.581 503.651 570.435 505.758 570.091 507.397C569.748 509.036 563.426 518.407 562.736 521.194C562.045 523.981 555.014 533.358 568.928 543.897" stroke="black"/>
<path d="M611.01 511.327L603.683 509.764C603.801 509.979 604.282 510.664 605.265 511.69C606.493 512.973 606.002 517.497 606.362 519.109C606.722 520.721 605.511 522.021 602.376 522.043C599.241 522.065 591.716 517.113 593.291 518.232C594.867 519.351 602.583 526.724 603.116 528.173C603.648 529.622 598.94 528.848 596.847 528.54C594.755 528.232 587.725 519.401 588.624 523.431C589.524 527.461 586.919 528.609 584.308 528.951C581.698 529.292 574.686 523.044 573.972 520.466C573.257 517.888 572.555 517.247 571.328 516.126C570.101 515.004 570.809 516.614 570.117 517.264C569.563 517.785 572.738 526.717 574.395 531.119C578.701 532.488 587.241 534.871 586.953 533.453C586.592 531.679 590.932 529.55 594.246 530.173C597.56 530.795 602.959 530.757 604.524 530.262C606.088 529.767 605.37 526.704 606.047 523.955C606.589 521.755 608.808 520.222 609.85 519.731L611.01 511.327Z" stroke="black"/>
<path d="M567 490C568.012 489.993 570.216 490.227 570.937 491.222C571.839 492.466 570.954 493.566 571.861 495.591C572.586 497.211 575.636 499.159 577.07 499.93" stroke="black"/>
<path d="M580.02 485.812L583.021 485.979L582.113 483.173L580.02 485.812Z" fill="black"/>
<path d="M582.053 482.986L582.113 483.173M582.113 483.173L583.021 485.979L580.02 485.812L582.113 483.173Z" stroke="black"/>
<path d="M572.499 474.983C571.321 475.713 569.236 477.572 570.33 479.164C571.424 480.757 571.814 481.821 571.873 482.154L571.054 485.993L576.128 485.957L576.147 488.624M576.165 491.291L576.147 488.624M576.147 488.624L584.108 490.402L582.742 488.578L582.435 492.913L581.049 488.256L580.398 491.928L578.681 488.273L577.349 491.282" stroke="black"/>
<path d="M625.284 458.495L626.067 454.263L622.611 455.75C615.294 450.708 596.057 441.598 577.639 445.499C559.22 449.399 544.975 459.979 540.155 464.781C535.917 469.579 527.381 480.444 527.133 485.517M625.284 458.495L601.345 587.737C600.425 588.285 598.442 589.058 597.878 587.761L620.452 469.258C612.267 463.951 590.775 454.77 570.289 460.506C544.682 467.675 528.508 485.02 524.551 514.146C522.956 508.169 522.439 497.1 527.133 485.517M625.284 458.495L604.368 450.026C594.062 447.172 567.759 445.73 544.995 462.796C535.829 469.668 530.297 477.709 527.133 485.517" stroke="black"/>
<path d="M574.33 488.263C570.735 487.349 564.159 483.891 566.614 477.375C569.068 470.858 573.155 469.315 574.892 469.358C578.243 468.506 585.58 468.289 588.122 474.24C590.664 480.191 588.03 477.612 586.395 475.578C587.674 476.398 590.2 478.37 590.07 479.697C589.94 481.025 589.449 481.912 589.219 482.19L589.255 487.33L585.262 487.358L585.296 492.166C583.346 494.777 578.778 498.611 576.1 493.059C573.422 487.507 573.804 487.549 574.33 488.263Z" stroke="black"/>
<circle r="2" transform="matrix(0.999976 -0.00700136 0.0070053 0.999976 584.014 481.986)" fill="black"/>
<circle r="2" transform="matrix(0.999976 -0.00700136 0.0070053 0.999976 577.014 480.986)" fill="black"/>
<path d="M569.042 505L574 498.965" stroke="black"/>
<path d="M49.8576 228.332C50.9019 228.332 51.7402 228.633 52.3726 229.237C53.0145 229.841 53.3355 230.583 53.3355 231.465C53.3355 232.633 52.9091 233.548 52.0564 234.21C51.2133 234.871 50.145 235.201 48.8516 235.201C47.5773 235.201 46.5569 234.933 45.7904 234.396L46.0779 232.442C46.9306 233.045 47.8503 233.347 48.8372 233.347C49.4791 233.347 50.0396 233.204 50.5187 232.916C51.0073 232.619 51.2516 232.164 51.2516 231.551C51.2516 231.081 51.06 230.708 50.6767 230.43C50.2935 230.142 49.7522 229.999 49.0528 229.999C48.3629 229.999 47.606 230.114 46.7821 230.344L48.2192 224.94H53.666L53.4073 226.722H49.5127L49.0528 228.403C49.3402 228.356 49.6085 228.332 49.8576 228.332ZM59.8138 224.94H63.2198C64.7528 224.94 65.9839 225.376 66.9133 226.248C67.8427 227.11 68.3073 228.236 68.3073 229.625C68.3073 231.177 67.7564 232.461 66.6546 233.477C65.5528 234.492 64.1444 235 62.4294 235H58.2185L59.8138 224.94ZM60.5755 233.146H62.6306C63.7516 233.146 64.6234 232.816 65.2462 232.154C65.869 231.474 66.1803 230.607 66.1803 229.553C66.1803 228.777 65.9169 228.126 65.3899 227.599C64.8534 227.062 64.1588 226.794 63.306 226.794H61.5958L60.5755 233.146ZM76.3486 233.477C76.4445 233.477 76.5642 233.453 76.7079 233.405L76.478 234.871C76.2097 235.043 75.8552 235.129 75.4145 235.129C74.5426 235.129 74.0252 234.832 73.8624 234.238C73.2109 234.871 72.4156 235.187 71.4767 235.187C70.7006 235.187 70.0779 234.981 69.6084 234.569C69.1389 234.157 68.9042 233.62 68.9042 232.959C68.9042 232.174 69.1916 231.556 69.7665 231.105C70.3605 230.655 71.0647 230.43 71.8791 230.43C72.7222 230.43 73.4839 230.612 74.1642 230.976C74.2025 230.736 74.2217 230.564 74.2217 230.459C74.2217 229.683 73.6133 229.295 72.3965 229.295C71.6396 229.295 70.921 229.457 70.2407 229.783L70.4994 228.102C71.218 227.795 72.0563 227.642 73.0144 227.642C73.9438 227.642 74.7151 227.848 75.3283 228.26C75.9414 228.672 76.248 229.314 76.248 230.186C76.248 230.425 76.2145 230.712 76.1474 231.048L75.9175 232.442C75.8696 232.758 75.8456 232.945 75.8456 233.002C75.8456 233.319 76.0133 233.477 76.3486 233.477ZM73.8336 232.916L73.9773 232.169C73.5558 231.881 73.0288 231.738 72.3965 231.738C71.9557 231.738 71.5965 231.829 71.3186 232.011C71.0503 232.193 70.9162 232.451 70.9162 232.787C70.9162 233.065 71.0264 233.28 71.2468 233.434C71.4767 233.577 71.7881 233.649 72.1809 233.649C72.4971 233.649 72.8085 233.582 73.1151 233.448C73.4216 233.304 73.6612 233.127 73.8336 232.916ZM83.5085 227.829H85.6642L81.209 235.819C80.4042 237.247 79.3216 237.961 77.9611 237.961C77.4245 237.961 76.9646 237.86 76.5814 237.659L76.8544 235.905C77.1898 236.107 77.5347 236.207 77.8892 236.207C78.5982 236.207 79.2353 235.723 79.8006 234.756L77.6593 227.829H79.7719L81.0653 232.557L83.5085 227.829ZM92.2037 228.461L91.9306 230.142C91.145 229.568 90.2875 229.28 89.3581 229.28C88.5916 229.28 88.2084 229.472 88.2084 229.855C88.2084 230.027 88.2994 230.162 88.4814 230.257C88.6635 230.353 89.0898 230.502 89.7605 230.703C90.4887 230.914 91.0252 231.187 91.3701 231.522C91.7246 231.848 91.9019 232.265 91.9019 232.772C91.9019 233.548 91.5761 234.147 90.9246 234.569C90.2827 234.981 89.521 235.187 88.6395 235.187C88.0359 235.187 87.4323 235.11 86.8287 234.957C86.2347 234.794 85.7557 234.588 85.3916 234.339L85.6503 232.629C86.4646 233.232 87.4515 233.534 88.6108 233.534C89.4252 233.534 89.8324 233.328 89.8324 232.916C89.8324 232.715 89.6743 232.557 89.3581 232.442C89.224 232.375 88.9078 232.26 88.4096 232.097C87.6144 231.857 87.0251 231.584 86.6419 231.278C86.2682 230.962 86.0814 230.564 86.0814 230.085C86.0814 229.29 86.388 228.686 87.0012 228.274C87.6239 227.853 88.3856 227.642 89.2863 227.642C90.4743 227.642 91.4468 227.915 92.2037 228.461ZM100.752 227.642C101.844 227.642 102.745 227.982 103.454 228.662C104.163 229.342 104.517 230.2 104.517 231.235C104.517 232.298 104.134 233.228 103.367 234.023C102.61 234.799 101.657 235.187 100.507 235.187C99.4056 235.187 98.5049 234.851 97.8055 234.181C97.1061 233.51 96.7564 232.643 96.7564 231.58C96.7564 230.507 97.1349 229.587 97.8918 228.82C98.6487 228.035 99.602 227.642 100.752 227.642ZM100.507 233.419C101.082 233.419 101.571 233.204 101.973 232.772C102.385 232.351 102.591 231.819 102.591 231.177C102.591 230.65 102.419 230.224 102.074 229.898C101.739 229.572 101.303 229.409 100.766 229.409C100.191 229.409 99.7026 229.62 99.3002 230.042C98.8978 230.454 98.6966 230.981 98.6966 231.623C98.6966 232.159 98.8642 232.595 99.1996 232.931C99.5445 233.256 99.9804 233.419 100.507 233.419ZM113.103 231.062L112.485 235H110.458L111.033 231.407C111.081 231.005 111.105 230.765 111.105 230.689C111.105 230.315 110.995 230.023 110.774 229.812C110.554 229.601 110.267 229.496 109.912 229.496C109.577 229.496 109.256 229.587 108.949 229.769C108.643 229.941 108.398 230.171 108.216 230.459L107.469 235H105.443L106.564 227.829H108.59L108.461 228.662C109.112 227.982 109.912 227.642 110.861 227.642C111.579 227.642 112.149 227.857 112.571 228.289C112.992 228.72 113.203 229.299 113.203 230.027C113.203 230.324 113.17 230.669 113.103 231.062ZM115.75 224.94H117.777L116.584 232.456C116.545 232.725 116.526 232.883 116.526 232.931C116.526 233.237 116.704 233.39 117.058 233.39C117.24 233.39 117.417 233.352 117.59 233.275L117.345 234.943C117.02 235.105 116.608 235.187 116.11 235.187C115.573 235.187 115.156 235.048 114.859 234.77C114.572 234.492 114.428 234.09 114.428 233.563C114.428 233.41 114.457 233.122 114.514 232.701L115.75 224.94ZM124.672 227.829H126.828L122.373 235.819C121.568 237.247 120.485 237.961 119.125 237.961C118.588 237.961 118.128 237.86 117.745 237.659L118.018 235.905C118.353 236.107 118.698 236.207 119.053 236.207C119.762 236.207 120.399 235.723 120.964 234.756L118.823 227.829H120.936L122.229 232.557L124.672 227.829ZM127.288 233.908C127.288 233.553 127.408 233.256 127.648 233.017C127.897 232.768 128.194 232.643 128.539 232.643C128.883 232.643 129.176 232.768 129.415 233.017C129.664 233.256 129.789 233.553 129.789 233.908C129.789 234.253 129.664 234.55 129.415 234.799C129.176 235.038 128.883 235.158 128.539 235.158C128.194 235.158 127.897 235.038 127.648 234.799C127.408 234.55 127.288 234.253 127.288 233.908ZM127.964 231.651L128.567 224.94H131.327L129.818 231.651H127.964Z" fill="black"/>
<path d="M519.513 235H517.486L518.737 227.153L516.437 228.231L516.753 226.205L519.311 224.94H521.108L519.513 235ZM527.035 224.739C528.251 224.739 529.209 225.156 529.909 225.989C530.608 226.803 530.958 227.891 530.958 229.251C530.958 230.708 530.546 232.044 529.722 233.261C529.32 233.855 528.802 234.329 528.17 234.684C527.547 235.029 526.876 235.201 526.158 235.201C524.951 235.201 523.993 234.789 523.284 233.965C522.584 233.141 522.234 232.049 522.234 230.689C522.234 229.213 522.646 227.877 523.47 226.679C523.873 226.085 524.385 225.615 525.008 225.27C525.641 224.916 526.316 224.739 527.035 224.739ZM526.244 233.261C526.781 233.261 527.26 233.045 527.681 232.614C528.486 231.8 528.888 230.693 528.888 229.295C528.888 228.557 528.726 227.939 528.4 227.441C528.084 226.933 527.6 226.679 526.948 226.679C526.402 226.679 525.918 226.894 525.497 227.326C524.702 228.159 524.304 229.266 524.304 230.645C524.304 231.383 524.462 232.006 524.778 232.514C525.104 233.012 525.593 233.261 526.244 233.261ZM533.704 230.415C533.35 230.415 533.053 230.296 532.813 230.056C532.574 229.807 532.454 229.505 532.454 229.151C532.454 228.806 532.574 228.514 532.813 228.274C533.053 228.025 533.35 227.9 533.704 227.9C534.04 227.9 534.327 228.025 534.567 228.274C534.816 228.514 534.94 228.806 534.94 229.151C534.94 229.505 534.816 229.807 534.567 230.056C534.327 230.296 534.04 230.415 533.704 230.415ZM532.957 235.158C532.603 235.158 532.306 235.038 532.066 234.799C531.827 234.55 531.707 234.248 531.707 233.893C531.707 233.548 531.827 233.256 532.066 233.017C532.306 232.768 532.603 232.643 532.957 232.643C533.292 232.643 533.58 232.768 533.819 233.017C534.068 233.256 534.193 233.548 534.193 233.893C534.193 234.248 534.068 234.55 533.819 234.799C533.58 235.038 533.292 235.158 532.957 235.158ZM540.929 224.739C542.146 224.739 543.104 225.156 543.803 225.989C544.503 226.803 544.852 227.891 544.852 229.251C544.852 230.708 544.44 232.044 543.616 233.261C543.214 233.855 542.697 234.329 542.064 234.684C541.441 235.029 540.771 235.201 540.052 235.201C538.845 235.201 537.887 234.789 537.178 233.965C536.479 233.141 536.129 232.049 536.129 230.689C536.129 229.213 536.541 227.877 537.365 226.679C537.767 226.085 538.28 225.615 538.903 225.27C539.535 224.916 540.21 224.739 540.929 224.739ZM540.138 233.261C540.675 233.261 541.154 233.045 541.576 232.614C542.38 231.8 542.783 230.693 542.783 229.295C542.783 228.557 542.62 227.939 542.294 227.441C541.978 226.933 541.494 226.679 540.843 226.679C540.297 226.679 539.813 226.894 539.391 227.326C538.596 228.159 538.198 229.266 538.198 230.645C538.198 231.383 538.356 232.006 538.673 232.514C538.998 233.012 539.487 233.261 540.138 233.261ZM551.048 224.739C552.265 224.739 553.223 225.156 553.922 225.989C554.622 226.803 554.971 227.891 554.971 229.251C554.971 230.708 554.559 232.044 553.735 233.261C553.333 233.855 552.816 234.329 552.183 234.684C551.56 235.029 550.89 235.201 550.171 235.201C548.964 235.201 548.006 234.789 547.297 233.965C546.598 233.141 546.248 232.049 546.248 230.689C546.248 229.213 546.66 227.877 547.484 226.679C547.886 226.085 548.399 225.615 549.022 225.27C549.654 224.916 550.329 224.739 551.048 224.739ZM550.257 233.261C550.794 233.261 551.273 233.045 551.695 232.614C552.499 231.8 552.902 230.693 552.902 229.295C552.902 228.557 552.739 227.939 552.413 227.441C552.097 226.933 551.613 226.679 550.962 226.679C550.416 226.679 549.932 226.894 549.51 227.326C548.715 228.159 548.317 229.266 548.317 230.645C548.317 231.383 548.475 232.006 548.792 232.514C549.117 233.012 549.606 233.261 550.257 233.261ZM569.4 235H567.244L566.64 232.672H562.343L561.021 235H558.794L564.7 224.882H566.684L569.4 235ZM566.195 230.962L565.304 227.469L563.306 230.962H566.195ZM582.241 224.94L580.66 235H578.62L579.712 228.073L576.895 231.35H575.745L573.877 228.073L572.799 235H570.73L572.31 224.94H574.294L576.564 229.151L580.129 224.94H582.241Z" fill="black"/>
<path d="M631.513 235H629.486L630.737 227.153L628.437 228.231L628.753 226.205L631.311 224.94H633.108L631.513 235ZM639.035 224.739C640.251 224.739 641.209 225.156 641.909 225.989C642.608 226.803 642.958 227.891 642.958 229.251C642.958 230.708 642.546 232.044 641.722 233.261C641.32 233.855 640.802 234.329 640.17 234.684C639.547 235.029 638.876 235.201 638.158 235.201C636.951 235.201 635.993 234.789 635.284 233.965C634.584 233.141 634.234 232.049 634.234 230.689C634.234 229.213 634.646 227.877 635.47 226.679C635.873 226.085 636.385 225.615 637.008 225.27C637.641 224.916 638.316 224.739 639.035 224.739ZM638.244 233.261C638.781 233.261 639.26 233.045 639.681 232.614C640.486 231.8 640.888 230.693 640.888 229.295C640.888 228.557 640.726 227.939 640.4 227.441C640.084 226.933 639.6 226.679 638.948 226.679C638.402 226.679 637.918 226.894 637.497 227.326C636.702 228.159 636.304 229.266 636.304 230.645C636.304 231.383 636.462 232.006 636.778 232.514C637.104 233.012 637.593 233.261 638.244 233.261ZM645.704 230.415C645.35 230.415 645.053 230.296 644.813 230.056C644.574 229.807 644.454 229.505 644.454 229.151C644.454 228.806 644.574 228.514 644.813 228.274C645.053 228.025 645.35 227.9 645.704 227.9C646.04 227.9 646.327 228.025 646.567 228.274C646.816 228.514 646.94 228.806 646.94 229.151C646.94 229.505 646.816 229.807 646.567 230.056C646.327 230.296 646.04 230.415 645.704 230.415ZM644.957 235.158C644.603 235.158 644.306 235.038 644.066 234.799C643.827 234.55 643.707 234.248 643.707 233.893C643.707 233.548 643.827 233.256 644.066 233.017C644.306 232.768 644.603 232.643 644.957 232.643C645.292 232.643 645.58 232.768 645.819 233.017C646.068 233.256 646.193 233.548 646.193 233.893C646.193 234.248 646.068 234.55 645.819 234.799C645.58 235.038 645.292 235.158 644.957 235.158ZM652.929 224.739C654.146 224.739 655.104 225.156 655.803 225.989C656.503 226.803 656.852 227.891 656.852 229.251C656.852 230.708 656.44 232.044 655.616 233.261C655.214 233.855 654.697 234.329 654.064 234.684C653.441 235.029 652.771 235.201 652.052 235.201C650.845 235.201 649.887 234.789 649.178 233.965C648.479 233.141 648.129 232.049 648.129 230.689C648.129 229.213 648.541 227.877 649.365 226.679C649.767 226.085 650.28 225.615 650.903 225.27C651.535 224.916 652.21 224.739 652.929 224.739ZM652.138 233.261C652.675 233.261 653.154 233.045 653.576 232.614C654.38 231.8 654.783 230.693 654.783 229.295C654.783 228.557 654.62 227.939 654.294 227.441C653.978 226.933 653.494 226.679 652.843 226.679C652.297 226.679 651.813 226.894 651.391 227.326C650.596 228.159 650.198 229.266 650.198 230.645C650.198 231.383 650.356 232.006 650.673 232.514C650.998 233.012 651.487 233.261 652.138 233.261ZM663.048 224.739C664.265 224.739 665.223 225.156 665.922 225.989C666.622 226.803 666.971 227.891 666.971 229.251C666.971 230.708 666.559 232.044 665.735 233.261C665.333 233.855 664.816 234.329 664.183 234.684C663.56 235.029 662.89 235.201 662.171 235.201C660.964 235.201 660.006 234.789 659.297 233.965C658.598 233.141 658.248 232.049 658.248 230.689C658.248 229.213 658.66 227.877 659.484 226.679C659.886 226.085 660.399 225.615 661.022 225.27C661.654 224.916 662.329 224.739 663.048 224.739ZM662.257 233.261C662.794 233.261 663.273 233.045 663.695 232.614C664.499 231.8 664.902 230.693 664.902 229.295C664.902 228.557 664.739 227.939 664.413 227.441C664.097 226.933 663.613 226.679 662.962 226.679C662.416 226.679 661.932 226.894 661.51 227.326C660.715 228.159 660.317 229.266 660.317 230.645C660.317 231.383 660.475 232.006 660.792 232.514C661.117 233.012 661.606 233.261 662.257 233.261ZM673.265 224.94H677.491C678.478 224.94 679.258 225.184 679.833 225.673C680.408 226.162 680.696 226.808 680.696 227.613C680.696 228.609 680.331 229.429 679.603 230.071C678.885 230.703 677.965 231.019 676.844 231.019H674.372L673.74 235H671.67L673.265 224.94ZM674.645 229.251H676.901C677.381 229.251 677.783 229.127 678.109 228.878C678.434 228.629 678.597 228.284 678.597 227.843C678.597 227.498 678.482 227.23 678.252 227.038C678.022 226.847 677.692 226.751 677.261 226.751H675.048L674.645 229.251ZM692.655 224.94L691.074 235H689.034L690.126 228.073L687.309 231.35H686.159L684.291 228.073L683.213 235H681.144L682.725 224.94H684.708L686.978 229.151L690.543 224.94H692.655Z" fill="black"/>
<path d="M337.513 235H335.486L336.737 227.153L334.437 228.231L334.753 226.205L337.311 224.94H339.108L337.513 235ZM343.612 228.332C344.656 228.332 345.494 228.633 346.127 229.237C346.769 229.841 347.09 230.583 347.09 231.465C347.09 232.633 346.663 233.548 345.811 234.21C344.967 234.871 343.899 235.201 342.606 235.201C341.332 235.201 340.311 234.933 339.545 234.396L339.832 232.442C340.685 233.045 341.605 233.347 342.591 233.347C343.233 233.347 343.794 233.204 344.273 232.916C344.762 232.619 345.006 232.164 345.006 231.551C345.006 231.081 344.814 230.708 344.431 230.43C344.048 230.142 343.506 229.999 342.807 229.999C342.117 229.999 341.36 230.114 340.536 230.344L341.973 224.94H347.42L347.162 226.722H343.267L342.807 228.403C343.094 228.356 343.363 228.332 343.612 228.332ZM353.426 231.924H348.985L349.287 230.099H353.728L353.426 231.924ZM358.803 235H356.777L358.027 227.153L355.728 228.231L356.044 226.205L358.602 224.94H360.398L358.803 235ZM363.322 235H361.108L366.526 226.794H361.784L362.071 224.94H369.171L368.912 226.535L363.322 235Z" fill="black"/>
<path d="M377.681 227.742L378.026 225.601C378.841 225.026 379.799 224.739 380.901 224.739C381.849 224.739 382.644 225.017 383.286 225.572C383.928 226.128 384.249 226.866 384.249 227.786C384.249 228.456 384.043 229.093 383.631 229.697C383.229 230.291 382.573 230.952 381.662 231.68L379.765 233.189H383.991L383.718 235H376.546L376.79 233.491L380.067 230.818C380.843 230.186 381.385 229.683 381.691 229.309C382.007 228.926 382.165 228.523 382.165 228.102C382.165 227.651 382.017 227.302 381.72 227.053C381.423 226.803 381.016 226.679 380.498 226.679C379.531 226.679 378.592 227.033 377.681 227.742ZM390.589 224.739C391.806 224.739 392.764 225.156 393.463 225.989C394.163 226.803 394.512 227.891 394.512 229.251C394.512 230.708 394.1 232.044 393.276 233.261C392.874 233.855 392.357 234.329 391.724 234.684C391.101 235.029 390.431 235.201 389.712 235.201C388.505 235.201 387.547 234.789 386.838 233.965C386.139 233.141 385.789 232.049 385.789 230.689C385.789 229.213 386.201 227.877 387.025 226.679C387.427 226.085 387.94 225.615 388.562 225.27C389.195 224.916 389.87 224.739 390.589 224.739ZM389.798 233.261C390.335 233.261 390.814 233.045 391.236 232.614C392.04 231.8 392.443 230.693 392.443 229.295C392.443 228.557 392.28 227.939 391.954 227.441C391.638 226.933 391.154 226.679 390.503 226.679C389.957 226.679 389.473 226.894 389.051 227.326C388.256 228.159 387.858 229.266 387.858 230.645C387.858 231.383 388.016 232.006 388.333 232.514C388.658 233.012 389.147 233.261 389.798 233.261ZM396.109 227.742L396.454 225.601C397.268 225.026 398.226 224.739 399.328 224.739C400.277 224.739 401.072 225.017 401.714 225.572C402.356 226.128 402.677 226.866 402.677 227.786C402.677 228.456 402.471 229.093 402.059 229.697C401.656 230.291 401 230.952 400.09 231.68L398.193 233.189H402.418L402.145 235H394.974L395.218 233.491L398.495 230.818C399.271 230.186 399.812 229.683 400.119 229.309C400.435 228.926 400.593 228.523 400.593 228.102C400.593 227.651 400.444 227.302 400.147 227.053C399.85 226.803 399.443 226.679 398.926 226.679C397.958 226.679 397.019 227.033 396.109 227.742ZM404.418 227.742L404.762 225.601C405.577 225.026 406.535 224.739 407.637 224.739C408.585 224.739 409.38 225.017 410.022 225.572C410.664 226.128 410.985 226.866 410.985 227.786C410.985 228.456 410.779 229.093 410.367 229.697C409.965 230.291 409.309 230.952 408.398 231.68L406.501 233.189H410.727L410.454 235H403.282L403.526 233.491L406.803 230.818C407.579 230.186 408.121 229.683 408.427 229.309C408.743 228.926 408.901 228.523 408.901 228.102C408.901 227.651 408.753 227.302 408.456 227.053C408.159 226.803 407.752 226.679 407.234 226.679C406.267 226.679 405.328 227.033 404.418 227.742Z" fill="black"/>
<circle cx="470.5" cy="231.5" r="8.5" fill="black"/>
<circle cx="202.5" cy="231.5" r="8.5" fill="black"/>
<rect x="463.5" y="718.5" width="97" height="93" rx="11.5" stroke="black"/>
<rect x="590.5" y="718.5" width="97" height="93" rx="11.5" stroke="black"/>
<path d="M234 743H436" stroke="black"/>
<path d="M96.0071 480.098L97.8881 479.922L100.031 493.091M96.0071 480.098L54 484.037L63.4339 547L107.732 540.416L101.036 499.263M96.0071 480.098L104.451 451.527L169.258 470.045L158.183 508.728L100.031 493.091M100.031 493.091L101.036 499.263M101.036 499.263L160.644 516.136L175 465.519L101.58 447L90.0949 479.922M60.1525 488.564L68.7661 536.712L101.58 530.951L94.6068 484.037L60.1525 488.564Z" stroke="black"/>
<rect x="454" y="671" width="245" height="258" rx="11" stroke="black" stroke-width="2"/>
<rect x="222.5" y="908.5" width="215" height="21" rx="5.5" stroke="black"/>
<path d="M574 721V917" stroke="black"/>
<path d="M206 257V929" stroke="black"/>
<path d="M406.198 439.653C393.731 437.031 395.262 442.931 397.586 446.209C399.226 449.35 405.05 457.6 415.22 465.467C427.933 475.3 413.17 475.3 406.198 492.099C399.226 508.898 408.248 504.391 413.17 522.829C417.107 537.58 411.529 543.179 408.248 544.135C423.012 571.588 411.529 553.15 402.507 571.997C393.485 590.845 401.277 581.011 402.507 594.942C403.737 608.873 410.709 604.366 426.703 611.332C442.697 618.297 450.899 614.61 454.18 606.415C448.931 599.859 447.892 602.318 448.028 604.366C444.064 601.908 436.217 595.762 436.546 590.845C436.956 584.699 438.596 586.338 440.647 584.699C442.697 583.06 462.382 593.303 479.196 604.366C496.01 615.429 508.314 611.332 531.279 611.332C554.245 611.332 548.504 612.151 573.52 611.332C598.536 610.512 599.356 614.2 606.738 614.61C614.12 615.019 612.07 609.693 599.356 604.366C586.643 599.04 584.183 600.269 559.166 600.269C534.15 600.269 527.178 603.956 508.314 600.269C489.449 596.581 486.578 586.338 482.067 581.011C477.556 575.685 469.354 560.115 468.123 544.135C466.893 528.156 470.584 532.663 490.269 522.829C509.954 512.996 508.314 509.718 508.314 504.391C508.314 499.065 505.033 490.87 502.982 475.3C500.932 459.73 507.493 464.237 515.285 462.189C523.077 460.14 529.639 444.161 517.336 442.522C505.033 440.883 472.224 446.209 454.18 448.668C436.135 451.126 421.782 442.931 406.198 439.653Z" stroke="black"/>
<path d="M668.461 441.525C658.195 433.33 643.209 438.11 637 441.525C637 444.53 638.656 451.605 645.279 455.866C653.558 461.193 652.73 461.193 662.665 471.436C672.6 481.68 664.321 492.333 662.665 502.987C661.009 513.64 664.735 519.786 681.293 530.03C697.852 540.274 686.675 522.245 681.293 502.987C676.988 487.58 681.431 484.002 684.191 484.139C684.329 483.046 684.522 478.976 684.191 471.436C683.777 462.012 681.293 451.769 668.461 441.525Z" stroke="black"/>
<path d="M237 794.763C243.579 800.221 257.789 806.109 262 786" stroke="black"/>
<path d="M238.045 795L227 799.756L218 816.505L230.886 827.671L238.045 820.641L250.523 856L290 841.319L282.636 820.641" stroke="black"/>
<path d="M313.17 754H303.096C295.038 769.414 281.373 760.422 275.548 754H265.475L248 769.373L258.074 783.106L265.475 779.826V820H313.17V779.826L319.543 783.106L329 769.373L313.17 754Z" stroke="black"/>
<path d="M60.2088 688.784C63.0742 685.969 67.2991 682.133 72.4185 677.919M167.447 643.336C164.526 646.441 156.841 652.836 149.471 653.579C142.101 654.323 125.642 651.466 118.333 649.945M167.447 643.336C160.274 642.283 140.549 642.169 118.333 649.945M167.447 643.336C167.52 636.815 137.225 629.239 134.701 637.157M118.333 649.945C117.99 650.065 117.646 650.188 117.302 650.311C111.261 652.486 105.062 655.568 99.0366 659.098C97.5504 659.968 96.0747 660.866 94.6146 661.785M118.333 649.945C125.946 645.607 130.005 623.348 131.082 612.761M118.333 649.945C122.521 645.621 118.928 653.165 116.174 633.135C113.97 617.112 125.195 612.876 131.082 612.761M118.333 649.945C126.6 645.235 132.69 639.457 134.701 637.157M118.333 649.945C128.707 653.68 148.937 663.279 146.866 671.803M118.333 649.945C118.6 648.64 119.233 647.267 119.632 652.224C120.13 658.419 144.278 682.457 146.866 671.803M134.701 637.157C140.123 631.476 134.548 618.526 131.082 612.761M146.866 671.803C148.108 667.333 143.953 655.482 133.169 652.513M90.2687 664.605C91.6982 663.649 93.1486 662.707 94.6146 661.785M90.2687 664.605C92.1608 664.753 94.293 664.959 96.5756 665.226M90.2687 664.605C83.7219 668.984 77.6102 673.646 72.4185 677.919M135.89 680.757C136.443 693.401 113.214 680.179 110.603 674.647C108.514 670.222 106.67 667.428 106.008 666.584M135.89 680.757C135.576 673.566 120.244 669.027 106.008 666.584M135.89 680.757C136.499 670.15 130.579 674.064 124.085 666.965C118.89 661.286 109.87 664.345 106.008 666.584M106.008 666.584C102.742 666.023 99.5323 665.573 96.5756 665.226M70.3065 629.573C75.7483 628.992 87.4326 629.426 90.6363 635.808C94.6409 643.785 95.7273 652.34 97.1793 655.838M70.3065 629.573C71.3904 631.476 74.7196 637.318 79.365 645.47C85.1717 655.661 98.6312 659.336 97.1793 655.838M70.3065 629.573C74.4639 629.904 83.6483 632.662 87.1274 641.047C90.6064 649.432 95.2782 654.402 97.1793 655.838M97.1793 655.838C97.2069 656.833 96.7328 659.414 94.6146 661.785M102.676 622.468C106.441 624.102 113.244 629.513 110.334 638.083C106.696 648.795 105.146 652.38 103.652 654.85M102.676 622.468C101.563 624.722 98.692 630.57 96.1154 635.926C92.8947 642.621 102.158 657.319 103.652 654.85M102.676 622.468C104.584 629.707 107.449 646.318 103.652 654.85M96.5756 665.226C100.525 671.84 107.978 686.187 106.196 690.658M96.5756 665.226C98.7258 665.517 104.226 668.205 109.025 676.626C115.024 687.154 103.969 696.247 106.196 690.658M96.5756 665.226C94.3172 667.278 91.0788 673.245 96.192 680.699C101.305 688.153 104.992 690.444 106.196 690.658M72.4185 677.919C74.1539 676.418 75.1095 673.922 75.5162 670.882M75.5162 670.882C76.673 662.236 73.39 649.193 70.9784 642.15C77.1849 645.993 86.7816 657.119 75.5162 670.882ZM70.2816 640.927C69.0119 652.358 67.1462 675.426 69.8413 676.245C73.2102 677.27 68.2945 671.757 75.3894 677.434C82.4843 683.111 97.8013 691.122 99.2509 694.615M99.2509 694.615C100.701 698.109 94.1288 680.063 85.7774 679.518C79.0963 679.082 75.8277 681.324 75.0285 682.499C77.1963 686.304 81.9165 694.017 83.4545 694.437C84.9924 694.857 94.6263 694.731 99.2509 694.615Z" stroke="black"/>
<path d="M107.968 776V796.209M107.968 796.209L114.169 797.447C117.062 802.398 112.763 815.107 117.062 816.427C122.436 818.078 143.517 823.085 146.824 835.877C149.47 846.11 146.824 841.864 146.824 843.66M107.968 796.209C107.004 796.209 106.728 796.621 103.421 798.272C100.114 799.922 103.008 810.238 100.941 816.427C97.6343 816.427 88.0691 819.67 82.282 820.907C64.7866 824.65 68.2856 838.158 68.2856 843.66M146.824 843.66C123.771 857.831 84.1587 851.252 68.2856 843.66M146.824 843.66C137.565 837.388 90.6071 841.047 68.2856 843.66" stroke="black"/>
<path d="M483 765L484 771" stroke="black"/>
<path d="M482.172 770L501.471 776.171L502 781L479 776.171" stroke="black"/>
<path d="M487 752.048L481.694 770.119H479.571M479.571 770.119L485.143 751.786L481.163 751L474 784H476.122M479.571 770.119L478.36 775.619M478.36 775.619L478.245 776.143L480.898 776.405L478.245 784H476.122M478.36 775.619L476.122 784" stroke="black"/>
<path d="M505.951 753.692C506.368 754.928 504.038 755.065 502.821 754.979L477 749.574L477.675 748.021M505.951 753.692C505.533 752.457 488.215 748.716 479.608 747L477.675 748.021M505.951 753.692L477.782 747.772L477.675 748.021" stroke="black"/>
<path d="M546 776L547 794" stroke="black"/>
<path d="M547.25 776L548 792.015C547.583 793.241 546.4 795.166 545 793.065L544 778.363" stroke="black"/>
<path d="M545.824 750.525L547 766L545 765.475M545 765.475L543 764.951V750L544.647 750.525L545 765.475Z" stroke="black"/>
<path d="M530 748L526.75 757L526 752.886L528.25 748" stroke="black"/>
<path d="M543.372 750.965L524.775 747.343L524 744C531.577 745.672 546.781 749.238 546.988 750.129C547.195 751.021 544.663 751.058 543.372 750.965Z" stroke="black"/>
<path d="M545 777V778.5L506 785" stroke="black"/>
<path d="M549 775.571L547.952 767L509.452 774.232L505 773.161L505.524 782H509.452L549 775.571Z" stroke="black"/>
<path d="M509.491 775L490 769.818C493.371 767.418 517.217 764.273 528.719 763L549 767.636L509.491 775Z" stroke="black"/>
<path d="M504.414 755.786L508 803.214L506.069 804L503.586 803.214L500 755L502.759 755.786H504.414Z" fill="white"/>
<path d="M506.069 804L508 803.214L504.414 755.786H502.759M506.069 804L503.586 803.214L500 755L502.759 755.786M506.069 804L502.759 755.786" stroke="black"/>
<path d="M521.299 727L482 732.537C484.124 745.367 488.692 770.607 489.966 768.919C491.241 767.232 516.52 763.998 529 762.592L521.299 727Z" stroke="black"/>
<path d="M674 790V793.798M679 790.707V794.151M679 794.151V797.596C677 800.139 674.833 798.655 674 797.596V793.798M679 794.151C678.048 794.534 675.714 794.999 674 793.798" stroke="black"/>
<path d="M609 780V783.798M614 780.707V784.151M614 784.151V787.596C612 790.139 609.833 788.655 609 787.596V783.798M614 784.151C613.048 784.534 610.714 784.999 609 783.798" stroke="black"/>
<path d="M669.202 751C668.936 749.448 668.723 746.276 670 746" stroke="black"/>
<path d="M638.202 749C637.936 747.448 637.723 744.276 639 744" stroke="black"/>
<path d="M645.202 750C644.936 748.448 644.723 745.276 646 745" stroke="black"/>
<path d="M654.202 750C653.936 748.448 653.723 745.276 655 745" stroke="black"/>
<path d="M636.202 761C635.936 759.448 635.723 756.276 637 756" stroke="black"/>
<path d="M644.202 761C643.936 759.448 643.723 756.276 645 756" stroke="black"/>
<path d="M652.202 762C651.936 760.448 651.723 757.276 653 757" stroke="black"/>
<path d="M652.279 755.952C652.303 754.378 652.677 751.22 653.983 751.184" stroke="black"/>
<path d="M644.279 754.952C644.303 753.378 644.677 750.22 645.983 750.184" stroke="black"/>
<path d="M636.279 754.952C636.303 753.378 636.677 750.22 637.983 750.184" stroke="black"/>
<path d="M679.202 752C678.936 750.448 678.723 747.276 680 747" stroke="black"/>
<path d="M668.012 757.906C668.121 756.335 668.665 753.202 669.972 753.237" stroke="black"/>
<path d="M677.012 757.906C677.121 756.335 677.665 753.202 678.972 753.237" stroke="black"/>
<path d="M667.012 763.906C667.121 762.335 667.665 759.202 668.972 759.237" stroke="black"/>
<path d="M663.011 751.384C664.552 751.062 667.714 750.733 668.036 751.999" stroke="black"/>
<path d="M671.011 752.384C672.552 752.062 675.714 751.733 676.036 752.999" stroke="black"/>
<path d="M655.011 750.384C656.552 750.062 659.714 749.733 660.036 750.999" stroke="black"/>
<path d="M648.011 750.384C649.552 750.062 652.714 749.733 653.036 750.999" stroke="black"/>
<path d="M639.011 749.384C640.552 749.062 643.714 748.733 644.036 749.999" stroke="black"/>
<path d="M632.011 749.384C633.552 749.062 636.714 748.733 637.036 749.999" stroke="black"/>
<path d="M631.011 754.384C632.552 754.062 635.714 753.733 636.036 754.999" stroke="black"/>
<path d="M638.011 755.384C639.552 755.062 642.714 754.733 643.036 755.999" stroke="black"/>
<path d="M645.011 756.384C646.552 756.062 649.714 755.733 650.036 756.999" stroke="black"/>
<path d="M653.011 757.384C654.552 757.062 657.714 756.733 658.036 757.999" stroke="black"/>
<path d="M681.011 752.384C682.552 752.062 685.714 751.733 686.036 752.999" stroke="black"/>
<path d="M662.011 758.384C663.552 758.062 666.714 757.733 667.036 758.999" stroke="black"/>
<path d="M670.011 758.384C671.552 758.062 674.714 757.733 675.036 758.999" stroke="black"/>
<path d="M677.03 759.901C678.685 759.459 681.673 758.181 682.036 759.999" stroke="black"/>
<path d="M665 743.144C672.264 742.954 686.959 742.802 687.63 743.715C688.3 744.629 687.909 744.952 687.63 745" stroke="black"/>
<path d="M664 744C671.427 744.108 686.381 744.52 686.78 745.3C687.179 746.08 686.946 753.425 686.78 757" stroke="black"/>
<path d="M676 761L687.486 758L688 760.118" stroke="black"/>
<path d="M682 761.354L687 760V789.968L682 792" stroke="black"/>
<path d="M676 790.821L682 792V761.505L676 761V774.647" stroke="black"/>
<path d="M608.337 773L608 780" stroke="black"/>
<path d="M608.836 764V754.447M608.836 754.447C609.234 754.063 610.133 753.294 610.543 753.294C610.952 753.294 623.685 752.196 630 751.647V750C621.58 750.494 604.603 751.779 604.057 752.965C603.511 754.151 607.016 754.447 608.836 754.447Z" stroke="black"/>
<path d="M603.674 753L603 778.281L676 790V780.959M676 780.959L638.236 776.439V768.235L676 772.923V780.959Z" stroke="black"/>
<path d="M663.497 745L664 743.48C656.85 742.086 640.641 739.793 633 741.769" stroke="black"/>
<path d="M629 761.503C629.112 755.619 629.837 743.552 631.847 742.353C633.856 741.154 654.12 743.296 664 744.518C662.884 747.293 660.651 755.275 660.651 765" stroke="black"/>
<path d="M607 764.802V772.714L638.2 777V769.088M607 764.802L638.2 769.088M607 764.802L628.806 762C637.249 762.22 655.108 763.253 659 765.626L638.2 769.088" stroke="black"/>
</svg>
