<svg width="1101" height="764" viewBox="0 0 1101 764" fill="none" xmlns="http://www.w3.org/2000/svg">
<path d="M93.1635 514.747H178.249" stroke="black" stroke-width="2.02667" stroke-linecap="round"/>
<path d="M300.813 514.747H386.912" stroke="black" stroke-width="2.02667" stroke-linecap="round"/>
<path d="M154.952 672.827H324.111" stroke="black" stroke-width="2.02667" stroke-linecap="round"/>
<path d="M154.952 547.173H324.111" stroke="black" stroke-width="2.02667" stroke-linecap="round"/>
<path d="M498.334 440.773V426.587H502.386V419.493H597.601V426.587H604.692V440.773H597.601V447.867H503.399V440.773H498.334Z" stroke="black" stroke-width="2.02667" stroke-linecap="round"/>
<path d="M491.244 590.747H608.743" stroke="black" stroke-width="2.02667" stroke-linecap="round"/>
<path d="M759.669 400.24L760.683 450.907" stroke="black" stroke-width="2.02667" stroke-linecap="round"/>
<path d="M141.784 400.24L142.797 450.907" stroke="black" stroke-width="2.02667" stroke-linecap="round"/>
<path d="M956.177 399.227L955.164 449.893" stroke="black" stroke-width="2.02667" stroke-linecap="round"/>
<path d="M338.292 399.227L337.278 449.893" stroke="black" stroke-width="2.02667" stroke-linecap="round"/>
<path d="M762.708 400.24C766.76 418.142 774.053 454.757 770.812 458" stroke="black" stroke-width="2.02667" stroke-linecap="round"/>
<path d="M144.823 400.24C148.874 418.142 156.168 454.757 152.926 458" stroke="black" stroke-width="2.02667" stroke-linecap="round"/>
<path d="M953.139 399.227C949.087 417.129 941.794 453.744 945.035 456.987" stroke="black" stroke-width="2.02667" stroke-linecap="round"/>
<path d="M335.253 399.227C331.201 417.129 323.908 453.744 327.15 456.987" stroke="black" stroke-width="2.02667" stroke-linecap="round"/>
<path d="M766.76 400.24C773.175 417.129 785.6 452.528 783.98 459.013" stroke="black" stroke-width="2.02667" stroke-linecap="round"/>
<path d="M148.874 400.24C155.29 417.129 167.715 452.528 166.094 459.013" stroke="black" stroke-width="2.02667" stroke-linecap="round"/>
<path d="M949.087 399.227C942.672 416.115 930.246 451.515 931.867 458" stroke="black" stroke-width="2.02667" stroke-linecap="round"/>
<path d="M331.201 399.227C324.786 416.115 312.361 451.515 313.982 458" stroke="black" stroke-width="2.02667" stroke-linecap="round"/>
<path d="M771.825 400.24C779.928 417.467 795.73 453.339 794.109 459.013" stroke="black" stroke-width="2.02667" stroke-linecap="round"/>
<path d="M153.939 400.24C162.043 417.467 177.844 453.339 176.223 459.013" stroke="black" stroke-width="2.02667" stroke-linecap="round"/>
<path d="M944.022 399.227C935.919 416.453 920.117 452.325 921.738 458" stroke="black" stroke-width="2.02667" stroke-linecap="round"/>
<path d="M326.137 399.227C318.033 416.453 302.232 452.325 303.852 458" stroke="black" stroke-width="2.02667" stroke-linecap="round"/>
<path d="M771.825 391.12C772.5 394.498 773.243 401.051 770.812 400.24C768.381 399.429 758.319 399.227 753.592 399.227" stroke="black" stroke-width="2.02667" stroke-linecap="round"/>
<path d="M153.939 391.12C154.614 394.498 155.357 401.051 152.926 400.24C150.495 399.429 140.433 399.227 135.706 399.227" stroke="black" stroke-width="2.02667" stroke-linecap="round"/>
<path d="M944.022 390.107C943.347 393.484 942.604 400.037 945.035 399.227C947.466 398.416 957.528 398.213 962.255 398.213" stroke="black" stroke-width="2.02667" stroke-linecap="round"/>
<path d="M326.137 390.107C325.461 393.484 324.719 400.037 327.15 399.227C329.581 398.416 339.642 398.213 344.369 398.213" stroke="black" stroke-width="2.02667" stroke-linecap="round"/>
<path d="M757.644 386.053C766.76 374.231 783.574 349.371 777.902 344.507" stroke="black" stroke-width="2.02667" stroke-linecap="round"/>
<path d="M139.758 386.053C148.874 374.231 165.689 349.371 160.017 344.507" stroke="black" stroke-width="2.02667" stroke-linecap="round"/>
<path d="M958.203 385.04C949.087 373.218 932.272 348.357 937.945 343.493" stroke="black" stroke-width="2.02667" stroke-linecap="round"/>
<path d="M340.318 385.04C331.201 373.218 314.387 348.357 320.059 343.493" stroke="black" stroke-width="2.02667" stroke-linecap="round"/>
<path d="M761.695 389.093C771.825 376.596 791.678 350.384 790.057 345.52" stroke="black" stroke-width="2.02667" stroke-linecap="round"/>
<path d="M143.81 389.093C153.939 376.596 173.792 350.384 172.172 345.52" stroke="black" stroke-width="2.02667" stroke-linecap="round"/>
<path d="M954.151 388.08C944.022 375.582 924.169 349.371 925.79 344.507" stroke="black" stroke-width="2.02667" stroke-linecap="round"/>
<path d="M336.266 388.08C326.137 375.582 306.283 349.371 307.904 344.507" stroke="black" stroke-width="2.02667" stroke-linecap="round"/>
<path d="M766.76 390.107C780.266 376.933 806.264 349.573 802.212 345.52" stroke="black" stroke-width="2.02667" stroke-linecap="round"/>
<path d="M148.874 390.107C162.38 376.933 188.379 349.573 184.327 345.52" stroke="black" stroke-width="2.02667" stroke-linecap="round"/>
<path d="M949.087 389.093C935.581 375.92 909.583 348.56 913.634 344.507" stroke="black" stroke-width="2.02667" stroke-linecap="round"/>
<path d="M331.201 389.093C317.696 375.92 291.697 348.56 295.749 344.507" stroke="black" stroke-width="2.02667" stroke-linecap="round"/>
<path d="M819.432 344.507C809.641 358.693 786.613 387.675 772.838 390.107C759.062 392.539 754.267 385.04 753.592 380.987C759.332 373.555 770.204 354.235 767.773 344.507" stroke="black" stroke-width="2.02667" stroke-linecap="round"/>
<path d="M201.547 344.507C191.755 358.693 168.728 387.675 154.952 390.107C141.176 392.539 136.382 385.04 135.706 380.987C141.446 373.555 152.318 354.235 149.887 344.507" stroke="black" stroke-width="2.02667" stroke-linecap="round"/>
<path d="M896.415 343.493C906.206 357.68 929.233 386.661 943.009 389.093C956.785 391.525 961.58 384.027 962.255 379.973C956.515 372.542 945.643 353.221 948.074 343.493" stroke="black" stroke-width="2.02667" stroke-linecap="round"/>
<path d="M278.529 343.493C288.321 357.68 311.348 386.661 325.124 389.093C338.9 391.525 343.694 384.027 344.369 379.973C338.629 372.542 327.757 353.221 330.188 343.493" stroke="black" stroke-width="2.02667" stroke-linecap="round"/>
<path d="M832.6 298.907C832.263 307.689 829.967 328.901 823.484 335.387M820.445 298.907C820.108 307.689 819.837 328.901 813.355 335.387M807.277 298.907C806.939 307.689 806.669 328.901 800.187 335.387M794.109 298.907C793.771 307.689 798.566 328.901 792.083 335.387M779.928 298.907C779.59 307.689 785.398 328.901 778.915 335.387M768.786 299.92C768.448 308.702 774.256 328.901 767.773 335.387" stroke="black" stroke-width="2.02667" stroke-linecap="round"/>
<path d="M214.715 298.907C214.377 307.689 212.081 328.901 205.598 335.387M202.56 298.907C202.222 307.689 201.952 328.901 195.469 335.387M189.392 298.907C189.054 307.689 188.784 328.901 182.301 335.387M176.223 298.907C175.886 307.689 180.68 328.901 174.198 335.387M162.042 298.907C161.705 307.689 167.512 328.901 161.03 335.387M150.9 299.92C150.563 308.702 156.37 328.901 149.887 335.387" stroke="black" stroke-width="2.02667" stroke-linecap="round"/>
<path d="M884.26 298.907C884.597 307.689 886.893 328.901 893.376 335.387M896.415 298.907C896.752 307.689 897.022 328.901 903.505 335.387M909.583 298.907C909.92 307.689 910.191 328.901 916.673 335.387M922.751 298.907C923.088 307.689 918.294 328.901 924.777 335.387M936.932 298.907C937.269 307.689 931.462 328.901 937.945 335.387M948.074 299.92C948.412 308.702 942.604 328.901 949.087 335.387" stroke="black" stroke-width="2.02667" stroke-linecap="round"/>
<path d="M266.374 298.907C266.712 307.689 269.008 328.901 275.49 335.387M278.529 298.907C278.867 307.689 279.137 328.901 285.62 335.387M291.697 298.907C292.035 307.689 292.305 328.901 298.788 335.387M304.865 298.907C305.203 307.689 300.408 328.901 306.891 335.387M319.046 298.907C319.384 307.689 313.576 328.901 320.059 335.387M330.188 299.92C330.526 308.702 324.719 328.901 331.201 335.387" stroke="black" stroke-width="2.02667" stroke-linecap="round"/>
<path d="M1013.91 394.16C1015.26 407.333 1017.76 438.544 1016.95 449.893" stroke="black" stroke-width="2.02667" stroke-linecap="round"/>
<path d="M395.701 395.624C397.052 408.797 399.55 440.008 398.74 451.357" stroke="black" stroke-width="2.02667" stroke-linecap="round"/>
<path d="M702.963 395.624C701.612 408.797 699.114 440.008 699.924 451.357" stroke="black" stroke-width="2.02667" stroke-linecap="round"/>
<path d="M82.0564 395.624C80.7058 408.797 78.2072 440.008 79.0176 451.357" stroke="black" stroke-width="2.02667" stroke-linecap="round"/>
<path d="M1016.95 394.16C1021 410.035 1028.91 444.421 1028.1 454.96" stroke="black" stroke-width="2.02667" stroke-linecap="round"/>
<path d="M398.74 395.624C402.792 411.499 410.693 445.885 409.882 456.424" stroke="black" stroke-width="2.02667" stroke-linecap="round"/>
<path d="M699.924 395.624C695.872 411.499 687.972 445.885 688.782 456.424" stroke="black" stroke-width="2.02667" stroke-linecap="round"/>
<path d="M79.0176 395.624C74.9659 411.499 67.065 445.885 67.8754 456.424" stroke="black" stroke-width="2.02667" stroke-linecap="round"/>
<path d="M1022.02 395.173C1028.43 411.049 1039.44 447.259 1036.2 456.987" stroke="black" stroke-width="2.02667" stroke-linecap="round"/>
<path d="M403.805 396.637C410.22 412.513 421.227 448.722 417.986 458.45" stroke="black" stroke-width="2.02667" stroke-linecap="round"/>
<path d="M694.859 396.637C688.444 412.513 677.437 448.722 680.678 458.45" stroke="black" stroke-width="2.02667" stroke-linecap="round"/>
<path d="M73.9529 396.637C67.5377 412.513 56.5306 448.722 59.772 458.45" stroke="black" stroke-width="2.02667" stroke-linecap="round"/>
<path d="M1026.07 395.173C1033.84 411.049 1048.76 445.435 1046.33 455.973" stroke="black" stroke-width="2.02667" stroke-linecap="round"/>
<path d="M407.856 396.637C415.622 412.513 430.546 446.898 428.115 457.437" stroke="black" stroke-width="2.02667" stroke-linecap="round"/>
<path d="M690.808 396.637C683.042 412.513 668.118 446.898 670.549 457.437" stroke="black" stroke-width="2.02667" stroke-linecap="round"/>
<path d="M69.9012 396.637C62.1355 412.513 47.2117 446.898 49.6427 457.437" stroke="black" stroke-width="2.02667" stroke-linecap="round"/>
<path d="M1018.98 300.933C1020.33 307.013 1023.03 324.24 1023.03 336.4" stroke="black" stroke-width="2.02667" stroke-linecap="round"/>
<path d="M400.766 302.397C402.116 308.477 404.818 325.704 404.818 337.864" stroke="black" stroke-width="2.02667" stroke-linecap="round"/>
<path d="M697.898 302.397C696.548 308.477 693.846 325.704 693.846 337.864" stroke="black" stroke-width="2.02667" stroke-linecap="round"/>
<path d="M76.9917 302.397C75.6412 308.477 72.94 325.704 72.94 337.864" stroke="black" stroke-width="2.02667" stroke-linecap="round"/>
<path d="M1035.19 335.387C1036.87 324.24 1037.41 301.136 1030.12 297.893" stroke="black" stroke-width="2.02667" stroke-linecap="round"/>
<path d="M416.973 336.85C418.661 325.704 419.201 302.6 411.908 299.357" stroke="black" stroke-width="2.02667" stroke-linecap="round"/>
<path d="M681.691 336.85C680.003 325.704 679.463 302.6 686.756 299.357" stroke="black" stroke-width="2.02667" stroke-linecap="round"/>
<path d="M60.7849 336.85C59.0967 325.704 58.5564 302.6 65.8495 299.357" stroke="black" stroke-width="2.02667" stroke-linecap="round"/>
<path d="M1008.85 336.4H1057.47V297.893" stroke="black" stroke-width="2.02667" stroke-linecap="round"/>
<path d="M390.637 337.864H439.257V299.357" stroke="black" stroke-width="2.02667" stroke-linecap="round"/>
<path d="M708.028 337.864H659.407V299.357" stroke="black" stroke-width="2.02667" stroke-linecap="round"/>
<path d="M87.121 337.864H38.5005V299.357" stroke="black" stroke-width="2.02667" stroke-linecap="round"/>
<path d="M1065.57 297.893V336.4H1070.64" stroke="black" stroke-width="2.02667" stroke-linecap="round"/>
<path d="M447.36 299.357V337.864H452.425" stroke="black" stroke-width="2.02667" stroke-linecap="round"/>
<path d="M651.304 299.357V337.864H646.239" stroke="black" stroke-width="2.02667" stroke-linecap="round"/>
<path d="M30.3971 299.357V337.864H25.3324" stroke="black" stroke-width="2.02667" stroke-linecap="round"/>
<path d="M1048.35 335.387C1049.7 324.578 1052.2 301.947 1051.39 297.893" stroke="black" stroke-width="2.02667" stroke-linecap="round"/>
<path d="M430.141 336.85C431.491 326.041 433.99 303.41 433.18 299.357" stroke="black" stroke-width="2.02667" stroke-linecap="round"/>
<path d="M668.523 336.85C667.173 326.041 664.674 303.41 665.485 299.357" stroke="black" stroke-width="2.02667" stroke-linecap="round"/>
<path d="M47.6168 336.85C46.2663 326.041 43.7677 303.41 44.578 299.357" stroke="black" stroke-width="2.02667" stroke-linecap="round"/>
<path d="M1008.85 343.493H1071.65" stroke="black" stroke-width="2.02667" stroke-linecap="round"/>
<path d="M708.028 344.957H646.222" stroke="black" stroke-width="2.02667" stroke-linecap="round"/>
<path d="M1010.88 380.987C1014.93 376.596 1023.84 360.517 1023.03 343.493" stroke="black" stroke-width="2.02667" stroke-linecap="round"/>
<path d="M392.662 382.45C396.714 378.059 405.628 361.981 404.818 344.957" stroke="black" stroke-width="2.02667" stroke-linecap="round"/>
<path d="M706.002 382.45C701.95 378.059 693.036 361.981 693.847 344.957" stroke="black" stroke-width="2.02667" stroke-linecap="round"/>
<path d="M85.0952 382.45C81.0434 378.059 72.1297 361.981 72.94 344.957" stroke="black" stroke-width="2.02667" stroke-linecap="round"/>
<path d="M1014.93 384.027C1021.34 375.92 1035.79 354.032 1034.17 343.493" stroke="black" stroke-width="2.02667" stroke-linecap="round"/>
<path d="M396.714 385.49C403.129 377.384 417.58 355.496 415.96 344.957" stroke="black" stroke-width="2.02667" stroke-linecap="round"/>
<path d="M701.95 385.49C695.535 377.384 681.084 355.496 682.704 344.957" stroke="black" stroke-width="2.02667" stroke-linecap="round"/>
<path d="M81.0434 385.49C74.6282 377.384 60.1771 355.496 61.7978 344.957" stroke="black" stroke-width="2.02667" stroke-linecap="round"/>
<path d="M1018.98 385.04C1027.42 376.933 1045.52 354.843 1046.33 343.493" stroke="black" stroke-width="2.02667" stroke-linecap="round"/>
<path d="M400.766 386.504C409.207 378.397 427.305 356.306 428.115 344.957" stroke="black" stroke-width="2.02667" stroke-linecap="round"/>
<path d="M697.898 386.504C689.457 378.397 671.36 356.306 670.549 344.957" stroke="black" stroke-width="2.02667" stroke-linecap="round"/>
<path d="M76.9917 386.504C68.5507 378.397 50.453 356.306 49.6427 344.957" stroke="black" stroke-width="2.02667" stroke-linecap="round"/>
<path d="M1024.04 386.053C1035.19 375.92 1057.47 352.613 1057.47 344.507" stroke="black" stroke-width="2.02667" stroke-linecap="round"/>
<path d="M405.831 387.517C416.973 377.384 439.257 354.077 439.257 345.97" stroke="black" stroke-width="2.02667" stroke-linecap="round"/>
<path d="M692.834 387.517C681.691 377.384 659.407 354.077 659.407 345.97" stroke="black" stroke-width="2.02667" stroke-linecap="round"/>
<path d="M71.9271 387.517C60.7849 377.384 38.5005 354.077 38.5005 345.97" stroke="black" stroke-width="2.02667" stroke-linecap="round"/>
<path d="M1024.04 387.067C1037.89 377.609 1066.79 353.221 1067.6 343.493" stroke="black" stroke-width="2.02667" stroke-linecap="round"/>
<path d="M405.831 388.53C419.674 379.073 448.576 354.685 449.386 344.957" stroke="black" stroke-width="2.02667" stroke-linecap="round"/>
<path d="M692.834 388.53C678.99 379.073 650.088 354.685 649.278 344.957" stroke="black" stroke-width="2.02667" stroke-linecap="round"/>
<path d="M71.9271 388.53C58.0838 379.073 29.1816 354.685 28.3712 344.957" stroke="black" stroke-width="2.02667" stroke-linecap="round"/>
<path d="M1008.85 392.133C1014.25 393.484 1025.46 395.781 1027.08 394.16C1028.7 392.539 1029.78 390.107 1030.12 389.093M1030.12 389.093C1023.37 387.742 1009.66 384.027 1008.85 379.973M1030.12 389.093C1044.3 381.324 1072.46 363.355 1071.65 353.627" stroke="black" stroke-width="2.02667" stroke-linecap="round"/>
<path d="M390.637 393.597C396.039 394.948 407.249 397.245 408.869 395.624C410.49 394.002 411.57 391.57 411.908 390.557M411.908 390.557C405.155 389.206 391.447 385.49 390.637 381.437M411.908 390.557C426.089 382.788 454.248 364.818 453.438 355.09" stroke="black" stroke-width="2.02667" stroke-linecap="round"/>
<path d="M708.028 393.597C702.625 394.948 691.416 397.245 689.795 395.624C688.174 394.002 687.094 391.57 686.756 390.557M686.756 390.557C693.509 389.206 707.217 385.49 708.028 381.437M686.756 390.557C672.575 382.788 645.411 367.408 646.222 357.68" stroke="black" stroke-width="2.02667" stroke-linecap="round"/>
<path d="M87.121 393.597C81.7187 394.948 70.509 397.245 68.8883 395.624C67.2676 394.002 66.1872 391.57 65.8495 390.557M65.8495 390.557C72.6024 389.206 86.3107 385.49 87.121 381.437M65.8495 390.557C51.6686 382.788 24.5048 367.408 25.3151 357.68" stroke="black" stroke-width="2.02667" stroke-linecap="round"/>
<path d="M989.604 292.827H982.513C984.134 298.501 979.812 301.271 977.449 301.947V453.947C981.501 454.757 981.163 459.689 980.488 462.053H988.591C986.16 458.811 992.305 454.622 995.682 452.933V301.947C990.819 301.136 989.604 295.529 989.604 292.827Z" stroke="black" stroke-width="2.02667" stroke-linecap="round"/>
<path d="M734.346 292.827H727.256C728.876 298.501 724.555 301.271 722.191 301.947V453.947C726.243 454.757 725.905 459.689 725.23 462.053H733.333C730.902 458.811 737.047 454.622 740.424 452.933V301.947C735.562 301.136 734.346 295.529 734.346 292.827Z" stroke="black" stroke-width="2.02667" stroke-linecap="round"/>
<path d="M114.435 296.88H107.344C108.965 302.555 104.643 305.324 102.28 306V458C106.331 458.811 105.994 463.742 105.319 466.107H113.422C110.991 462.864 117.136 458.675 120.512 456.987V306C115.65 305.189 114.435 299.582 114.435 296.88Z" stroke="black" stroke-width="2.02667" stroke-linecap="round"/>
<path d="M371.718 292.827H364.628C366.249 298.501 361.927 301.271 359.563 301.947V453.947C363.615 454.757 363.277 459.689 362.602 462.053H370.705C368.274 458.811 374.419 454.622 377.796 452.933V301.947C372.934 301.136 371.718 295.529 371.718 292.827Z" stroke="black" stroke-width="2.02667" stroke-linecap="round"/>
<path d="M648.247 472.187H1070.64" stroke="black" stroke-width="2.02667" stroke-linecap="round"/>
<path d="M29.349 473.2H451.74" stroke="black" stroke-width="2.02667" stroke-linecap="round"/>
<path d="M653.312 669.787H677.622" stroke="black" stroke-width="2.02667" stroke-linecap="round"/>
<path d="M31.3749 671.813H55.6851" stroke="black" stroke-width="2.02667" stroke-linecap="round"/>
<path d="M960.229 513.733H1002.77" stroke="black" stroke-width="2.02667" stroke-linecap="round"/>
<path d="M716.114 513.733H758.657" stroke="black" stroke-width="2.02667" stroke-linecap="round"/>
<path d="M817.406 539.067H898.44" stroke="black" stroke-width="2.02667" stroke-linecap="round"/>
<path d="M780.941 500.56V507.653H769.799C765.41 509.68 759.264 514.949 769.799 519.813H780.941V527.92" stroke="black" stroke-width="2.02667" stroke-linecap="round"/>
<path d="M197.495 497.52V504.876H190.84C188.218 506.978 184.548 512.442 190.84 517.486H197.495V525.893" stroke="black" stroke-width="2.02667" stroke-linecap="round"/>
<path d="M936.932 499.547V506.64H948.074C952.463 508.667 958.608 513.936 948.074 518.8H936.932V526.907" stroke="black" stroke-width="2.02667" stroke-linecap="round"/>
<path d="M284.607 497.52V504.351H291.262C293.883 506.302 297.554 511.376 291.262 516.06H284.607V523.867" stroke="black" stroke-width="2.02667" stroke-linecap="round"/>
<path d="M676.609 499.547H1036.2" stroke="black" stroke-width="2.02667" stroke-linecap="round"/>
<path d="M966.307 527.92H752.579" stroke="black" stroke-width="2.02667" stroke-linecap="round"/>
<path d="M348.421 525.893H134.693" stroke="black" stroke-width="2.02667" stroke-linecap="round"/>
<path d="M930.854 502.587H787.018V507.653C777.294 513.328 782.967 518.8 787.018 520.827V525.893H930.854V520.827C941.388 515.152 935.243 509.68 930.854 507.653V502.587Z" stroke="black" stroke-width="2.02667" stroke-linecap="round"/>
<path d="M277.59 499.547H204.283V504.834C199.327 510.755 202.218 516.465 204.283 518.58V523.867H277.59V518.58C282.959 512.658 279.828 506.948 277.59 504.834V499.547Z" stroke="black" stroke-width="2.02667" stroke-linecap="round"/>
<path d="M894.389 430.64L893.376 414.427H877.169V430.64L884.26 436.72V445.84L878.182 449.893H895.402L889.324 445.84V436.72L894.389 430.64Z" stroke="black" stroke-width="2.02667" stroke-linecap="round"/>
<path d="M888.311 394.16L912.621 452.933L797.148 453.947L826.523 394.16" stroke="black" stroke-width="2.02667" stroke-linecap="round"/>
<path d="M270.426 394.16L294.736 452.933L179.262 453.947L208.637 394.16" stroke="black" stroke-width="2.02667" stroke-linecap="round"/>
<path d="M860.962 395.173V443.813L871.092 450.907H844.755L854.885 443.813V395.173M842.73 354.64H873.117L888.311 394.16H827.536L842.73 354.64Z" stroke="black" stroke-width="2.02667" stroke-linecap="round"/>
<path d="M243.077 395.173V443.813L253.206 450.907H226.87L236.999 443.813V395.173M224.844 354.64H255.232L270.426 394.16H209.65L224.844 354.64Z" stroke="black" stroke-width="2.02667" stroke-linecap="round"/>
<path d="M897.427 344.507C901.817 355.653 917.078 380.176 943.009 389.093" stroke="black" stroke-width="2.02667" stroke-linecap="round"/>
<path d="M884.26 298.907C884.26 308.027 886.083 328.091 893.376 335.387" stroke="black" stroke-width="2.02667" stroke-linecap="round"/>
<rect x="747.515" y="293.84" width="222.843" height="170.24" rx="25.3333" stroke="black" stroke-width="2.02667"/>
<rect x="129.629" y="293.84" width="222.843" height="170.24" rx="25.3333" stroke="black" stroke-width="2.02667"/>
<rect x="753.592" y="297.893" width="210.688" height="162.133" rx="25.3333" stroke="black" stroke-width="2.02667"/>
<rect x="135.707" y="297.893" width="210.688" height="162.133" rx="25.3333" stroke="black" stroke-width="2.02667"/>
<path d="M964.281 336.4H753.592V344.507L964.281 343.493V336.4Z" stroke="black" stroke-width="2.02667" stroke-linecap="round"/>
<path d="M346.395 336.4H135.706V344.507L346.395 343.493V336.4Z" stroke="black" stroke-width="2.02667" stroke-linecap="round"/>
<path d="M862.988 335.387V298.907V297.893H853.872V335.387H862.988Z" stroke="black" stroke-width="2.02667" stroke-linecap="round"/>
<path d="M245.102 335.387V298.907V297.893H235.986V335.387H245.102Z" stroke="black" stroke-width="2.02667" stroke-linecap="round"/>
<path d="M646.222 482.32H1071.65V679.92C1071.65 707.343 1049.42 729.573 1022 729.573H695.875C668.453 729.573 646.222 707.343 646.222 679.92V482.32Z" stroke="black" stroke-width="2.02667"/>
<path d="M26.3107 482.32H451.739V679.92C451.739 707.343 429.509 729.573 402.086 729.573H75.964C48.5412 729.573 26.3107 707.343 26.3107 679.92V482.32Z" stroke="black" stroke-width="2.02667"/>
<mask id="path-146-inside-1_333_9543" fill="white">
<path d="M645.209 298.907H1072.66V75.9734C1072.66 47.991 1049.98 25.3067 1022 25.3067H695.875C667.893 25.3067 645.209 47.991 645.209 75.9734V298.907Z"/>
</mask>
<path d="M645.209 298.907H1072.66H645.209ZM1074.69 75.9734C1074.69 46.8717 1051.1 23.2801 1022 23.2801H695.875C666.774 23.2801 643.182 46.8717 643.182 75.9734L647.235 75.9734C647.235 49.1103 669.012 27.3334 695.875 27.3334H1022C1048.86 27.3334 1070.64 49.1103 1070.64 75.9734L1074.69 75.9734ZM695.875 23.2801C666.774 23.2801 643.182 46.8717 643.182 75.9734V298.907H647.235V75.9734C647.235 49.1103 669.012 27.3334 695.875 27.3334L695.875 23.2801ZM1074.69 298.907V75.9734C1074.69 46.8717 1051.1 23.2801 1022 23.2801L1022 27.3334C1048.86 27.3334 1070.64 49.1103 1070.64 75.9734V298.907H1074.69Z" fill="black" mask="url(#path-146-inside-1_333_9543)"/>
<mask id="path-148-inside-2_333_9543" fill="white">
<path d="M25.2973 298.907H452.753V75.9734C452.753 47.991 430.068 25.3067 402.086 25.3067H75.964C47.9816 25.3067 25.2973 47.991 25.2973 75.9734V298.907Z"/>
</mask>
<path d="M25.2973 298.907H452.753H25.2973ZM454.779 75.9734C454.779 46.8717 431.188 23.2801 402.086 23.2801H75.964C46.8623 23.2801 23.2707 46.8717 23.2707 75.9734L27.324 75.9734C27.324 49.1103 49.1009 27.3334 75.964 27.3334H402.086C428.949 27.3334 450.726 49.1103 450.726 75.9734L454.779 75.9734ZM75.964 23.2801C46.8623 23.2801 23.2707 46.8717 23.2707 75.9734V298.907H27.324V75.9734C27.324 49.1103 49.1009 27.3334 75.964 27.3334L75.964 23.2801ZM454.779 298.907V75.9734C454.779 46.8717 431.188 23.2801 402.086 23.2801L402.086 27.3334C428.949 27.3334 450.726 49.1103 450.726 75.9734V298.907H454.779Z" fill="black" mask="url(#path-148-inside-2_333_9543)"/>
<path d="M652.3 486.373H1065.57V675.867C1065.57 703.289 1043.34 725.52 1015.92 725.52H701.953C674.53 725.52 652.3 703.289 652.3 675.867V486.373Z" stroke="black" stroke-width="2.02667"/>
<path d="M32.3882 486.373H445.662V675.867C445.662 703.289 423.431 725.52 396.008 725.52H82.0416C54.6188 725.52 32.3882 703.289 32.3882 675.867V486.373Z" stroke="black" stroke-width="2.02667"/>
<mask id="path-152-inside-3_333_9543" fill="white">
<path d="M651.286 292.827H1066.59V82.0533C1066.59 54.0709 1043.9 31.3867 1015.92 31.3867H701.953C673.971 31.3867 651.286 54.0709 651.286 82.0533V292.827Z"/>
</mask>
<path d="M651.286 292.827H1066.59H651.286ZM1068.61 82.0533C1068.61 52.9516 1045.02 29.36 1015.92 29.36H701.953C672.851 29.36 649.26 52.9516 649.26 82.0533L653.313 82.0533C653.313 55.1902 675.09 33.4133 701.953 33.4133H1015.92C1042.78 33.4133 1064.56 55.1902 1064.56 82.0533L1068.61 82.0533ZM701.953 29.36C672.851 29.36 649.26 52.9516 649.26 82.0533V292.827H653.313V82.0533C653.313 55.1902 675.09 33.4133 701.953 33.4133L701.953 29.36ZM1068.61 292.827V82.0533C1068.61 52.9516 1045.02 29.36 1015.92 29.36L1015.92 33.4133C1042.78 33.4133 1064.56 55.1902 1064.56 82.0533V292.827H1068.61Z" fill="black" mask="url(#path-152-inside-3_333_9543)"/>
<ellipse cx="682.687" cy="691.067" rx="7.09049" ry="7.09333" fill="black"/>
<ellipse cx="682.687" cy="168.187" rx="7.09049" ry="7.09333" fill="black"/>
<ellipse cx="1037.21" cy="691.067" rx="7.09049" ry="7.09333" fill="black"/>
<ellipse cx="1037.21" cy="168.187" rx="7.09049" ry="7.09333" fill="black"/>
<path d="M1036.2 582.64C1033.5 578.925 1030.12 571.696 1038.22 572.507C1046.33 573.317 1045.65 581.627 1044.3 585.68" stroke="black" stroke-width="2.02667" stroke-linecap="round"/>
<path d="M680.474 582.703C683.175 578.987 686.551 571.759 678.448 572.569C670.344 573.38 671.02 581.689 672.37 585.743" stroke="black" stroke-width="2.02667" stroke-linecap="round"/>
<path d="M1044.3 585.68C1043.29 590.071 1036.81 596.421 1018.98 586.693C1001.15 576.965 995.344 586.018 994.669 591.76M1017.97 585.68C1016.95 583.316 1015.53 578.384 1017.97 577.573" stroke="black" stroke-width="2.02667" stroke-linecap="round"/>
<path d="M672.37 585.743C673.383 590.134 679.865 596.484 697.693 586.756C715.521 577.028 721.328 586.081 722.003 591.823M698.706 585.743C699.719 583.379 701.137 578.447 698.706 577.636" stroke="black" stroke-width="2.02667" stroke-linecap="round"/>
<path d="M688.577 58.7955C691.278 62.511 694.655 69.7395 686.551 68.9288C678.448 68.1182 679.123 59.8088 680.474 55.7555" stroke="black" stroke-width="2.02667" stroke-linecap="round"/>
<path d="M680.473 55.7555C681.486 51.3644 687.969 45.0142 705.796 54.7422C723.624 64.4702 729.431 55.4177 730.107 49.6755M706.809 55.7555C707.822 58.12 709.24 63.0516 706.809 63.8623" stroke="black" stroke-width="2.02667" stroke-linecap="round"/>
<path d="M1027.08 58.7955C1024.38 62.511 1021 69.7395 1029.11 68.9288C1037.21 68.1182 1036.54 59.8088 1035.19 55.7555" stroke="black" stroke-width="2.02667" stroke-linecap="round"/>
<path d="M1035.19 55.7555C1034.17 51.3644 1027.69 45.0142 1009.86 54.7422C992.035 64.4702 986.227 55.4177 985.552 49.6755M1008.85 55.7555C1007.84 58.12 1006.42 63.0516 1008.85 63.8623" stroke="black" stroke-width="2.02667" stroke-linecap="round"/>
<path d="M844.755 112.516C842.054 108.801 838.677 101.572 846.781 102.383C854.884 103.194 854.209 111.503 852.858 115.556" stroke="black" stroke-width="2.02667" stroke-linecap="round"/>
<path d="M852.859 115.557C851.846 119.948 845.363 126.298 827.536 116.57C809.708 106.842 803.901 115.894 803.225 121.637M826.523 115.557C825.51 113.192 824.092 108.26 826.523 107.45" stroke="black" stroke-width="2.02667" stroke-linecap="round"/>
<path d="M540.877 145.942C538.176 149.658 534.799 156.886 542.903 156.076C551.006 155.265 550.331 146.956 548.98 142.902" stroke="black" stroke-width="2.02667" stroke-linecap="round"/>
<path d="M548.981 142.902C547.968 138.511 541.485 132.161 523.657 141.889C505.83 151.617 500.022 142.564 499.347 136.822M522.644 142.902C521.632 145.267 520.213 150.198 522.644 151.009" stroke="black" stroke-width="2.02667" stroke-linecap="round"/>
<path d="M214.714 166.209C212.013 169.925 208.637 177.153 216.74 176.342C224.844 175.532 224.168 167.222 222.818 163.169" stroke="black" stroke-width="2.02667" stroke-linecap="round"/>
<path d="M222.818 163.169C221.805 158.778 215.322 152.428 197.495 162.156C179.667 171.884 173.86 162.831 173.185 157.089M196.482 163.169C195.469 165.534 194.051 170.465 196.482 171.276" stroke="black" stroke-width="2.02667" stroke-linecap="round"/>
<path d="M538.851 611.076C536.15 607.361 532.773 600.132 540.877 600.943C548.98 601.753 548.305 610.063 546.954 614.116" stroke="black" stroke-width="2.02667" stroke-linecap="round"/>
<path d="M546.955 614.116C545.942 618.507 539.459 624.857 521.632 615.129C503.804 605.401 497.997 614.454 497.321 620.196M520.619 614.116C519.606 611.752 518.188 606.82 520.619 606.009" stroke="black" stroke-width="2.02667" stroke-linecap="round"/>
<path d="M866.852 112.516C869.553 108.801 872.93 101.572 864.826 102.383C856.723 103.194 857.398 111.503 858.749 115.556" stroke="black" stroke-width="2.02667" stroke-linecap="round"/>
<path d="M858.748 113.53C859.761 117.921 866.244 124.271 884.071 114.543C901.899 104.815 907.706 113.867 908.382 119.61M885.084 113.53C886.097 111.165 887.515 106.234 885.084 105.423" stroke="black" stroke-width="2.02667" stroke-linecap="round"/>
<path d="M562.974 145.942C565.675 149.658 569.052 156.886 560.948 156.076C552.845 155.265 553.52 146.956 554.871 142.902" stroke="black" stroke-width="2.02667" stroke-linecap="round"/>
<path d="M554.87 144.929C555.883 140.538 562.366 134.188 580.193 143.916C598.021 153.644 603.828 144.591 604.504 138.849M581.206 144.929C582.219 147.293 583.637 152.225 581.206 153.036" stroke="black" stroke-width="2.02667" stroke-linecap="round"/>
<path d="M264.986 166.209C267.687 169.925 271.063 177.153 262.96 176.342C254.856 175.532 255.532 167.222 256.882 163.169" stroke="black" stroke-width="2.02667" stroke-linecap="round"/>
<path d="M256.882 165.196C257.895 160.805 264.377 154.454 282.205 164.182C300.032 173.91 305.84 164.858 306.515 159.116M283.218 165.196C284.231 167.56 285.649 172.492 283.218 173.302" stroke="black" stroke-width="2.02667" stroke-linecap="round"/>
<path d="M560.948 612.201C563.649 608.486 567.026 601.257 558.922 602.068C550.819 602.879 551.494 611.188 552.845 615.241" stroke="black" stroke-width="2.02667" stroke-linecap="round"/>
<path d="M552.844 613.215C553.857 617.606 560.34 623.956 578.168 614.228C595.995 604.5 601.803 613.552 602.478 619.295M579.181 613.215C580.193 610.85 581.612 605.919 579.181 605.108" stroke="black" stroke-width="2.02667" stroke-linecap="round"/>
<path d="M986.565 308.027V449.893" stroke="black" stroke-width="2.02667" stroke-linecap="round"/>
<path d="M731.307 308.027V449.893" stroke="black" stroke-width="2.02667" stroke-linecap="round"/>
<path d="M111.396 312.08V453.947" stroke="black" stroke-width="2.02667" stroke-linecap="round"/>
<path d="M368.68 308.027V449.893" stroke="black" stroke-width="2.02667" stroke-linecap="round"/>
<path d="M1065.57 291.813C1065.57 291.813 1027.08 290.8 1021 291.813C1014.93 292.827 1003.58 300.528 1002.77 311.067C1001.96 321.605 1001.76 441.787 1002.77 444.827C1003.78 447.867 1009.46 463.472 1019.99 465.093C1030.53 466.715 1058.48 465.769 1071.65 465.093V297.893" stroke="black" stroke-width="2.02667" stroke-linecap="round"/>
<path d="M447.361 293.277C447.361 293.277 408.87 292.264 402.792 293.277C396.714 294.29 385.37 301.992 384.559 312.53C383.749 323.069 383.546 443.25 384.559 446.29C385.572 449.33 391.245 464.936 401.779 466.557C412.314 468.178 440.27 467.233 453.438 466.557V299.357" stroke="black" stroke-width="2.02667" stroke-linecap="round"/>
<path d="M652.299 293.277C652.299 293.277 689.794 292.264 695.872 293.277C701.95 294.29 713.294 301.992 714.105 312.53C714.915 323.069 715.118 443.25 714.105 446.29C713.092 449.33 707.419 464.936 696.885 466.557C686.351 468.178 659.39 467.233 646.222 466.557V298.907" stroke="black" stroke-width="2.02667" stroke-linecap="round"/>
<path d="M25.3151 293.277C25.3151 293.277 68.8879 292.264 74.9655 293.277C81.0431 294.29 92.3879 301.992 93.1982 312.53C94.0085 323.069 94.2112 443.25 93.1983 446.29C92.1853 449.33 86.513 464.936 75.9785 466.557C65.4441 468.178 38.4832 467.233 25.3151 466.557V299.92" stroke="black" stroke-width="2.02667" stroke-linecap="round"/>
<path d="M1071.65 297.293C1071.65 297.293 1031.13 296.364 1025.47 297.293C1019.8 298.222 1009.23 305.283 1008.48 314.945C1007.72 324.608 1007.53 434.797 1008.48 437.584C1009.42 440.371 1014.71 454.679 1024.52 456.166C1034.34 457.652 1059.38 456.785 1071.65 456.166" stroke="black" stroke-width="2.02667" stroke-linecap="round"/>
<path d="M453.438 298.756C453.438 298.756 412.918 297.827 407.254 298.756C401.59 299.686 391.018 306.747 390.263 316.409C389.508 326.071 389.319 436.26 390.263 439.048C391.207 441.835 396.493 456.143 406.31 457.629C416.127 459.116 441.167 458.249 453.438 457.629" stroke="black" stroke-width="2.02667" stroke-linecap="round"/>
<path d="M647.235 298.756C647.235 298.756 685.747 297.827 691.41 298.756C697.074 299.686 707.646 306.747 708.401 316.409C709.156 326.071 709.345 436.26 708.401 439.048C707.457 441.835 702.171 456.143 692.354 457.629C682.537 459.116 659.506 458.249 647.235 457.629" stroke="black" stroke-width="2.02667" stroke-linecap="round"/>
<path d="M26.328 298.756C26.328 298.756 64.84 297.827 70.5038 298.756C76.1675 299.686 86.7396 306.747 87.4948 316.409C88.2499 326.071 88.4388 436.26 87.4948 439.048C86.5509 441.835 81.2648 456.143 71.4478 457.629C61.6307 459.116 38.5993 458.249 26.328 457.629" stroke="black" stroke-width="2.02667" stroke-linecap="round"/>
<mask id="path-194-inside-4_333_9543" fill="white">
<path d="M657.364 493.467H1060.51V673.84C1060.51 698.465 1040.55 718.427 1015.92 718.427H703.977C678.233 718.427 657.364 697.557 657.364 671.813V493.467Z"/>
</mask>
<path d="M657.364 493.467H1060.51H657.364ZM1062.54 673.84C1062.54 699.584 1041.67 720.453 1015.92 720.453H703.977C677.114 720.453 655.337 698.677 655.337 671.813L659.39 671.813C659.39 696.438 679.353 716.4 703.977 716.4H1015.92C1039.43 716.4 1058.48 697.345 1058.48 673.84L1062.54 673.84ZM703.977 720.453C677.114 720.453 655.337 698.677 655.337 671.813V493.467H659.39V671.813C659.39 696.438 679.353 716.4 703.977 716.4L703.977 720.453ZM1062.54 493.467V673.84C1062.54 699.584 1041.67 720.453 1015.92 720.453L1015.92 716.4C1039.43 716.4 1058.48 697.345 1058.48 673.84V493.467H1062.54Z" fill="black" mask="url(#path-194-inside-4_333_9543)"/>
<mask id="path-196-inside-5_333_9543" fill="white">
<path d="M37.4525 493.467H440.597V673.84C440.597 698.465 420.635 718.427 396.011 718.427H84.0658C58.322 718.427 37.4525 697.557 37.4525 671.813V493.467Z"/>
</mask>
<path d="M37.4525 493.467H440.597H37.4525ZM442.624 673.84C442.624 699.584 421.755 720.453 396.011 720.453H84.0658C57.2027 720.453 35.4258 698.677 35.4258 671.813L39.4791 671.813C39.4791 696.438 59.4413 716.4 84.0658 716.4H396.011C419.516 716.4 438.571 697.345 438.571 673.84L442.624 673.84ZM84.0658 720.453C57.2027 720.453 35.4258 698.677 35.4258 671.813V493.467H39.4791V671.813C39.4791 696.438 59.4413 716.4 84.0658 716.4L84.0658 720.453ZM442.624 493.467V673.84C442.624 699.584 421.755 720.453 396.011 720.453L396.011 716.4C419.516 716.4 438.571 697.345 438.571 673.84V493.467H442.624Z" fill="black" mask="url(#path-196-inside-5_333_9543)"/>
<mask id="path-198-inside-6_333_9543" fill="white">
<path d="M657.364 286.747H1060.51V82.0533C1060.51 57.4288 1040.55 37.4666 1015.92 37.4666H703.977C678.233 37.4666 657.364 58.3361 657.364 84.0799V286.747Z"/>
</mask>
<path d="M657.364 286.747H1060.51H657.364ZM1062.54 82.0533C1062.54 56.3094 1041.67 35.4399 1015.92 35.4399H703.977C677.114 35.4399 655.337 57.2168 655.337 84.0799L659.39 84.0799C659.39 59.4554 679.353 39.4932 703.977 39.4932H1015.92C1039.43 39.4932 1058.48 58.548 1058.48 82.0532L1062.54 82.0533ZM703.977 35.4399C677.114 35.4399 655.337 57.2168 655.337 84.0799V286.747H659.39V84.0799C659.39 59.4554 679.353 39.4932 703.977 39.4932L703.977 35.4399ZM1062.54 286.747V82.0533C1062.54 56.3094 1041.67 35.4399 1015.92 35.4399L1015.92 39.4932C1039.43 39.4932 1058.48 58.548 1058.48 82.0532V286.747H1062.54Z" fill="black" mask="url(#path-198-inside-6_333_9543)"/>
<mask id="path-200-inside-7_333_9543" fill="white">
<path d="M37.4525 286.747H440.597V82.0533C440.597 57.4288 420.635 37.4666 396.011 37.4666H84.0658C58.322 37.4666 37.4525 58.3361 37.4525 84.0799V286.747Z"/>
</mask>
<path d="M37.4525 286.747H440.597H37.4525ZM442.624 82.0533C442.624 56.3094 421.755 35.4399 396.011 35.4399H84.0658C57.2027 35.4399 35.4258 57.2168 35.4258 84.0799L39.4791 84.0799C39.4791 59.4554 59.4413 39.4932 84.0658 39.4932H396.011C419.516 39.4932 438.571 58.548 438.571 82.0532L442.624 82.0533ZM84.0658 35.4399C57.2027 35.4399 35.4258 57.2168 35.4258 84.0799V286.747H39.4791V84.0799C39.4791 59.4554 59.4413 39.4932 84.0658 39.4932L84.0658 35.4399ZM442.624 286.747V82.0533C442.624 56.3094 421.755 35.4399 396.011 35.4399L396.011 39.4932C419.516 39.4932 438.571 58.548 438.571 82.0532V286.747H442.624Z" fill="black" mask="url(#path-200-inside-7_333_9543)"/>
<path d="M495.295 2H607.73M495.295 2C489.623 9.296 482.127 5.04 479.089 2M495.295 2L489.218 762M607.73 2C610.769 5.04 618.467 9.296 624.95 2M607.73 2L609.756 762M624.95 2H1099V762H623.937M624.95 2L623.937 762M623.937 762C622.587 759.636 617.86 756.325 609.756 762M609.756 762H489.218M489.218 762C488.205 759.636 483.343 756.325 471.998 762M471.998 762H2V3.01333L479.089 2M471.998 762L479.089 2" stroke="black" stroke-width="2.02667" stroke-linecap="round"/>
<path d="M607.73 23.28H495.296V32.4H607.73V23.28Z" stroke="black" stroke-width="2.02667" stroke-linecap="round"/>
<path d="M607.73 38.48H495.296V41.52H607.73V38.48Z" stroke="black" stroke-width="2.02667" stroke-linecap="round"/>
<ellipse cx="515.554" cy="67.8666" rx="6.07756" ry="6.08" fill="black"/>
<ellipse cx="549.994" cy="67.8666" rx="6.07756" ry="6.08" fill="black"/>
<ellipse cx="238.012" cy="165.147" rx="6.07756" ry="6.08" fill="black"/>
<ellipse cx="584.433" cy="67.8666" rx="6.07756" ry="6.08" fill="black"/>
<ellipse cx="549.994" cy="274.587" rx="6.07756" ry="6.08" fill="black"/>
<ellipse cx="515.554" cy="686" rx="6.07756" ry="6.08" fill="black"/>
<ellipse cx="549.994" cy="686" rx="6.07756" ry="6.08" fill="black"/>
<ellipse cx="584.433" cy="686" rx="6.07756" ry="6.08" fill="black"/>
<path d="M608.743 725.52H490.231V732.613H608.743V725.52Z" stroke="black" stroke-width="2.02667" stroke-linecap="round"/>
<path d="M492.257 560.347H608.743" stroke="black" stroke-width="2.02667" stroke-linecap="round"/>
<path d="M491.244 575.547H608.743" stroke="black" stroke-width="2.02667" stroke-linecap="round"/>
<path d="M494.283 164.133H606.718" stroke="black" stroke-width="2.02667" stroke-linecap="round"/>
<path d="M495.296 179.333H607.73" stroke="black" stroke-width="2.02667" stroke-linecap="round"/>
<path d="M496.308 194.533H608.743" stroke="black" stroke-width="2.02667" stroke-linecap="round"/>
<path d="M85.06 704.24H391.977" stroke="black" stroke-width="2.02667" stroke-linecap="round"/>
<path d="M119.5 689.04H354.499" stroke="black" stroke-width="2.02667" stroke-linecap="round"/>
<path d="M26.3102 344.507H88.0988" stroke="black" stroke-width="2.02667" stroke-linecap="round"/>
</svg>
