<svg width="570" height="701" viewBox="0 0 570 701" fill="none" xmlns="http://www.w3.org/2000/svg">
<line x1="25.8988" y1="94.3865" x2="396.899" y2="94.3865" stroke="black"/>
<line x1="26.3988" y1="84.8865" x2="26.3988" y2="104.886" stroke="black"/>
<line x1="397.399" y1="84.8865" x2="397.399" y2="104.886" stroke="black"/>
<line x1="100.399" y1="84.8865" x2="100.399" y2="104.886" stroke="black"/>
<line x1="323.399" y1="84.8865" x2="323.399" y2="104.886" stroke="black"/>
<line x1="174.399" y1="84.8865" x2="174.399" y2="104.886" stroke="black"/>
<line x1="249.399" y1="84.8865" x2="249.399" y2="104.886" stroke="black"/>
<line x1="173.899" y1="164.464" x2="545.899" y2="164.464" stroke="black" stroke-width="0.845804"/>
<line x1="323.399" y1="154.886" x2="323.399" y2="174.886" stroke="black"/>
<line x1="174.399" y1="154.886" x2="174.399" y2="174.886" stroke="black"/>
<line x1="397.399" y1="154.886" x2="397.399" y2="174.886" stroke="black"/>
<line x1="249.399" y1="154.886" x2="249.399" y2="174.886" stroke="black"/>
<line x1="472.399" y1="154.886" x2="472.399" y2="174.886" stroke="black"/>
<line x1="546.399" y1="154.886" x2="546.399" y2="174.886" stroke="black"/>
<line x1="25.8988" y1="24.3865" x2="545.899" y2="24.3865" stroke="black"/>
<line x1="26.3988" y1="14.8864" x2="26.3988" y2="34.8864" stroke="black"/>
<line x1="100.399" y1="14.8864" x2="100.399" y2="34.8864" stroke="black"/>
<line x1="323.399" y1="14.8864" x2="323.399" y2="34.8864" stroke="black"/>
<line x1="174.399" y1="14.8864" x2="174.399" y2="34.8864" stroke="black"/>
<line x1="397.399" y1="14.8864" x2="397.399" y2="34.8864" stroke="black"/>
<line x1="249.399" y1="14.8864" x2="249.399" y2="34.8864" stroke="black"/>
<line x1="472.399" y1="14.8864" x2="472.399" y2="34.8864" stroke="black"/>
<line x1="546.399" y1="14.8864" x2="546.399" y2="34.8864" stroke="black"/>
<line x1="173.899" y1="234.464" x2="545.899" y2="234.464" stroke="black" stroke-width="0.845804"/>
<line x1="323.399" y1="224.886" x2="323.399" y2="244.886" stroke="black"/>
<line x1="174.399" y1="224.886" x2="174.399" y2="244.886" stroke="black"/>
<line x1="397.399" y1="224.886" x2="397.399" y2="244.886" stroke="black"/>
<line x1="249.399" y1="224.886" x2="249.399" y2="244.886" stroke="black"/>
<line x1="472.399" y1="224.886" x2="472.399" y2="244.886" stroke="black"/>
<line x1="546.399" y1="224.886" x2="546.399" y2="244.886" stroke="black"/>
<line x1="250.899" y1="304.464" x2="545.899" y2="304.464" stroke="black" stroke-width="0.845804"/>
<line x1="323.399" y1="294.886" x2="323.399" y2="314.886" stroke="black"/>
<line x1="397.399" y1="294.886" x2="397.399" y2="314.886" stroke="black"/>
<line x1="249.399" y1="294.886" x2="249.399" y2="314.886" stroke="black"/>
<line x1="472.399" y1="294.886" x2="472.399" y2="314.886" stroke="black"/>
<line x1="546.399" y1="294.886" x2="546.399" y2="314.886" stroke="black"/>
<line x1="398.899" y1="374.464" x2="545.899" y2="374.464" stroke="black" stroke-width="0.845804"/>
<line x1="397.399" y1="364.886" x2="397.399" y2="384.886" stroke="black"/>
<line x1="472.399" y1="364.886" x2="472.399" y2="384.886" stroke="black"/>
<line x1="546.399" y1="364.886" x2="546.399" y2="384.886" stroke="black"/>
<line x1="173.899" y1="444.464" x2="545.899" y2="444.464" stroke="black" stroke-width="0.845804"/>
<line x1="323.399" y1="434.886" x2="323.399" y2="454.886" stroke="black"/>
<line x1="174.399" y1="434.886" x2="174.399" y2="454.886" stroke="black"/>
<line x1="397.399" y1="434.886" x2="397.399" y2="454.886" stroke="black"/>
<line x1="249.399" y1="434.886" x2="249.399" y2="454.886" stroke="black"/>
<line x1="472.399" y1="434.886" x2="472.399" y2="454.886" stroke="black"/>
<line x1="546.399" y1="434.886" x2="546.399" y2="454.886" stroke="black"/>
<line x1="173.899" y1="584.386" x2="545.899" y2="584.386" stroke="black"/>
<line x1="323.399" y1="574.886" x2="323.399" y2="594.886" stroke="black"/>
<line x1="174.399" y1="574.886" x2="174.399" y2="594.886" stroke="black"/>
<line x1="397.399" y1="574.886" x2="397.399" y2="594.886" stroke="black"/>
<line x1="249.399" y1="574.886" x2="249.399" y2="594.886" stroke="black"/>
<line x1="472.399" y1="574.886" x2="472.399" y2="594.886" stroke="black"/>
<line x1="546.399" y1="574.886" x2="546.399" y2="594.886" stroke="black"/>
<line x1="322.899" y1="514.464" x2="545.899" y2="514.464" stroke="black" stroke-width="0.845804"/>
<line x1="323.399" y1="504.886" x2="323.399" y2="524.886" stroke="black"/>
<line x1="397.399" y1="504.886" x2="397.399" y2="524.886" stroke="black"/>
<line x1="472.399" y1="504.886" x2="472.399" y2="524.886" stroke="black"/>
<line x1="546.399" y1="504.886" x2="546.399" y2="524.886" stroke="black"/>
<line x1="25.8988" y1="658.386" x2="545.899" y2="658.386" stroke="black"/>
<line x1="26.3988" y1="648.886" x2="26.3988" y2="668.886" stroke="black"/>
<line x1="100.399" y1="648.886" x2="100.399" y2="668.886" stroke="black"/>
<line x1="323.399" y1="648.886" x2="323.399" y2="668.886" stroke="black"/>
<line x1="174.399" y1="648.886" x2="174.399" y2="668.886" stroke="black"/>
<line x1="397.399" y1="648.886" x2="397.399" y2="668.886" stroke="black"/>
<line x1="249.399" y1="648.886" x2="249.399" y2="668.886" stroke="black"/>
<line x1="472.399" y1="648.886" x2="472.399" y2="668.886" stroke="black"/>
<line x1="546.399" y1="648.886" x2="546.399" y2="668.886" stroke="black"/>
<path d="M28.8913 685.886H27.7813V675.386H36.0163V685.886H34.9063V676.391H28.8913V685.886ZM40.0827 685.886H38.9727V675.386H40.0827V679.751H46.3227V675.386H47.4327V685.886H46.3227V680.756H40.0827V685.886Z" fill="black"/>
<path d="M106.516 685.886H101.506V675.386H106.051C106.981 675.386 107.716 675.616 108.256 676.076C108.796 676.526 109.066 677.146 109.066 677.936C109.066 678.476 108.941 678.941 108.691 679.331C108.451 679.721 108.116 679.996 107.686 680.156C108.386 680.266 108.941 680.571 109.351 681.071C109.761 681.571 109.966 682.201 109.966 682.961C109.966 683.851 109.656 684.561 109.036 685.091C108.416 685.621 107.576 685.886 106.516 685.886ZM102.616 680.801V684.881H106.321C107.101 684.881 107.706 684.701 108.136 684.341C108.566 683.981 108.781 683.476 108.781 682.826C108.781 682.186 108.566 681.691 108.136 681.341C107.706 680.981 107.101 680.801 106.321 680.801H102.616ZM102.616 676.391V679.826H105.871C106.541 679.826 107.056 679.681 107.416 679.391C107.786 679.101 107.971 678.681 107.971 678.131C107.971 677.571 107.786 677.141 107.416 676.841C107.056 676.541 106.541 676.391 105.871 676.391H102.616ZM115.716 685.886H114.606V676.391H110.991V675.386H119.376V676.391H115.716V685.886Z" fill="black"/>
<path d="M181.002 686.066C179.472 686.066 178.187 685.556 177.147 684.536C176.127 683.516 175.617 682.216 175.617 680.636C175.617 679.066 176.127 677.771 177.147 676.751C178.177 675.721 179.462 675.206 181.002 675.206C182.142 675.206 183.122 675.466 183.942 675.986V677.126C183.022 676.536 182.047 676.241 181.017 676.241C179.817 676.241 178.802 676.661 177.972 677.501C177.152 678.321 176.742 679.366 176.742 680.636C176.742 681.916 177.152 682.966 177.972 683.786C178.802 684.616 179.827 685.031 181.047 685.031C182.267 685.031 183.307 684.681 184.167 683.981V685.136C183.307 685.756 182.252 686.066 181.002 686.066ZM187.518 685.886H186.408V675.386H190.818C191.858 675.386 192.678 675.651 193.278 676.181C193.878 676.711 194.178 677.416 194.178 678.296C194.178 679.196 193.878 679.916 193.278 680.456C192.678 680.986 191.858 681.251 190.818 681.251H187.518V685.886ZM187.518 676.391V680.246H190.743C191.483 680.246 192.058 680.081 192.468 679.751C192.878 679.411 193.083 678.936 193.083 678.326C193.083 677.706 192.878 677.231 192.468 676.901C192.068 676.561 191.493 676.391 190.743 676.391H187.518Z" fill="black"/>
<path d="M257.974 681.886H256.864V677.161C255.884 677.531 254.864 677.716 253.804 677.716C252.584 677.716 251.664 677.461 251.044 676.951C250.434 676.431 250.129 675.611 250.129 674.491V671.386H251.239V674.206C251.239 675.116 251.454 675.756 251.884 676.126C252.314 676.496 253.034 676.681 254.044 676.681C254.984 676.681 255.924 676.476 256.864 676.066V671.386H257.974V681.886ZM264.716 681.886H263.606V672.391H259.991V671.386H268.376V672.391H264.716V681.886Z" fill="black"/>
<path d="M325.854 681.886H324.744V671.386H332.979V681.886H331.869V672.391H325.854V681.886ZM339.716 681.886H338.606V672.391H334.991V671.386H343.376V672.391H339.716V681.886Z" fill="black"/>
<path d="M403.518 682.066C401.988 682.066 400.703 681.556 399.663 680.536C398.643 679.516 398.133 678.216 398.133 676.636C398.133 675.066 398.643 673.771 399.663 672.751C400.693 671.721 401.978 671.206 403.518 671.206C404.658 671.206 405.638 671.466 406.458 671.986V673.126C405.538 672.536 404.563 672.241 403.533 672.241C402.333 672.241 401.318 672.661 400.488 673.501C399.668 674.321 399.258 675.366 399.258 676.636C399.258 677.916 399.668 678.966 400.488 679.786C401.318 680.616 402.343 681.031 403.563 681.031C404.783 681.031 405.823 680.681 406.683 679.981V681.136C405.823 681.756 404.768 682.066 403.518 682.066ZM413.215 681.886H408.925V671.386H416.095V672.391H410.035V675.361H413.215C414.385 675.361 415.295 675.661 415.945 676.261C416.605 676.861 416.935 677.651 416.935 678.631C416.935 679.621 416.605 680.411 415.945 681.001C415.285 681.591 414.375 681.886 413.215 681.886ZM410.035 676.366V680.881H413.11C413.97 680.881 414.635 680.686 415.105 680.296C415.585 679.896 415.825 679.336 415.825 678.616C415.825 677.906 415.585 677.356 415.105 676.966C414.635 676.566 413.97 676.366 413.11 676.366H410.035Z" fill="black"/>
<path d="M478.373 681.886H473.363V671.386H477.908C478.838 671.386 479.573 671.616 480.113 672.076C480.653 672.526 480.923 673.146 480.923 673.936C480.923 674.476 480.798 674.941 480.548 675.331C480.308 675.721 479.973 675.996 479.543 676.156C480.243 676.266 480.798 676.571 481.208 677.071C481.618 677.571 481.823 678.201 481.823 678.961C481.823 679.851 481.513 680.561 480.893 681.091C480.273 681.621 479.433 681.886 478.373 681.886ZM474.473 676.801V680.881H478.178C478.958 680.881 479.563 680.701 479.993 680.341C480.423 679.981 480.638 679.476 480.638 678.826C480.638 678.186 480.423 677.691 479.993 677.341C479.563 676.981 478.958 676.801 478.178 676.801H474.473ZM474.473 672.391V675.826H477.728C478.398 675.826 478.913 675.681 479.273 675.391C479.643 675.101 479.828 674.681 479.828 674.131C479.828 673.571 479.643 673.141 479.273 672.841C478.913 672.541 478.398 672.391 477.728 672.391H474.473ZM488.977 682.066C487.447 682.066 486.162 681.556 485.122 680.536C484.102 679.516 483.592 678.216 483.592 676.636C483.592 675.066 484.102 673.771 485.122 672.751C486.152 671.721 487.437 671.206 488.977 671.206C490.117 671.206 491.097 671.466 491.917 671.986V673.126C490.997 672.536 490.022 672.241 488.992 672.241C487.792 672.241 486.777 672.661 485.947 673.501C485.127 674.321 484.717 675.366 484.717 676.636C484.717 677.916 485.127 678.966 485.947 679.786C486.777 680.616 487.802 681.031 489.022 681.031C490.242 681.031 491.282 680.681 492.142 679.981V681.136C491.282 681.756 490.227 682.066 488.977 682.066Z" fill="black"/>
<path d="M58.0325 79.8865H50.2775V49.8565L42.1375 53.9815V46.2265L51.1575 41.3865H58.0325V79.8865ZM79.4631 79.8865H71.7081V49.8565L63.5681 53.9815V46.2265L72.5881 41.3865H79.4631V79.8865Z" fill="#B9B9B9"/>
<path d="M183.908 125.371C186.072 126.141 187.795 127.388 189.078 129.111C190.398 130.835 191.058 132.778 191.058 134.941C191.058 138.571 189.573 141.431 186.603 143.521C183.707 145.611 180.077 146.656 175.713 146.656C171.387 146.656 167.738 145.611 164.768 143.521C161.798 141.431 160.313 138.571 160.313 134.941C160.313 132.778 160.955 130.835 162.238 129.111C163.558 127.388 165.3 126.141 167.463 125.371C165.777 124.601 164.457 123.501 163.503 122.071C162.55 120.641 162.073 119.046 162.073 117.286C162.073 114.133 163.357 111.566 165.923 109.586C168.527 107.606 171.79 106.616 175.713 106.616C179.563 106.616 182.79 107.606 185.393 109.586C187.997 111.566 189.298 114.133 189.298 117.286C189.298 119.046 188.822 120.641 187.868 122.071C186.915 123.501 185.595 124.601 183.908 125.371ZM169.718 118.056C169.718 119.45 170.287 120.605 171.423 121.521C172.597 122.401 174.027 122.841 175.713 122.841C177.4 122.841 178.812 122.401 179.948 121.521C181.085 120.605 181.653 119.45 181.653 118.056C181.653 116.626 181.085 115.471 179.948 114.591C178.812 113.675 177.4 113.216 175.713 113.216C174.027 113.216 172.597 113.675 171.423 114.591C170.287 115.471 169.718 116.626 169.718 118.056ZM182.863 134.446C182.863 132.833 182.185 131.495 180.828 130.431C179.472 129.368 177.767 128.836 175.713 128.836C173.66 128.836 171.937 129.368 170.543 130.431C169.187 131.495 168.508 132.833 168.508 134.446C168.508 136.023 169.187 137.343 170.543 138.406C171.937 139.47 173.66 140.001 175.713 140.001C177.767 140.001 179.472 139.47 180.828 138.406C182.185 137.343 182.863 136.023 182.863 134.446ZM210.183 145.886H202.428V115.856L194.288 119.981V112.226L203.308 107.386H210.183V145.886ZM228.149 146.656C224.115 146.656 220.467 145.74 217.204 143.906V136.481C220.467 138.535 224.005 139.561 227.819 139.561C230.312 139.561 232.347 138.993 233.924 137.856C235.537 136.72 236.344 135.143 236.344 133.126C236.344 131.22 235.555 129.68 233.979 128.506C232.439 127.333 230.367 126.746 227.764 126.746C224.72 126.746 221.64 127.296 218.524 128.396L221.054 107.386H241.624V114.206H226.884L226.059 120.751C227.195 120.495 228.424 120.366 229.744 120.366C233.997 120.366 237.462 121.54 240.139 123.886C242.889 126.233 244.264 129.313 244.264 133.126C244.264 137.343 242.705 140.661 239.589 143.081C236.472 145.465 232.659 146.656 228.149 146.656Z" fill="black"/>
<path d="M498.585 216.656C494.038 216.656 490.133 215.63 486.87 213.576V206.041C490.243 208.388 494.002 209.561 498.145 209.561C500.492 209.561 502.417 208.993 503.92 207.856C505.423 206.683 506.175 205.106 506.175 203.126C506.175 201.256 505.478 199.753 504.085 198.616C502.692 197.443 500.84 196.856 498.53 196.856C496.66 196.856 494.845 197.205 493.085 197.901V192.676L502.27 184.206H488.08V177.386H512.39V183.326L503.7 191.301C506.45 191.778 508.87 193.043 510.96 195.096C513.05 197.113 514.095 199.79 514.095 203.126C514.095 207.233 512.61 210.515 509.64 212.971C506.707 215.428 503.022 216.656 498.585 216.656ZM533.463 215.886H525.708V185.856L517.568 189.981V182.226L526.588 177.386H533.463V215.886Z" fill="#B9B9B9"/>
<path d="M201.39 426.886H193.635V396.856L185.495 400.981V393.226L194.515 388.386H201.39V426.886ZM224.196 427.656C219.356 427.656 215.579 426.061 212.866 422.871C210.189 419.681 208.851 415.263 208.851 409.616C208.851 406.72 209.217 403.97 209.951 401.366C210.684 398.763 211.747 396.435 213.141 394.381C214.571 392.291 216.422 390.641 218.696 389.431C221.006 388.221 223.609 387.616 226.506 387.616C229.806 387.616 232.702 388.441 235.196 390.091V397.241C232.776 395.591 230.172 394.766 227.386 394.766C224.232 394.766 221.739 395.756 219.906 397.736C218.109 399.68 217.101 402.173 216.881 405.216C218.934 402.833 221.922 401.641 225.846 401.641C229.329 401.641 232.262 402.778 234.646 405.051C236.992 407.288 238.166 410.295 238.166 414.071C238.166 418.068 236.827 421.331 234.151 423.861C231.511 426.391 228.192 427.656 224.196 427.656ZM223.701 420.836C225.644 420.836 227.221 420.231 228.431 419.021C229.677 417.775 230.301 416.18 230.301 414.236C230.301 412.366 229.677 410.826 228.431 409.616C227.184 408.406 225.607 407.801 223.701 407.801C222.197 407.801 220.786 408.26 219.466 409.176C218.146 410.093 217.211 411.248 216.661 412.641C216.771 415.245 217.449 417.261 218.696 418.691C219.942 420.121 221.611 420.836 223.701 420.836Z" fill="black"/>
<path d="M356.881 495.886H329.491V490.111L340.821 479.826C343.424 477.443 345.202 475.536 346.156 474.106C347.182 472.64 347.696 471.081 347.696 469.431C347.696 467.781 347.091 466.48 345.881 465.526C344.671 464.536 343.076 464.041 341.096 464.041C337.502 464.041 334.037 465.508 330.701 468.441V460.301C333.817 457.845 337.557 456.616 341.921 456.616C345.587 456.616 348.777 457.698 351.491 459.861C354.204 462.025 355.561 464.866 355.561 468.386C355.561 471.1 354.956 473.501 353.746 475.591C352.646 477.571 350.537 480.01 347.421 482.906L340.821 488.956H356.881V495.886ZM377.196 496.656C372.356 496.656 368.579 495.061 365.866 491.871C363.189 488.681 361.851 484.263 361.851 478.616C361.851 475.72 362.217 472.97 362.951 470.366C363.684 467.763 364.747 465.435 366.141 463.381C367.571 461.291 369.422 459.641 371.696 458.431C374.006 457.221 376.609 456.616 379.506 456.616C382.806 456.616 385.702 457.441 388.196 459.091V466.241C385.776 464.591 383.172 463.766 380.386 463.766C377.232 463.766 374.739 464.756 372.906 466.736C371.109 468.68 370.101 471.173 369.881 474.216C371.934 471.833 374.922 470.641 378.846 470.641C382.329 470.641 385.262 471.778 387.646 474.051C389.992 476.288 391.166 479.295 391.166 483.071C391.166 487.068 389.827 490.331 387.151 492.861C384.511 495.391 381.192 496.656 377.196 496.656ZM376.701 489.836C378.644 489.836 380.221 489.231 381.431 488.021C382.677 486.775 383.301 485.18 383.301 483.236C383.301 481.366 382.677 479.826 381.431 478.616C380.184 477.406 378.607 476.801 376.701 476.801C375.197 476.801 373.786 477.26 372.466 478.176C371.146 479.093 370.211 480.248 369.661 481.641C369.771 484.245 370.449 486.261 371.696 487.691C372.942 489.121 374.611 489.836 376.701 489.836Z" fill="#B9B9B9"/>
<path d="M428.032 639.886H420.277V609.856L412.137 613.981V606.226L421.157 601.386H428.032V639.886ZM449.463 639.886H441.708V609.856L433.568 613.981V606.226L442.588 601.386H449.463V639.886Z" fill="#B9B9B9"/>
<path d="M282.519 285.886H274.104L289.834 254.481H271.629V247.386H298.799V253.491L282.519 285.886ZM319.463 285.886H311.708V255.856L303.568 259.981V252.226L312.588 247.386H319.463V285.886Z" fill="black"/>
<path d="M330.843 255.886H329.247L331.923 252.19C331.331 252.054 330.871 251.782 330.543 251.374C330.215 250.958 330.051 250.458 330.051 249.874C330.051 249.146 330.299 248.566 330.795 248.134C331.299 247.702 331.979 247.486 332.835 247.486H336.663V255.886H335.343V252.334H333.375L330.843 255.886ZM332.895 251.17H335.343V248.698H332.895C332.423 248.698 332.051 248.81 331.779 249.034C331.515 249.25 331.383 249.55 331.383 249.934C331.383 250.326 331.515 250.63 331.779 250.846C332.051 251.062 332.423 251.17 332.895 251.17ZM341.131 256.042C339.955 256.042 338.975 255.802 338.191 255.322V254.026C338.559 254.258 338.991 254.446 339.487 254.59C339.991 254.734 340.475 254.806 340.939 254.806C341.651 254.806 342.211 254.674 342.619 254.41C343.035 254.138 343.243 253.778 343.243 253.33C343.243 252.938 343.055 252.622 342.679 252.382C342.303 252.142 341.807 252.022 341.191 252.022H340.147V250.81H341.347C341.859 250.81 342.255 250.71 342.535 250.51C342.815 250.31 342.955 250.034 342.955 249.682C342.955 249.33 342.791 249.058 342.463 248.866C342.143 248.666 341.703 248.566 341.143 248.566C340.247 248.566 339.383 248.77 338.551 249.178V247.966C339.375 247.542 340.263 247.33 341.215 247.33C342.127 247.33 342.863 247.538 343.423 247.954C343.983 248.37 344.263 248.922 344.263 249.61C344.263 250.066 344.127 250.442 343.855 250.738C343.583 251.034 343.283 251.238 342.955 251.35C343.395 251.478 343.779 251.726 344.107 252.094C344.435 252.446 344.599 252.894 344.599 253.438C344.599 254.19 344.287 254.814 343.663 255.31C343.047 255.798 342.203 256.042 341.131 256.042ZM355.098 255.886H353.778V247.486H355.098V255.886ZM349.494 255.886H346.29V247.486H347.61V250.39H349.494C350.47 250.39 351.238 250.646 351.798 251.158C352.358 251.67 352.638 252.334 352.638 253.15C352.638 253.95 352.354 254.61 351.786 255.13C351.218 255.634 350.454 255.886 349.494 255.886ZM347.61 251.602V254.674H349.422C350.014 254.674 350.474 254.542 350.802 254.278C351.13 254.006 351.294 253.63 351.294 253.15C351.294 252.662 351.126 252.282 350.79 252.01C350.462 251.738 350.006 251.602 349.422 251.602H347.61ZM358.509 255.886H357.189V247.486H358.509V250.918L361.953 247.486H363.645L359.757 251.326L364.269 255.886H362.469L358.509 251.854V255.886Z" fill="black"/>
<path d="M258.291 115.934H257.115L254.259 107.486H255.735L257.739 113.798L259.779 107.474H260.823L262.863 113.798L264.867 107.486H266.319L263.451 115.934H262.287L260.295 109.682L258.291 115.934ZM267.508 115.886H266.104L269.776 107.438H271.048L274.72 115.886H273.304L272.392 113.798H268.408L267.508 115.886ZM270.4 109.106L268.864 112.634H271.936L270.4 109.106ZM277.345 115.886H276.025V107.486H277.345V110.918L280.789 107.486H282.481L278.593 111.326L283.105 115.886H281.305L277.345 111.854V115.886ZM290.337 115.886H284.205V107.486H290.181V108.698H285.525V110.798H289.317V112.01H285.525V114.674H290.337V115.886ZM294.901 112.334V107.486H296.221V112.382C296.221 113.158 296.417 113.758 296.809 114.182C297.201 114.598 297.737 114.806 298.417 114.806C299.097 114.806 299.633 114.598 300.025 114.182C300.425 113.758 300.625 113.158 300.625 112.382V107.486H301.945V112.334C301.945 113.51 301.617 114.422 300.961 115.07C300.297 115.718 299.449 116.042 298.417 116.042C297.385 116.042 296.537 115.722 295.873 115.082C295.225 114.434 294.901 113.518 294.901 112.334ZM305.235 115.886H303.915V107.486H307.527C308.407 107.486 309.091 107.714 309.579 108.17C310.083 108.61 310.335 109.194 310.335 109.922C310.335 110.65 310.083 111.25 309.579 111.722C309.091 112.186 308.407 112.418 307.527 112.418H305.235V115.886ZM305.235 108.698V111.206H307.419C307.915 111.206 308.303 111.098 308.583 110.882C308.863 110.658 309.003 110.346 309.003 109.946C309.003 109.546 308.863 109.238 308.583 109.022C308.311 108.806 307.923 108.698 307.419 108.698H305.235Z" fill="black"/>
<path d="M427.373 207.934H426.197L423.341 199.486H424.817L426.821 205.798L428.861 199.474H429.905L431.945 205.798L433.949 199.486H435.401L432.533 207.934H431.369L429.377 201.682L427.373 207.934ZM436.59 207.886H435.186L438.858 199.438H440.13L443.802 207.886H442.386L441.474 205.798H437.49L436.59 207.886ZM439.482 201.106L437.946 204.634H441.018L439.482 201.106ZM446.427 207.886H445.107V199.486H446.427V202.918L449.871 199.486H451.563L447.675 203.326L452.187 207.886H450.387L446.427 203.854V207.886ZM459.419 207.886H453.287V199.486H459.263V200.698H454.607V202.798H458.399V204.01H454.607V206.674H459.419V207.886ZM463.983 204.334V199.486H465.303V204.382C465.303 205.158 465.499 205.758 465.891 206.182C466.283 206.598 466.819 206.806 467.499 206.806C468.179 206.806 468.715 206.598 469.107 206.182C469.507 205.758 469.707 205.158 469.707 204.382V199.486H471.027V204.334C471.027 205.51 470.699 206.422 470.043 207.07C469.379 207.718 468.531 208.042 467.499 208.042C466.467 208.042 465.619 207.722 464.955 207.082C464.307 206.434 463.983 205.518 463.983 204.334ZM474.317 207.886H472.997V199.486H476.609C477.489 199.486 478.173 199.714 478.661 200.17C479.165 200.61 479.417 201.194 479.417 201.922C479.417 202.65 479.165 203.25 478.661 203.722C478.173 204.186 477.489 204.418 476.609 204.418H474.317V207.886ZM474.317 200.698V203.206H476.501C476.997 203.206 477.385 203.098 477.665 202.882C477.945 202.658 478.085 202.346 478.085 201.946C478.085 201.546 477.945 201.238 477.665 201.022C477.393 200.806 477.005 200.698 476.501 200.698H474.317Z" fill="#B9B9B9"/>
<path d="M403.373 465.934H402.197L399.341 457.486H400.817L402.821 463.798L404.861 457.474H405.905L407.945 463.798L409.949 457.486H411.401L408.533 465.934H407.369L405.377 459.682L403.373 465.934ZM412.59 465.886H411.186L414.858 457.438H416.13L419.802 465.886H418.386L417.474 463.798H413.49L412.59 465.886ZM415.482 459.106L413.946 462.634H417.018L415.482 459.106ZM422.427 465.886H421.107V457.486H422.427V460.918L425.871 457.486H427.563L423.675 461.326L428.187 465.886H426.387L422.427 461.854V465.886ZM435.419 465.886H429.287V457.486H435.263V458.698H430.607V460.798H434.399V462.01H430.607V464.674H435.419V465.886ZM439.983 462.334V457.486H441.303V462.382C441.303 463.158 441.499 463.758 441.891 464.182C442.283 464.598 442.819 464.806 443.499 464.806C444.179 464.806 444.715 464.598 445.107 464.182C445.507 463.758 445.707 463.158 445.707 462.382V457.486H447.027V462.334C447.027 463.51 446.699 464.422 446.043 465.07C445.379 465.718 444.531 466.042 443.499 466.042C442.467 466.042 441.619 465.722 440.955 465.082C440.307 464.434 439.983 463.518 439.983 462.334ZM450.317 465.886H448.997V457.486H452.609C453.489 457.486 454.173 457.714 454.661 458.17C455.165 458.61 455.417 459.194 455.417 459.922C455.417 460.65 455.165 461.25 454.661 461.722C454.173 462.186 453.489 462.418 452.609 462.418H450.317V465.886ZM450.317 458.698V461.206H452.501C452.997 461.206 453.385 461.098 453.665 460.882C453.945 460.658 454.085 460.346 454.085 459.946C454.085 459.546 453.945 459.238 453.665 459.022C453.393 458.806 453.005 458.698 452.501 458.698H450.317Z" fill="#B9B9B9"/>
<path d="M460.373 622.934H459.197L456.341 614.486H457.817L459.821 620.798L461.861 614.474H462.905L464.945 620.798L466.949 614.486H468.401L465.533 622.934H464.369L462.377 616.682L460.373 622.934ZM469.59 622.886H468.186L471.858 614.438H473.13L476.802 622.886H475.386L474.474 620.798H470.49L469.59 622.886ZM472.482 616.106L470.946 619.634H474.018L472.482 616.106ZM479.427 622.886H478.107V614.486H479.427V617.918L482.871 614.486H484.563L480.675 618.326L485.187 622.886H483.387L479.427 618.854V622.886ZM492.419 622.886H486.287V614.486H492.263V615.698H487.607V617.798H491.399V619.01H487.607V621.674H492.419V622.886ZM496.983 619.334V614.486H498.303V619.382C498.303 620.158 498.499 620.758 498.891 621.182C499.283 621.598 499.819 621.806 500.499 621.806C501.179 621.806 501.715 621.598 502.107 621.182C502.507 620.758 502.707 620.158 502.707 619.382V614.486H504.027V619.334C504.027 620.51 503.699 621.422 503.043 622.07C502.379 622.718 501.531 623.042 500.499 623.042C499.467 623.042 498.619 622.722 497.955 622.082C497.307 621.434 496.983 620.518 496.983 619.334ZM507.317 622.886H505.997V614.486H509.609C510.489 614.486 511.173 614.714 511.661 615.17C512.165 615.61 512.417 616.194 512.417 616.922C512.417 617.65 512.165 618.25 511.661 618.722C511.173 619.186 510.489 619.418 509.609 619.418H507.317V622.886ZM507.317 615.698V618.206H509.501C509.997 618.206 510.385 618.098 510.665 617.882C510.945 617.658 511.085 617.346 511.085 616.946C511.085 616.546 510.945 616.238 510.665 616.022C510.393 615.806 510.005 615.698 509.501 615.698H507.317Z" fill="#B9B9B9"/>
<path d="M246.263 409.886H244.943V401.486H246.263V404.798H250.643V401.486H251.963V409.886H250.643V406.01H246.263V409.886ZM254.672 409.886H253.268L256.94 401.438H258.212L261.884 409.886H260.468L259.556 407.798H255.572L254.672 409.886ZM257.564 403.106L256.028 406.634H259.1L257.564 403.106ZM268.549 409.886H267.229V406.37C266.557 406.618 265.837 406.742 265.069 406.742C263.053 406.742 262.045 405.854 262.045 404.078V401.486H263.365V403.814C263.365 404.43 263.517 404.866 263.821 405.122C264.125 405.378 264.609 405.506 265.273 405.506C265.977 405.506 266.629 405.366 267.229 405.086V401.486H268.549V409.886ZM276.774 409.886H270.642V401.486H276.618V402.698H271.962V404.798H275.754V406.01H271.962V408.674H276.774V409.886ZM279.65 409.886H278.33V401.486H281.942C282.822 401.486 283.506 401.714 283.994 402.17C284.498 402.61 284.75 403.194 284.75 403.922C284.75 404.65 284.498 405.25 283.994 405.722C283.506 406.186 282.822 406.418 281.942 406.418H279.65V409.886ZM279.65 402.698V405.206H281.834C282.33 405.206 282.718 405.098 282.998 404.882C283.278 404.658 283.418 404.346 283.418 403.946C283.418 403.546 283.278 403.238 282.998 403.022C282.726 402.806 282.338 402.698 281.834 402.698H279.65ZM285.627 402.698V401.486H292.503V402.698H289.719V409.886H288.399V402.698H285.627ZM293.368 409.886H291.964L295.636 401.438H296.908L300.58 409.886H299.164L298.252 407.798H294.268L293.368 409.886ZM296.26 403.106L294.724 406.634H297.796L296.26 403.106ZM303.204 409.886H301.884V401.486H303.204V404.798H307.584V401.486H308.904V409.886H307.584V406.01H303.204V409.886ZM312.118 409.886H310.99V401.486H312.31V407.654L316.93 401.486H318.082V409.886H316.762V403.694L312.118 409.886ZM321.293 409.886H320.165V401.486H321.485V407.654L326.105 401.486H327.257V409.886H325.937V403.694L321.293 409.886ZM323.705 400.994C323.073 400.994 322.561 400.814 322.169 400.454C321.777 400.094 321.577 399.614 321.569 399.014H322.673C322.673 399.31 322.765 399.55 322.949 399.734C323.133 399.91 323.381 399.998 323.693 399.998C324.005 399.998 324.253 399.906 324.437 399.722C324.621 399.538 324.717 399.302 324.725 399.014H325.829C325.821 399.614 325.617 400.094 325.217 400.454C324.825 400.814 324.321 400.994 323.705 400.994Z" fill="black"/>
<path d="M91.3728 62.9345H90.1968L87.3408 54.4865H88.8168L90.8208 60.7985L92.8608 54.4745H93.9048L95.9448 60.7985L97.9488 54.4865H99.4008L96.5328 62.9345H95.3688L93.3768 56.6825L91.3728 62.9345ZM100.59 62.8865H99.1862L102.858 54.4385H104.13L107.802 62.8865H106.386L105.474 60.7985H101.49L100.59 62.8865ZM103.482 56.1065L101.946 59.6345H105.018L103.482 56.1065ZM110.427 62.8865H109.107V54.4865H110.427V57.9185L113.871 54.4865H115.563L111.675 58.3265L116.187 62.8865H114.387L110.427 58.8545V62.8865ZM123.419 62.8865H117.287V54.4865H123.263V55.6985H118.607V57.7985H122.399V59.0105H118.607V61.6745H123.419V62.8865ZM127.983 59.3345V54.4865H129.303V59.3825C129.303 60.1585 129.499 60.7585 129.891 61.1825C130.283 61.5985 130.819 61.8065 131.499 61.8065C132.179 61.8065 132.715 61.5985 133.107 61.1825C133.507 60.7585 133.707 60.1585 133.707 59.3825V54.4865H135.027V59.3345C135.027 60.5105 134.699 61.4225 134.043 62.0705C133.379 62.7185 132.531 63.0425 131.499 63.0425C130.467 63.0425 129.619 62.7225 128.955 62.0825C128.307 61.4345 127.983 60.5185 127.983 59.3345ZM138.317 62.8865H136.997V54.4865H140.609C141.489 54.4865 142.173 54.7145 142.661 55.1705C143.165 55.6105 143.417 56.1945 143.417 56.9225C143.417 57.6505 143.165 58.2505 142.661 58.7225C142.173 59.1865 141.489 59.4185 140.609 59.4185H138.317V62.8865ZM138.317 55.6985V58.2065H140.501C140.997 58.2065 141.385 58.0985 141.665 57.8825C141.945 57.6585 142.085 57.3465 142.085 56.9465C142.085 56.5465 141.945 56.2385 141.665 56.0225C141.393 55.8065 141.005 55.6985 140.501 55.6985H138.317Z" fill="#B9B9B9"/>
<path d="M427.357 217.196C427.824 217.316 428.19 217.533 428.457 217.846C428.724 218.16 428.857 218.536 428.857 218.976C428.857 219.596 428.604 220.09 428.097 220.456C427.59 220.823 426.957 221.006 426.197 221.006C425.437 221.006 424.804 220.823 424.297 220.456C423.79 220.09 423.537 219.596 423.537 218.976C423.537 218.536 423.67 218.16 423.937 217.846C424.21 217.533 424.58 217.316 425.047 217.196C424.687 217.05 424.404 216.84 424.197 216.566C423.99 216.286 423.887 215.963 423.887 215.596C423.887 215.056 424.107 214.616 424.547 214.276C424.987 213.936 425.537 213.766 426.197 213.766C426.864 213.766 427.417 213.936 427.857 214.276C428.297 214.616 428.517 215.056 428.517 215.596C428.517 215.963 428.414 216.286 428.207 216.566C428 216.84 427.717 217.05 427.357 217.196ZM424.587 215.656C424.587 216.03 424.74 216.33 425.047 216.556C425.354 216.783 425.737 216.896 426.197 216.896C426.664 216.896 427.05 216.78 427.357 216.546C427.664 216.313 427.817 216.016 427.817 215.656C427.817 215.283 427.66 214.98 427.347 214.746C427.034 214.513 426.65 214.396 426.197 214.396C425.744 214.396 425.36 214.513 425.047 214.746C424.74 214.973 424.587 215.276 424.587 215.656ZM424.827 219.966C425.2 220.24 425.657 220.376 426.197 220.376C426.737 220.376 427.194 220.24 427.567 219.966C427.94 219.686 428.127 219.343 428.127 218.936C428.127 218.516 427.944 218.176 427.577 217.916C427.204 217.656 426.744 217.526 426.197 217.526C425.65 217.526 425.194 217.656 424.827 217.916C424.46 218.176 424.277 218.516 424.277 218.936C424.277 219.343 424.46 219.686 424.827 219.966ZM430.602 217.226C430.456 217.226 430.332 217.176 430.232 217.076C430.132 216.976 430.082 216.853 430.082 216.706C430.082 216.56 430.132 216.436 430.232 216.336C430.332 216.236 430.456 216.186 430.602 216.186C430.749 216.186 430.872 216.236 430.972 216.336C431.072 216.436 431.122 216.56 431.122 216.706C431.122 216.853 431.072 216.976 430.972 217.076C430.872 217.176 430.749 217.226 430.602 217.226ZM430.602 220.946C430.456 220.946 430.332 220.896 430.232 220.796C430.132 220.696 430.082 220.573 430.082 220.426C430.082 220.28 430.132 220.156 430.232 220.056C430.332 219.956 430.456 219.906 430.602 219.906C430.749 219.906 430.872 219.956 430.972 220.056C431.072 220.156 431.122 220.28 431.122 220.426C431.122 220.573 431.072 220.696 430.972 220.796C430.872 220.896 430.749 220.946 430.602 220.946ZM432.456 217.386C432.456 216.36 432.719 215.503 433.246 214.816C433.779 214.116 434.472 213.766 435.326 213.766C436.172 213.766 436.862 214.113 437.396 214.806C437.922 215.493 438.186 216.353 438.186 217.386C438.186 218.42 437.922 219.28 437.396 219.966C436.862 220.66 436.172 221.006 435.326 221.006C434.472 221.006 433.779 220.66 433.246 219.966C432.719 219.28 432.456 218.42 432.456 217.386ZM437.456 217.386C437.456 216.553 437.256 215.856 436.856 215.296C436.456 214.736 435.946 214.456 435.326 214.456C434.706 214.456 434.196 214.736 433.796 215.296C433.396 215.856 433.196 216.553 433.196 217.386C433.196 218.22 433.392 218.92 433.786 219.486C434.186 220.04 434.699 220.316 435.326 220.316C435.952 220.316 436.462 220.04 436.856 219.486C437.256 218.926 437.456 218.226 437.456 217.386ZM439.536 217.386C439.536 216.36 439.799 215.503 440.326 214.816C440.859 214.116 441.552 213.766 442.406 213.766C443.252 213.766 443.942 214.113 444.476 214.806C445.002 215.493 445.266 216.353 445.266 217.386C445.266 218.42 445.002 219.28 444.476 219.966C443.942 220.66 443.252 221.006 442.406 221.006C441.552 221.006 440.859 220.66 440.326 219.966C439.799 219.28 439.536 218.42 439.536 217.386ZM444.536 217.386C444.536 216.553 444.336 215.856 443.936 215.296C443.536 214.736 443.026 214.456 442.406 214.456C441.786 214.456 441.276 214.736 440.876 215.296C440.476 215.856 440.276 216.553 440.276 217.386C440.276 218.22 440.472 218.92 440.866 219.486C441.266 220.04 441.779 220.316 442.406 220.316C443.032 220.316 443.542 220.04 443.936 219.486C444.336 218.926 444.536 218.226 444.536 217.386ZM449.756 218.506H446.946V217.836H449.756V218.506ZM453.205 220.886H452.475V214.686L450.905 215.586V214.876L452.555 213.886H453.205V220.886ZM454.965 217.386C454.965 216.36 455.229 215.503 455.755 214.816C456.289 214.116 456.982 213.766 457.835 213.766C458.682 213.766 459.372 214.113 459.905 214.806C460.432 215.493 460.695 216.353 460.695 217.386C460.695 218.42 460.432 219.28 459.905 219.966C459.372 220.66 458.682 221.006 457.835 221.006C456.982 221.006 456.289 220.66 455.755 219.966C455.229 219.28 454.965 218.42 454.965 217.386ZM459.965 217.386C459.965 216.553 459.765 215.856 459.365 215.296C458.965 214.736 458.455 214.456 457.835 214.456C457.215 214.456 456.705 214.736 456.305 215.296C455.905 215.856 455.705 216.553 455.705 217.386C455.705 218.22 455.902 218.92 456.295 219.486C456.695 220.04 457.209 220.316 457.835 220.316C458.462 220.316 458.972 220.04 459.365 219.486C459.765 218.926 459.965 218.226 459.965 217.386ZM462.555 217.226C462.409 217.226 462.285 217.176 462.185 217.076C462.085 216.976 462.035 216.853 462.035 216.706C462.035 216.56 462.085 216.436 462.185 216.336C462.285 216.236 462.409 216.186 462.555 216.186C462.702 216.186 462.825 216.236 462.925 216.336C463.025 216.436 463.075 216.56 463.075 216.706C463.075 216.853 463.025 216.976 462.925 217.076C462.825 217.176 462.702 217.226 462.555 217.226ZM462.555 220.946C462.409 220.946 462.285 220.896 462.185 220.796C462.085 220.696 462.035 220.573 462.035 220.426C462.035 220.28 462.085 220.156 462.185 220.056C462.285 219.956 462.409 219.906 462.555 219.906C462.702 219.906 462.825 219.956 462.925 220.056C463.025 220.156 463.075 220.28 463.075 220.426C463.075 220.573 463.025 220.696 462.925 220.796C462.825 220.896 462.702 220.946 462.555 220.946ZM464.409 217.386C464.409 216.36 464.672 215.503 465.199 214.816C465.732 214.116 466.425 213.766 467.279 213.766C468.125 213.766 468.815 214.113 469.349 214.806C469.875 215.493 470.139 216.353 470.139 217.386C470.139 218.42 469.875 219.28 469.349 219.966C468.815 220.66 468.125 221.006 467.279 221.006C466.425 221.006 465.732 220.66 465.199 219.966C464.672 219.28 464.409 218.42 464.409 217.386ZM469.409 217.386C469.409 216.553 469.209 215.856 468.809 215.296C468.409 214.736 467.899 214.456 467.279 214.456C466.659 214.456 466.149 214.736 465.749 215.296C465.349 215.856 465.149 216.553 465.149 217.386C465.149 218.22 465.345 218.92 465.739 219.486C466.139 220.04 466.652 220.316 467.279 220.316C467.905 220.316 468.415 220.04 468.809 219.486C469.209 218.926 469.409 218.226 469.409 217.386ZM471.489 217.386C471.489 216.36 471.752 215.503 472.279 214.816C472.812 214.116 473.505 213.766 474.359 213.766C475.205 213.766 475.895 214.113 476.429 214.806C476.955 215.493 477.219 216.353 477.219 217.386C477.219 218.42 476.955 219.28 476.429 219.966C475.895 220.66 475.205 221.006 474.359 221.006C473.505 221.006 472.812 220.66 472.279 219.966C471.752 219.28 471.489 218.42 471.489 217.386ZM476.489 217.386C476.489 216.553 476.289 215.856 475.889 215.296C475.489 214.736 474.979 214.456 474.359 214.456C473.739 214.456 473.229 214.736 472.829 215.296C472.429 215.856 472.229 216.553 472.229 217.386C472.229 218.22 472.425 218.92 472.819 219.486C473.219 220.04 473.732 220.316 474.359 220.316C474.985 220.316 475.495 220.04 475.889 219.486C476.289 218.926 476.489 218.226 476.489 217.386Z" fill="#6B6B6B"/>
<path d="M403.357 475.196C403.824 475.316 404.19 475.533 404.457 475.846C404.724 476.16 404.857 476.536 404.857 476.976C404.857 477.596 404.604 478.09 404.097 478.456C403.59 478.823 402.957 479.006 402.197 479.006C401.437 479.006 400.804 478.823 400.297 478.456C399.79 478.09 399.537 477.596 399.537 476.976C399.537 476.536 399.67 476.16 399.937 475.846C400.21 475.533 400.58 475.316 401.047 475.196C400.687 475.05 400.404 474.84 400.197 474.566C399.99 474.286 399.887 473.963 399.887 473.596C399.887 473.056 400.107 472.616 400.547 472.276C400.987 471.936 401.537 471.766 402.197 471.766C402.864 471.766 403.417 471.936 403.857 472.276C404.297 472.616 404.517 473.056 404.517 473.596C404.517 473.963 404.414 474.286 404.207 474.566C404 474.84 403.717 475.05 403.357 475.196ZM400.587 473.656C400.587 474.03 400.74 474.33 401.047 474.556C401.354 474.783 401.737 474.896 402.197 474.896C402.664 474.896 403.05 474.78 403.357 474.546C403.664 474.313 403.817 474.016 403.817 473.656C403.817 473.283 403.66 472.98 403.347 472.746C403.034 472.513 402.65 472.396 402.197 472.396C401.744 472.396 401.36 472.513 401.047 472.746C400.74 472.973 400.587 473.276 400.587 473.656ZM400.827 477.966C401.2 478.24 401.657 478.376 402.197 478.376C402.737 478.376 403.194 478.24 403.567 477.966C403.94 477.686 404.127 477.343 404.127 476.936C404.127 476.516 403.944 476.176 403.577 475.916C403.204 475.656 402.744 475.526 402.197 475.526C401.65 475.526 401.194 475.656 400.827 475.916C400.46 476.176 400.277 476.516 400.277 476.936C400.277 477.343 400.46 477.686 400.827 477.966ZM406.602 475.226C406.456 475.226 406.332 475.176 406.232 475.076C406.132 474.976 406.082 474.853 406.082 474.706C406.082 474.56 406.132 474.436 406.232 474.336C406.332 474.236 406.456 474.186 406.602 474.186C406.749 474.186 406.872 474.236 406.972 474.336C407.072 474.436 407.122 474.56 407.122 474.706C407.122 474.853 407.072 474.976 406.972 475.076C406.872 475.176 406.749 475.226 406.602 475.226ZM406.602 478.946C406.456 478.946 406.332 478.896 406.232 478.796C406.132 478.696 406.082 478.573 406.082 478.426C406.082 478.28 406.132 478.156 406.232 478.056C406.332 477.956 406.456 477.906 406.602 477.906C406.749 477.906 406.872 477.956 406.972 478.056C407.072 478.156 407.122 478.28 407.122 478.426C407.122 478.573 407.072 478.696 406.972 478.796C406.872 478.896 406.749 478.946 406.602 478.946ZM408.456 475.386C408.456 474.36 408.719 473.503 409.246 472.816C409.779 472.116 410.472 471.766 411.326 471.766C412.172 471.766 412.862 472.113 413.396 472.806C413.922 473.493 414.186 474.353 414.186 475.386C414.186 476.42 413.922 477.28 413.396 477.966C412.862 478.66 412.172 479.006 411.326 479.006C410.472 479.006 409.779 478.66 409.246 477.966C408.719 477.28 408.456 476.42 408.456 475.386ZM413.456 475.386C413.456 474.553 413.256 473.856 412.856 473.296C412.456 472.736 411.946 472.456 411.326 472.456C410.706 472.456 410.196 472.736 409.796 473.296C409.396 473.856 409.196 474.553 409.196 475.386C409.196 476.22 409.392 476.92 409.786 477.486C410.186 478.04 410.699 478.316 411.326 478.316C411.952 478.316 412.462 478.04 412.856 477.486C413.256 476.926 413.456 476.226 413.456 475.386ZM415.536 475.386C415.536 474.36 415.799 473.503 416.326 472.816C416.859 472.116 417.552 471.766 418.406 471.766C419.252 471.766 419.942 472.113 420.476 472.806C421.002 473.493 421.266 474.353 421.266 475.386C421.266 476.42 421.002 477.28 420.476 477.966C419.942 478.66 419.252 479.006 418.406 479.006C417.552 479.006 416.859 478.66 416.326 477.966C415.799 477.28 415.536 476.42 415.536 475.386ZM420.536 475.386C420.536 474.553 420.336 473.856 419.936 473.296C419.536 472.736 419.026 472.456 418.406 472.456C417.786 472.456 417.276 472.736 416.876 473.296C416.476 473.856 416.276 474.553 416.276 475.386C416.276 476.22 416.472 476.92 416.866 477.486C417.266 478.04 417.779 478.316 418.406 478.316C419.032 478.316 419.542 478.04 419.936 477.486C420.336 476.926 420.536 476.226 420.536 475.386ZM425.756 476.506H422.946V475.836H425.756V476.506ZM429.205 478.886H428.475V472.686L426.905 473.586V472.876L428.555 471.886H429.205V478.886ZM430.965 475.386C430.965 474.36 431.229 473.503 431.755 472.816C432.289 472.116 432.982 471.766 433.835 471.766C434.682 471.766 435.372 472.113 435.905 472.806C436.432 473.493 436.695 474.353 436.695 475.386C436.695 476.42 436.432 477.28 435.905 477.966C435.372 478.66 434.682 479.006 433.835 479.006C432.982 479.006 432.289 478.66 431.755 477.966C431.229 477.28 430.965 476.42 430.965 475.386ZM435.965 475.386C435.965 474.553 435.765 473.856 435.365 473.296C434.965 472.736 434.455 472.456 433.835 472.456C433.215 472.456 432.705 472.736 432.305 473.296C431.905 473.856 431.705 474.553 431.705 475.386C431.705 476.22 431.902 476.92 432.295 477.486C432.695 478.04 433.209 478.316 433.835 478.316C434.462 478.316 434.972 478.04 435.365 477.486C435.765 476.926 435.965 476.226 435.965 475.386ZM438.555 475.226C438.409 475.226 438.285 475.176 438.185 475.076C438.085 474.976 438.035 474.853 438.035 474.706C438.035 474.56 438.085 474.436 438.185 474.336C438.285 474.236 438.409 474.186 438.555 474.186C438.702 474.186 438.825 474.236 438.925 474.336C439.025 474.436 439.075 474.56 439.075 474.706C439.075 474.853 439.025 474.976 438.925 475.076C438.825 475.176 438.702 475.226 438.555 475.226ZM438.555 478.946C438.409 478.946 438.285 478.896 438.185 478.796C438.085 478.696 438.035 478.573 438.035 478.426C438.035 478.28 438.085 478.156 438.185 478.056C438.285 477.956 438.409 477.906 438.555 477.906C438.702 477.906 438.825 477.956 438.925 478.056C439.025 478.156 439.075 478.28 439.075 478.426C439.075 478.573 439.025 478.696 438.925 478.796C438.825 478.896 438.702 478.946 438.555 478.946ZM440.409 475.386C440.409 474.36 440.672 473.503 441.199 472.816C441.732 472.116 442.425 471.766 443.279 471.766C444.125 471.766 444.815 472.113 445.349 472.806C445.875 473.493 446.139 474.353 446.139 475.386C446.139 476.42 445.875 477.28 445.349 477.966C444.815 478.66 444.125 479.006 443.279 479.006C442.425 479.006 441.732 478.66 441.199 477.966C440.672 477.28 440.409 476.42 440.409 475.386ZM445.409 475.386C445.409 474.553 445.209 473.856 444.809 473.296C444.409 472.736 443.899 472.456 443.279 472.456C442.659 472.456 442.149 472.736 441.749 473.296C441.349 473.856 441.149 474.553 441.149 475.386C441.149 476.22 441.345 476.92 441.739 477.486C442.139 478.04 442.652 478.316 443.279 478.316C443.905 478.316 444.415 478.04 444.809 477.486C445.209 476.926 445.409 476.226 445.409 475.386ZM447.489 475.386C447.489 474.36 447.752 473.503 448.279 472.816C448.812 472.116 449.505 471.766 450.359 471.766C451.205 471.766 451.895 472.113 452.429 472.806C452.955 473.493 453.219 474.353 453.219 475.386C453.219 476.42 452.955 477.28 452.429 477.966C451.895 478.66 451.205 479.006 450.359 479.006C449.505 479.006 448.812 478.66 448.279 477.966C447.752 477.28 447.489 476.42 447.489 475.386ZM452.489 475.386C452.489 474.553 452.289 473.856 451.889 473.296C451.489 472.736 450.979 472.456 450.359 472.456C449.739 472.456 449.229 472.736 448.829 473.296C448.429 473.856 448.229 474.553 448.229 475.386C448.229 476.22 448.425 476.92 448.819 477.486C449.219 478.04 449.732 478.316 450.359 478.316C450.985 478.316 451.495 478.04 451.889 477.486C452.289 476.926 452.489 476.226 452.489 475.386Z" fill="#6B6B6B"/>
<path d="M460.357 632.196C460.824 632.316 461.19 632.533 461.457 632.846C461.724 633.16 461.857 633.536 461.857 633.976C461.857 634.596 461.604 635.09 461.097 635.456C460.59 635.823 459.957 636.006 459.197 636.006C458.437 636.006 457.804 635.823 457.297 635.456C456.79 635.09 456.537 634.596 456.537 633.976C456.537 633.536 456.67 633.16 456.937 632.846C457.21 632.533 457.58 632.316 458.047 632.196C457.687 632.05 457.404 631.84 457.197 631.566C456.99 631.286 456.887 630.963 456.887 630.596C456.887 630.056 457.107 629.616 457.547 629.276C457.987 628.936 458.537 628.766 459.197 628.766C459.864 628.766 460.417 628.936 460.857 629.276C461.297 629.616 461.517 630.056 461.517 630.596C461.517 630.963 461.414 631.286 461.207 631.566C461 631.84 460.717 632.05 460.357 632.196ZM457.587 630.656C457.587 631.03 457.74 631.33 458.047 631.556C458.354 631.783 458.737 631.896 459.197 631.896C459.664 631.896 460.05 631.78 460.357 631.546C460.664 631.313 460.817 631.016 460.817 630.656C460.817 630.283 460.66 629.98 460.347 629.746C460.034 629.513 459.65 629.396 459.197 629.396C458.744 629.396 458.36 629.513 458.047 629.746C457.74 629.973 457.587 630.276 457.587 630.656ZM457.827 634.966C458.2 635.24 458.657 635.376 459.197 635.376C459.737 635.376 460.194 635.24 460.567 634.966C460.94 634.686 461.127 634.343 461.127 633.936C461.127 633.516 460.944 633.176 460.577 632.916C460.204 632.656 459.744 632.526 459.197 632.526C458.65 632.526 458.194 632.656 457.827 632.916C457.46 633.176 457.277 633.516 457.277 633.936C457.277 634.343 457.46 634.686 457.827 634.966ZM463.602 632.226C463.456 632.226 463.332 632.176 463.232 632.076C463.132 631.976 463.082 631.853 463.082 631.706C463.082 631.56 463.132 631.436 463.232 631.336C463.332 631.236 463.456 631.186 463.602 631.186C463.749 631.186 463.872 631.236 463.972 631.336C464.072 631.436 464.122 631.56 464.122 631.706C464.122 631.853 464.072 631.976 463.972 632.076C463.872 632.176 463.749 632.226 463.602 632.226ZM463.602 635.946C463.456 635.946 463.332 635.896 463.232 635.796C463.132 635.696 463.082 635.573 463.082 635.426C463.082 635.28 463.132 635.156 463.232 635.056C463.332 634.956 463.456 634.906 463.602 634.906C463.749 634.906 463.872 634.956 463.972 635.056C464.072 635.156 464.122 635.28 464.122 635.426C464.122 635.573 464.072 635.696 463.972 635.796C463.872 635.896 463.749 635.946 463.602 635.946ZM465.456 632.386C465.456 631.36 465.719 630.503 466.246 629.816C466.779 629.116 467.472 628.766 468.326 628.766C469.172 628.766 469.862 629.113 470.396 629.806C470.922 630.493 471.186 631.353 471.186 632.386C471.186 633.42 470.922 634.28 470.396 634.966C469.862 635.66 469.172 636.006 468.326 636.006C467.472 636.006 466.779 635.66 466.246 634.966C465.719 634.28 465.456 633.42 465.456 632.386ZM470.456 632.386C470.456 631.553 470.256 630.856 469.856 630.296C469.456 629.736 468.946 629.456 468.326 629.456C467.706 629.456 467.196 629.736 466.796 630.296C466.396 630.856 466.196 631.553 466.196 632.386C466.196 633.22 466.392 633.92 466.786 634.486C467.186 635.04 467.699 635.316 468.326 635.316C468.952 635.316 469.462 635.04 469.856 634.486C470.256 633.926 470.456 633.226 470.456 632.386ZM472.536 632.386C472.536 631.36 472.799 630.503 473.326 629.816C473.859 629.116 474.552 628.766 475.406 628.766C476.252 628.766 476.942 629.113 477.476 629.806C478.002 630.493 478.266 631.353 478.266 632.386C478.266 633.42 478.002 634.28 477.476 634.966C476.942 635.66 476.252 636.006 475.406 636.006C474.552 636.006 473.859 635.66 473.326 634.966C472.799 634.28 472.536 633.42 472.536 632.386ZM477.536 632.386C477.536 631.553 477.336 630.856 476.936 630.296C476.536 629.736 476.026 629.456 475.406 629.456C474.786 629.456 474.276 629.736 473.876 630.296C473.476 630.856 473.276 631.553 473.276 632.386C473.276 633.22 473.472 633.92 473.866 634.486C474.266 635.04 474.779 635.316 475.406 635.316C476.032 635.316 476.542 635.04 476.936 634.486C477.336 633.926 477.536 633.226 477.536 632.386ZM482.756 633.506H479.946V632.836H482.756V633.506ZM486.205 635.886H485.475V629.686L483.905 630.586V629.876L485.555 628.886H486.205V635.886ZM487.965 632.386C487.965 631.36 488.229 630.503 488.755 629.816C489.289 629.116 489.982 628.766 490.835 628.766C491.682 628.766 492.372 629.113 492.905 629.806C493.432 630.493 493.695 631.353 493.695 632.386C493.695 633.42 493.432 634.28 492.905 634.966C492.372 635.66 491.682 636.006 490.835 636.006C489.982 636.006 489.289 635.66 488.755 634.966C488.229 634.28 487.965 633.42 487.965 632.386ZM492.965 632.386C492.965 631.553 492.765 630.856 492.365 630.296C491.965 629.736 491.455 629.456 490.835 629.456C490.215 629.456 489.705 629.736 489.305 630.296C488.905 630.856 488.705 631.553 488.705 632.386C488.705 633.22 488.902 633.92 489.295 634.486C489.695 635.04 490.209 635.316 490.835 635.316C491.462 635.316 491.972 635.04 492.365 634.486C492.765 633.926 492.965 633.226 492.965 632.386ZM495.555 632.226C495.409 632.226 495.285 632.176 495.185 632.076C495.085 631.976 495.035 631.853 495.035 631.706C495.035 631.56 495.085 631.436 495.185 631.336C495.285 631.236 495.409 631.186 495.555 631.186C495.702 631.186 495.825 631.236 495.925 631.336C496.025 631.436 496.075 631.56 496.075 631.706C496.075 631.853 496.025 631.976 495.925 632.076C495.825 632.176 495.702 632.226 495.555 632.226ZM495.555 635.946C495.409 635.946 495.285 635.896 495.185 635.796C495.085 635.696 495.035 635.573 495.035 635.426C495.035 635.28 495.085 635.156 495.185 635.056C495.285 634.956 495.409 634.906 495.555 634.906C495.702 634.906 495.825 634.956 495.925 635.056C496.025 635.156 496.075 635.28 496.075 635.426C496.075 635.573 496.025 635.696 495.925 635.796C495.825 635.896 495.702 635.946 495.555 635.946ZM497.409 632.386C497.409 631.36 497.672 630.503 498.199 629.816C498.732 629.116 499.425 628.766 500.279 628.766C501.125 628.766 501.815 629.113 502.349 629.806C502.875 630.493 503.139 631.353 503.139 632.386C503.139 633.42 502.875 634.28 502.349 634.966C501.815 635.66 501.125 636.006 500.279 636.006C499.425 636.006 498.732 635.66 498.199 634.966C497.672 634.28 497.409 633.42 497.409 632.386ZM502.409 632.386C502.409 631.553 502.209 630.856 501.809 630.296C501.409 629.736 500.899 629.456 500.279 629.456C499.659 629.456 499.149 629.736 498.749 630.296C498.349 630.856 498.149 631.553 498.149 632.386C498.149 633.22 498.345 633.92 498.739 634.486C499.139 635.04 499.652 635.316 500.279 635.316C500.905 635.316 501.415 635.04 501.809 634.486C502.209 633.926 502.409 633.226 502.409 632.386ZM504.489 632.386C504.489 631.36 504.752 630.503 505.279 629.816C505.812 629.116 506.505 628.766 507.359 628.766C508.205 628.766 508.895 629.113 509.429 629.806C509.955 630.493 510.219 631.353 510.219 632.386C510.219 633.42 509.955 634.28 509.429 634.966C508.895 635.66 508.205 636.006 507.359 636.006C506.505 636.006 505.812 635.66 505.279 634.966C504.752 634.28 504.489 633.42 504.489 632.386ZM509.489 632.386C509.489 631.553 509.289 630.856 508.889 630.296C508.489 629.736 507.979 629.456 507.359 629.456C506.739 629.456 506.229 629.736 505.829 630.296C505.429 630.856 505.229 631.553 505.229 632.386C505.229 633.22 505.425 633.92 505.819 634.486C506.219 635.04 506.732 635.316 507.359 635.316C507.985 635.316 508.495 635.04 508.889 634.486C509.289 633.926 509.489 633.226 509.489 632.386Z" fill="#6B6B6B"/>
<path d="M91.3569 72.1965C91.8236 72.3165 92.1903 72.5331 92.4569 72.8465C92.7236 73.1598 92.8569 73.5365 92.8569 73.9765C92.8569 74.5965 92.6036 75.0898 92.0969 75.4565C91.5903 75.8231 90.9569 76.0065 90.1969 76.0065C89.4369 76.0065 88.8036 75.8231 88.2969 75.4565C87.7903 75.0898 87.5369 74.5965 87.5369 73.9765C87.5369 73.5365 87.6703 73.1598 87.9369 72.8465C88.2103 72.5331 88.5803 72.3165 89.0469 72.1965C88.6869 72.0498 88.4036 71.8398 88.1969 71.5665C87.9903 71.2865 87.8869 70.9631 87.8869 70.5965C87.8869 70.0565 88.1069 69.6165 88.5469 69.2765C88.9869 68.9365 89.5369 68.7665 90.1969 68.7665C90.8636 68.7665 91.4169 68.9365 91.8569 69.2765C92.2969 69.6165 92.5169 70.0565 92.5169 70.5965C92.5169 70.9631 92.4136 71.2865 92.2069 71.5665C92.0003 71.8398 91.7169 72.0498 91.3569 72.1965ZM88.5869 70.6565C88.5869 71.0298 88.7403 71.3298 89.0469 71.5565C89.3536 71.7831 89.7369 71.8965 90.1969 71.8965C90.6636 71.8965 91.0503 71.7798 91.3569 71.5465C91.6636 71.3131 91.8169 71.0165 91.8169 70.6565C91.8169 70.2831 91.6603 69.9798 91.3469 69.7465C91.0336 69.5131 90.6503 69.3965 90.1969 69.3965C89.7436 69.3965 89.3603 69.5131 89.0469 69.7465C88.7403 69.9731 88.5869 70.2765 88.5869 70.6565ZM88.8269 74.9665C89.2003 75.2398 89.6569 75.3765 90.1969 75.3765C90.7369 75.3765 91.1936 75.2398 91.5669 74.9665C91.9403 74.6865 92.1269 74.3431 92.1269 73.9365C92.1269 73.5165 91.9436 73.1765 91.5769 72.9165C91.2036 72.6565 90.7436 72.5265 90.1969 72.5265C89.6503 72.5265 89.1936 72.6565 88.8269 72.9165C88.4603 73.1765 88.2769 73.5165 88.2769 73.9365C88.2769 74.3431 88.4603 74.6865 88.8269 74.9665ZM94.6022 72.2265C94.4556 72.2265 94.3322 72.1765 94.2322 72.0765C94.1322 71.9765 94.0822 71.8531 94.0822 71.7065C94.0822 71.5598 94.1322 71.4365 94.2322 71.3365C94.3322 71.2365 94.4556 71.1865 94.6022 71.1865C94.7489 71.1865 94.8722 71.2365 94.9722 71.3365C95.0722 71.4365 95.1222 71.5598 95.1222 71.7065C95.1222 71.8531 95.0722 71.9765 94.9722 72.0765C94.8722 72.1765 94.7489 72.2265 94.6022 72.2265ZM94.6022 75.9465C94.4556 75.9465 94.3322 75.8965 94.2322 75.7965C94.1322 75.6965 94.0822 75.5731 94.0822 75.4265C94.0822 75.2798 94.1322 75.1565 94.2322 75.0565C94.3322 74.9565 94.4556 74.9065 94.6022 74.9065C94.7489 74.9065 94.8722 74.9565 94.9722 75.0565C95.0722 75.1565 95.1222 75.2798 95.1222 75.4265C95.1222 75.5731 95.0722 75.6965 94.9722 75.7965C94.8722 75.8965 94.7489 75.9465 94.6022 75.9465ZM96.4555 72.3865C96.4555 71.3598 96.7189 70.5031 97.2455 69.8165C97.7789 69.1165 98.4722 68.7665 99.3255 68.7665C100.172 68.7665 100.862 69.1131 101.396 69.8065C101.922 70.4931 102.186 71.3531 102.186 72.3865C102.186 73.4198 101.922 74.2798 101.396 74.9665C100.862 75.6598 100.172 76.0065 99.3255 76.0065C98.4722 76.0065 97.7789 75.6598 97.2455 74.9665C96.7189 74.2798 96.4555 73.4198 96.4555 72.3865ZM101.456 72.3865C101.456 71.5531 101.256 70.8565 100.856 70.2965C100.456 69.7365 99.9455 69.4565 99.3255 69.4565C98.7055 69.4565 98.1955 69.7365 97.7955 70.2965C97.3955 70.8565 97.1955 71.5531 97.1955 72.3865C97.1955 73.2198 97.3922 73.9198 97.7855 74.4865C98.1855 75.0398 98.6989 75.3165 99.3255 75.3165C99.9522 75.3165 100.462 75.0398 100.856 74.4865C101.256 73.9265 101.456 73.2265 101.456 72.3865ZM103.536 72.3865C103.536 71.3598 103.799 70.5031 104.326 69.8165C104.859 69.1165 105.552 68.7665 106.406 68.7665C107.252 68.7665 107.942 69.1131 108.476 69.8065C109.002 70.4931 109.266 71.3531 109.266 72.3865C109.266 73.4198 109.002 74.2798 108.476 74.9665C107.942 75.6598 107.252 76.0065 106.406 76.0065C105.552 76.0065 104.859 75.6598 104.326 74.9665C103.799 74.2798 103.536 73.4198 103.536 72.3865ZM108.536 72.3865C108.536 71.5531 108.336 70.8565 107.936 70.2965C107.536 69.7365 107.026 69.4565 106.406 69.4565C105.786 69.4565 105.276 69.7365 104.876 70.2965C104.476 70.8565 104.276 71.5531 104.276 72.3865C104.276 73.2198 104.472 73.9198 104.866 74.4865C105.266 75.0398 105.779 75.3165 106.406 75.3165C107.032 75.3165 107.542 75.0398 107.936 74.4865C108.336 73.9265 108.536 73.2265 108.536 72.3865ZM113.756 73.5065H110.946V72.8365H113.756V73.5065ZM117.205 75.8865H116.475V69.6865L114.905 70.5865V69.8765L116.555 68.8865H117.205V75.8865ZM118.965 72.3865C118.965 71.3598 119.229 70.5031 119.755 69.8165C120.289 69.1165 120.982 68.7665 121.835 68.7665C122.682 68.7665 123.372 69.1131 123.905 69.8065C124.432 70.4931 124.695 71.3531 124.695 72.3865C124.695 73.4198 124.432 74.2798 123.905 74.9665C123.372 75.6598 122.682 76.0065 121.835 76.0065C120.982 76.0065 120.289 75.6598 119.755 74.9665C119.229 74.2798 118.965 73.4198 118.965 72.3865ZM123.965 72.3865C123.965 71.5531 123.765 70.8565 123.365 70.2965C122.965 69.7365 122.455 69.4565 121.835 69.4565C121.215 69.4565 120.705 69.7365 120.305 70.2965C119.905 70.8565 119.705 71.5531 119.705 72.3865C119.705 73.2198 119.902 73.9198 120.295 74.4865C120.695 75.0398 121.209 75.3165 121.835 75.3165C122.462 75.3165 122.972 75.0398 123.365 74.4865C123.765 73.9265 123.965 73.2265 123.965 72.3865ZM126.555 72.2265C126.409 72.2265 126.285 72.1765 126.185 72.0765C126.085 71.9765 126.035 71.8531 126.035 71.7065C126.035 71.5598 126.085 71.4365 126.185 71.3365C126.285 71.2365 126.409 71.1865 126.555 71.1865C126.702 71.1865 126.825 71.2365 126.925 71.3365C127.025 71.4365 127.075 71.5598 127.075 71.7065C127.075 71.8531 127.025 71.9765 126.925 72.0765C126.825 72.1765 126.702 72.2265 126.555 72.2265ZM126.555 75.9465C126.409 75.9465 126.285 75.8965 126.185 75.7965C126.085 75.6965 126.035 75.5731 126.035 75.4265C126.035 75.2798 126.085 75.1565 126.185 75.0565C126.285 74.9565 126.409 74.9065 126.555 74.9065C126.702 74.9065 126.825 74.9565 126.925 75.0565C127.025 75.1565 127.075 75.2798 127.075 75.4265C127.075 75.5731 127.025 75.6965 126.925 75.7965C126.825 75.8965 126.702 75.9465 126.555 75.9465ZM128.409 72.3865C128.409 71.3598 128.672 70.5031 129.199 69.8165C129.732 69.1165 130.425 68.7665 131.279 68.7665C132.125 68.7665 132.815 69.1131 133.349 69.8065C133.875 70.4931 134.139 71.3531 134.139 72.3865C134.139 73.4198 133.875 74.2798 133.349 74.9665C132.815 75.6598 132.125 76.0065 131.279 76.0065C130.425 76.0065 129.732 75.6598 129.199 74.9665C128.672 74.2798 128.409 73.4198 128.409 72.3865ZM133.409 72.3865C133.409 71.5531 133.209 70.8565 132.809 70.2965C132.409 69.7365 131.899 69.4565 131.279 69.4565C130.659 69.4565 130.149 69.7365 129.749 70.2965C129.349 70.8565 129.149 71.5531 129.149 72.3865C129.149 73.2198 129.345 73.9198 129.739 74.4865C130.139 75.0398 130.652 75.3165 131.279 75.3165C131.905 75.3165 132.415 75.0398 132.809 74.4865C133.209 73.9265 133.409 73.2265 133.409 72.3865ZM135.489 72.3865C135.489 71.3598 135.752 70.5031 136.279 69.8165C136.812 69.1165 137.505 68.7665 138.359 68.7665C139.205 68.7665 139.895 69.1131 140.429 69.8065C140.955 70.4931 141.219 71.3531 141.219 72.3865C141.219 73.4198 140.955 74.2798 140.429 74.9665C139.895 75.6598 139.205 76.0065 138.359 76.0065C137.505 76.0065 136.812 75.6598 136.279 74.9665C135.752 74.2798 135.489 73.4198 135.489 72.3865ZM140.489 72.3865C140.489 71.5531 140.289 70.8565 139.889 70.2965C139.489 69.7365 138.979 69.4565 138.359 69.4565C137.739 69.4565 137.229 69.7365 136.829 70.2965C136.429 70.8565 136.229 71.5531 136.229 72.3865C136.229 73.2198 136.425 73.9198 136.819 74.4865C137.219 75.0398 137.732 75.3165 138.359 75.3165C138.985 75.3165 139.495 75.0398 139.889 74.4865C140.289 73.9265 140.489 73.2265 140.489 72.3865Z" fill="#6B6B6B"/>
<rect x="1.3988" y="1.38641" width="568" height="699" stroke="black"/>
</svg>
