<svg width="332" height="506" viewBox="0 0 332 506" fill="none" xmlns="http://www.w3.org/2000/svg">
<path d="M303.94 457.316L209.992 125.464L42.8956 173.148L136.843 505L303.94 457.316Z" fill="black" stroke="black"/>
<path d="M331 429.753L190.466 114.908L31.923 186.16L172.457 501.005L331 429.753Z" fill="white" stroke="black"/>
<path d="M64.4934 205.058L60.1665 207.002L57.5883 201.226L61.8246 199.323L62.2997 200.387L59.2503 201.757L59.7475 202.871L62.2035 201.768L62.6712 202.815L60.2152 203.919L60.8782 205.404L64.0183 203.993L64.4934 205.058ZM69.3943 202.855L68.1498 203.414L68.0294 196.495L69.1667 195.984L74.2321 200.681L72.9711 201.248L71.8058 200.167L69.3663 201.263L69.3943 202.855ZM69.2528 197.728L69.2989 200.114L70.9884 199.355L69.2528 197.728ZM80.1726 198.15C79.3045 198.54 78.4816 198.662 77.7041 198.517L77.1516 197.279C77.4867 197.379 77.8864 197.418 78.3507 197.394C78.8181 197.362 79.2469 197.259 79.637 197.083C79.9612 196.938 80.2018 196.76 80.3591 196.551C80.5138 196.336 80.5446 196.124 80.4513 195.915C80.3506 195.689 80.1805 195.574 79.941 195.57C79.8364 195.557 79.7044 195.557 79.545 195.569L79.3177 195.592L78.7936 195.659L78.3024 195.712C78.2346 195.722 78.0846 195.734 77.8524 195.746C77.6526 195.756 77.5032 195.754 77.4042 195.739C77.0301 195.669 76.7739 195.583 76.6356 195.48C76.3859 195.275 76.1996 195.035 76.0768 194.76C75.8485 194.249 75.8643 193.76 76.1243 193.293C76.3818 192.82 76.8457 192.434 77.516 192.132C78.1918 191.829 78.8922 191.706 79.617 191.763L80.1326 192.918C79.3827 192.819 78.678 192.918 78.0187 193.214C77.3648 193.508 77.1226 193.845 77.2921 194.224C77.3657 194.389 77.5263 194.476 77.7738 194.483C77.9241 194.495 78.1065 194.482 78.3209 194.445C78.6111 194.401 78.8469 194.367 79.0283 194.345C79.5726 194.279 80.0798 194.292 80.5499 194.385C81.0548 194.481 81.4264 194.797 81.6645 195.33C81.9125 195.886 81.8907 196.42 81.5991 196.935C81.3074 197.449 80.8319 197.854 80.1726 198.15ZM83.9551 190.655L83.4799 189.591L88.3178 187.417L88.7929 188.481L86.9633 189.303L89.0663 194.015L87.8795 194.548L85.7765 189.837L83.9551 190.655Z" fill="black"/>
<path d="M160.684 162.3L156.579 164.145L156.193 163.279L157.202 160.973C157.432 160.44 157.571 160.034 157.618 159.755C157.674 159.466 157.646 159.198 157.536 158.95C157.425 158.703 157.247 158.548 157.002 158.487C156.755 158.42 156.482 158.453 156.186 158.586C155.647 158.828 155.226 159.282 154.923 159.946L154.378 158.725C154.68 158.147 155.158 157.711 155.812 157.417C156.362 157.17 156.912 157.117 157.464 157.259C158.015 157.401 158.409 157.736 158.644 158.264C158.826 158.671 158.896 159.072 158.855 159.467C158.823 159.838 158.67 160.346 158.397 160.99L157.813 162.342L160.22 161.261L160.684 162.3ZM167.231 159.497C166.72 159.727 166.208 159.785 165.696 159.672C165.197 159.559 164.749 159.324 164.352 158.968C163.961 158.609 163.644 158.157 163.401 157.612C163.16 157.073 163.035 156.542 163.026 156.018C163.017 155.467 163.143 154.964 163.402 154.511C163.667 154.055 164.049 153.715 164.549 153.49C165.308 153.15 166.041 153.173 166.748 153.562C167.459 153.943 168 154.548 168.371 155.379C168.741 156.209 168.832 157.017 168.641 157.803C168.459 158.592 167.989 159.156 167.231 159.497ZM165.543 158.264C165.946 158.519 166.343 158.558 166.733 158.383C167.129 158.205 167.361 157.883 167.43 157.416C167.502 156.942 167.42 156.44 167.184 155.912C166.946 155.379 166.629 154.986 166.233 154.735C165.838 154.47 165.442 154.426 165.047 154.604C164.651 154.782 164.417 155.108 164.346 155.583C164.269 156.047 164.35 156.545 164.588 157.079C164.824 157.607 165.142 158.002 165.543 158.264ZM177.688 154.659L173.583 156.503L173.197 155.637L174.206 153.331C174.436 152.798 174.575 152.392 174.622 152.114C174.678 151.825 174.65 151.556 174.54 151.309C174.429 151.061 174.252 150.907 174.006 150.845C173.759 150.778 173.487 150.811 173.19 150.945C172.651 151.187 172.23 151.64 171.927 152.305L171.382 151.084C171.684 150.505 172.163 150.069 172.816 149.775C173.366 149.528 173.916 149.476 174.468 149.617C175.019 149.759 175.413 150.094 175.648 150.622C175.83 151.029 175.9 151.43 175.859 151.825C175.827 152.196 175.674 152.704 175.401 153.349L174.817 154.701L177.224 153.619L177.688 154.659ZM185.667 151.073L181.562 152.918L181.176 152.051L182.185 149.745C182.415 149.213 182.554 148.807 182.601 148.528C182.657 148.239 182.629 147.971 182.519 147.723C182.408 147.475 182.23 147.321 181.985 147.259C181.738 147.192 181.466 147.226 181.169 147.359C180.63 147.601 180.209 148.054 179.906 148.719L179.361 147.498C179.663 146.919 180.141 146.483 180.795 146.189C181.345 145.943 181.895 145.89 182.447 146.032C182.998 146.174 183.392 146.509 183.627 147.037C183.809 147.444 183.879 147.845 183.838 148.24C183.806 148.611 183.653 149.119 183.38 149.763L182.796 151.115L185.203 150.034L185.667 151.073Z" fill="black"/>
<path d="M123.512 209.465L123.037 208.401L127.875 206.227L128.35 207.291L126.52 208.113L128.623 212.825L127.436 213.358L125.333 208.647L123.512 209.465ZM135.739 209.626L134.553 210.16L131.975 204.384L133.161 203.851L134.126 206.013L136.731 204.842L135.766 202.68L136.944 202.151L139.522 207.926L138.344 208.456L137.213 205.923L134.609 207.093L135.739 209.626ZM148.339 203.964L144.012 205.908L141.434 200.133L145.671 198.229L146.146 199.293L143.096 200.664L143.593 201.778L146.049 200.674L146.517 201.722L144.061 202.825L144.724 204.311L147.864 202.899L148.339 203.964Z" fill="black"/>
<path d="M90.2562 260.492L89.0941 261.015L86.5162 255.239L87.5299 254.783L92.089 257.172L90.4391 253.476L91.5929 252.957L94.1709 258.733L93.1902 259.174L88.5989 256.779L90.2562 260.492ZM97.0999 257.525C96.8966 257.617 96.6956 257.625 96.4969 257.549C96.2957 257.468 96.1497 257.325 96.0588 257.122C95.9704 256.924 95.9642 256.725 96.0402 256.526C96.1162 256.326 96.2558 256.181 96.4591 256.09C96.6569 256.001 96.8552 255.994 97.0539 256.07C97.2582 256.143 97.4045 256.279 97.4929 256.477C97.5837 256.681 97.5896 256.886 97.5106 257.093C97.4346 257.292 97.2977 257.437 97.0999 257.525ZM101.842 255.285L100.664 255.815L99.5074 253.224L95.8524 251.043L97.2534 250.413L99.6045 251.823L100.13 249.12L101.49 248.509L100.675 252.67L101.842 255.285ZM105.484 253.757C105.281 253.849 105.08 253.856 104.881 253.781C104.68 253.699 104.534 253.557 104.443 253.353C104.355 253.155 104.348 252.957 104.424 252.758C104.5 252.558 104.64 252.413 104.843 252.322C105.041 252.233 105.239 252.226 105.438 252.302C105.642 252.375 105.789 252.511 105.877 252.709C105.968 252.913 105.974 253.118 105.895 253.325C105.819 253.524 105.682 253.668 105.484 253.757Z" fill="black"/>
<path d="M192.285 215.044C191.565 215.367 190.875 215.41 190.215 215.172C189.554 214.933 189.045 214.413 188.686 213.61L187.191 210.26L188.37 209.73L189.883 213.121C190.082 213.567 190.351 213.859 190.69 213.997C191.032 214.127 191.397 214.105 191.788 213.93C192.183 213.752 192.444 213.493 192.569 213.153C192.697 212.804 192.662 212.408 192.463 211.962L190.949 208.571L192.136 208.037L193.631 211.387C193.99 212.19 194.035 212.92 193.767 213.575C193.504 214.228 193.01 214.718 192.285 215.044ZM199.021 212.016C198.153 212.406 197.33 212.528 196.553 212.383L196 211.145C196.335 211.245 196.735 211.284 197.199 211.26C197.667 211.228 198.095 211.124 198.485 210.949C198.81 210.803 199.05 210.626 199.207 210.417C199.362 210.202 199.393 209.99 199.3 209.781C199.199 209.555 199.029 209.44 198.789 209.436C198.685 209.423 198.553 209.423 198.393 209.435L198.166 209.458L197.642 209.525L197.151 209.578C197.083 209.588 196.933 209.6 196.701 209.611C196.501 209.622 196.352 209.62 196.253 209.605C195.879 209.535 195.622 209.449 195.484 209.346C195.234 209.141 195.048 208.901 194.925 208.626C194.697 208.115 194.713 207.626 194.973 207.159C195.23 206.686 195.694 206.299 196.365 205.998C197.04 205.695 197.741 205.571 198.466 205.629L198.981 206.784C198.231 206.685 197.527 206.784 196.867 207.08C196.213 207.374 195.971 207.711 196.141 208.09C196.214 208.255 196.375 208.341 196.622 208.349C196.773 208.361 196.955 208.348 197.169 208.311C197.46 208.267 197.695 208.233 197.877 208.211C198.421 208.145 198.928 208.158 199.398 208.251C199.903 208.347 200.275 208.662 200.513 209.196C200.761 209.751 200.739 210.286 200.447 210.8C200.156 211.315 199.68 211.72 199.021 212.016ZM204.136 209.579L202.892 210.138L202.771 203.218L203.909 202.707L208.974 207.404L207.713 207.971L206.548 206.89L204.108 207.986L204.136 209.579ZM203.995 204.451L204.041 206.838L205.73 206.078L203.995 204.451Z" fill="black"/>
<path d="M217.223 342.745L216.26 343.177L214.124 338.392L214.964 338.015L218.742 339.994L217.374 336.931L218.331 336.502L220.467 341.287L219.654 341.652L215.85 339.668L217.223 342.745ZM226.07 338.77L222.485 340.381L220.348 335.595L223.858 334.018L224.252 334.9L221.725 336.035L222.137 336.958L224.173 336.044L224.56 336.912L222.525 337.826L223.074 339.057L225.676 337.888L226.07 338.77ZM229.911 337.077L229.044 337.466L225.29 333.375L226.383 332.884L228.807 335.669L228.439 331.943L229.204 331.6L231.736 334.352L231.279 330.684L232.351 330.202L232.888 335.739L232.021 336.128L229.551 333.405L229.911 337.077ZM241.153 331.992L240.177 332.431L239.218 330.285L236.189 328.477L237.35 327.956L239.299 329.124L239.734 326.885L240.86 326.378L240.186 329.825L241.153 331.992ZM244.83 328.813C245.245 328.983 245.664 328.972 246.087 328.782C246.506 328.594 246.791 328.288 246.941 327.865C247.091 327.442 247.065 327.005 246.863 326.554C246.662 326.103 246.354 325.792 245.94 325.623C245.525 325.453 245.108 325.463 244.69 325.651C244.266 325.841 243.979 326.148 243.829 326.571C243.682 326.987 243.71 327.424 243.913 327.879C244.117 328.335 244.423 328.646 244.83 328.813ZM242.91 328.33C242.596 327.629 242.568 326.935 242.825 326.251C243.079 325.557 243.563 325.049 244.277 324.728C244.988 324.409 245.685 324.386 246.37 324.658C247.059 324.928 247.558 325.41 247.867 326.103C248.175 326.791 248.2 327.485 247.945 328.186C247.691 328.879 247.21 329.386 246.499 329.705C245.785 330.026 245.085 330.051 244.4 329.778C243.716 329.506 243.219 329.023 242.91 328.33ZM251.763 327.225L250.78 327.667L248.643 322.881L250.856 321.887C251.366 321.658 251.825 321.61 252.235 321.744C252.647 321.871 252.946 322.144 253.133 322.563C253.276 322.882 253.311 323.2 253.239 323.517C253.17 323.827 253.002 324.099 252.735 324.334L255.123 325.715L253.982 326.228L251.726 324.919L250.899 325.29L251.763 327.225ZM250.011 323.301L250.53 324.463L251.705 323.935C251.928 323.835 252.078 323.707 252.156 323.552C252.239 323.394 252.239 323.222 252.155 323.035C252.074 322.853 251.947 322.74 251.775 322.697C251.605 322.648 251.409 322.673 251.186 322.773L250.011 323.301ZM257.707 324.554L256.724 324.996L254.588 320.21L255.571 319.769L256.413 321.655L257.333 318.977L258.535 318.437L257.486 321.543L261.019 323.066L259.763 323.63L256.722 322.346L257.707 324.554Z" fill="black"/>
<path d="M237.596 378.606L236.102 379.278L233.517 373.486L232.304 374.986L231.636 373.49L232.957 371.776L234.282 371.18L237.596 378.606ZM244.218 375.809C243.561 376.104 242.903 376.179 242.245 376.033C241.603 375.888 241.028 375.587 240.518 375.128C240.015 374.666 239.607 374.086 239.294 373.385C238.985 372.692 238.824 372.009 238.812 371.335C238.801 370.627 238.962 369.981 239.296 369.398C239.636 368.812 240.128 368.375 240.771 368.086C241.746 367.648 242.688 367.678 243.598 368.178C244.512 368.667 245.207 369.446 245.684 370.514C246.161 371.582 246.277 372.621 246.032 373.631C245.798 374.645 245.193 375.371 244.218 375.809ZM242.048 374.224C242.567 374.551 243.077 374.602 243.579 374.377C244.088 374.148 244.386 373.734 244.474 373.134C244.567 372.523 244.461 371.879 244.158 371.2C243.852 370.514 243.444 370.009 242.935 369.686C242.427 369.345 241.919 369.289 241.41 369.518C240.902 369.746 240.601 370.166 240.509 370.776C240.41 371.373 240.514 372.014 240.82 372.7C241.123 373.379 241.533 373.887 242.048 374.224ZM253.65 371.57C252.993 371.865 252.335 371.94 251.676 371.795C251.035 371.65 250.459 371.348 249.949 370.89C249.446 370.428 249.039 369.847 248.726 369.147C248.417 368.454 248.256 367.77 248.243 367.097C248.233 366.388 248.394 365.743 248.727 365.16C249.068 364.574 249.56 364.136 250.202 363.847C251.177 363.409 252.12 363.44 253.03 363.939C253.944 364.429 254.639 365.207 255.116 366.275C255.592 367.343 255.708 368.382 255.464 369.392C255.229 370.406 254.625 371.132 253.65 371.57ZM251.479 369.985C251.999 370.312 252.509 370.363 253.01 370.138C253.519 369.909 253.818 369.495 253.906 368.895C253.998 368.285 253.893 367.64 253.59 366.961C253.283 366.275 252.876 365.77 252.367 365.447C251.859 365.107 251.35 365.051 250.842 365.279C250.333 365.508 250.033 365.927 249.94 366.538C249.842 367.134 249.946 367.775 250.252 368.461C250.555 369.14 250.964 369.648 251.479 369.985ZM261.934 367.669L260.864 368.15L261.978 358.733L263.049 358.252L261.934 367.669ZM263.097 363.491C263.289 362.989 263.66 362.614 264.211 362.366C264.762 362.118 265.288 362.09 265.789 362.281C266.3 362.476 266.669 362.828 266.896 363.337C267.123 363.846 267.139 364.357 266.944 364.869C266.752 365.372 266.381 365.746 265.83 365.994C265.279 366.242 264.753 366.27 264.252 366.079C263.741 365.884 263.372 365.532 263.145 365.023C262.918 364.514 262.902 364.003 263.097 363.491ZM264.681 365.072C264.916 365.161 265.157 365.15 265.404 365.039C265.644 364.931 265.809 364.76 265.899 364.524C265.989 364.288 265.979 364.047 265.868 363.799C265.758 363.552 265.585 363.383 265.35 363.293C265.115 363.204 264.877 363.213 264.637 363.321C264.39 363.432 264.221 363.605 264.131 363.841C264.048 364.073 264.062 364.313 264.173 364.561C264.283 364.809 264.453 364.979 264.681 365.072ZM256.948 361.542C257.139 361.04 257.51 360.665 258.061 360.417C258.612 360.17 259.138 360.141 259.639 360.332C260.15 360.527 260.519 360.879 260.747 361.388C260.974 361.898 260.99 362.408 260.794 362.921C260.603 363.423 260.232 363.798 259.681 364.045C259.13 364.293 258.604 364.321 258.103 364.13C257.592 363.935 257.223 363.583 256.995 363.074C256.768 362.565 256.752 362.054 256.948 361.542ZM258.531 363.123C258.766 363.212 259.007 363.202 259.255 363.091C259.495 362.983 259.66 362.811 259.75 362.575C259.839 362.339 259.829 362.098 259.719 361.85C259.608 361.603 259.435 361.434 259.2 361.345C258.965 361.255 258.728 361.264 258.487 361.372C258.24 361.483 258.072 361.656 257.982 361.892C257.899 362.125 257.913 362.365 258.023 362.612C258.134 362.86 258.303 363.03 258.531 363.123Z" fill="black"/>
<path d="M152.074 307.683C150.824 308.734 149.524 309.32 148.173 309.444L146.684 307.662C147.284 307.671 147.961 307.546 148.716 307.29C149.472 307.018 150.131 306.647 150.693 306.175C151.159 305.783 151.474 305.377 151.635 304.958C151.79 304.532 151.742 304.168 151.491 303.867C151.219 303.542 150.885 303.432 150.488 303.536C150.31 303.565 150.092 303.626 149.834 303.721L149.47 303.866L148.637 304.222L147.851 304.538C147.744 304.588 147.502 304.677 147.125 304.805C146.8 304.916 146.553 304.982 146.382 305.004C145.733 305.065 145.27 305.042 144.994 304.937C144.486 304.717 144.067 304.408 143.736 304.012C143.121 303.276 142.919 302.461 143.13 301.57C143.334 300.67 143.919 299.815 144.884 299.004C145.857 298.187 146.955 297.655 148.177 297.41L149.566 299.073C148.283 299.262 147.167 299.755 146.218 300.552C145.277 301.343 145.034 302.012 145.491 302.559C145.689 302.796 145.994 302.863 146.406 302.76C146.66 302.709 146.954 302.603 147.291 302.441C147.749 302.232 148.122 302.066 148.411 301.945C149.278 301.581 150.121 301.365 150.939 301.297C151.817 301.22 152.577 301.565 153.219 302.334C153.887 303.134 154.101 304.026 153.86 305.01C153.618 305.995 153.023 306.886 152.074 307.683Z" fill="black"/>
<path d="M161.392 301.272C160.178 301.867 158.998 301.979 157.853 301.609C156.708 301.238 155.805 300.375 155.146 299.019L152.394 293.365L154.384 292.391L157.169 298.115C157.535 298.867 158.012 299.352 158.6 299.569C159.193 299.773 159.819 299.714 160.478 299.392C161.145 299.064 161.577 298.606 161.772 298.016C161.972 297.412 161.889 296.734 161.523 295.982L158.738 290.258L160.741 289.277L163.493 294.931C164.152 296.287 164.271 297.534 163.848 298.672C163.435 299.805 162.617 300.672 161.392 301.272Z" fill="black"/>
<path d="M170.239 296.069L168.236 297.051L163.492 287.301L167.749 285.216C168.797 284.703 169.756 284.573 170.625 284.825C171.5 285.064 172.149 285.62 172.574 286.492C173.003 287.374 173.042 288.235 172.692 289.073C172.356 289.916 171.664 290.594 170.616 291.108L168.362 292.211L170.239 296.069ZM166.349 288.075L167.529 290.498L169.643 289.463C170.125 289.226 170.451 288.94 170.621 288.604C170.786 288.259 170.774 287.891 170.584 287.501C170.394 287.112 170.115 286.88 169.747 286.808C169.374 286.726 168.946 286.803 168.464 287.039L166.349 288.075Z" fill="black"/>
<path d="M180.595 291.209L178.482 291.925L175.027 281.645L179.515 280.125C180.62 279.751 181.588 279.745 182.417 280.107C183.254 280.456 183.827 281.091 184.136 282.011C184.448 282.941 184.378 283.8 183.923 284.586C183.482 285.379 182.708 285.962 181.603 286.337L179.227 287.142L180.595 291.209ZM177.761 282.78L178.62 285.335L180.85 284.58C181.358 284.408 181.718 284.166 181.929 283.855C182.137 283.533 182.172 283.167 182.034 282.756C181.895 282.345 181.648 282.08 181.292 281.96C180.933 281.831 180.499 281.853 179.991 282.025L177.761 282.78Z" fill="black"/>
<path d="M196.523 286.508L189.39 289.484L185.24 279.467L187.298 278.608L190.684 286.78L195.758 284.662L196.523 286.508Z" fill="black"/>
<path d="M200.866 286.141L198.671 286.425L198.056 281.597L193.14 276.199L195.75 275.863L198.909 279.346L201.109 275.171L203.642 274.844L200.246 281.268L200.866 286.141Z" fill="black"/>
<path d="M182.763 302.635C181.983 301.961 180.074 300.859 178.674 301.839C176.923 303.065 173.922 306.316 175.499 308.24C177.076 310.164 178.903 313.292 180.664 311.769C182.426 310.246 185.34 309.375 184.938 307.508" stroke="black"/>
<path d="M122.697 355.11L144.887 358.279" stroke="black"/>
<path d="M117.709 343.116L163.91 348.635" stroke="black"/>
<path d="M111.724 331.122L183.662 340.408" stroke="black"/>
<path d="M243.294 313.041L256.623 293.909" stroke="black"/>
<path d="M224.647 321.908L251.808 282.322" stroke="black"/>
<path d="M204.412 331.688L244.999 270.734" stroke="black"/>
<path d="M127.684 366.105L261.509 306" stroke="black"/>
<path d="M205.491 363.104L245.857 453.481" stroke="black"/>
<path d="M139.655 393.113L273.479 333.007" stroke="black"/>
<ellipse rx="7.98933" ry="7.99308" transform="matrix(0.91211 -0.409947 0.407577 0.913171 123.267 177.082)" fill="black"/>
<path d="M179.453 483.327L179.689 483.221M179.689 483.221L314.276 422.731L240.562 257.577L191.108 330.01L105.975 318.067L179.689 483.221Z" stroke="black"/>
<path d="M221.917 446.842L201.553 401.217L191.771 405.613L194.301 428.195L179.195 411.266L170.578 415.139L190.942 460.764L199.559 456.891L188.012 431.021L199.284 443.744L202.311 442.383L200.589 425.369L212.136 451.239L221.917 446.842Z" stroke="black"/>
<path d="M189.302 302.19C191.326 306.725 189.297 312.051 184.769 314.085C180.242 316.12 174.931 314.094 172.907 309.559C170.883 305.024 172.913 299.698 177.44 297.663C181.967 295.629 187.278 297.655 189.302 302.19Z" stroke="black"/>
<path d="M182.676 305.529C183.126 306.536 182.675 307.719 181.669 308.171C180.664 308.623 179.484 308.173 179.034 307.166C178.584 306.158 179.035 304.975 180.041 304.523C181.046 304.071 182.226 304.521 182.676 305.529Z" stroke="black"/>
<path d="M144.477 378.724L143.46 379.181L141.25 374.231L142.267 373.774L143.094 375.626L145.327 374.623L144.5 372.771L145.51 372.317L147.72 377.267L146.71 377.721L145.74 375.55L143.508 376.553L144.477 378.724ZM150.439 376.046L149.372 376.525L149.268 370.594L150.243 370.156L154.585 374.182L153.505 374.668L152.506 373.741L150.415 374.681L150.439 376.046ZM150.317 371.651L150.357 373.697L151.805 373.046L150.317 371.651ZM157.224 372.997L156.228 373.444L154.018 368.494L154.887 368.104L158.795 370.151L157.381 366.983L158.37 366.539L160.58 371.489L159.739 371.867L155.803 369.815L157.224 372.997ZM164.518 369.72L162.667 370.551L160.457 365.601L162.308 364.769C163.109 364.41 163.864 364.348 164.574 364.583C165.285 364.819 165.802 365.3 166.126 366.026C166.452 366.757 166.467 367.466 166.169 368.155C165.874 368.836 165.324 369.358 164.518 369.72ZM161.882 366.056L163.277 369.182L164.026 368.846C164.577 368.598 164.945 368.269 165.129 367.858C165.315 367.44 165.299 366.986 165.08 366.496C164.861 366.005 164.536 365.693 164.103 365.559C163.672 365.419 163.182 365.472 162.631 365.72L161.882 366.056ZM174.424 365.269L171.938 366.386L169.727 361.436L172.052 360.392C172.508 360.187 172.92 360.132 173.285 360.228C173.655 360.322 173.927 360.565 174.102 360.956C174.209 361.197 174.242 361.428 174.2 361.651C174.158 361.874 174.064 362.063 173.919 362.219C174.213 362.155 174.514 362.195 174.821 362.34C175.122 362.482 175.353 362.732 175.513 363.091C175.7 363.51 175.696 363.919 175.501 364.318C175.311 364.715 174.952 365.032 174.424 365.269ZM171.986 363.758L172.563 365.052L173.842 364.478C174.096 364.364 174.27 364.221 174.363 364.049C174.454 363.872 174.453 363.68 174.36 363.473C174.268 363.265 174.125 363.137 173.934 363.087C173.742 363.037 173.519 363.069 173.264 363.184L171.986 363.758ZM171.124 361.828L171.61 362.917L172.754 362.402C172.966 362.307 173.11 362.186 173.186 362.039C173.266 361.89 173.268 361.73 173.193 361.56C173.115 361.386 172.993 361.279 172.829 361.24C172.667 361.194 172.48 361.218 172.268 361.313L171.124 361.828ZM180.077 362.849C179.46 363.126 178.868 363.162 178.302 362.958C177.736 362.754 177.299 362.308 176.992 361.619L175.71 358.748L176.72 358.294L178.018 361.201C178.188 361.583 178.419 361.833 178.709 361.952C179.002 362.063 179.316 362.044 179.65 361.894C179.989 361.741 180.213 361.519 180.32 361.228C180.43 360.929 180.399 360.589 180.229 360.207L178.931 357.301L179.949 356.844L181.23 359.715C181.538 360.403 181.577 361.028 181.347 361.59C181.122 362.15 180.698 362.569 180.077 362.849ZM185.213 360.422L184.203 360.876L181.993 355.925L183.003 355.472L185.213 360.422ZM190.848 357.89L187.323 359.474L185.113 354.524L186.13 354.067L187.933 358.105L190.441 356.978L190.848 357.89ZM194.42 356.286L192.569 357.117L190.358 352.167L192.209 351.335C193.01 350.975 193.765 350.913 194.476 351.149C195.186 351.385 195.703 351.866 196.027 352.592C196.353 353.322 196.368 354.032 196.07 354.72C195.775 355.402 195.225 355.924 194.42 356.286ZM191.783 352.622L193.179 355.748L193.927 355.411C194.478 355.164 194.846 354.835 195.03 354.424C195.217 354.006 195.201 353.552 194.982 353.061C194.763 352.571 194.437 352.259 194.004 352.125C193.574 351.985 193.083 352.038 192.532 352.286L191.783 352.622ZM202.884 352.482L201.874 352.936L199.664 347.986L200.674 347.532L202.884 352.482ZM205.99 351.087L204.994 351.534L202.784 346.584L203.653 346.194L207.561 348.242L206.147 345.073L207.136 344.629L209.346 349.579L208.505 349.957L204.569 347.905L205.99 351.087Z" fill="black"/>
<path d="M167.088 406.549C166.344 406.883 165.639 406.988 164.972 406.863L164.499 405.802C164.786 405.888 165.128 405.921 165.526 405.901C165.927 405.874 166.295 405.785 166.629 405.635C166.907 405.51 167.113 405.358 167.248 405.178C167.381 404.994 167.407 404.812 167.327 404.633C167.241 404.44 167.095 404.341 166.89 404.337C166.8 404.327 166.687 404.327 166.55 404.337L166.355 404.357L165.906 404.414L165.485 404.459C165.427 404.468 165.298 404.478 165.099 404.488C164.928 404.497 164.8 404.495 164.715 404.482C164.394 404.423 164.175 404.349 164.056 404.26C163.842 404.085 163.683 403.879 163.577 403.644C163.382 403.205 163.395 402.786 163.618 402.386C163.839 401.981 164.236 401.649 164.811 401.391C165.39 401.131 165.99 401.025 166.612 401.074L167.054 402.064C166.411 401.98 165.807 402.064 165.242 402.318C164.681 402.57 164.474 402.859 164.619 403.184C164.682 403.325 164.82 403.399 165.032 403.406C165.161 403.416 165.317 403.405 165.501 403.374C165.75 403.335 165.952 403.307 166.107 403.288C166.574 403.231 167.009 403.242 167.411 403.322C167.844 403.405 168.163 403.675 168.367 404.132C168.579 404.608 168.561 405.067 168.311 405.507C168.061 405.948 167.653 406.295 167.088 406.549ZM176.757 402.086L175.747 402.539L173.537 397.589L174.547 397.135L176.757 402.086ZM181.326 394.089L182.513 393.555L184.211 394.567L184.604 392.616L185.777 392.089L185.161 395.099L188.276 396.909L187.089 397.442L184.923 396.2L184.412 398.646L183.239 399.173L183.978 395.64L181.326 394.089ZM198.432 392.345L194.723 394.012L192.513 389.062L196.144 387.43L196.551 388.342L193.938 389.517L194.364 390.472L196.469 389.526L196.87 390.424L194.765 391.37L195.333 392.643L198.025 391.433L198.432 392.345Z" fill="black"/>
<path d="M234.505 404.222L233.827 404.526L232.354 401.226L233.027 400.924L234.594 401.861L234.939 400.065L235.608 399.764L237.082 403.064L236.413 403.365L235.404 401.107L235.12 402.508L234.743 402.677L233.497 401.963L234.505 404.222ZM239.6 401.933L238.889 402.252L238.82 398.299L239.47 398.007L242.365 400.691L241.644 401.015L240.978 400.397L239.584 401.023L239.6 401.933ZM239.519 399.003L239.545 400.367L240.511 399.933L239.519 399.003ZM245.633 399.302C245.121 399.532 244.624 399.563 244.142 399.394C243.657 399.22 243.303 398.884 243.082 398.388C242.857 397.885 242.841 397.398 243.034 396.926C243.23 396.453 243.586 396.101 244.1 395.87C244.421 395.726 244.742 395.664 245.064 395.686L245.37 396.369C245.04 396.314 244.713 396.359 244.389 396.504C244.079 396.644 243.862 396.863 243.74 397.164C243.622 397.458 243.634 397.762 243.774 398.077C243.914 398.391 244.137 398.602 244.442 398.711C244.742 398.817 245.055 398.797 245.382 398.65C245.743 398.488 246.001 398.257 246.158 397.957L246.463 398.64C246.268 398.92 245.991 399.141 245.633 399.302ZM249.163 397.637L248.485 397.941L247.011 394.641L247.689 394.336L248.241 395.572L249.729 394.903L249.178 393.668L249.851 393.365L251.325 396.665L250.651 396.968L250.005 395.521L248.517 396.189L249.163 397.637ZM254.117 395.411L253.443 395.714L251.97 392.413L252.643 392.111L254.117 395.411ZM256.894 394.163L256.23 394.462L254.756 391.162L255.335 390.901L257.941 392.267L256.998 390.154L257.657 389.858L259.131 393.158L258.57 393.41L255.946 392.042L256.894 394.163ZM263.702 391.105L261.229 392.216L259.755 388.916L262.176 387.828L262.448 388.436L260.705 389.219L260.989 389.856L262.393 389.225L262.66 389.824L261.257 390.454L261.636 391.303L263.43 390.497L263.702 391.105ZM269.628 388.465L269.03 388.734L266.441 385.912L267.194 385.573L268.866 387.494L268.613 384.925L269.14 384.688L270.887 386.586L270.571 384.056L271.311 383.724L271.681 387.543L271.083 387.811L269.379 385.933L269.628 388.465ZM274.701 386.163L273.99 386.483L273.92 382.529L274.57 382.237L277.465 384.921L276.745 385.245L276.079 384.627L274.685 385.254L274.701 386.163ZM274.62 383.234L274.646 384.597L275.612 384.164L274.62 383.234ZM280.389 383.687C279.893 383.91 279.423 383.98 278.978 383.896L278.663 383.189C278.854 383.247 279.083 383.268 279.348 383.255C279.615 383.237 279.86 383.178 280.083 383.077C280.268 382.994 280.406 382.893 280.496 382.773C280.584 382.65 280.602 382.529 280.548 382.41C280.491 382.281 280.393 382.215 280.257 382.213C280.197 382.206 280.121 382.205 280.03 382.212L279.9 382.226L279.601 382.264L279.32 382.294C279.281 382.3 279.196 382.306 279.063 382.313C278.949 382.319 278.863 382.318 278.807 382.309C278.593 382.269 278.447 382.22 278.368 382.161C278.225 382.044 278.118 381.907 278.048 381.75C277.918 381.458 277.927 381.178 278.075 380.912C278.222 380.642 278.488 380.421 278.871 380.249C279.257 380.075 279.657 380.005 280.071 380.037L280.366 380.698C279.937 380.641 279.535 380.697 279.158 380.867C278.784 381.035 278.646 381.227 278.743 381.444C278.785 381.538 278.877 381.587 279.018 381.592C279.104 381.598 279.208 381.591 279.331 381.57C279.497 381.545 279.631 381.526 279.735 381.513C280.046 381.475 280.336 381.483 280.605 381.536C280.893 381.591 281.105 381.771 281.242 382.076C281.383 382.393 281.371 382.699 281.204 382.993C281.038 383.286 280.766 383.518 280.389 383.687ZM284.273 381.863L283.595 382.168L282.121 378.867L282.799 378.563L283.351 379.798L284.839 379.129L284.288 377.894L284.961 377.592L286.435 380.892L285.761 381.194L285.115 379.747L283.627 380.416L284.273 381.863Z" fill="black"/>
<path d="M242.511 383.834C241.999 384.064 241.502 384.095 241.02 383.927C240.535 383.752 240.181 383.416 239.96 382.92C239.735 382.417 239.719 381.93 239.912 381.458C240.108 380.985 240.464 380.633 240.979 380.402C241.299 380.258 241.62 380.196 241.942 380.218L242.248 380.901C241.918 380.846 241.591 380.891 241.267 381.036C240.957 381.176 240.74 381.396 240.618 381.696C240.5 381.99 240.512 382.294 240.652 382.609C240.792 382.923 241.015 383.134 241.32 383.243C241.62 383.349 241.933 383.329 242.26 383.183C242.621 383.02 242.879 382.789 243.036 382.489L243.341 383.172C243.145 383.453 242.869 383.673 242.511 383.834ZM245.792 381.228C246.077 381.345 246.366 381.337 246.658 381.206C246.947 381.076 247.143 380.866 247.247 380.574C247.35 380.282 247.333 379.981 247.194 379.669C247.055 379.358 246.842 379.144 246.556 379.027C246.271 378.911 245.983 378.917 245.694 379.047C245.402 379.178 245.205 379.39 245.101 379.681C245 379.969 245.019 380.269 245.159 380.584C245.299 380.898 245.51 381.113 245.792 381.228ZM244.467 380.895C244.251 380.411 244.231 379.933 244.409 379.46C244.584 378.982 244.917 378.632 245.41 378.41C245.9 378.19 246.381 378.174 246.853 378.362C247.328 378.548 247.673 378.881 247.886 379.358C248.098 379.833 248.116 380.312 247.939 380.795C247.765 381.273 247.432 381.623 246.943 381.843C246.45 382.064 245.967 382.081 245.495 381.893C245.023 381.705 244.68 381.372 244.467 380.895ZM248.943 377.632L248.672 377.024L251.436 375.782L251.708 376.39L250.662 376.86L251.864 379.552L251.186 379.857L249.984 377.165L248.943 377.632ZM253.358 375.649L253.087 375.04L255.851 373.798L256.123 374.406L255.077 374.876L256.279 377.568L255.601 377.873L254.399 375.181L253.358 375.649ZM259.437 375.096C259.723 375.213 260.012 375.206 260.304 375.075C260.593 374.945 260.789 374.734 260.892 374.442C260.996 374.151 260.978 373.849 260.839 373.538C260.7 373.227 260.488 373.013 260.202 372.896C259.916 372.779 259.629 372.786 259.34 372.915C259.048 373.047 258.85 373.258 258.747 373.55C258.645 373.837 258.664 374.138 258.804 374.452C258.945 374.767 259.156 374.981 259.437 375.096ZM258.112 374.763C257.896 374.279 257.877 373.801 258.054 373.329C258.229 372.85 258.563 372.5 259.056 372.279C259.545 372.059 260.026 372.043 260.498 372.231C260.974 372.417 261.318 372.749 261.531 373.227C261.743 373.702 261.761 374.18 261.585 374.663C261.41 375.142 261.078 375.491 260.588 375.711C260.095 375.933 259.612 375.95 259.14 375.762C258.668 375.574 258.325 375.241 258.112 374.763ZM264.91 373.69L264.246 373.988L262.773 370.688L263.352 370.428L265.958 371.793L265.015 369.681L265.674 369.384L267.147 372.685L266.587 372.936L263.963 371.568L264.91 373.69Z" fill="black"/>
<path d="M256.476 402.838C255.964 403.068 255.467 403.099 254.985 402.931C254.5 402.756 254.147 402.421 253.925 401.924C253.7 401.421 253.685 400.934 253.877 400.463C254.073 399.99 254.429 399.637 254.944 399.406C255.264 399.262 255.585 399.201 255.908 399.222L256.213 399.906C255.883 399.85 255.556 399.895 255.233 400.04C254.922 400.18 254.705 400.4 254.583 400.7C254.465 400.995 254.477 401.299 254.617 401.613C254.757 401.927 254.98 402.139 255.285 402.247C255.585 402.354 255.898 402.334 256.225 402.187C256.586 402.025 256.844 401.793 257.001 401.493L257.306 402.177C257.11 402.457 256.834 402.677 256.476 402.838ZM259.757 400.232C260.042 400.349 260.331 400.342 260.623 400.21C260.912 400.081 261.108 399.87 261.212 399.578C261.315 399.286 261.298 398.985 261.159 398.674C261.02 398.362 260.807 398.148 260.521 398.031C260.236 397.915 259.948 397.921 259.659 398.051C259.367 398.182 259.17 398.394 259.066 398.685C258.965 398.973 258.984 399.273 259.124 399.588C259.264 399.902 259.475 400.117 259.757 400.232ZM258.432 399.899C258.216 399.415 258.196 398.937 258.374 398.464C258.549 397.986 258.882 397.636 259.375 397.414C259.865 397.194 260.346 397.178 260.818 397.366C261.293 397.553 261.638 397.885 261.851 398.362C262.063 398.837 262.081 399.316 261.904 399.799C261.73 400.277 261.397 400.627 260.907 400.847C260.415 401.068 259.932 401.085 259.46 400.897C258.988 400.709 258.645 400.377 258.432 399.899ZM266.916 398.068L264.566 399.124L263.092 395.823L263.771 395.519L264.972 398.211L266.644 397.459L266.916 398.068ZM270.003 396.68L268.769 397.235L267.296 393.934L268.53 393.38C269.064 393.14 269.567 393.099 270.041 393.256C270.514 393.413 270.859 393.733 271.075 394.217C271.292 394.705 271.302 395.178 271.103 395.637C270.907 396.091 270.54 396.439 270.003 396.68ZM268.246 394.238L269.176 396.322L269.675 396.097C270.042 395.932 270.287 395.713 270.41 395.439C270.535 395.16 270.524 394.857 270.378 394.531C270.232 394.204 270.015 393.996 269.726 393.906C269.439 393.813 269.112 393.848 268.745 394.013L268.246 394.238Z" fill="black"/>
<path d="M269.095 424.473L266.745 425.529L265.271 422.229L265.95 421.924L267.151 424.616L268.823 423.865L269.095 424.473ZM271.202 422.473C271.488 422.59 271.777 422.583 272.069 422.452C272.358 422.322 272.554 422.111 272.658 421.819C272.761 421.527 272.743 421.226 272.604 420.915C272.466 420.604 272.253 420.39 271.967 420.273C271.681 420.156 271.394 420.162 271.105 420.292C270.813 420.423 270.616 420.635 270.512 420.927C270.41 421.214 270.43 421.515 270.57 421.829C270.71 422.143 270.921 422.358 271.202 422.473ZM269.878 422.14C269.662 421.656 269.642 421.178 269.82 420.706C269.994 420.227 270.328 419.877 270.821 419.656C271.311 419.436 271.792 419.419 272.264 419.607C272.739 419.794 273.083 420.126 273.297 420.604C273.509 421.078 273.526 421.557 273.35 422.04C273.175 422.519 272.843 422.868 272.353 423.088C271.86 423.31 271.378 423.326 270.906 423.139C270.434 422.951 270.091 422.618 269.878 422.14ZM277.318 420.8L276.72 421.069L274.132 418.247L274.885 417.908L276.557 419.829L276.304 417.26L276.831 417.023L278.577 418.921L278.262 416.391L279.002 416.059L279.372 419.877L278.774 420.146L277.07 418.268L277.318 420.8Z" fill="black"/>
<path d="M250.359 420.939L250.087 420.33L252.852 419.088L253.124 419.697L252.078 420.166L253.28 422.858L252.602 423.163L251.4 420.471L250.359 420.939ZM257.593 421C257.181 421.185 256.787 421.209 256.41 421.073C256.032 420.937 255.741 420.639 255.536 420.18L254.682 418.266L255.355 417.964L256.22 419.901C256.334 420.156 256.487 420.323 256.681 420.402C256.876 420.476 257.086 420.464 257.309 420.363C257.535 420.262 257.683 420.114 257.755 419.919C257.828 419.721 257.808 419.494 257.694 419.239L256.829 417.301L257.507 416.997L258.362 418.911C258.567 419.37 258.593 419.786 258.439 420.161C258.289 420.534 258.007 420.814 257.593 421ZM262.684 418.633L261.026 419.378L259.553 416.078L261.102 415.381C261.407 415.245 261.681 415.208 261.925 415.272C262.171 415.335 262.353 415.497 262.469 415.758C262.541 415.918 262.563 416.073 262.535 416.221C262.507 416.369 262.444 416.496 262.347 416.599C262.543 416.557 262.744 416.584 262.949 416.68C263.15 416.775 263.303 416.942 263.41 417.181C263.535 417.46 263.532 417.733 263.402 417.999C263.275 418.264 263.036 418.475 262.684 418.633ZM261.058 417.626L261.444 418.489L262.296 418.106C262.466 418.029 262.581 417.934 262.643 417.819C262.704 417.702 262.703 417.574 262.641 417.435C262.58 417.297 262.485 417.211 262.357 417.178C262.229 417.145 262.08 417.167 261.911 417.243L261.058 417.626ZM260.484 416.339L260.808 417.065L261.571 416.722C261.712 416.658 261.808 416.578 261.859 416.479C261.912 416.38 261.914 416.274 261.863 416.16C261.811 416.044 261.73 415.973 261.621 415.947C261.513 415.916 261.388 415.932 261.247 415.996L260.484 416.339ZM268.114 416.194L265.764 417.249L264.29 413.949L264.968 413.645L266.17 416.337L267.842 415.585L268.114 416.194ZM272.44 414.25L269.967 415.361L268.494 412.061L270.914 410.973L271.186 411.581L269.443 412.364L269.728 413.001L271.131 412.37L271.398 412.969L269.995 413.599L270.374 414.448L272.168 413.642L272.44 414.25ZM278.15 411.684L276.916 412.239L275.443 408.938L276.677 408.384C277.211 408.144 277.714 408.103 278.188 408.26C278.661 408.417 279.006 408.737 279.222 409.221C279.44 409.709 279.449 410.182 279.251 410.641C279.054 411.095 278.687 411.443 278.15 411.684ZM276.393 409.242L277.323 411.326L277.822 411.101C278.19 410.936 278.435 410.717 278.557 410.443C278.682 410.164 278.671 409.862 278.525 409.535C278.379 409.208 278.162 409 277.873 408.911C277.586 408.817 277.259 408.852 276.892 409.017L276.393 409.242ZM282.128 409.897L281.417 410.217L281.348 406.263L281.998 405.971L284.892 408.655L284.172 408.979L283.506 408.361L282.112 408.987L282.128 409.897ZM282.047 406.967L282.073 408.331L283.039 407.897L282.047 406.967ZM287.85 407.326L287.176 407.629L286.515 406.148L284.426 404.902L285.227 404.542L286.57 405.348L286.871 403.804L287.648 403.455L287.182 405.832L287.85 407.326Z" fill="black"/>
<path d="M240.404 408.117L250.417 403.619" stroke="black"/>
<path d="M251.376 431.123L261.39 426.626" stroke="black"/>
<path d="M274.319 393.113L284.333 388.615" stroke="black"/>
<path d="M284.294 416.119L294.308 411.622" stroke="black"/>
<path d="M139.42 169.956C143.356 178.774 139.41 189.13 130.606 193.087C121.803 197.043 111.476 193.103 107.54 184.285C103.604 175.467 107.551 165.111 116.354 161.154C125.157 157.198 135.484 161.138 139.42 169.956Z" stroke="black"/>
<path d="M120.952 176.05C123.939 166.068 119.558 139.317 78.1312 112.166C26.3482 78.2268 -12.489 125.142 5.43586 76.2304C23.3607 27.3187 20.3733 -29.5786 38.2982 20.3314C56.223 70.2413 35.3107 136.122 20.3733 156.086" stroke="black" stroke-width="2" stroke-linecap="round"/>
</svg>
