<svg width="1013" height="1014" viewBox="0 0 1013 1014" fill="none" xmlns="http://www.w3.org/2000/svg">
<circle cx="506.5" cy="507.5" r="505" stroke="black" stroke-width="3"/>
<mask id="mask0_333_14759" style="mask-type:alpha" maskUnits="userSpaceOnUse" x="0" y="0" width="1013" height="1013">
<circle cx="506.5" cy="506.5" r="506.5" fill="#D9D9D9"/>
</mask>
<g mask="url(#mask0_333_14759)">
<path d="M556.576 568.526H539.576V587.526H497.576V600.026H560.076L549.576 584.026L556.576 568.526Z" fill="black" stroke="black" stroke-width="3"/>
<path d="M312.076 568.526H329.076V587.526H371.076V600.026H308.576L319.076 584.026L312.076 568.526Z" fill="black" stroke="black" stroke-width="3"/>
<path d="M538.576 552.026H328.576V587.026H538.576V552.026Z" fill="black" stroke="black" stroke-width="3"/>
<path d="M467.576 901.026V867.526H561.576V901.026H467.576Z" fill="black" stroke="black" stroke-width="3"/>
<path d="M827.941 108.233H812.615" stroke="black" stroke-width="3"/>
<path d="M845.624 121.201H793.753" stroke="black" stroke-width="3"/>
<path d="M862.129 134.758H777.838" stroke="black" stroke-width="3"/>
<path d="M878.633 151.262H761.923" stroke="black" stroke-width="3"/>
<path d="M897.496 165.409H746.008" stroke="black" stroke-width="3"/>
<path d="M916.947 180.734H728.325" stroke="black" stroke-width="3"/>
<path d="M932.862 195.471H707.694" stroke="black" stroke-width="3"/>
<path d="M949.956 210.207H694.137" stroke="black" stroke-width="3"/>
<path d="M968.818 224.354H711.231" stroke="black" stroke-width="3"/>
<path d="M975.892 237.911H729.504" stroke="black" stroke-width="3"/>
<path d="M975.892 252.647H746.008" stroke="black" stroke-width="3"/>
<path d="M975.892 282.12H781.375" stroke="black" stroke-width="3"/>
<path d="M789.627 507.287H952.903V517.308H797.29" stroke="black" stroke-width="3"/>
<path d="M230.833 458.953V403.545H286.241V458.953H230.833Z" stroke="black" stroke-width="3"/>
<path d="M605.131 161.873H440.086L274.452 298.624H433.602L605.131 161.873Z" stroke="black" stroke-width="3"/>
<path d="M103.512 298.624V221.407L272.094 94.6758L387.036 190.166L260.894 298.624H103.512Z" stroke="black" stroke-width="3"/>
<path d="M831.478 94.0864H990.628L1130.92 211.976" stroke="black" stroke-width="3"/>
<path d="M1010.08 306.287H985.323V224.943H1149.78V451.29L1010.08 306.287Z" stroke="black" stroke-width="3"/>
<path d="M995.344 491.962L820.278 316.308H1004.19L1177.48 491.962H995.344Z" stroke="black" stroke-width="3"/>
<path d="M636.371 1014.74V580.968L433.012 374.662L236.727 575.663V960.178M452.464 370.536H641.676L829.12 569.179H645.213L452.464 370.536Z" stroke="black" stroke-width="3"/>
<path d="M223.17 568.59V1086.12H78.1663V494.32L262.073 311.592L365.816 423.586L283.293 507.288H109.407V515.54H276.809L223.17 568.59Z" stroke="black" stroke-width="3"/>
<path d="M-98.6674 485.478L71.0929 313.949H231.422" stroke="black" stroke-width="3"/>
<path d="M988.27 501.393L805.542 318.665L705.926 421.229L848.572 572.127V1097.91H988.27V501.393Z" stroke="black" stroke-width="3"/>
<path d="M1194.58 1093.2V495.499L1160.39 463.668V216.101L994.164 79.9395H818.51L682.348 201.365L625.172 151.262H432.423L396.467 183.092L273.273 80.5289H87.008L-78.0367 219.049V444.806L-123.424 487.246V1093.2" stroke="black" stroke-width="3"/>
<path d="M241.443 548.549H183.677V611.619H222.58" stroke="black" stroke-width="3"/>
<path d="M234.959 556.211H191.34V603.957H222.58" stroke="black" stroke-width="3"/>
<path d="M174.835 611.619V548.549H105.281V611.619H174.835Z" stroke="black" stroke-width="3"/>
<path d="M-67.4268 227.301V430.659L66.9668 298.034H92.313V227.301H-67.4268Z" stroke="black" stroke-width="3"/>
<circle cx="262.663" cy="205.491" r="30.3301" stroke="black" stroke-width="3"/>
<circle cx="262.663" cy="205.492" r="39.7612" stroke="black" stroke-width="3"/>
<path d="M427.708 309.233H272.683L374.068 414.155L427.708 364.052V309.233Z" stroke="black" stroke-width="3"/>
<path d="M446.57 313.361L618.688 167.768L789.038 313.361" stroke="black" stroke-width="3"/>
<path d="M1001.24 506.698H1186.32" stroke="black" stroke-width="3"/>
<path d="M830.299 550.317H870.381V609.851H849.751" stroke="black" stroke-width="3"/>
<path d="M882.759 609.851V550.317H947.009V609.851H882.759Z" stroke="black" stroke-width="3"/>
<path d="M529.576 340.526V280.526H585.576V340.526H529.576Z" stroke="black" stroke-width="3"/>
<path d="M594.576 340.526V280.526H651.576V340.526H594.576Z" stroke="black" stroke-width="3"/>
<path d="M660.576 340.526V280.526H716.576V340.526H660.576Z" stroke="black" stroke-width="3"/>
<path d="M648.16 583.326H837.372" stroke="black" stroke-width="3"/>
<path d="M-111.046 500.214H65.7881" stroke="black" stroke-width="3"/>
<path d="M-111.046 516.719H65.7881" stroke="black" stroke-width="3"/>
<path d="M-111.046 532.044H65.7881" stroke="black" stroke-width="3"/>
<path d="M-111.046 548.549H65.7881" stroke="black" stroke-width="3"/>
<path d="M-111.046 565.053H65.7881" stroke="black" stroke-width="3"/>
<path d="M-111.046 580.379H65.7881" stroke="black" stroke-width="3"/>
<path d="M-111.046 596.883H65.7881" stroke="black" stroke-width="3"/>
<path d="M-111.046 612.209H65.7881" stroke="black" stroke-width="3"/>
<path d="M-111.046 628.714H65.7881" stroke="black" stroke-width="3"/>
<path d="M-111.046 645.218H65.7881" stroke="black" stroke-width="3"/>
<path d="M-111.046 660.543H65.7881" stroke="black" stroke-width="3"/>
<path d="M-111.013 677.048H65.8209" stroke="black" stroke-width="3"/>
<path d="M-111.013 693.738H65.8209" stroke="black" stroke-width="3"/>
<path d="M-111.013 710.429H65.8209" stroke="black" stroke-width="3"/>
<path d="M-111.013 727.119H65.8209" stroke="black" stroke-width="3"/>
<path d="M-111.013 743.81H65.8209" stroke="black" stroke-width="3"/>
<path d="M-111.013 760.5H65.8209" stroke="black" stroke-width="3"/>
<path d="M-111.013 777.19H65.8209" stroke="black" stroke-width="3"/>
<path d="M-111.013 793.88H65.8209" stroke="black" stroke-width="3"/>
<path d="M-111.013 810.571H65.8209" stroke="black" stroke-width="3"/>
<path d="M648.16 596.883H837.372" stroke="black" stroke-width="3"/>
<path d="M648.16 610.44H837.372" stroke="black" stroke-width="3"/>
<path d="M646.476 694.683L838.256 695.861" stroke="black" stroke-width="3"/>
<path d="M647.76 753.474L839.542 754.652" stroke="black" stroke-width="3"/>
<path d="M647.76 812.264L839.542 813.443" stroke="black" stroke-width="3"/>
<path d="M647.76 871.055L839.542 872.234" stroke="black" stroke-width="3"/>
<path d="M647.76 929.846L839.542 931.025" stroke="black" stroke-width="3"/>
<path d="M647.76 988.637L839.542 989.815" stroke="black" stroke-width="3"/>
<path d="M647.76 724.106L839.542 725.285" stroke="black" stroke-width="3"/>
<path d="M647.76 782.898L839.542 784.076" stroke="black" stroke-width="3"/>
<path d="M647.76 841.688L839.542 842.867" stroke="black" stroke-width="3"/>
<path d="M647.76 900.479L839.542 901.658" stroke="black" stroke-width="3"/>
<path d="M647.76 959.27L839.542 960.449" stroke="black" stroke-width="3"/>
<path d="M647.76 709.984H839.546" stroke="black" stroke-width="3"/>
<path d="M647.76 768.775H839.546" stroke="black" stroke-width="3"/>
<path d="M647.76 827.565H839.546" stroke="black" stroke-width="3"/>
<path d="M647.76 886.357H839.546" stroke="black" stroke-width="3"/>
<path d="M647.76 945.147H839.546" stroke="black" stroke-width="3"/>
<path d="M647.76 1003.94H837.774" stroke="black" stroke-width="3"/>
<path d="M647.76 739.408H839.546" stroke="black" stroke-width="3"/>
<path d="M647.76 798.199H839.546" stroke="black" stroke-width="3"/>
<path d="M647.76 856.99H839.546" stroke="black" stroke-width="3"/>
<path d="M647.76 915.78H839.546" stroke="black" stroke-width="3"/>
<path d="M647.76 974.571L698.576 974.524" stroke="black" stroke-width="3"/>
<path d="M648.16 623.998H705.926" stroke="black" stroke-width="3"/>
<path d="M780.196 625.177H837.962" stroke="black" stroke-width="3"/>
<path d="M648.16 638.145H705.926" stroke="black" stroke-width="3"/>
<path d="M780.196 639.323H837.962" stroke="black" stroke-width="3"/>
<path d="M648.16 651.112H705.926" stroke="black" stroke-width="3"/>
<path d="M646.476 679.008H704.242" stroke="black" stroke-width="3"/>
<path d="M779.999 652.291H837.765" stroke="black" stroke-width="3"/>
<path d="M779.999 680.561H837.765" stroke="black" stroke-width="3"/>
<path d="M648.16 665.259H705.926" stroke="black" stroke-width="3"/>
<path d="M779.999 666.438H837.765" stroke="black" stroke-width="3"/>
<circle cx="806.721" cy="425.354" r="26.2039" stroke="black" stroke-width="3"/>
<circle cx="806.721" cy="425.355" r="35.6351" stroke="black" stroke-width="3"/>
<path d="M-19.8573 7.43777C-10.4262 -7.10188 22.8186 -27.4574 80.3484 7.43777C152.261 51.0567 173.481 25.1211 168.765 7.43777C164.05 -10.2455 206.49 -27.9289 240.678 -32.6445C274.865 -37.36 285.475 -53.8645 272.508 -68.0112C259.54 -82.1579 241.856 -99.8412 250.109 -109.272C258.361 -118.703 268.971 -124.598 259.54 -136.387C250.109 -148.176 153.44 -139.924 136.935 -157.607C120.431 -175.29 115.715 -183.542 98.0318 -182.364C80.3484 -181.185 46.1606 -178.827 26.1194 -163.501C10.0865 -151.241 -11.2121 -148.962 -19.8573 -149.355" stroke="black" stroke-width="3"/>
<path d="M1070.16 -111.225C1054.44 -120.263 1017.81 -134.331 997.065 -118.299C971.129 -98.2574 953.446 -82.9316 928.689 -81.7527C903.932 -80.5738 888.607 -61.7116 908.648 -53.4593C928.689 -45.2071 945.193 -54.6382 936.941 -36.9548C928.689 -19.2715 909.827 -15.7348 928.689 -2.76701C947.551 10.2008 1007.67 -7.48257 1007.67 7.84301C1007.67 23.1686 994.707 23.1686 1007.67 33.7786C1018.05 42.2666 1096.76 26.5166 1113.26 22.9799" stroke="black" stroke-width="3"/>
<path d="M714.767 677.048V621.64H773.123V677.048H714.767Z" stroke="black" stroke-width="3"/>
<path d="M797.879 296.855H975.892" stroke="black" stroke-width="3"/>
<path d="M975.302 266.794H763.692" stroke="black" stroke-width="3"/>
<path d="M256.179 92.9072H91.1341L-53.8695 214.333H95.8497L256.179 92.9072Z" stroke="black" stroke-width="3"/>
<rect x="275.076" y="715.409" width="331.303" height="136.293" rx="4.92891" fill="black" stroke="black" stroke-width="3"/>
<path d="M421.441 912.134V872.489H297.149V912.134H359.295H421.441Z" fill="black"/>
<path d="M427.87 853.202V917.491H284.291V936.778H427.87V1010.03L452.514 1013.92V853.202M421.441 872.489V912.134H359.295H297.149V872.489H421.441Z" stroke="black" stroke-width="3" stroke-linecap="round"/>
<path d="M292.863 830.701L285.362 822.129H321.793L326.079 828.558H360.366V818.915L379.653 830.701L360.366 843.559V834.987H326.079L321.793 840.345H284.291L292.863 830.701Z" fill="white" stroke="black" stroke-width="3" stroke-linecap="round"/>
<path d="M406.44 830.701L398.94 822.129H435.37L439.656 828.558H473.944V818.915L493.23 830.701L473.944 843.559V834.987H439.656L435.37 840.345H397.868L406.44 830.701Z" fill="white" stroke="black" stroke-width="3" stroke-linecap="round"/>
<path d="M513.589 830.701L506.088 822.129H542.519L546.805 828.558H581.092V818.915L600.379 830.701L581.092 843.559V834.987H546.805L542.519 840.345H505.017L513.589 830.701Z" fill="white" stroke="black" stroke-width="3" stroke-linecap="round"/>
<path d="M551.09 852.131V871.417M551.09 871.417H556.448V903.562H463.229V871.417M551.09 871.417H538.194M463.229 871.417H467.515V852.131H472.872V857.488M463.229 871.417H472.872M472.872 871.417V857.488M472.872 871.417H538.194M472.872 857.488H543.59V871.417H538.194" stroke="black" stroke-width="3" stroke-linecap="round"/>
<path d="M380.333 549.216V510.039C402.253 496.98 454.769 479.257 489.468 512.837V552.014" stroke="black" stroke-width="3" stroke-linecap="round"/>
<path d="M538.439 569.503V586.992H497.863M538.439 569.503V552.013H328.564V569.503M538.439 569.503H556.628L549.633 584.194L559.427 599.585H497.863V586.992M497.863 586.992H489.468M328.564 569.503V586.992H370.539M328.564 569.503H310.374L318.769 584.194L307.576 599.585H370.539V586.992M370.539 586.992H380.333M380.333 586.992C381.266 607.047 392.925 648.556 432.102 654.153C481.073 661.149 493.666 589.791 489.468 586.992M380.333 586.992H489.468" stroke="black" stroke-width="3" stroke-linecap="round"/>
</g>
</svg>
