<svg width="16" height="16" viewBox="0 0 16 16" fill="none" xmlns="http://www.w3.org/2000/svg">
<g clip-path="url(#clip0_493_2972)">
<rect width="16" height="16" fill="white"/>
<path d="M8.72632 13.2053C7.09474 13.2053 5.72632 12.6684 4.62105 11.5947C3.52632 10.5 2.97895 9.12632 2.97895 7.47368C2.97895 5.81053 3.53158 4.4421 4.63684 3.36842C5.73158 2.28421 7.11579 1.7421 8.78947 1.7421C10.1368 1.7421 11.2737 2.05789 12.2 2.68947V4.41053C11.1895 3.71579 10.0895 3.36842 8.9 3.36842C7.68947 3.36842 6.7 3.75263 5.93158 4.52105C5.15263 5.3 4.76316 6.28947 4.76316 7.48947C4.76316 8.71053 5.14211 9.7 5.9 10.4579C6.67895 11.2053 7.62105 11.5789 8.72632 11.5789C9.85263 11.5789 10.7421 11.2684 11.3947 10.6474V6.62105H13.1316V11.3579C12.6684 11.9053 12.0421 12.3526 11.2526 12.7C10.4737 13.0368 9.63158 13.2053 8.72632 13.2053Z" fill="black"/>
</g>
<defs>
<clipPath id="clip0_493_2972">
<rect width="16" height="16" fill="white"/>
</clipPath>
</defs>
</svg>
