<svg width="273" height="108" viewBox="0 0 273 108" fill="none" xmlns="http://www.w3.org/2000/svg">
<path fill-rule="evenodd" clip-rule="evenodd" d="M13.3133 29.9511H7.91833V53.0768H0V0.461426H7.91833V21.5357H13.3133V0.461426H21.2308V53.0768H13.3133V29.9511Z" fill="#1A1919"/>
<path fill-rule="evenodd" clip-rule="evenodd" d="M35.112 53.7692H33.5522C27.1719 53.7692 23.7693 50.2989 23.7693 43.7803V33.2243H31.7094V42.4351C31.7094 44.8437 32.4889 46.1181 34.3325 46.1181C36.2462 46.1181 36.9556 44.8437 36.9556 41.5844V40.3801C36.9556 36.6262 36.6009 35.2801 33.6949 31.5254L28.5898 25.0077C25.1872 20.615 24.1949 17.2147 24.1949 11.9722V10.2725C24.1949 3.25847 27.7385 0 34.0488 0H35.5376C42.13 0 44.6821 2.90402 44.6821 9.13904V17.7818H36.9556V10.2016C36.9556 8.43014 36.6009 7.08405 34.6864 7.08405C32.7727 7.08405 32.3471 8.28836 32.3471 10.7679V11.7603C32.3471 14.7361 32.9146 16.3649 35.6078 19.836L40.712 26.4247C44.3274 31.1001 45.4616 33.7931 45.4616 39.7429V41.4443C45.4616 49.1647 42.13 53.7692 35.112 53.7692Z" fill="#1A1919"/>
<path fill-rule="evenodd" clip-rule="evenodd" d="M66.0409 0.461426V8.0984H55.9325V21.8895H63.8642V29.8812H55.9325V45.086H66.4615V53.0768H48V0.461426H66.0409Z" fill="#1A1919"/>
<path fill-rule="evenodd" clip-rule="evenodd" d="M87.1767 35.3269L85.0261 15.8777L82.948 35.3269H87.1767ZM88.0356 43.1753H82.16L81.0851 53.0768H73.8462L80.3672 0.461426H89.971L96.9231 53.0768H89.1121L88.0356 43.1753Z" fill="#1A1919"/>
<path fill-rule="evenodd" clip-rule="evenodd" d="M106.146 22.101H108.288C110.502 22.101 111.216 20.6865 111.216 18.3529V10.9982C111.216 8.73529 110.716 7.60386 108.288 7.60386H106.146V22.101ZM106.146 53.0768H98.0769V0.461426H111.146C116.5 0.461426 119.214 2.72429 119.214 8.59376V17.9283C119.214 22.3133 117.143 24.0101 115.715 24.647C117.5 25.4246 119.214 26.8399 119.214 30.3749V48.8333C119.214 50.9546 119.642 51.9437 120 52.7213V53.0768H112.001C111.644 52.5107 111.216 51.5915 111.216 48.7625V32.9217C111.216 30.5872 110.788 29.5973 108.217 29.5973H106.146V53.0768Z" fill="#1A1919"/>
<path fill-rule="evenodd" clip-rule="evenodd" d="M135.013 8.0984V53.0768H127.14V8.0984H120.461V0.461426H141.692V8.0984H135.013Z" fill="#1A1919"/>
<path fill-rule="evenodd" clip-rule="evenodd" d="M160.1 35.3269L157.95 15.8777L155.871 35.3269H160.1ZM160.959 43.1753H155.083L154.008 53.0768H146.769L153.291 0.461426H162.894L169.846 53.0768H162.035L160.959 43.1753Z" fill="#1A1919"/>
<path fill-rule="evenodd" clip-rule="evenodd" d="M178.402 0.461426L185.222 28.6782V0.461426H192.461V53.0768H185.995L178.402 22.8079V53.0768H171.231V0.461426H178.402Z" fill="#1A1919"/>
<path fill-rule="evenodd" clip-rule="evenodd" d="M203.689 45.4382H205.6C208.006 45.4382 208.715 44.166 208.715 41.3379V11.7058C208.715 8.66453 207.936 7.60386 205.954 7.60386H203.689V45.4382ZM195.692 0.461426H207.936C214.8 0.461426 216.923 4.35027 216.923 10.5744V42.61C216.923 49.0448 214.517 53.0768 207.936 53.0768H195.692V0.461426Z" fill="#1A1919"/>
<path fill-rule="evenodd" clip-rule="evenodd" d="M7.99726 99.6699H9.90764C12.3137 99.6699 13.0219 98.3977 13.0219 95.5695V65.937C13.0219 62.8964 12.2437 61.8349 10.2617 61.8349H7.99726V99.6699ZM0 54.6924H12.2437C19.1071 54.6924 21.2308 58.5821 21.2308 64.8047V96.8425C21.2308 103.277 18.8247 107.308 12.2437 107.308H0V54.6924Z" fill="#1A1919"/>
<path fill-rule="evenodd" clip-rule="evenodd" d="M42.2708 54.6924V62.3303H32.1632V76.12H40.0949V84.1126H32.1632V99.3177H42.6923V107.308H24.2307V54.6924H42.2708Z" fill="#1A1919"/>
<path fill-rule="evenodd" clip-rule="evenodd" d="M55.6503 108H54.0905C47.7102 108 44.3076 104.529 44.3076 98.0105V87.4557H52.2478V96.6653C52.2478 99.0739 53.0273 100.349 54.87 100.349C56.7845 100.349 57.4939 99.0738 57.4939 95.8155V94.6112C57.4939 90.8566 57.1392 89.5106 54.2332 85.756L49.1281 79.2376C45.7256 74.8459 44.7332 71.4466 44.7332 66.205V64.5037C44.7332 57.4899 48.2769 54.2307 54.5871 54.2307H56.076C62.6683 54.2307 65.2204 57.1371 65.2204 63.3695V72.0137H57.4939V64.4328C57.4939 62.6614 57.1392 61.3154 55.2247 61.3154C53.311 61.3154 52.8854 62.5196 52.8854 64.9991V65.9915C52.8854 68.9663 53.4529 70.5967 56.1461 74.0669L61.2504 80.6546C64.8657 85.3307 65.9999 88.0228 65.9999 93.9741V95.6745C65.9999 103.395 62.6683 108 55.6503 108Z" fill="#1A1919"/>
<mask id="mask0_333_5622" style="mask-type:alpha" maskUnits="userSpaceOnUse" x="68" y="54" width="33" height="54">
<path d="M68.1069 54.2529H100.486V107.951H68.1069V54.2529Z" fill="white"/>
</mask>
<g mask="url(#mask0_333_5622)">
<path fill-rule="evenodd" clip-rule="evenodd" d="M68.1069 107.293H76.1839V54.7485H68.1069V107.293Z" fill="#1A1919"/>
<path fill-rule="evenodd" clip-rule="evenodd" d="M86.6916 108C81.9745 108 78.9731 103.834 78.9731 98.3952V65.5531C78.9731 59.6922 81.2602 54.2529 88.908 54.2529H90.4798C99.1288 54.2529 100.129 59.8328 100.129 66.0486V71.4164H92.267V65.4824C92.267 63.1527 91.6948 61.8814 89.6947 61.8814C87.979 61.8814 87.1923 63.1527 87.1923 65.4824V96.206C87.1923 98.6771 88.1927 99.9492 89.8369 99.9492C91.9102 99.9492 92.8383 98.5365 92.8383 96.5585V83.4225H89.1932V75.3708H100.486V107.293H95.9121C95.8405 107.011 95.1977 104.398 94.554 102.138C93.9818 103.904 91.2657 108 87.1923 108H86.6916Z" fill="#1A1919"/>
</g>
<path fill-rule="evenodd" clip-rule="evenodd" d="M110.325 54.6924L117.144 82.9087V54.6924H124.385V107.308H117.917L110.325 77.0392V107.308H103.154V54.6924H110.325Z" fill="#1A1919"/>
<path fill-rule="evenodd" clip-rule="evenodd" d="M145.42 108H143.86C137.48 108 134.077 104.529 134.077 98.0105V87.4557H142.017V96.6653C142.017 99.0739 142.797 100.349 144.64 100.349C146.554 100.349 147.262 99.0738 147.262 95.8155V94.6112C147.262 90.8566 146.909 89.5106 144.001 85.756L138.897 79.2376C135.495 74.8459 134.503 71.4466 134.503 66.205V64.5037C134.503 57.4899 138.047 54.2307 144.356 54.2307H145.845C152.438 54.2307 154.99 57.1371 154.99 63.3695V72.0137H147.262V64.4328C147.262 62.6614 146.909 61.3154 144.994 61.3154C143.08 61.3154 142.656 62.5196 142.656 64.9991V65.9915C142.656 68.9663 143.222 70.5967 145.915 74.0669L151.02 80.6546C154.635 85.3307 155.769 88.0228 155.769 93.9741V95.6745C155.769 103.395 152.438 108 145.42 108Z" fill="#1A1919"/>
<path fill-rule="evenodd" clip-rule="evenodd" d="M171.05 96.6802V84.441H178.846V96.6094C178.846 102.271 177.02 108 169.364 108H167.608C159.601 108 157.846 102.199 157.846 96.8934V64.7725C157.846 59.3971 160.163 54.2307 167.328 54.2307H169.154C177.863 54.2307 178.846 60.0334 178.846 65.1981V74.6064H171.05V65.3389C171.05 63.0751 170.348 61.8724 168.382 61.8724C166.414 61.8724 165.923 63.0051 165.923 65.3389V96.6094C165.923 98.944 166.695 100.217 168.452 100.217C170.348 100.217 171.05 98.8024 171.05 96.6802Z" fill="#1A1919"/>
<path fill-rule="evenodd" clip-rule="evenodd" d="M194.697 84.1834H189.302V107.308H181.385V54.6924H189.302V75.767H194.697V54.6924H202.615V107.308H194.697V84.1834Z" fill="#1A1919"/>
<path fill-rule="evenodd" clip-rule="evenodd" d="M219.379 65.9052C219.379 63.1459 218.457 61.8724 216.613 61.8724C214.556 61.8724 213.774 63.2175 213.774 65.9052V96.1855C213.774 98.4493 214.413 100.217 216.683 100.217C218.812 100.217 219.379 98.4493 219.379 96.1855V65.9052ZM227.539 95.62C227.539 102.977 225.055 108 217.322 108H215.973C208.311 108 205.615 102.977 205.615 95.62V66.3292C205.615 59.0423 208.383 54.2307 215.902 54.2307H217.251C225.055 54.2307 227.539 59.0423 227.539 66.2584V95.62Z" fill="#1A1919"/>
<path fill-rule="evenodd" clip-rule="evenodd" d="M243.61 65.9052C243.61 63.1459 242.687 61.8724 240.843 61.8724C238.786 61.8724 238.005 63.2175 238.005 65.9052V96.1855C238.005 98.4493 238.643 100.217 240.913 100.217C243.042 100.217 243.61 98.4493 243.61 96.1855V65.9052ZM251.769 95.62C251.769 102.977 249.286 108 241.552 108H240.204C232.542 108 229.846 102.977 229.846 95.62V66.3292C229.846 59.0423 232.613 54.2307 240.133 54.2307H241.482C249.286 54.2307 251.769 59.0423 251.769 66.2584V95.62Z" fill="#1A1919"/>
<path fill-rule="evenodd" clip-rule="evenodd" d="M262.77 54.6924V99.1753H272.539V107.308H254.769V54.6924H262.77Z" fill="#1A1919"/>
</svg>
