<svg width="747" height="514" viewBox="0 0 747 514" fill="none" xmlns="http://www.w3.org/2000/svg">
<path d="M336.682 311.928L344.17 333.675" stroke="black" stroke-width="2"/>
<path d="M536.749 293.655L544.238 315.402" stroke="black" stroke-width="2"/>
<path d="M445.812 276.325L453.3 298.071" stroke="black" stroke-width="2"/>
<path d="M254.606 332.63L522.188 240.495" stroke="black" stroke-width="2"/>
<path d="M75.985 227.981L129.059 209.706C132.173 217.169 144.135 231.345 167.067 228.347" stroke="black" stroke-width="3"/>
<path d="M168.263 227.117L230.282 407.233C222.008 411.177 206.483 424.296 210.577 445.224" stroke="black" stroke-width="3"/>
<path d="M210.278 445.506L156.068 464.172C153.564 456.899 142.683 442.909 119.196 445.139" stroke="black" stroke-width="3"/>
<path d="M119.577 444.893L57.1395 263.56C64.8095 261.564 79.5722 251.414 77.2635 226.786" stroke="black" stroke-width="3"/>
<path d="M101.298 512.095L2 223.712L645.898 1.99999L745.196 290.383L101.298 512.095Z" stroke="black" stroke-width="2"/>
<path d="M59.0033 222.919L596.759 37.7549C599.783 48.658 612.803 67.1676 640.694 53.9807" stroke="black" stroke-width="2"/>
<path d="M641.616 54.1904L710.143 253.209C697.616 253.684 675.126 262.086 685.388 291.89" stroke="black" stroke-width="2"/>
<path d="M685.006 290.807L146.211 476.329C145.385 464.393 135.85 444.33 104.312 459.567" stroke="black" stroke-width="2"/>
<path d="M104.445 459.836L36.2446 261.767C50.4498 259.984 75.1535 249.796 60.3267 223.314" stroke="black" stroke-width="2"/>
<path d="M284.225 341.129L282.463 341.736L279.512 333.167L281.275 332.56L282.438 335.938L284.433 331.472L286.588 330.73L284.305 335.912L290.162 339.084L287.91 339.86L282.864 337.175L284.225 341.129ZM292.207 338.38L290.359 339.017L291.064 329.134L292.753 328.552L299.393 335.906L297.52 336.551L295.993 334.859L292.369 336.106L292.207 338.38ZM292.655 331.051L292.418 334.46L294.928 333.596L292.655 331.051ZM302.337 334.892L300.587 335.495L297.636 326.926L299.387 326.323L302.337 334.892ZM308.838 332.709L307.173 333.282L300.607 325.903L302.553 325.233L307.175 330.543L307.56 323.509L309.469 322.851L308.838 332.709ZM320.007 328.808L313.58 331.021L310.63 322.452L316.922 320.285L317.465 321.865L312.936 323.424L313.505 325.077L317.153 323.821L317.688 325.375L314.04 326.631L314.799 328.835L319.463 327.229L320.007 328.808ZM323.136 327.73L321.41 328.325L318.46 319.756L319.965 319.237L326.175 323.234L324.287 317.749L326 317.159L328.951 325.728L327.494 326.23L321.24 322.222L323.136 327.73Z" fill="black"/>
<path d="M290.824 352.425C289.493 352.883 288.244 352.848 287.076 352.319C285.903 351.773 285.094 350.856 284.65 349.567C284.2 348.261 284.269 347.041 284.855 345.908C285.45 344.773 286.417 343.974 287.755 343.513C288.587 343.227 289.404 343.146 290.205 343.272L290.816 345.047C290.004 344.834 289.177 344.872 288.336 345.162C287.528 345.44 286.938 345.94 286.566 346.661C286.207 347.369 286.168 348.131 286.449 348.947C286.73 349.763 287.24 350.341 287.977 350.68C288.704 351.014 289.492 351.035 290.34 350.743C291.279 350.42 291.977 349.901 292.433 349.187L293.045 350.962C292.494 351.617 291.754 352.105 290.824 352.425ZM295.805 350.518L293.957 351.155L294.662 341.272L296.351 340.69L302.991 348.044L301.118 348.689L299.59 346.996L295.967 348.244L295.805 350.518ZM296.253 343.189L296.016 346.598L298.526 345.734L296.253 343.189ZM305.886 347.047L304.123 347.654L301.173 339.085L307.453 336.922L307.997 338.502L303.479 340.057L304.078 341.795L307.567 340.594L308.102 342.149L304.613 343.35L305.886 347.047ZM318.237 342.794L311.81 345.007L308.86 336.438L315.152 334.272L315.696 335.851L311.166 337.41L311.735 339.063L315.383 337.807L315.918 339.361L312.271 340.617L313.029 342.821L317.693 341.215L318.237 342.794Z" fill="black"/>
<path d="M348.236 322.9L346.758 323.409L347.322 315.504L348.673 315.038L353.985 320.921L352.487 321.437L351.265 320.083L348.366 321.081L348.236 322.9ZM348.594 317.037L348.405 319.764L350.413 319.073L348.594 317.037ZM356.301 320.123L354.891 320.609L352.531 313.754L355.527 312.722C356.265 312.468 356.912 312.46 357.469 312.699C358.031 312.93 358.417 313.352 358.628 313.965C358.842 314.586 358.798 315.159 358.498 315.686C358.206 316.218 357.691 316.61 356.954 316.864L355.367 317.411L356.301 320.123ZM354.366 314.502L354.952 316.206L356.441 315.694C356.781 315.577 357.02 315.414 357.16 315.205C357.298 314.99 357.319 314.745 357.225 314.471C357.13 314.196 356.964 314.02 356.725 313.942C356.484 313.857 356.194 313.873 355.854 313.99L354.366 314.502ZM362.757 317.901L361.347 318.386L358.986 311.531L361.983 310.499C362.721 310.245 363.368 310.238 363.925 310.477C364.486 310.707 364.872 311.129 365.084 311.743C365.297 312.363 365.254 312.937 364.953 313.464C364.662 313.995 364.147 314.388 363.409 314.642L361.823 315.188L362.757 317.901ZM360.821 312.279L361.408 313.983L362.896 313.471C363.236 313.354 363.476 313.191 363.616 312.982C363.753 312.767 363.775 312.522 363.68 312.248C363.586 311.974 363.419 311.797 363.181 311.719C362.939 311.634 362.649 311.65 362.31 311.767L360.821 312.279ZM372.689 314.481L367.802 316.163L365.442 309.308L366.852 308.823L368.777 314.414L372.254 313.217L372.689 314.481ZM378.844 312.361L373.703 314.132L371.342 307.276L376.376 305.543L376.811 306.806L373.187 308.054L373.643 309.376L376.561 308.371L376.989 309.615L374.071 310.62L374.678 312.383L378.409 311.098L378.844 312.361ZM384.792 310.467C383.76 310.822 382.808 310.876 381.934 310.629L381.428 309.16C381.801 309.309 382.254 309.394 382.787 309.415C383.324 309.428 383.824 309.354 384.288 309.194C384.673 309.062 384.966 308.884 385.167 308.661C385.366 308.432 385.422 308.194 385.337 307.946C385.245 307.678 385.062 307.529 384.789 307.499C384.67 307.474 384.52 307.46 384.336 307.458L384.074 307.46L383.468 307.483L382.902 307.492C382.823 307.497 382.651 307.494 382.384 307.484C382.155 307.475 381.984 307.457 381.873 307.43C381.452 307.311 381.168 307.187 381.021 307.055C380.756 306.795 380.568 306.502 380.455 306.176C380.246 305.569 380.314 305.012 380.658 304.507C381 303.995 381.57 303.601 382.366 303.327C383.169 303.051 383.982 302.983 384.804 303.123L385.277 304.494C384.43 304.304 383.614 304.343 382.831 304.613C382.054 304.881 381.743 305.24 381.898 305.69C381.966 305.886 382.14 306.001 382.422 306.035C382.593 306.064 382.803 306.069 383.051 306.049C383.388 306.028 383.66 306.014 383.87 306.008C384.499 305.989 385.077 306.056 385.605 306.21C386.172 306.373 386.564 306.771 386.782 307.404C387.01 308.064 386.93 308.671 386.545 309.228C386.16 309.784 385.575 310.197 384.792 310.467ZM386.054 303.624L385.619 302.36L391.368 300.381L391.803 301.644L389.629 302.393L391.554 307.985L390.144 308.47L388.219 302.878L386.054 303.624ZM396.191 306.388L394.781 306.874L392.42 300.019L395.593 298.926C396.325 298.674 396.964 298.666 397.513 298.901C398.065 299.127 398.445 299.54 398.652 300.141C398.809 300.598 398.819 301.04 398.681 301.467C398.548 301.885 398.282 302.239 397.886 302.529L401.009 304.729L399.374 305.292L396.422 303.209L395.237 303.617L396.191 306.388ZM394.256 300.767L394.829 302.432L396.513 301.852C396.833 301.742 397.056 301.584 397.183 301.38C397.317 301.173 397.337 300.936 397.245 300.669C397.155 300.407 396.994 300.237 396.762 300.156C396.534 300.066 396.26 300.077 395.94 300.187L394.256 300.767ZM407.076 302.64L401.934 304.411L399.574 297.555L404.608 295.822L405.043 297.085L401.419 298.333L401.874 299.655L404.793 298.65L405.221 299.894L402.303 300.899L402.91 302.662L406.641 301.377L407.076 302.64ZM413.34 300.483L408.199 302.254L405.838 295.398L410.872 293.665L411.307 294.929L407.683 296.176L408.139 297.498L411.057 296.493L411.485 297.737L408.567 298.742L409.174 300.505L412.905 299.22L413.34 300.483ZM412.077 294.663L411.642 293.4L417.391 291.421L417.826 292.684L415.652 293.433L417.577 299.024L416.167 299.51L414.241 293.918L412.077 294.663ZM425.093 296.436L423.713 296.912L421.871 291.565L420.675 292.798L420.199 291.417L421.509 290.003L422.733 289.581L425.093 296.436ZM426.453 288.147C427.314 287.85 428.081 287.904 428.754 288.308C429.432 288.709 429.945 289.413 430.291 290.418C430.469 290.934 430.572 291.446 430.601 291.955C430.63 292.463 430.581 292.947 430.455 293.407C430.332 293.858 430.103 294.262 429.766 294.619C429.435 294.974 429.012 295.24 428.496 295.418C427.909 295.62 427.342 295.651 426.797 295.51L426.359 294.237C426.891 294.382 427.405 294.37 427.901 294.199C428.463 294.006 428.843 293.677 429.041 293.215C429.244 292.743 429.274 292.236 429.131 291.694C428.911 292.244 428.452 292.64 427.754 292.88C427.127 293.096 426.536 293.077 425.981 292.822C425.426 292.568 425.032 292.101 424.798 291.422C424.553 290.711 424.588 290.049 424.903 289.436C425.224 288.822 425.741 288.392 426.453 288.147ZM426.959 289.331C426.613 289.45 426.367 289.659 426.222 289.957C426.08 290.247 426.069 290.565 426.188 290.911C426.303 291.244 426.508 291.48 426.805 291.619C427.101 291.758 427.419 291.769 427.758 291.652C428.026 291.56 428.249 291.392 428.428 291.147C428.607 290.903 428.701 290.637 428.711 290.349C428.532 289.892 428.289 289.578 427.982 289.406C427.672 289.228 427.331 289.203 426.959 289.331ZM432.698 285.997C433.559 285.7 434.326 285.753 434.999 286.157C435.677 286.559 436.19 287.263 436.536 288.268C436.714 288.784 436.817 289.296 436.846 289.804C436.875 290.313 436.826 290.797 436.7 291.257C436.578 291.708 436.348 292.112 436.011 292.469C435.68 292.824 435.257 293.09 434.741 293.268C434.154 293.47 433.587 293.501 433.042 293.36L432.604 292.087C433.136 292.232 433.65 292.219 434.146 292.049C434.708 291.855 435.088 291.527 435.286 291.064C435.489 290.593 435.519 290.086 435.376 289.544C435.156 290.094 434.697 290.489 433.999 290.73C433.372 290.946 432.781 290.926 432.226 290.672C431.671 290.418 431.277 289.951 431.043 289.272C430.798 288.56 430.833 287.898 431.148 287.286C431.469 286.671 431.986 286.242 432.698 285.997ZM433.204 287.181C432.858 287.3 432.612 287.509 432.467 287.807C432.325 288.097 432.314 288.414 432.433 288.76C432.548 289.093 432.753 289.329 433.05 289.468C433.346 289.607 433.664 289.619 434.003 289.502C434.271 289.409 434.494 289.241 434.673 288.997C434.852 288.753 434.946 288.487 434.956 288.198C434.777 287.742 434.534 287.427 434.227 287.256C433.917 287.078 433.576 287.052 433.204 287.181ZM438.943 283.846C439.804 283.55 440.571 283.603 441.244 284.007C441.922 284.409 442.435 285.112 442.781 286.118C442.959 286.633 443.062 287.146 443.091 287.654C443.12 288.163 443.071 288.647 442.945 289.107C442.823 289.558 442.593 289.962 442.256 290.319C441.925 290.674 441.502 290.94 440.986 291.117C440.399 291.32 439.832 291.35 439.287 291.209L438.849 289.936C439.381 290.082 439.895 290.069 440.391 289.898C440.953 289.705 441.333 289.377 441.531 288.914C441.734 288.443 441.764 287.936 441.621 287.393C441.401 287.944 440.942 288.339 440.244 288.58C439.617 288.795 439.026 288.776 438.471 288.522C437.916 288.267 437.522 287.801 437.288 287.122C437.043 286.41 437.078 285.748 437.393 285.136C437.714 284.521 438.231 284.091 438.943 283.846ZM439.449 285.03C439.103 285.149 438.857 285.358 438.712 285.657C438.57 285.946 438.559 286.264 438.678 286.61C438.793 286.943 438.998 287.179 439.295 287.318C439.591 287.457 439.909 287.468 440.248 287.351C440.516 287.259 440.739 287.091 440.918 286.847C441.097 286.603 441.191 286.336 441.202 286.048C441.022 285.591 440.779 285.277 440.472 285.105C440.162 284.927 439.821 284.902 439.449 285.03Z" fill="black"/>
<path d="M120.915 370.162L121.39 371.542L116.043 373.384L117.277 374.58L115.896 375.056L114.481 373.746L114.06 372.522L120.915 370.162ZM112.625 368.802C112.329 367.941 112.382 367.174 112.786 366.501C113.188 365.823 113.891 365.31 114.897 364.964C115.413 364.786 115.925 364.683 116.433 364.654C116.942 364.625 117.426 364.674 117.886 364.8C118.337 364.922 118.741 365.152 119.098 365.489C119.453 365.82 119.719 366.243 119.896 366.759C120.099 367.346 120.129 367.913 119.989 368.458L118.715 368.896C118.861 368.364 118.848 367.85 118.677 367.354C118.484 366.792 118.156 366.412 117.693 366.214C117.222 366.011 116.715 365.981 116.173 366.124C116.723 366.344 117.118 366.803 117.359 367.501C117.575 368.128 117.555 368.719 117.301 369.274C117.047 369.829 116.58 370.223 115.901 370.457C115.189 370.702 114.527 370.667 113.915 370.352C113.3 370.031 112.87 369.514 112.625 368.802ZM113.809 368.296C113.929 368.642 114.137 368.888 114.436 369.033C114.725 369.175 115.043 369.186 115.389 369.067C115.722 368.952 115.958 368.747 116.097 368.45C116.236 368.154 116.247 367.836 116.13 367.497C116.038 367.229 115.87 367.006 115.626 366.827C115.382 366.648 115.116 366.554 114.827 366.543C114.37 366.723 114.056 366.966 113.885 367.273C113.706 367.583 113.681 367.924 113.809 368.296ZM118.34 362.333C118.423 362.574 118.411 362.805 118.304 363.024C118.19 363.246 118.013 363.398 117.771 363.481C117.536 363.562 117.309 363.549 117.089 363.442C116.87 363.335 116.719 363.161 116.636 362.919C116.555 362.684 116.568 362.457 116.675 362.238C116.779 362.012 116.949 361.858 117.184 361.777C117.426 361.694 117.661 361.708 117.889 361.819C118.108 361.926 118.259 362.098 118.34 362.333ZM116.884 358.456L117.36 359.837L112.013 361.678L113.246 362.874L111.865 363.35L110.45 362.04L110.029 360.816L116.884 358.456ZM115.559 354.162C115.768 354.769 115.781 355.359 115.599 355.933C115.419 356.492 115.105 356.98 114.657 357.397C114.207 357.808 113.659 358.124 113.013 358.347C112.373 358.567 111.754 358.656 111.155 358.614C110.525 358.568 109.966 358.373 109.475 358.031C108.983 357.682 108.634 357.211 108.43 356.617C108.119 355.716 108.222 354.88 108.739 354.111C109.247 353.337 109.993 352.781 110.979 352.441C111.965 352.102 112.896 352.081 113.773 352.378C114.653 352.666 115.249 353.261 115.559 354.162ZM113.978 355.966C114.31 355.53 114.396 355.081 114.237 354.617C114.075 354.147 113.731 353.849 113.206 353.723C112.672 353.593 112.092 353.636 111.465 353.852C110.832 354.07 110.351 354.392 110.023 354.819C109.68 355.244 109.59 355.691 109.752 356.161C109.913 356.631 110.261 356.932 110.796 357.062C111.317 357.196 111.894 357.155 112.527 356.937C113.154 356.721 113.638 356.397 113.978 355.966ZM114.032 349.823C114.115 350.065 114.104 350.295 113.996 350.515C113.883 350.736 113.705 350.889 113.464 350.972C113.229 351.053 113.002 351.04 112.782 350.933C112.563 350.826 112.411 350.652 112.328 350.41C112.247 350.175 112.26 349.948 112.367 349.728C112.472 349.502 112.642 349.349 112.877 349.268C113.119 349.185 113.354 349.199 113.582 349.31C113.801 349.417 113.951 349.588 114.032 349.823ZM111.584 343.064L113.264 347.941L112.235 348.295L109.709 346.909C109.125 346.591 108.677 346.391 108.364 346.309C108.04 346.216 107.731 346.221 107.437 346.322C107.143 346.423 106.949 346.61 106.853 346.884C106.751 347.16 106.761 347.475 106.882 347.827C107.102 348.467 107.576 348.994 108.303 349.409L106.853 349.908C106.225 349.503 105.777 348.913 105.509 348.136C105.285 347.483 105.282 346.848 105.5 346.233C105.719 345.617 106.142 345.201 106.769 344.985C107.252 344.819 107.717 344.78 108.163 344.867C108.583 344.941 109.146 345.167 109.853 345.545L111.335 346.349L110.35 343.489L111.584 343.064ZM110.379 339.118C110.588 339.725 110.602 340.316 110.419 340.89C110.239 341.448 109.925 341.936 109.477 342.353C109.027 342.764 108.479 343.081 107.833 343.303C107.193 343.523 106.574 343.613 105.975 343.57C105.346 343.524 104.786 343.33 104.295 342.988C103.803 342.639 103.454 342.167 103.25 341.573C102.939 340.672 103.043 339.837 103.559 339.068C104.067 338.294 104.814 337.737 105.799 337.398C106.785 337.058 107.716 337.037 108.593 337.334C109.473 337.623 110.069 338.217 110.379 339.118ZM108.798 340.922C109.13 340.487 109.217 340.037 109.057 339.573C108.895 339.103 108.552 338.805 108.026 338.68C107.492 338.549 106.912 338.592 106.285 338.808C105.652 339.026 105.171 339.349 104.843 339.776C104.5 340.2 104.41 340.648 104.572 341.118C104.734 341.588 105.082 341.888 105.616 342.018C106.137 342.153 106.714 342.111 107.347 341.893C107.974 341.677 108.458 341.354 108.798 340.922ZM107.257 330.498L108.937 335.375L107.908 335.729L105.382 334.342C104.798 334.025 104.35 333.825 104.037 333.743C103.713 333.65 103.404 333.654 103.11 333.755C102.816 333.856 102.622 334.044 102.526 334.318C102.424 334.594 102.434 334.908 102.555 335.261C102.775 335.901 103.249 336.428 103.976 336.842L102.526 337.341C101.898 336.937 101.45 336.346 101.182 335.569C100.958 334.916 100.955 334.282 101.173 333.666C101.392 333.05 101.815 332.635 102.442 332.419C102.925 332.252 103.39 332.213 103.836 332.3C104.256 332.375 104.819 332.601 105.526 332.978L107.008 333.782L106.023 330.923L107.257 330.498ZM105.308 324.836L106.987 329.713L105.959 330.067L103.433 328.68C102.849 328.363 102.4 328.163 102.087 328.081C101.763 327.988 101.454 327.992 101.161 328.094C100.867 328.195 100.672 328.382 100.577 328.656C100.474 328.932 100.484 329.247 100.606 329.599C100.826 330.239 101.299 330.766 102.026 331.18L100.577 331.679C99.9484 331.275 99.5004 330.684 99.2329 329.907C99.0081 329.255 99.0051 328.62 99.2239 328.005C99.4428 327.389 99.8656 326.973 100.492 326.757C100.975 326.591 101.44 326.551 101.886 326.639C102.306 326.713 102.87 326.939 103.577 327.316L105.059 328.121L104.074 325.261L105.308 324.836Z" fill="black"/>
<path d="M203.345 395.519C203.59 396.23 203.645 396.825 203.51 397.302L202.12 397.781C202.298 397.281 202.3 396.777 202.124 396.268C201.971 395.824 201.758 395.532 201.483 395.393C201.2 395.249 200.83 395.256 200.373 395.414L196.006 396.918L195.523 395.517L200.126 393.932C200.564 393.782 200.965 393.717 201.33 393.737C201.692 393.751 202.001 393.842 202.256 394.01C202.511 394.177 202.726 394.388 202.901 394.642C203.08 394.887 203.228 395.179 203.345 395.519ZM200.12 386.598L201.89 391.739L195.035 394.1L193.302 389.066L194.565 388.631L195.813 392.254L197.135 391.799L196.13 388.881L197.374 388.453L198.379 391.371L200.142 390.764L198.857 387.033L200.12 386.598ZM199.258 384.094L199.733 385.475L192.878 387.835L192.464 386.631L195.661 381.663L191.273 383.174L190.801 381.803L197.656 379.442L198.058 380.608L194.851 385.612L199.258 384.094ZM196.657 376.539L197.132 377.92L190.277 380.28L189.862 379.076L193.059 374.108L188.672 375.619L188.2 374.248L195.055 371.887L195.456 373.053L192.25 378.056L196.657 376.539ZM194.031 368.915L194.514 370.316L187.658 372.676L187.176 371.276L194.031 368.915ZM193.011 365.951L193.497 367.362L186.641 369.722L184.911 364.698L186.175 364.263L187.419 367.877L188.81 367.398L187.849 364.607L189.092 364.179L190.053 366.97L193.011 365.951ZM189.609 356.071L191.379 361.212L184.524 363.573L182.791 358.539L184.054 358.104L185.302 361.727L186.624 361.272L185.619 358.354L186.863 357.926L187.867 360.844L189.63 360.237L188.345 356.506L189.609 356.071ZM188.737 353.538L189.222 354.948L182.367 357.308L181.274 354.135C181.023 353.404 181.014 352.764 181.249 352.216C181.475 351.664 181.888 351.284 182.489 351.077C182.946 350.92 183.388 350.91 183.815 351.048C184.234 351.181 184.588 351.446 184.878 351.843L187.078 348.72L187.641 350.355L185.557 353.307L185.965 354.492L188.737 353.538ZM183.115 355.473L184.78 354.9L184.2 353.216C184.09 352.896 183.933 352.672 183.728 352.546C183.522 352.412 183.285 352.392 183.017 352.484C182.756 352.574 182.585 352.735 182.504 352.967C182.415 353.195 182.425 353.469 182.535 353.789L183.115 355.473ZM182.718 348.688L183.109 349.824L179.852 350.003L179.342 348.525L182.718 348.688ZM185.202 342.826C185.557 343.858 185.611 344.81 185.364 345.684L183.895 346.19C184.044 345.817 184.129 345.364 184.15 344.831C184.163 344.294 184.089 343.793 183.929 343.33C183.797 342.945 183.619 342.652 183.396 342.451C183.167 342.252 182.929 342.196 182.681 342.281C182.413 342.373 182.264 342.556 182.234 342.829C182.209 342.947 182.195 343.098 182.193 343.282L182.195 343.544L182.218 344.149L182.227 344.716C182.232 344.794 182.229 344.967 182.219 345.233C182.21 345.463 182.192 345.633 182.165 345.745C182.046 346.165 181.922 346.449 181.79 346.597C181.53 346.862 181.237 347.05 180.911 347.163C180.304 347.372 179.747 347.304 179.242 346.96C178.73 346.617 178.336 346.048 178.062 345.252C177.786 344.448 177.718 343.636 177.858 342.813L179.229 342.341C179.039 343.188 179.078 344.003 179.348 344.787C179.616 345.564 179.975 345.875 180.425 345.72C180.621 345.652 180.736 345.477 180.77 345.195C180.799 345.025 180.804 344.815 180.784 344.566C180.763 344.23 180.749 343.957 180.743 343.748C180.724 343.119 180.791 342.541 180.945 342.013C181.108 341.446 181.506 341.053 182.139 340.835C182.799 340.608 183.406 340.687 183.963 341.073C184.519 341.458 184.932 342.043 185.202 342.826ZM181.676 333.033L182.863 336.481L176.008 338.841L174.899 335.619C174.681 334.986 174.658 334.431 174.83 333.956C175 333.474 175.356 333.139 175.898 332.953C176.231 332.838 176.543 332.822 176.834 332.904C177.125 332.987 177.366 333.134 177.556 333.346C177.506 332.947 177.596 332.551 177.826 332.158C178.051 331.773 178.412 331.496 178.908 331.325C179.489 331.125 180.033 331.178 180.541 331.486C181.046 331.786 181.425 332.302 181.676 333.033ZM179.371 336.106L181.163 335.489L180.553 333.716C180.432 333.363 180.262 333.115 180.045 332.971C179.82 332.829 179.565 332.808 179.278 332.906C178.99 333.005 178.802 333.18 178.713 333.43C178.624 333.679 178.64 333.981 178.761 334.333L179.371 336.106ZM176.698 337.026L178.206 336.507L177.66 334.92C177.559 334.627 177.415 334.421 177.228 334.302C177.039 334.178 176.827 334.156 176.592 334.237C176.35 334.32 176.193 334.469 176.121 334.683C176.04 334.894 176.05 335.146 176.152 335.44L176.698 337.026ZM179.951 328.021L180.433 329.422L173.578 331.782L173.095 330.382L179.951 328.021ZM178.93 325.057L179.416 326.468L172.56 328.828L171.468 325.655C171.216 324.924 171.208 324.284 171.442 323.736C171.668 323.183 172.082 322.804 172.682 322.597C173.139 322.44 173.581 322.43 174.009 322.567C174.427 322.701 174.781 322.966 175.071 323.363L177.271 320.239L177.834 321.875L175.751 324.827L176.159 326.012L178.93 325.057ZM173.309 326.993L174.974 326.42L174.394 324.735C174.283 324.415 174.126 324.192 173.922 324.065C173.715 323.932 173.478 323.911 173.21 324.003C172.949 324.093 172.778 324.254 172.698 324.487C172.608 324.715 172.619 324.989 172.729 325.308L173.309 326.993ZM171.621 321.996L170.358 322.431L168.378 316.683L169.642 316.248L170.39 318.422L175.982 316.496L176.468 317.906L170.876 319.832L171.621 321.996ZM174.386 311.86L174.871 313.27L168.016 315.63L167.53 314.22L170.096 313.337L169.031 310.242L166.465 311.125L165.983 309.725L172.838 307.365L173.32 308.765L170.314 309.8L171.379 312.895L174.386 311.86ZM171.432 303.283L172.316 305.848L165.461 308.209L164.577 305.643C164.195 304.533 164.204 303.519 164.603 302.6C165.002 301.681 165.705 301.048 166.71 300.702C167.722 300.354 168.668 300.419 169.548 300.897C170.42 301.371 171.048 302.166 171.432 303.283ZM166.238 306.364L170.567 304.873L170.21 303.835C169.947 303.071 169.553 302.542 169.028 302.248C168.494 301.95 167.888 301.918 167.209 302.152C166.53 302.385 166.075 302.783 165.845 303.344C165.606 303.901 165.618 304.562 165.881 305.326L166.238 306.364ZM169.562 297.852L170.072 299.331L162.166 298.766L161.7 297.415L167.583 292.103L168.099 293.602L166.745 294.824L167.743 297.722L169.562 297.852ZM163.699 297.494L166.426 297.683L165.735 295.675L163.699 297.494ZM166.444 288.794L166.926 290.195L163.851 291.254L160.984 295.209L160.411 293.544L162.263 291.001L159.234 290.126L158.678 288.511L163.339 289.863L166.444 288.794ZM163.904 281.419L164.39 282.829L157.534 285.189L156.503 282.193C156.249 281.455 156.241 280.807 156.48 280.25C156.71 279.689 157.132 279.303 157.746 279.092C158.366 278.878 158.94 278.921 159.467 279.222C159.998 279.514 160.391 280.028 160.645 280.766L161.191 282.353L163.904 281.419ZM158.283 283.354L159.987 282.767L159.474 281.279C159.357 280.939 159.194 280.7 158.986 280.56C158.77 280.422 158.525 280.401 158.251 280.495C157.977 280.589 157.801 280.756 157.722 280.995C157.637 281.236 157.653 281.526 157.77 281.866L158.283 283.354ZM162.1 276.181L162.61 277.659L154.704 277.095L154.238 275.744L160.121 270.432L160.637 271.93L159.283 273.152L160.281 276.051L162.1 276.181ZM156.237 275.822L158.964 276.012L158.273 274.004L156.237 275.822ZM159.323 268.116L159.809 269.526L152.954 271.886L151.861 268.713C151.609 267.982 151.601 267.342 151.836 266.794C152.062 266.242 152.475 265.862 153.076 265.655C153.533 265.498 153.975 265.488 154.402 265.626C154.82 265.759 155.175 266.024 155.465 266.421L157.664 263.297L158.228 264.933L156.144 267.885L156.552 269.07L159.323 268.116ZM153.702 270.051L155.367 269.478L154.787 267.794C154.677 267.474 154.52 267.25 154.315 267.123C154.109 266.99 153.872 266.97 153.604 267.062C153.343 267.152 153.172 267.313 153.091 267.545C153.002 267.773 153.012 268.047 153.122 268.367L153.702 270.051ZM152.015 265.055L150.751 265.489L148.772 259.741L150.035 259.306L150.784 261.48L156.376 259.555L156.861 260.965L151.269 262.89L152.015 265.055ZM154.108 252.969L154.59 254.369L151.515 255.428L148.649 259.384L148.076 257.719L149.927 255.175L146.899 254.301L146.342 252.685L151.004 254.038L154.108 252.969Z" fill="black"/>
<path d="M458.891 280.128L457.51 280.604L455.15 273.748L456.355 273.334L461.322 276.531L459.812 272.143L461.183 271.671L463.543 278.526L462.378 278.928L457.374 275.721L458.891 280.128ZM470.207 276.232L465.066 278.002L462.705 271.147L467.739 269.414L468.174 270.677L464.55 271.925L465.006 273.247L467.924 272.242L468.352 273.486L465.434 274.491L466.041 276.253L469.772 274.969L470.207 276.232ZM474.34 274.853L473.096 275.281L468.421 269.179L469.988 268.639L472.99 272.776L472.939 267.601L474.036 267.224L477.191 271.33L477.01 266.222L478.547 265.692L478.61 273.382L477.366 273.811L474.293 269.753L474.34 274.853ZM487.724 270.2L486.324 270.682L485.265 267.607L481.309 264.741L482.974 264.168L485.518 266.02L486.392 262.991L488.008 262.435L486.655 267.096L487.724 270.2ZM491.814 266.755C492.364 267.04 492.943 267.078 493.551 266.869C494.151 266.662 494.581 266.276 494.84 265.713C495.098 265.149 495.116 264.544 494.894 263.898C494.671 263.251 494.284 262.786 493.734 262.501C493.183 262.216 492.607 262.177 492.006 262.383C491.399 262.592 490.966 262.979 490.707 263.543C490.453 264.098 490.438 264.701 490.663 265.354C490.888 266.007 491.271 266.474 491.814 266.755ZM489.224 265.85C488.877 264.845 488.924 263.887 489.362 262.976C489.796 262.052 490.526 261.414 491.551 261.061C492.57 260.711 493.534 260.765 494.445 261.226C495.362 261.684 495.992 262.41 496.333 263.402C496.673 264.388 496.623 265.347 496.185 266.279C495.751 267.203 495.024 267.84 494.006 268.191C492.981 268.544 492.013 268.49 491.102 268.029C490.191 267.569 489.565 266.842 489.224 265.85ZM500.197 265.905L498.787 266.391L496.427 259.536L499.6 258.443C500.331 258.192 500.97 258.183 501.519 258.418C502.071 258.644 502.451 259.057 502.658 259.658C502.815 260.115 502.825 260.557 502.687 260.984C502.554 261.402 502.289 261.757 501.892 262.047L505.015 264.246L503.38 264.81L500.428 262.726L499.243 263.134L500.197 265.905ZM498.262 260.284L498.835 261.949L500.519 261.369C500.839 261.259 501.063 261.102 501.189 260.897C501.323 260.691 501.343 260.454 501.251 260.186C501.161 259.925 501 259.754 500.768 259.673C500.54 259.584 500.266 259.594 499.946 259.704L498.262 260.284ZM507.351 263.442L505.941 263.928L503.58 257.073L504.99 256.587L505.921 259.29L507.517 255.717L509.241 255.124L507.414 259.269L512.1 261.807L510.298 262.427L506.262 260.279L507.351 263.442Z" fill="black"/>
<path d="M462.859 289.143L461.478 289.618L459.117 282.763L460.322 282.348L465.29 285.545L463.779 281.158L465.15 280.686L467.51 287.541L466.345 287.942L461.341 284.736L462.859 289.143ZM474.174 285.246L469.033 287.017L466.673 280.161L471.706 278.428L472.141 279.692L468.518 280.939L468.973 282.261L471.891 281.256L472.32 282.5L469.401 283.505L470.008 285.268L473.739 283.983L474.174 285.246ZM478.307 283.867L477.064 284.295L472.388 278.193L473.955 277.654L476.957 281.791L476.906 276.616L478.003 276.238L481.158 280.344L480.977 275.236L482.514 274.707L482.577 282.397L481.333 282.825L478.26 278.768L478.307 283.867ZM491.691 279.215L490.291 279.697L489.232 276.622L485.277 273.756L486.941 273.182L489.485 275.034L490.359 272.006L491.975 271.449L490.622 276.11L491.691 279.215ZM495.781 275.769C496.332 276.054 496.911 276.092 497.518 275.883C498.119 275.676 498.548 275.291 498.807 274.727C499.066 274.163 499.084 273.558 498.861 272.912C498.638 272.266 498.252 271.8 497.701 271.515C497.15 271.23 496.574 271.191 495.974 271.398C495.366 271.607 494.933 271.993 494.675 272.557C494.42 273.112 494.406 273.716 494.63 274.369C494.855 275.022 495.239 275.488 495.781 275.769ZM493.191 274.864C492.845 273.859 492.891 272.901 493.329 271.991C493.764 271.067 494.493 270.429 495.518 270.076C496.537 269.725 497.501 269.78 498.412 270.24C499.329 270.699 499.959 271.424 500.301 272.416C500.64 273.402 500.591 274.361 500.152 275.294C499.718 276.217 498.992 276.854 497.973 277.205C496.948 277.558 495.98 277.504 495.069 277.044C494.159 276.583 493.532 275.857 493.191 274.864ZM504.164 274.92L502.754 275.406L500.394 268.55L503.567 267.458C504.298 267.206 504.938 267.198 505.486 267.432C506.038 267.658 506.418 268.072 506.625 268.672C506.782 269.129 506.792 269.571 506.654 269.999C506.521 270.417 506.256 270.771 505.859 271.061L508.983 273.261L507.347 273.824L504.395 271.74L503.21 272.148L504.164 274.92ZM502.229 269.299L502.802 270.964L504.487 270.384C504.806 270.273 505.03 270.116 505.157 269.912C505.29 269.705 505.311 269.468 505.218 269.2C505.128 268.939 504.967 268.768 504.735 268.688C504.507 268.598 504.233 268.609 503.913 268.719L502.229 269.299ZM511.318 272.457L509.908 272.942L507.547 266.087L508.958 265.602L509.888 268.304L511.484 264.732L513.208 264.138L511.382 268.283L516.068 270.821L514.266 271.442L510.229 269.294L511.318 272.457Z" fill="black"/>
<path d="M343.266 210.64C341.96 211.09 340.731 211.047 339.58 210.513C338.414 209.965 337.609 209.046 337.165 207.757C336.716 206.451 336.784 205.231 337.371 204.098C337.949 202.968 338.912 202.171 340.258 201.707C341.246 201.367 342.177 201.289 343.052 201.471L343.651 203.209C342.691 202.992 341.79 203.028 340.95 203.318C340.077 203.618 339.456 204.124 339.09 204.835C338.72 205.537 338.682 206.317 338.977 207.174C339.27 208.022 339.768 208.608 340.473 208.932C341.178 209.255 341.922 209.282 342.705 209.012C343.456 208.754 343.967 208.368 344.237 207.855L343.221 204.904L344.984 204.297L346.287 208.08C346.054 208.598 345.676 209.089 345.151 209.553C344.604 210.033 343.976 210.396 343.266 210.64ZM349.787 205.656C350.476 206.012 351.2 206.06 351.959 205.798C352.709 205.54 353.246 205.058 353.57 204.354C353.893 203.649 353.916 202.893 353.637 202.085C353.359 201.277 352.876 200.695 352.187 200.338C351.499 199.982 350.779 199.933 350.028 200.192C349.269 200.453 348.728 200.936 348.405 201.641C348.087 202.335 348.068 203.09 348.349 203.906C348.63 204.722 349.109 205.305 349.787 205.656ZM346.55 204.525C346.117 203.268 346.175 202.071 346.723 200.933C347.266 199.778 348.178 198.98 349.459 198.539C350.732 198.101 351.938 198.17 353.076 198.745C354.223 199.318 355.01 200.225 355.437 201.465C355.861 202.697 355.799 203.896 355.251 205.062C354.709 206.216 353.801 207.013 352.528 207.451C351.246 207.892 350.036 207.825 348.898 207.249C347.76 206.674 346.977 205.766 346.55 204.525ZM360.316 204.578L358.565 205.18L355.615 196.611L357.365 196.009L360.316 204.578ZM363.984 203.315L362.258 203.909L359.307 195.34L360.813 194.822L367.022 198.818L365.134 193.334L366.848 192.744L369.798 201.313L368.342 201.814L362.087 197.806L363.984 203.315ZM376.033 199.357C374.727 199.807 373.499 199.765 372.347 199.23C371.181 198.682 370.377 197.763 369.933 196.474C369.483 195.168 369.552 193.949 370.138 192.816C370.717 191.685 371.679 190.888 373.026 190.425C374.013 190.085 374.944 190.006 375.82 190.188L376.418 191.927C375.458 191.709 374.558 191.746 373.717 192.035C372.844 192.336 372.224 192.841 371.857 193.552C371.487 194.254 371.45 195.034 371.745 195.891C372.037 196.74 372.535 197.326 373.24 197.649C373.945 197.972 374.689 197.999 375.472 197.729C376.223 197.471 376.734 197.085 377.005 196.572L375.989 193.622L377.751 193.015L379.054 196.797C378.822 197.316 378.443 197.807 377.918 198.27C377.371 198.751 376.743 199.113 376.033 199.357ZM387.827 195.296C386.758 195.665 385.767 195.636 384.854 195.211C383.941 194.786 383.279 193.978 382.869 192.786L381.157 187.816L382.908 187.214L384.64 192.245C384.868 192.906 385.215 193.357 385.681 193.598C386.153 193.828 386.679 193.843 387.258 193.644C387.846 193.442 388.25 193.106 388.472 192.637C388.7 192.157 388.699 191.587 388.472 190.926L386.739 185.894L388.502 185.287L390.214 190.257C390.624 191.449 390.596 192.495 390.13 193.394C389.672 194.292 388.904 194.926 387.827 195.296ZM396.119 192.441C394.829 192.885 393.639 192.953 392.546 192.644L391.914 190.808C392.38 190.995 392.946 191.101 393.612 191.127C394.284 191.142 394.91 191.05 395.489 190.851C395.971 190.685 396.337 190.463 396.588 190.185C396.836 189.899 396.907 189.6 396.8 189.29C396.685 188.956 396.457 188.77 396.115 188.732C395.967 188.701 395.779 188.683 395.549 188.68L395.222 188.683L394.465 188.711L393.757 188.722C393.658 188.729 393.443 188.726 393.11 188.712C392.823 188.702 392.61 188.679 392.47 188.645C391.945 188.497 391.59 188.341 391.405 188.177C391.074 187.852 390.839 187.486 390.698 187.078C390.437 186.319 390.522 185.624 390.952 184.992C391.38 184.351 392.091 183.86 393.087 183.517C394.091 183.171 395.107 183.086 396.135 183.262L396.725 184.976C395.666 184.738 394.647 184.787 393.668 185.124C392.697 185.459 392.308 185.908 392.502 186.471C392.586 186.715 392.805 186.859 393.157 186.902C393.371 186.938 393.633 186.944 393.944 186.919C394.364 186.893 394.705 186.876 394.967 186.868C395.752 186.844 396.475 186.928 397.135 187.121C397.844 187.324 398.335 187.822 398.607 188.613C398.891 189.437 398.792 190.197 398.31 190.893C397.829 191.588 397.098 192.104 396.119 192.441ZM405.862 188.895L404.112 189.497L401.161 180.928L402.912 180.326L405.862 188.895ZM409.53 187.632L407.804 188.226L404.854 179.657L406.359 179.139L412.569 183.135L410.681 177.651L412.394 177.061L415.345 185.63L413.888 186.131L407.634 182.123L409.53 187.632ZM424.785 182.571C423.455 183.029 422.206 182.993 421.038 182.464C419.864 181.919 419.055 181.002 418.611 179.712C418.162 178.407 418.23 177.187 418.817 176.054C419.412 174.918 420.378 174.12 421.717 173.659C422.549 173.372 423.366 173.292 424.167 173.418L424.778 175.193C423.965 174.98 423.138 175.018 422.298 175.307C421.49 175.586 420.9 176.085 420.528 176.807C420.169 177.515 420.13 178.277 420.411 179.093C420.692 179.909 421.201 180.487 421.939 180.826C422.665 181.16 423.453 181.181 424.302 180.889C425.24 180.566 425.938 180.047 426.395 179.333L427.006 181.108C426.456 181.763 425.716 182.25 424.785 182.571ZM435.092 178.83L428.665 181.043L425.714 172.474L432.006 170.308L432.55 171.887L428.021 173.446L428.59 175.099L432.238 173.843L432.773 175.398L429.125 176.654L429.884 178.857L434.548 177.251L435.092 178.83ZM442.604 176.244L436.495 178.347L433.545 169.778L435.307 169.171L437.714 176.161L442.06 174.665L442.604 176.244ZM450.298 173.594L443.871 175.807L440.921 167.238L447.213 165.072L447.756 166.651L443.227 168.21L443.796 169.863L447.444 168.607L447.979 170.162L444.331 171.418L445.09 173.621L449.754 172.015L450.298 173.594ZM456.01 171.627L451.701 173.111L448.751 164.542L452.778 163.155C453.57 162.883 454.263 162.854 454.857 163.069C455.46 163.282 455.878 163.727 456.111 164.404C456.254 164.82 456.274 165.21 456.172 165.574C456.069 165.938 455.885 166.239 455.62 166.477C456.118 166.414 456.614 166.527 457.105 166.814C457.586 167.096 457.933 167.547 458.146 168.167C458.396 168.893 458.329 169.574 457.945 170.208C457.569 170.84 456.924 171.313 456.01 171.627ZM452.17 168.746L452.941 170.986L455.157 170.223C455.598 170.072 455.908 169.86 456.088 169.588C456.266 169.308 456.293 168.988 456.169 168.629C456.045 168.27 455.827 168.034 455.515 167.923C455.203 167.811 454.826 167.831 454.386 167.983L452.17 168.746ZM451.019 165.404L451.668 167.289L453.652 166.606C454.019 166.48 454.276 166.3 454.424 166.067C454.58 165.83 454.607 165.565 454.506 165.271C454.402 164.97 454.216 164.773 453.948 164.683C453.685 164.582 453.37 164.595 453.002 164.721L451.019 165.404ZM462.227 169.487L460.464 170.094L457.513 161.525L461.48 160.159C462.394 159.845 463.193 159.834 463.879 160.127C464.569 160.41 465.044 160.927 465.302 161.677C465.499 162.249 465.511 162.801 465.339 163.335C465.172 163.858 464.841 164.301 464.345 164.663L468.249 167.413L466.205 168.117L462.515 165.513L461.034 166.023L462.227 169.487ZM459.807 162.46L460.524 164.541L462.629 163.816C463.029 163.679 463.308 163.482 463.467 163.227C463.634 162.969 463.659 162.672 463.544 162.338C463.432 162.011 463.23 161.797 462.94 161.697C462.655 161.585 462.313 161.598 461.913 161.735L459.807 162.46ZM470.508 166.636L468.659 167.272L469.364 157.39L471.053 156.808L477.693 164.161L475.82 164.806L474.293 163.114L470.669 164.362L470.508 166.636ZM470.955 159.306L470.719 162.715L473.228 161.851L470.955 159.306ZM474.625 157.399L474.081 155.82L481.266 153.346L481.81 154.925L479.093 155.861L481.499 162.851L479.737 163.458L477.33 156.468L474.625 157.399ZM487.344 160.838L485.594 161.441L482.643 152.872L484.394 152.269L487.344 160.838ZM491.012 159.575L489.286 160.17L486.336 151.601L487.841 151.082L494.051 155.078L492.163 149.594L493.876 149.004L496.827 157.573L495.37 158.075L489.115 154.067L491.012 159.575ZM503.062 155.618C501.756 156.068 500.527 156.025 499.375 155.491C498.21 154.943 497.405 154.024 496.961 152.734C496.512 151.429 496.58 150.209 497.167 149.076C497.745 147.946 498.708 147.149 500.054 146.685C501.042 146.345 501.973 146.266 502.848 146.449L503.447 148.187C502.487 147.97 501.586 148.006 500.746 148.296C499.872 148.596 499.252 149.102 498.885 149.813C498.516 150.515 498.478 151.295 498.773 152.152C499.066 153 499.564 153.586 500.269 153.91C500.973 154.233 501.717 154.26 502.501 153.99C503.252 153.731 503.762 153.346 504.033 152.833L503.017 149.882L504.78 149.275L506.082 153.058C505.85 153.576 505.471 154.067 504.946 154.531C504.4 155.011 503.772 155.374 503.062 155.618Z" fill="black"/>
<path d="M440.8 336.083L440.003 336.357L437.406 328.817L438.203 328.542L440.8 336.083ZM443.754 335.066L442.978 335.333L440.382 327.792L441.071 327.555L447.955 332.077L445.833 325.915L446.608 325.648L449.205 333.189L448.526 333.422L441.625 328.882L443.754 335.066ZM454.046 331.522L453.249 331.796L450.901 324.977L448.305 325.871L448.056 325.15L454.078 323.076L454.327 323.798L451.698 324.703L454.046 331.522ZM463.449 328.284L458.117 330.12L455.52 322.579L460.691 320.799L460.94 321.521L456.566 323.027L457.397 325.44L460.984 324.205L461.233 324.926L457.645 326.161L458.665 329.124L463.201 327.562L463.449 328.284ZM465.804 327.473L465.007 327.748L462.411 320.207L465.783 319.046C466.515 318.794 467.158 318.781 467.71 319.009C468.267 319.227 468.653 319.648 468.868 320.273C469.054 320.811 469.05 321.315 468.858 321.783C468.673 322.248 468.316 322.624 467.788 322.91L471.417 325.541L470.48 325.863L466.941 323.286L464.636 324.08L465.804 327.473ZM463.456 320.654L464.388 323.358L466.919 322.486C467.436 322.308 467.795 322.056 467.996 321.73C468.202 321.394 468.23 321.011 468.082 320.58C467.934 320.149 467.675 319.864 467.306 319.726C466.937 319.588 466.498 319.607 465.988 319.782L463.456 320.654ZM475.328 324.194L474.531 324.468L472.183 317.649L469.587 318.543L469.338 317.822L475.36 315.748L475.608 316.47L472.98 317.375L475.328 324.194ZM478.412 323.132L477.582 323.418L478.332 314.677L479.075 314.421L485.058 320.843L484.218 321.133L482.565 319.376L478.612 320.738L478.412 323.132ZM479.043 315.552L478.64 319.945L482.065 318.765L479.043 315.552ZM487.287 320.076L486.49 320.35L483.894 312.81L484.691 312.535L487.287 320.076ZM490.242 319.059L489.466 319.326L486.87 311.785L487.559 311.548L494.442 316.07L492.321 309.908L493.096 309.641L495.693 317.182L495.014 317.415L488.113 312.875L490.242 319.059ZM498.605 316.179L497.819 316.45L495.223 308.909L496.009 308.638L499.992 311.351L501.46 306.761L502.235 306.494L504.832 314.035L504.046 314.306L501.864 307.971L500.533 312.117L500.048 312.284L496.424 309.845L498.605 316.179ZM512.283 311.469L506.95 313.305L504.354 305.765L509.525 303.984L509.773 304.706L505.4 306.212L506.23 308.625L509.818 307.39L510.066 308.112L506.479 309.347L507.499 312.309L512.034 310.748L512.283 311.469ZM514.617 310.666L513.841 310.933L511.244 303.392L511.934 303.155L518.817 307.677L516.695 301.515L517.471 301.248L520.067 308.789L519.389 309.022L512.487 304.482L514.617 310.666ZM524.908 307.122L524.111 307.396L521.763 300.577L519.167 301.471L518.919 300.75L524.94 298.676L525.189 299.398L522.561 300.303L524.908 307.122Z" fill="black"/>
<path d="M331.278 373.123L328.811 373.972L326.215 366.432L328.682 365.582C329.903 365.162 331.007 365.171 331.993 365.611C332.99 366.055 333.68 366.834 334.063 367.947C334.449 369.067 334.384 370.105 333.87 371.062C333.363 372.015 332.499 372.703 331.278 373.123ZM327.261 366.879L329.36 372.976L330.933 372.435C331.967 372.078 332.694 371.519 333.114 370.756C333.529 370.002 333.576 369.159 333.255 368.225C332.933 367.291 332.377 366.656 331.586 366.317C330.785 365.975 329.868 365.981 328.833 366.337L327.261 366.879ZM338.047 370.792L337.25 371.067L334.653 363.526L335.45 363.252L338.047 370.792ZM341.001 369.775L340.226 370.042L337.629 362.501L338.319 362.264L345.202 366.786L343.08 360.625L343.856 360.358L346.452 367.898L345.773 368.132L338.872 363.592L341.001 369.775ZM349.354 366.899L348.578 367.166L345.982 359.625L346.671 359.388L353.554 363.91L351.433 357.748L352.208 357.481L354.805 365.022L354.126 365.256L347.225 360.716L349.354 366.899ZM362.264 362.454L356.931 364.29L354.335 356.749L359.506 354.969L359.754 355.691L355.38 357.196L356.211 359.61L359.799 358.374L360.047 359.096L356.46 360.331L357.48 363.294L362.015 361.732L362.264 362.454ZM364.619 361.643L363.822 361.917L361.225 354.377L364.597 353.216C365.33 352.963 365.972 352.951 366.524 353.179C367.081 353.396 367.467 353.818 367.683 354.443C367.868 354.981 367.865 355.485 367.672 355.952C367.487 356.418 367.131 356.794 366.602 357.08L370.231 359.71L369.294 360.033L365.756 357.456L363.451 358.25L364.619 361.643ZM362.271 354.824L363.202 357.528L365.734 356.656C366.251 356.478 366.61 356.226 366.811 355.9C367.016 355.564 367.045 355.18 366.897 354.749C366.748 354.319 366.49 354.034 366.121 353.896C365.752 353.758 365.312 353.777 364.803 353.952L362.271 354.824Z" fill="black"/>
<path d="M449.489 351.159L445.891 352.398L443.294 344.857L446.558 343.733C447.226 343.503 447.811 343.486 448.312 343.683C448.811 343.873 449.159 344.251 449.354 344.819C449.488 345.207 449.513 345.571 449.43 345.913C449.354 346.253 449.181 346.533 448.912 346.754C449.442 346.66 449.916 346.742 450.334 347C450.752 347.257 451.055 347.659 451.243 348.205C451.463 348.844 451.416 349.431 451.102 349.965C450.788 350.499 450.25 350.897 449.489 351.159ZM445.43 348.471L446.439 351.401L449.1 350.485C449.66 350.292 450.05 350.013 450.27 349.649C450.49 349.284 450.519 348.868 450.359 348.401C450.2 347.941 449.923 347.639 449.528 347.494C449.13 347.342 448.651 347.362 448.091 347.555L445.43 348.471ZM444.34 345.304L445.189 347.771L447.527 346.966C448.008 346.8 448.342 346.569 448.529 346.272C448.723 345.972 448.752 345.625 448.616 345.23C448.477 344.827 448.238 344.564 447.898 344.44C447.566 344.314 447.159 344.334 446.677 344.499L444.34 345.304ZM453.793 349.677L452.964 349.962L453.713 341.221L454.457 340.965L460.44 347.388L459.599 347.677L457.946 345.921L453.993 347.282L453.793 349.677ZM454.425 342.097L454.021 346.489L457.447 345.31L454.425 342.097ZM462.593 346.646L461.818 346.913L459.221 339.373L459.911 339.135L466.794 343.658L464.672 337.496L465.448 337.229L468.044 344.769L467.366 345.003L460.464 340.463L462.593 346.646ZM472.638 343.188L470.171 344.037L467.574 336.497L470.041 335.647C471.262 335.227 472.366 335.236 473.353 335.676C474.349 336.12 475.039 336.899 475.422 338.012C475.808 339.132 475.744 340.17 475.229 341.127C474.722 342.08 473.858 342.767 472.638 343.188ZM468.62 336.944L470.719 343.041L472.292 342.499C473.326 342.143 474.053 341.584 474.473 340.821C474.889 340.067 474.936 339.223 474.614 338.29C474.293 337.356 473.736 336.72 472.945 336.382C472.144 336.04 471.227 336.046 470.193 336.402L468.62 336.944Z" fill="black"/>
<path d="M336.217 390.141L333.75 390.99L331.153 383.45L333.62 382.6C334.841 382.18 335.945 382.189 336.931 382.629C337.928 383.073 338.618 383.852 339.001 384.965C339.387 386.085 339.323 387.123 338.808 388.08C338.301 389.034 337.437 389.721 336.217 390.141ZM332.199 383.897L334.298 389.994L335.871 389.453C336.905 389.097 337.632 388.537 338.052 387.774C338.468 387.02 338.515 386.177 338.193 385.243C337.872 384.309 337.315 383.674 336.524 383.336C335.723 382.993 334.806 382.999 333.772 383.355L332.199 383.897ZM341.684 388.259L340.854 388.544L341.604 379.803L342.347 379.547L348.33 385.97L347.49 386.259L345.837 384.503L341.883 385.864L341.684 388.259ZM342.315 380.679L341.912 385.071L345.337 383.892L342.315 380.679ZM350.484 385.228L349.708 385.495L347.112 377.955L347.801 377.717L354.684 382.24L352.563 376.078L353.338 375.811L355.935 383.351L355.256 383.585L348.355 379.045L350.484 385.228ZM361.661 381.524C360.562 381.903 359.513 381.854 358.514 381.379C357.529 380.899 356.841 380.091 356.451 378.956C356.062 377.829 356.108 376.773 356.589 375.788C357.074 374.794 357.869 374.106 358.975 373.725C359.794 373.443 360.562 373.388 361.279 373.558L361.561 374.377C360.755 374.181 359.982 374.21 359.242 374.465C358.38 374.762 357.755 375.314 357.367 376.123C356.981 376.914 356.945 377.766 357.259 378.678C357.575 379.598 358.129 380.25 358.921 380.636C359.722 381.027 360.561 381.072 361.437 380.77C362.313 380.468 362.974 379.96 363.418 379.244L363.704 380.074C363.239 380.732 362.558 381.215 361.661 381.524ZM366.35 379.765L365.553 380.04L362.956 372.499L363.753 372.225L366.35 379.765ZM369.304 378.748L368.529 379.015L365.932 371.474L366.622 371.237L373.505 375.759L371.383 369.597L372.159 369.33L374.755 376.871L374.076 377.105L367.175 372.565L369.304 378.748ZM380.459 375.052C379.375 375.425 378.333 375.374 377.334 374.899C376.349 374.418 375.662 373.611 375.271 372.476C374.883 371.349 374.929 370.293 375.409 369.308C375.894 368.313 376.689 367.626 377.795 367.245C378.751 366.916 379.631 366.882 380.435 367.143L380.714 367.951C379.836 367.667 378.963 367.674 378.094 367.973C377.211 368.278 376.574 368.83 376.183 369.632C375.797 370.423 375.763 371.282 376.082 372.209C376.397 373.121 376.947 373.775 377.734 374.171C378.526 374.557 379.349 374.603 380.203 374.308C381.108 373.997 381.733 373.489 382.076 372.784L381.067 369.854L381.854 369.583L382.97 372.825C382.769 373.313 382.447 373.757 382.007 374.157C381.571 374.548 381.055 374.846 380.459 375.052Z" fill="black"/>
<path d="M579.334 63.584L337.281 146.929L353.523 160.672L368.222 155.61L370.318 161.697L355.618 166.758L351.281 187.587L593.333 104.241L574.397 91.4268L561.412 95.8978L559.317 89.8113L572.301 85.3404L579.334 63.584Z" stroke="black" stroke-width="2"/>
<circle cx="585.868" cy="195.061" r="53" transform="rotate(-19 585.868 195.061)" stroke="black" stroke-width="2"/>
<path d="M625.783 69.449L687.943 249.975C680.431 252.931 665.756 264.651 667.151 287.881" stroke="black" stroke-width="3"/>
<path d="M666.931 286.303L292.789 415.131C289.418 407.463 277.016 393.027 254.373 396.63" stroke="black" stroke-width="3"/>
<path d="M255.438 396.609L194.536 219.738C201.965 216.634 216.153 204.862 213.481 182.61" stroke="black" stroke-width="3"/>
<path d="M213.151 182.479L585.561 54.2476C591.976 61.2048 608.922 74.3367 625.384 71.2067" stroke="black" stroke-width="3"/>
<line x1="224.593" y1="245.576" x2="310.635" y2="215.95" stroke="black" stroke-width="2" stroke-dasharray="3.11 3.11"/>
<line x1="99.7819" y1="316.066" x2="80.0555" y2="258.776" stroke="black" stroke-width="1.55361" stroke-dasharray="3.11 3.11"/>
<line x1="139.909" y1="432.604" x2="120.183" y2="375.314" stroke="black" stroke-width="1.55361" stroke-dasharray="3.11 3.11"/>
<line x1="292.022" y1="362.975" x2="515.797" y2="285.923" stroke="black" stroke-width="1.55361" stroke-dasharray="5.18 5.18"/>
<line x1="532.861" y1="139.833" x2="619.041" y2="110.159" stroke="black" stroke-width="1.55361" stroke-dasharray="3.11 3.11"/>
<rect x="229.496" y="258.531" width="282.757" height="114.449" rx="6.99125" transform="rotate(-19 229.496 258.531)" stroke="black" stroke-width="1.55361"/>
<line x1="164.836" y1="186.862" x2="252.003" y2="440.015" stroke="black" stroke-width="1.55361" stroke-dasharray="5.18 5.18"/>
</svg>
