<svg width="684" height="308" viewBox="0 0 684 308" fill="none" xmlns="http://www.w3.org/2000/svg">
<path d="M288.826 193.92V216.92" stroke="black" stroke-width="2"/>
<path d="M483.943 241.777V264.777" stroke="black" stroke-width="2"/>
<path d="M403.602 195.785V218.785" stroke="black" stroke-width="2"/>
<path d="M204.481 186.772H487.481" stroke="black" stroke-width="2"/>
<path d="M69.6626 29.6709H125.794C126.309 37.7411 133.004 55.0394 155.663 59.6709" stroke="black" stroke-width="3"/>
<path d="M157.194 58.897V249.391C148.087 250.426 129.137 257.777 126.194 278.897" stroke="black" stroke-width="3"/>
<path d="M125.82 279.066H68.4866C68.4866 271.374 62.7532 254.605 39.8199 249.066" stroke="black" stroke-width="3"/>
<path d="M40.2604 248.958V57.1764C48.1623 57.7861 65.4251 52.9959 71.2604 28.9579" stroke="black" stroke-width="3"/>
<path d="M1.09822 306.548V1.54755H682.098V306.548H1.09822Z" stroke="black" stroke-width="2"/>
<path d="M55.254 19.3563H623.995C623.305 30.6498 629.59 52.39 660.254 49.0019" stroke="black" stroke-width="2"/>
<path d="M661.058 49.5004V259.986C649.058 256.357 625.058 256.979 625.058 288.5" stroke="black" stroke-width="2"/>
<path d="M625.049 287.352H55.2083C58.3137 275.797 55.8294 253.723 21.049 257.862" stroke="black" stroke-width="2"/>
<path d="M21.0874 258.16V48.6787C35.0994 51.617 61.7741 50.0269 56.3769 20.1602" stroke="black" stroke-width="2"/>
<path d="M229.72 204.451H227.856V195.388H229.72V198.961L233.061 195.388H235.339L231.494 199.544L236 204.451H233.617L229.72 200.269V204.451ZM238.162 204.451H236.207L240.091 195.336H241.878L245.762 204.451H243.781L242.888 202.353H239.056L238.162 204.451ZM240.972 197.667L239.638 200.813H242.292L240.972 197.667ZM248.876 204.451H247.025V195.388H248.876V204.451ZM255.733 204.503H253.973L250.166 195.388H252.225L254.866 201.913L257.52 195.388H259.54L255.733 204.503ZM267.564 204.451H260.767V195.388H267.421V197.058H262.631V198.806H266.489V200.45H262.631V202.781H267.564V204.451ZM270.873 204.451H269.048V195.388H270.64L275.211 201.188V195.388H277.023V204.451H275.482L270.873 198.625V204.451Z" fill="black"/>
<path d="M232.281 217.28C230.875 217.28 229.705 216.84 228.773 215.959C227.841 215.062 227.375 213.931 227.375 212.567C227.375 211.186 227.836 210.056 228.76 209.175C229.692 208.295 230.866 207.855 232.281 207.855C233.162 207.855 233.96 208.045 234.677 208.424V210.302C233.977 209.836 233.183 209.603 232.294 209.603C231.44 209.603 230.719 209.883 230.132 210.444C229.563 210.996 229.278 211.704 229.278 212.567C229.278 213.43 229.571 214.143 230.158 214.704C230.736 215.256 231.474 215.532 232.372 215.532C233.365 215.532 234.193 215.269 234.858 214.742V216.62C234.124 217.06 233.265 217.28 232.281 217.28ZM237.612 217.099H235.657L239.541 207.984H241.328L245.212 217.099H243.231L242.338 215.001H238.506L237.612 217.099ZM240.422 210.315L239.088 213.461H241.742L240.422 210.315ZM248.274 217.099H246.41V208.036H253.052V209.706H248.274V211.545H251.964V213.189H248.274V217.099ZM261.337 217.099H254.54V208.036H261.194V209.706H256.404V211.454H260.262V213.098H256.404V215.429H261.337V217.099Z" fill="black"/>
<path d="M296.179 208.056H294.615L297.722 200.764H299.151L302.258 208.056H300.674L299.959 206.378H296.893L296.179 208.056ZM298.426 202.628L297.359 205.145H299.483L298.426 202.628ZM304.708 208.056H303.217V200.805H306.386C307.166 200.805 307.781 201.009 308.23 201.416C308.685 201.817 308.913 202.342 308.913 202.991C308.913 203.647 308.685 204.175 308.23 204.575C307.781 204.983 307.166 205.187 306.386 205.187H304.708V208.056ZM304.708 202.11V203.913H306.283C306.642 203.913 306.921 203.837 307.121 203.685C307.322 203.526 307.422 203.301 307.422 203.011C307.422 202.721 307.322 202.501 307.121 202.349C306.921 202.19 306.642 202.11 306.283 202.11H304.708ZM311.536 208.056H310.044V200.805H313.213C313.994 200.805 314.608 201.009 315.057 201.416C315.513 201.817 315.741 202.342 315.741 202.991C315.741 203.647 315.513 204.175 315.057 204.575C314.608 204.983 313.994 205.187 313.213 205.187H311.536V208.056ZM311.536 202.11V203.913H313.11C313.469 203.913 313.749 203.837 313.949 203.685C314.149 203.526 314.249 203.301 314.249 203.011C314.249 202.721 314.149 202.501 313.949 202.349C313.749 202.19 313.469 202.11 313.11 202.11H311.536ZM322.04 208.056H316.872V200.805H318.363V206.719H322.04V208.056ZM328.55 208.056H323.112V200.805H328.436V202.141H324.604V203.54H327.69V204.855H324.604V206.719H328.55V208.056ZM334.79 208.201C333.699 208.201 332.781 207.942 332.035 207.424V205.87C332.339 206.133 332.74 206.36 333.237 206.554C333.741 206.74 334.238 206.833 334.728 206.833C335.136 206.833 335.47 206.761 335.733 206.616C335.995 206.464 336.126 206.257 336.126 205.994C336.126 205.711 336.002 205.511 335.754 205.394C335.65 205.332 335.512 205.269 335.339 205.207L335.091 205.124L334.511 204.948L333.972 204.772C333.896 204.752 333.734 204.693 333.485 204.596C333.271 204.513 333.116 204.441 333.019 204.379C332.66 204.13 332.432 203.919 332.336 203.747C332.17 203.415 332.087 203.077 332.087 202.732C332.087 202.09 332.332 201.586 332.822 201.22C333.313 200.847 333.979 200.66 334.821 200.66C335.671 200.66 336.461 200.861 337.193 201.261V202.711C336.454 202.255 335.671 202.028 334.842 202.028C334.02 202.028 333.61 202.266 333.61 202.742C333.61 202.949 333.737 203.115 333.993 203.239C334.145 203.322 334.341 203.395 334.583 203.457C334.908 203.547 335.17 203.623 335.37 203.685C335.971 203.871 336.496 204.123 336.945 204.441C337.428 204.779 337.67 205.283 337.67 205.953C337.67 206.65 337.397 207.199 336.851 207.6C336.306 208 335.619 208.201 334.79 208.201ZM338.212 202.141V200.805H344.292V202.141H341.993V208.056H340.501V202.141H338.212ZM346.896 208.056H345.405V200.805H348.761C349.534 200.805 350.142 201.006 350.584 201.406C351.032 201.8 351.257 202.314 351.257 202.949C351.257 203.433 351.122 203.854 350.853 204.213C350.591 204.565 350.225 204.814 349.755 204.959L351.992 208.056H350.263L348.15 205.124H346.896V208.056ZM346.896 202.11V203.871H348.678C349.016 203.871 349.279 203.795 349.465 203.643C349.658 203.491 349.755 203.274 349.755 202.991C349.755 202.715 349.658 202.501 349.465 202.349C349.279 202.19 349.016 202.11 348.678 202.11H346.896ZM358.408 208.056H352.971V200.805H358.294V202.141H354.462V203.54H357.549V204.855H354.462V206.719H358.408V208.056ZM365.033 208.056H359.596V200.805H364.92V202.141H361.087V203.54H364.174V204.855H361.087V206.719H365.033V208.056ZM365.734 202.141V200.805H371.814V202.141H369.515V208.056H368.023V202.141H365.734ZM377.464 208.056H376.004V202.4L374.471 203.177V201.717L376.169 200.805H377.464V208.056ZM381.448 200.66C382.359 200.66 383.067 200.961 383.571 201.561C384.082 202.162 384.338 202.994 384.338 204.058C384.338 204.603 384.269 205.121 384.131 205.611C383.993 206.101 383.789 206.543 383.52 206.937C383.257 207.324 382.908 207.631 382.473 207.859C382.045 208.087 381.559 208.201 381.013 208.201C380.392 208.201 379.846 208.045 379.377 207.734V206.388C379.832 206.699 380.323 206.854 380.847 206.854C381.441 206.854 381.907 206.668 382.246 206.295C382.591 205.915 382.784 205.445 382.826 204.886C382.439 205.335 381.876 205.559 381.137 205.559C380.474 205.559 379.922 205.349 379.48 204.928C379.038 204.506 378.817 203.937 378.817 203.219C378.817 202.466 379.066 201.851 379.563 201.375C380.067 200.899 380.695 200.66 381.448 200.66ZM381.541 201.945C381.175 201.945 380.875 202.062 380.64 202.297C380.412 202.525 380.298 202.822 380.298 203.188C380.298 203.54 380.416 203.83 380.651 204.058C380.885 204.285 381.182 204.399 381.541 204.399C381.824 204.399 382.09 204.313 382.339 204.14C382.587 203.968 382.763 203.747 382.867 203.478C382.846 202.987 382.719 202.611 382.484 202.349C382.249 202.079 381.935 201.945 381.541 201.945ZM388.053 200.66C388.964 200.66 389.672 200.961 390.176 201.561C390.687 202.162 390.943 202.994 390.943 204.058C390.943 204.603 390.874 205.121 390.735 205.611C390.597 206.101 390.394 206.543 390.124 206.937C389.862 207.324 389.513 207.631 389.078 207.859C388.65 208.087 388.163 208.201 387.618 208.201C386.996 208.201 386.451 208.045 385.981 207.734V206.388C386.437 206.699 386.927 206.854 387.452 206.854C388.046 206.854 388.512 206.668 388.85 206.295C389.196 205.915 389.389 205.445 389.43 204.886C389.044 205.335 388.481 205.559 387.742 205.559C387.079 205.559 386.527 205.349 386.085 204.928C385.643 204.506 385.422 203.937 385.422 203.219C385.422 202.466 385.671 201.851 386.168 201.375C386.672 200.899 387.3 200.66 388.053 200.66ZM388.146 201.945C387.78 201.945 387.48 202.062 387.245 202.297C387.017 202.525 386.903 202.822 386.903 203.188C386.903 203.54 387.021 203.83 387.255 204.058C387.49 204.285 387.787 204.399 388.146 204.399C388.429 204.399 388.695 204.313 388.944 204.14C389.192 203.968 389.368 203.747 389.472 203.478C389.451 202.987 389.323 202.611 389.089 202.349C388.854 202.079 388.54 201.945 388.146 201.945ZM394.658 200.66C395.569 200.66 396.277 200.961 396.781 201.561C397.292 202.162 397.547 202.994 397.547 204.058C397.547 204.603 397.478 205.121 397.34 205.611C397.202 206.101 396.999 206.543 396.729 206.937C396.467 207.324 396.118 207.631 395.683 207.859C395.255 208.087 394.768 208.201 394.223 208.201C393.601 208.201 393.056 208.045 392.586 207.734V206.388C393.042 206.699 393.532 206.854 394.057 206.854C394.651 206.854 395.117 206.668 395.455 206.295C395.801 205.915 395.994 205.445 396.035 204.886C395.649 205.335 395.086 205.559 394.347 205.559C393.684 205.559 393.132 205.349 392.69 204.928C392.248 204.506 392.027 203.937 392.027 203.219C392.027 202.466 392.276 201.851 392.773 201.375C393.277 200.899 393.905 200.66 394.658 200.66ZM394.751 201.945C394.385 201.945 394.085 202.062 393.85 202.297C393.622 202.525 393.508 202.822 393.508 203.188C393.508 203.54 393.625 203.83 393.86 204.058C394.095 204.285 394.392 204.399 394.751 204.399C395.034 204.399 395.3 204.313 395.549 204.14C395.797 203.968 395.973 203.747 396.077 203.478C396.056 202.987 395.928 202.611 395.694 202.349C395.459 202.079 395.145 201.945 394.751 201.945Z" fill="black"/>
<path d="M65.855 178.733V180.194H60.1998L60.9767 181.727H59.5163L58.6048 180.028V178.733H65.855ZM58.4598 174.749C58.4598 173.838 58.7602 173.13 59.3609 172.626C59.9616 172.115 60.7937 171.86 61.857 171.86C62.4025 171.86 62.9204 171.929 63.4106 172.067C63.9009 172.205 64.3428 172.409 64.7364 172.678C65.1231 172.94 65.4303 173.289 65.6582 173.724C65.8861 174.152 66 174.639 66 175.184C66 175.806 65.8446 176.351 65.5339 176.821H64.1875C64.4982 176.365 64.6535 175.875 64.6535 175.35C64.6535 174.756 64.4671 174.29 64.0942 173.952C63.7145 173.607 63.2449 173.413 62.6856 173.372C63.1344 173.758 63.3589 174.321 63.3589 175.06C63.3589 175.723 63.1483 176.275 62.7271 176.717C62.3059 177.159 61.7362 177.38 61.0181 177.38C60.2654 177.38 59.6509 177.132 59.1745 176.634C58.698 176.13 58.4598 175.502 58.4598 174.749ZM59.7441 174.656C59.7441 175.022 59.8615 175.322 60.0963 175.557C60.3241 175.785 60.621 175.899 60.987 175.899C61.3392 175.899 61.6292 175.782 61.857 175.547C62.0849 175.312 62.1988 175.015 62.1988 174.656C62.1988 174.373 62.1125 174.107 61.9399 173.859C61.7673 173.61 61.5463 173.434 61.277 173.33C60.7868 173.351 60.4104 173.479 60.1481 173.714C59.8788 173.948 59.7441 174.263 59.7441 174.656ZM65.9689 170.492C65.9689 170.748 65.8826 170.962 65.71 171.135C65.5305 171.307 65.313 171.393 65.0575 171.393C64.8089 171.393 64.5983 171.307 64.4257 171.135C64.253 170.962 64.1667 170.748 64.1667 170.492C64.1667 170.244 64.253 170.033 64.4257 169.861C64.5983 169.681 64.8089 169.591 65.0575 169.591C65.313 169.591 65.5305 169.681 65.71 169.861C65.8826 170.033 65.9689 170.244 65.9689 170.492ZM65.855 166.353V167.813H60.1998L60.9767 169.346H59.5163L58.6048 167.648V166.353H65.855ZM66 161.861C66 162.504 65.8205 163.066 65.4614 163.55C65.1093 164.019 64.6535 164.378 64.0942 164.627C63.5349 164.869 62.9135 164.989 62.2299 164.989C61.5532 164.989 60.9387 164.872 60.3863 164.637C59.8063 164.389 59.3402 164.023 58.988 163.539C58.6359 163.049 58.4598 162.49 58.4598 161.861C58.4598 160.909 58.8292 160.153 59.568 159.593C60.3 159.027 61.1873 158.744 62.2299 158.744C63.2725 158.744 64.1598 159.027 64.8918 159.593C65.6306 160.153 66 160.909 66 161.861ZM63.9182 163.053C64.3739 162.749 64.6017 162.352 64.6017 161.861C64.6017 161.364 64.3739 160.971 63.9182 160.681C63.4555 160.384 62.8928 160.235 62.2299 160.235C61.5601 160.235 61.0008 160.384 60.552 160.681C60.0894 160.971 59.8581 161.364 59.8581 161.861C59.8581 162.359 60.0894 162.756 60.552 163.053C61.0008 163.349 61.5601 163.498 62.2299 163.498C62.8928 163.498 63.4555 163.349 63.9182 163.053ZM65.9689 157.262C65.9689 157.518 65.8826 157.732 65.71 157.905C65.5305 158.077 65.313 158.163 65.0575 158.163C64.8089 158.163 64.5983 158.077 64.4257 157.905C64.253 157.732 64.1667 157.518 64.1667 157.262C64.1667 157.014 64.253 156.803 64.4257 156.631C64.5983 156.451 64.8089 156.361 65.0575 156.361C65.313 156.361 65.5305 156.451 65.71 156.631C65.8826 156.803 65.9689 157.014 65.9689 157.262ZM65.855 150.075V155.233H64.7675L62.8306 153.099C62.3818 152.609 62.0228 152.274 61.7535 152.094C61.4773 151.901 61.1838 151.804 60.8731 151.804C60.5624 151.804 60.3172 151.918 60.1377 152.146C59.9513 152.374 59.8581 152.674 59.8581 153.047C59.8581 153.724 60.1343 154.376 60.6866 155.005H59.1537C58.6911 154.418 58.4598 153.714 58.4598 152.892C58.4598 152.201 58.6635 151.601 59.0709 151.09C59.4783 150.579 60.0134 150.323 60.6763 150.323C61.1873 150.323 61.6395 150.437 62.0331 150.665C62.406 150.872 62.8652 151.269 63.4106 151.856L64.55 153.099V150.075H65.855ZM66 145.951C66 146.593 65.8205 147.156 65.4614 147.639C65.1093 148.109 64.6535 148.468 64.0942 148.717C63.5349 148.958 62.9135 149.079 62.2299 149.079C61.5532 149.079 60.9387 148.962 60.3863 148.727C59.8063 148.478 59.3402 148.112 58.988 147.629C58.6359 147.139 58.4598 146.579 58.4598 145.951C58.4598 144.998 58.8292 144.242 59.568 143.683C60.3 143.117 61.1873 142.834 62.2299 142.834C63.2725 142.834 64.1598 143.117 64.8918 143.683C65.6306 144.242 66 144.998 66 145.951ZM63.9182 147.142C64.3739 146.838 64.6017 146.441 64.6017 145.951C64.6017 145.454 64.3739 145.06 63.9182 144.77C63.4555 144.473 62.8928 144.325 62.2299 144.325C61.5601 144.325 61.0008 144.473 60.552 144.77C60.0894 145.06 59.8581 145.454 59.8581 145.951C59.8581 146.448 60.0894 146.845 60.552 147.142C61.0008 147.439 61.5601 147.588 62.2299 147.588C62.8928 147.588 63.4555 147.439 63.9182 147.142ZM65.855 136.784V141.942H64.7675L62.8306 139.808C62.3818 139.318 62.0228 138.983 61.7535 138.804C61.4773 138.61 61.1838 138.514 60.8731 138.514C60.5624 138.514 60.3172 138.628 60.1377 138.855C59.9513 139.083 59.8581 139.384 59.8581 139.757C59.8581 140.433 60.1343 141.086 60.6866 141.714H59.1537C58.6911 141.127 58.4598 140.423 58.4598 139.601C58.4598 138.911 58.6635 138.31 59.0709 137.799C59.4783 137.288 60.0134 137.033 60.6763 137.033C61.1873 137.033 61.6395 137.147 62.0331 137.374C62.406 137.582 62.8652 137.979 63.4106 138.565L64.55 139.808V136.784H65.855ZM65.855 130.796V135.954H64.7675L62.8306 133.82C62.3818 133.33 62.0228 132.995 61.7535 132.816C61.4773 132.622 61.1838 132.526 60.8731 132.526C60.5624 132.526 60.3172 132.64 60.1377 132.868C59.9513 133.095 59.8581 133.396 59.8581 133.769C59.8581 134.445 60.1343 135.098 60.6866 135.726H59.1537C58.6911 135.139 58.4598 134.435 58.4598 133.613C58.4598 132.923 58.6635 132.322 59.0709 131.811C59.4783 131.3 60.0134 131.045 60.6763 131.045C61.1873 131.045 61.6395 131.159 62.0331 131.386C62.406 131.594 62.8652 131.991 63.4106 132.578L64.55 133.82V130.796H65.855Z" fill="black"/>
<path d="M135.539 229.546C135.539 230.298 135.397 230.878 135.114 231.286H133.644C133.975 230.871 134.141 230.395 134.141 229.856C134.141 229.387 134.034 229.042 133.82 228.821C133.599 228.593 133.247 228.479 132.763 228.479H128.144V226.998H133.012C133.474 226.998 133.875 227.067 134.213 227.205C134.552 227.336 134.814 227.523 135 227.764C135.187 228.006 135.321 228.275 135.404 228.572C135.494 228.862 135.539 229.187 135.539 229.546ZM135.394 220.061V225.498H128.144V220.175H129.48V224.007H130.878V220.92H132.194V224.007H134.058V220.061H135.394ZM135.394 217.413V218.873H128.144V217.599L132.784 213.943H128.144V212.493H135.394V213.726L130.733 217.413H135.394ZM135.394 209.422V210.883H128.144V209.609L132.784 205.953H128.144V204.503H135.394V205.735L130.733 209.422H135.394ZM135.394 201.359V202.84H128.144V201.359H135.394ZM135.394 198.225V199.716H128.144V194.403H129.48V198.225H130.951V195.273H132.266V198.225H135.394ZM135.394 187.775V193.212H128.144V187.889H129.48V191.721H130.878V188.634H132.194V191.721H134.058V187.775H135.394ZM135.394 185.096V186.587H128.144V183.231C128.144 182.458 128.344 181.85 128.745 181.409C129.138 180.96 129.653 180.735 130.288 180.735C130.771 180.735 131.192 180.87 131.551 181.139C131.904 181.402 132.152 181.768 132.297 182.237L135.394 180V181.73L132.463 183.843V185.096H135.394ZM129.449 185.096H131.21V183.314C131.21 182.976 131.134 182.714 130.982 182.527C130.83 182.334 130.612 182.237 130.329 182.237C130.053 182.237 129.839 182.334 129.687 182.527C129.528 182.714 129.449 182.976 129.449 183.314V185.096ZM131.282 178.551V179.752L128.144 178.861V177.297L131.282 178.551ZM135.539 173.817C135.539 174.908 135.28 175.826 134.762 176.572H133.209C133.471 176.268 133.699 175.868 133.892 175.37C134.079 174.866 134.172 174.369 134.172 173.879C134.172 173.472 134.099 173.137 133.954 172.874C133.802 172.612 133.595 172.481 133.333 172.481C133.05 172.481 132.85 172.605 132.732 172.854C132.67 172.957 132.608 173.095 132.546 173.268L132.463 173.516L132.287 174.096L132.111 174.635C132.09 174.711 132.031 174.873 131.935 175.122C131.852 175.336 131.779 175.491 131.717 175.588C131.469 175.947 131.258 176.175 131.085 176.272C130.754 176.437 130.416 176.52 130.07 176.52C129.428 176.52 128.924 176.275 128.558 175.785C128.185 175.294 127.999 174.628 127.999 173.786C127.999 172.936 128.199 172.146 128.6 171.414H130.05C129.594 172.153 129.366 172.936 129.366 173.765C129.366 174.587 129.604 174.998 130.081 174.998C130.288 174.998 130.454 174.87 130.578 174.614C130.661 174.462 130.733 174.266 130.795 174.024C130.885 173.699 130.961 173.437 131.023 173.237C131.21 172.636 131.462 172.111 131.779 171.662C132.118 171.179 132.622 170.937 133.291 170.937C133.989 170.937 134.538 171.21 134.938 171.756C135.339 172.301 135.539 172.988 135.539 173.817ZM135.394 163.41V167.056H128.144V163.648C128.144 162.978 128.303 162.447 128.62 162.053C128.938 161.653 129.383 161.452 129.956 161.452C130.308 161.452 130.609 161.539 130.857 161.711C131.106 161.884 131.286 162.102 131.396 162.364C131.479 161.97 131.693 161.625 132.038 161.328C132.377 161.038 132.808 160.893 133.333 160.893C133.947 160.893 134.445 161.121 134.824 161.577C135.204 162.026 135.394 162.637 135.394 163.41ZM132.214 165.564H134.11V163.69C134.11 163.317 134.03 163.027 133.871 162.82C133.706 162.613 133.471 162.509 133.167 162.509C132.863 162.509 132.629 162.613 132.463 162.82C132.297 163.027 132.214 163.317 132.214 163.69V165.564ZM129.387 165.564H130.982V163.886C130.982 163.576 130.913 163.334 130.775 163.161C130.636 162.982 130.443 162.892 130.195 162.892C129.939 162.892 129.742 162.982 129.604 163.161C129.459 163.334 129.387 163.576 129.387 163.886V165.564ZM135.394 158.109V159.59H128.144V158.109H135.394ZM135.394 154.974V156.466H128.144V153.11C128.144 152.337 128.344 151.729 128.745 151.287C129.138 150.838 129.653 150.614 130.288 150.614C130.771 150.614 131.192 150.749 131.551 151.018C131.904 151.28 132.152 151.646 132.297 152.116L135.394 149.878V151.608L132.463 153.721V154.974H135.394ZM129.449 154.974H131.21V153.193C131.21 152.855 131.134 152.592 130.982 152.406C130.83 152.212 130.612 152.116 130.329 152.116C130.053 152.116 129.839 152.212 129.687 152.406C129.528 152.592 129.449 152.855 129.449 153.193V154.974ZM129.48 149.7H128.144V143.621H129.48V145.92H135.394V147.411H129.48V149.7ZM135.394 141.016V142.508H128.144V141.016H130.857V137.743H128.144V136.262H135.394V137.743H132.214V141.016H135.394ZM135.394 131.945V134.659H128.144V131.945C128.144 130.771 128.482 129.815 129.159 129.076C129.836 128.337 130.706 127.968 131.769 127.968C132.839 127.968 133.713 128.337 134.389 129.076C135.059 129.808 135.394 130.764 135.394 131.945ZM129.48 133.167H134.058V132.069C134.058 131.261 133.858 130.633 133.457 130.184C133.05 129.728 132.487 129.501 131.769 129.501C131.051 129.501 130.491 129.728 130.091 130.184C129.684 130.633 129.48 131.261 129.48 132.069V133.167ZM135.394 126.201V127.765L128.102 124.658V123.229L135.394 120.121V121.706L133.716 122.421V125.486L135.394 126.201ZM129.967 123.954L132.484 125.02V122.897L129.967 123.954ZM135.394 116.622V118.103H132.142L128.144 120.91V119.149L130.723 117.347L128.144 115.534V113.825L132.111 116.622H135.394ZM135.394 108.821V110.313H128.144V107.143C128.144 106.363 128.347 105.748 128.755 105.3C129.155 104.844 129.68 104.616 130.329 104.616C130.985 104.616 131.513 104.844 131.914 105.3C132.321 105.748 132.525 106.363 132.525 107.143V108.821H135.394ZM129.449 108.821H131.251V107.247C131.251 106.888 131.175 106.608 131.023 106.408C130.864 106.208 130.64 106.107 130.35 106.107C130.06 106.107 129.839 106.208 129.687 106.408C129.528 106.608 129.449 106.888 129.449 107.247V108.821ZM135.394 103.281V104.845L128.102 101.738V100.309L135.394 97.2015V98.7862L133.716 99.5008V102.567L135.394 103.281ZM129.967 101.034L132.484 102.101V99.9773L129.967 101.034ZM135.394 94.7516V96.2431H128.144V92.8873C128.144 92.1139 128.344 91.5063 128.745 91.0644C129.138 90.6156 129.653 90.3912 130.288 90.3912C130.771 90.3912 131.192 90.5258 131.551 90.7951C131.904 91.0575 132.152 91.4234 132.297 91.893L135.394 89.6558V91.3855L132.463 93.4984V94.7516H135.394ZM129.449 94.7516H131.21V92.9702C131.21 92.6318 131.134 92.3694 130.982 92.183C130.83 91.9897 130.612 91.893 130.329 91.893C130.053 91.893 129.839 91.9897 129.687 92.183C129.528 92.3694 129.449 92.6318 129.449 92.9702V94.7516ZM129.48 89.4777H128.144V83.3979H129.48V85.6972H135.394V87.1887H129.48V89.4777ZM135.394 78.7323V80.2134H132.142L128.144 83.0202V81.2595L130.723 79.4573L128.144 77.6447V75.9358L132.111 78.7323H135.394Z" fill="black"/>
<path d="M414.73 203.639H413.27V196.389H414.544L418.2 201.029V196.389H419.65V203.639H418.417L414.73 198.979V203.639ZM426.698 203.639H421.26V196.389H426.584V197.725H422.752V199.124H425.838V200.439H422.752V202.303H426.698V203.639ZM431.055 203.681H429.739L427.305 196.389H428.963L430.454 201.278L432.09 196.369H433.251L434.897 201.278L436.389 196.389H438.015L435.571 203.681H434.255L432.67 198.844L431.055 203.681ZM445.224 203.639H443.743V200.387L440.936 196.389H442.697L444.499 198.968L446.312 196.389H448.021L445.224 200.356V203.639ZM450.213 201.713C450.641 202.162 451.176 202.386 451.818 202.386C452.453 202.386 452.985 202.162 453.413 201.713C453.841 201.264 454.055 200.698 454.055 200.014C454.055 199.331 453.841 198.765 453.413 198.316C452.985 197.867 452.453 197.643 451.818 197.643C451.176 197.643 450.641 197.867 450.213 198.316C449.791 198.758 449.581 199.324 449.581 200.014C449.581 200.705 449.791 201.271 450.213 201.713ZM448.058 200.014C448.058 198.951 448.414 198.06 449.125 197.342C449.836 196.61 450.734 196.244 451.818 196.244C452.895 196.244 453.789 196.61 454.501 197.342C455.219 198.074 455.578 198.965 455.578 200.014C455.578 201.057 455.219 201.948 454.501 202.687C453.789 203.418 452.895 203.784 451.818 203.784C450.734 203.784 449.836 203.418 449.125 202.687C448.414 201.955 448.058 201.064 448.058 200.014ZM458.416 203.639H456.925V196.389H460.28C461.054 196.389 461.661 196.59 462.103 196.99C462.552 197.384 462.777 197.898 462.777 198.533C462.777 199.017 462.642 199.438 462.373 199.797C462.11 200.149 461.744 200.398 461.275 200.543L463.512 203.639H461.782L459.669 200.708H458.416V203.639ZM458.416 197.694V199.455H460.198C460.536 199.455 460.798 199.379 460.985 199.227C461.178 199.075 461.275 198.858 461.275 198.575C461.275 198.298 461.178 198.084 460.985 197.933C460.798 197.774 460.536 197.694 460.198 197.694H458.416ZM465.982 203.639H464.49V196.389H465.982V199.248L468.654 196.389H470.477L467.401 199.714L471.005 203.639H469.099L465.982 200.294V203.639Z" fill="black"/>
<path d="M415.546 213.454H414.086V206.204H415.36L419.016 210.844V206.204H420.466V213.454H419.234L415.546 208.794V213.454ZM427.514 213.454H422.077V206.204H427.4V207.54H423.568V208.939H426.655V210.254H423.568V212.118H427.514V213.454ZM431.871 213.496H430.556L428.122 206.204H429.779L431.27 211.093L432.907 206.184H434.067L435.714 211.093L437.205 206.204H438.831L436.387 213.496H435.071L433.487 208.659L431.871 213.496ZM446.041 213.454H444.559V210.202L441.753 206.204H443.513L445.316 208.783L447.128 206.204H448.837L446.041 210.171V213.454ZM451.029 211.528C451.457 211.977 451.992 212.201 452.634 212.201C453.27 212.201 453.801 211.977 454.229 211.528C454.657 211.079 454.872 210.513 454.872 209.829C454.872 209.146 454.657 208.58 454.229 208.131C453.801 207.682 453.27 207.457 452.634 207.457C451.992 207.457 451.457 207.682 451.029 208.131C450.608 208.573 450.397 209.139 450.397 209.829C450.397 210.52 450.608 211.086 451.029 211.528ZM448.875 209.829C448.875 208.766 449.23 207.875 449.941 207.157C450.653 206.425 451.55 206.059 452.634 206.059C453.711 206.059 454.606 206.425 455.317 207.157C456.035 207.889 456.394 208.78 456.394 209.829C456.394 210.872 456.035 211.763 455.317 212.502C454.606 213.233 453.711 213.599 452.634 213.599C451.55 213.599 450.653 213.233 449.941 212.502C449.23 211.77 448.875 210.879 448.875 209.829ZM459.232 213.454H457.741V206.204H461.097C461.87 206.204 462.478 206.404 462.92 206.805C463.368 207.199 463.593 207.713 463.593 208.348C463.593 208.832 463.458 209.253 463.189 209.612C462.926 209.964 462.56 210.213 462.091 210.358L464.328 213.454H462.598L460.486 210.523H459.232V213.454ZM459.232 207.509V209.27H461.014C461.352 209.27 461.615 209.194 461.801 209.042C461.994 208.89 462.091 208.673 462.091 208.39C462.091 208.113 461.994 207.899 461.801 207.747C461.615 207.589 461.352 207.509 461.014 207.509H459.232ZM466.798 213.454H465.307V206.204H466.798V209.063L469.47 206.204H471.293L468.217 209.529L471.821 213.454H469.916L466.798 210.109V213.454Z" fill="black"/>
<path d="M328.027 100.293C326.646 100.293 325.498 99.853 324.583 98.9726C323.66 98.075 323.198 96.9443 323.198 95.5806C323.198 94.1996 323.66 93.0689 324.583 92.1885C325.498 91.3081 326.668 90.8679 328.092 90.8679C329.136 90.8679 330.042 91.0967 330.811 91.5541V93.3926C329.973 92.8747 329.11 92.6158 328.221 92.6158C327.298 92.6158 326.547 92.892 325.968 93.4444C325.39 93.9881 325.101 94.7131 325.101 95.6194C325.101 96.5171 325.382 97.2334 325.943 97.7686C326.504 98.3037 327.198 98.5713 328.027 98.5713C328.821 98.5713 329.43 98.3728 329.852 97.9757V94.8556H331.717V98.8561C331.328 99.2704 330.811 99.6113 330.163 99.8789C329.49 100.155 328.778 100.293 328.027 100.293ZM335.816 97.7038C336.351 98.2649 337.02 98.5454 337.823 98.5454C338.617 98.5454 339.281 98.2649 339.816 97.7038C340.351 97.1428 340.619 96.4351 340.619 95.5806C340.619 94.7261 340.351 94.0183 339.816 93.4573C339.281 92.8963 338.617 92.6158 337.823 92.6158C337.02 92.6158 336.351 92.8963 335.816 93.4573C335.289 94.0097 335.026 94.7175 335.026 95.5806C335.026 96.4437 335.289 97.1514 335.816 97.7038ZM333.123 95.5806C333.123 94.2514 333.567 93.1379 334.456 92.2403C335.345 91.3254 336.467 90.8679 337.823 90.8679C339.169 90.8679 340.287 91.3254 341.176 92.2403C342.073 93.1552 342.522 94.2686 342.522 95.5806C342.522 96.8839 342.073 97.9973 341.176 98.9208C340.287 99.8357 339.169 100.293 337.823 100.293C336.467 100.293 335.345 99.8357 334.456 98.9208C333.567 98.0059 333.123 96.8925 333.123 95.5806ZM346.122 100.112H344.27V91.0492H346.122V100.112ZM350.001 100.112H348.176V91.0492H349.768L354.338 96.8494V91.0492H356.151V100.112H354.61L350.001 94.2859V100.112ZM362.682 100.293C361.301 100.293 360.153 99.853 359.239 98.9726C358.315 98.075 357.853 96.9443 357.853 95.5806C357.853 94.1996 358.315 93.0689 359.239 92.1885C360.153 91.3081 361.323 90.8679 362.747 90.8679C363.791 90.8679 364.698 91.0967 365.466 91.5541V93.3926C364.629 92.8747 363.766 92.6158 362.877 92.6158C361.953 92.6158 361.202 92.892 360.624 93.4444C360.046 93.9881 359.756 94.7131 359.756 95.6194C359.756 96.5171 360.037 97.2334 360.598 97.7686C361.159 98.3037 361.854 98.5713 362.682 98.5713C363.476 98.5713 364.085 98.3728 364.508 97.9757V94.8556H366.372V98.8561C365.984 99.2704 365.466 99.6113 364.819 99.8789C364.145 100.155 363.433 100.293 362.682 100.293ZM375.156 100.293C374.025 100.293 373.098 99.9436 372.373 99.2445C371.647 98.5454 371.285 97.5657 371.285 96.3056V91.0492H373.136V96.3703C373.136 97.0694 373.318 97.6089 373.68 97.9887C374.051 98.3598 374.543 98.5454 375.156 98.5454C375.778 98.5454 376.269 98.3598 376.632 97.9887C377.003 97.6089 377.189 97.0694 377.189 96.3703V91.0492H379.053V96.3056C379.053 97.5657 378.686 98.5454 377.953 99.2445C377.228 99.9436 376.295 100.293 375.156 100.293ZM383.926 100.293C382.562 100.293 381.414 99.9695 380.482 99.3222V97.3802C380.862 97.7082 381.362 97.993 381.984 98.2347C382.614 98.4677 383.235 98.5842 383.848 98.5842C384.357 98.5842 384.776 98.4936 385.104 98.3123C385.432 98.1225 385.596 97.8635 385.596 97.5355C385.596 97.1817 385.44 96.9313 385.13 96.7846C385 96.7069 384.828 96.6293 384.612 96.5516L384.301 96.448L383.576 96.2279L382.903 96.0078C382.808 95.9819 382.605 95.9086 382.294 95.7877C382.027 95.6841 381.833 95.5935 381.712 95.5158C381.263 95.2051 380.978 94.9419 380.857 94.7261C380.65 94.3118 380.546 93.8889 380.546 93.4573C380.546 92.6546 380.853 92.0245 381.466 91.5671C382.079 91.101 382.911 90.8679 383.964 90.8679C385.026 90.8679 386.014 91.1182 386.929 91.6189V93.4314C386.006 92.8617 385.026 92.5769 383.99 92.5769C382.963 92.5769 382.45 92.8747 382.45 93.4702C382.45 93.7292 382.609 93.9363 382.929 94.0917C383.119 94.1953 383.365 94.2859 383.667 94.3636C384.072 94.4758 384.4 94.5707 384.651 94.6484C385.402 94.8814 386.057 95.1965 386.619 95.5935C387.223 96.0164 387.525 96.6465 387.525 97.4837C387.525 98.3555 387.184 99.0417 386.502 99.5423C385.82 100.043 384.961 100.293 383.926 100.293ZM394.293 100.112H392.442V91.0492H394.293V100.112ZM398.172 100.112H396.347V91.0492H397.939L402.509 96.8494V91.0492H404.322V100.112H402.781L398.172 94.2859V100.112ZM414.244 100.293C412.837 100.293 411.667 99.853 410.735 98.9726C409.803 98.075 409.337 96.9443 409.337 95.5806C409.337 94.1996 409.799 93.0689 410.722 92.1885C411.654 91.3081 412.828 90.8679 414.244 90.8679C415.124 90.8679 415.922 91.0578 416.639 91.4376V93.3149C415.94 92.8488 415.146 92.6158 414.257 92.6158C413.402 92.6158 412.681 92.8963 412.095 93.4573C411.525 94.0097 411.24 94.7175 411.24 95.5806C411.24 96.4437 411.533 97.1558 412.12 97.7168C412.699 98.2692 413.437 98.5454 414.334 98.5454C415.327 98.5454 416.155 98.2821 416.82 97.7556V99.6329C416.086 100.073 415.228 100.293 414.244 100.293ZM425.206 100.112H418.409V91.0492H425.064V92.7193H420.274V94.4671H424.132V96.1114H420.274V98.4418H425.206V100.112ZM433.151 100.112H426.691V91.0492H428.555V98.4418H433.151V100.112ZM441.289 100.112H434.492V91.0492H441.146V92.7193H436.356V94.4671H440.214V96.1114H436.356V98.4418H441.289V100.112ZM447.33 100.112H442.773V91.0492H447.033C447.87 91.0492 448.534 91.2477 449.026 91.6448C449.527 92.0418 449.777 92.5985 449.777 93.3149C449.777 93.7551 449.669 94.1305 449.454 94.4413C449.238 94.752 448.966 94.9764 448.638 95.1145C449.13 95.2181 449.562 95.4856 449.933 95.9172C450.295 96.3401 450.476 96.8796 450.476 97.5355C450.476 98.3037 450.192 98.9252 449.622 99.3999C449.061 99.8746 448.297 100.112 447.33 100.112ZM444.637 96.1373V98.5065H446.981C447.447 98.5065 447.809 98.4073 448.068 98.2088C448.327 98.0016 448.457 97.7082 448.457 97.3284C448.457 96.9486 448.327 96.6552 448.068 96.448C447.809 96.2409 447.447 96.1373 446.981 96.1373H444.637ZM444.637 92.6028V94.5966H446.735C447.123 94.5966 447.425 94.5103 447.641 94.3377C447.865 94.1651 447.978 93.9234 447.978 93.6127C447.978 93.2933 447.865 93.0473 447.641 92.8747C447.425 92.6934 447.123 92.6028 446.735 92.6028H444.637ZM453.905 100.112H452.041V91.0492H456.235C457.202 91.0492 457.962 91.2995 458.514 91.8001C459.075 92.2921 459.356 92.9351 459.356 93.7292C459.356 94.3334 459.187 94.8599 458.851 95.3087C458.523 95.7489 458.065 96.0596 457.478 96.2409L460.275 100.112H458.113L455.472 96.448H453.905V100.112ZM453.905 92.6805V94.8814H456.132C456.555 94.8814 456.883 94.7865 457.116 94.5966C457.357 94.4067 457.478 94.1348 457.478 93.781C457.478 93.4357 457.357 93.1682 457.116 92.9783C456.883 92.7798 456.555 92.6805 456.132 92.6805H453.905ZM462.663 100.112H460.708L464.592 90.9974H466.379L470.263 100.112H468.282L467.389 98.0146H463.556L462.663 100.112ZM465.473 93.3278L464.139 96.4739H466.793L465.473 93.3278ZM469.563 92.7193V91.0492H477.162V92.7193H474.288V100.112H472.424V92.7193H469.563ZM480.47 100.112H478.618V91.0492H480.47V100.112ZM484.349 100.112H482.524V91.0492H484.116L488.686 96.8494V91.0492H490.499V100.112H488.958L484.349 94.2859V100.112ZM497.03 100.293C495.649 100.293 494.501 99.853 493.587 98.9726C492.663 98.075 492.201 96.9443 492.201 95.5806C492.201 94.1996 492.663 93.0689 493.587 92.1885C494.501 91.3081 495.671 90.8679 497.095 90.8679C498.139 90.8679 499.046 91.0967 499.814 91.5541V93.3926C498.977 92.8747 498.114 92.6158 497.225 92.6158C496.301 92.6158 495.55 92.892 494.972 93.4444C494.394 93.9881 494.104 94.7131 494.104 95.6194C494.104 96.5171 494.385 97.2334 494.946 97.7686C495.507 98.3037 496.202 98.5713 497.03 98.5713C497.824 98.5713 498.433 98.3728 498.856 97.9757V94.8556H500.72V98.8561C500.332 99.2704 499.814 99.6113 499.167 99.8789C498.493 100.155 497.781 100.293 497.03 100.293Z" fill="black"/>
<path d="M379.407 250.656H378.564V242.68H379.407V250.656ZM382.532 250.656H381.711V242.68H382.441L387.476 249.197V242.68H388.297V250.656H387.579L382.532 244.116V250.656ZM393.417 250.656H392.574V243.444H389.828V242.68H396.197V243.444H393.417V250.656ZM403.362 250.656H397.722V242.68H403.191V243.444H398.565V245.996H402.359V246.759H398.565V249.892H403.362V250.656ZM405.853 250.656H405.01V242.68H408.576C409.35 242.68 409.962 242.878 410.41 243.273C410.866 243.66 411.093 244.184 411.093 244.845C411.093 245.415 410.926 245.889 410.592 246.269C410.266 246.649 409.806 246.888 409.214 246.987L411.788 250.656H410.797L408.291 247.067H405.853V250.656ZM405.853 243.444V246.303H408.53C409.077 246.303 409.498 246.182 409.795 245.939C410.098 245.688 410.25 245.335 410.25 244.879C410.25 244.424 410.098 244.07 409.795 243.82C409.491 243.569 409.069 243.444 408.53 243.444H405.853ZM415.925 250.656H415.082V243.444H412.336V242.68H418.705V243.444H415.925V250.656ZM419.186 250.656H418.309L421.864 242.635H422.65L426.216 250.656H425.327L424.336 248.457H420.155L419.186 250.656ZM422.251 243.694L420.44 247.716H424.063L422.251 243.694ZM428.574 250.656H427.73V242.68H428.574V250.656ZM431.698 250.656H430.878V242.68H431.607L436.643 249.197V242.68H437.463V250.656H436.745L431.698 244.116V250.656ZM440.544 250.656H439.712V242.68H440.544L443.426 246.543L446.309 242.68H447.129V250.656H446.297V243.956L443.688 247.443H443.175L440.544 243.956V250.656ZM455.009 250.656H449.369V242.68H454.838V243.444H450.212V245.996H454.006V246.759H450.212V249.892H455.009V250.656ZM457.477 250.656H456.657V242.68H457.386L462.422 249.197V242.68H463.242V250.656H462.524L457.477 244.116V250.656ZM468.362 250.656H467.519V243.444H464.773V242.68H471.142V243.444H468.362V250.656Z" fill="black"/>
<path d="M263.793 250.021H261.184V242.046H263.793C265.085 242.046 266.125 242.414 266.915 243.151C267.713 243.895 268.111 244.856 268.111 246.033C268.111 247.218 267.713 248.179 266.915 248.916C266.125 249.653 265.085 250.021 263.793 250.021ZM262.028 242.809V249.258H263.691C264.785 249.258 265.654 248.965 266.3 248.38C266.938 247.803 267.257 247.021 267.257 246.033C267.257 245.046 266.938 244.264 266.3 243.686C265.654 243.102 264.785 242.809 263.691 242.809H262.028ZM270.952 250.021H270.109V242.046H270.952V250.021ZM274.077 250.021H273.256V242.046H273.985L279.021 248.563V242.046H279.842V250.021H279.124L274.077 243.481V250.021ZM282.911 250.021H282.09V242.046H282.82L287.855 248.563V242.046H288.676V250.021H287.958L282.911 243.481V250.021ZM296.564 250.021H290.925V242.046H296.393V242.809H291.768V245.361H295.562V246.125H291.768V249.258H296.564V250.021ZM299.055 250.021H298.212V242.046H301.778C302.553 242.046 303.164 242.243 303.613 242.638C304.068 243.026 304.296 243.55 304.296 244.21C304.296 244.78 304.129 245.255 303.795 245.635C303.468 246.014 303.009 246.254 302.416 246.352L304.991 250.021H304L301.493 246.432H299.055V250.021ZM299.055 242.809V245.669H301.733C302.28 245.669 302.701 245.547 302.997 245.304C303.301 245.054 303.453 244.7 303.453 244.245C303.453 243.789 303.301 243.436 302.997 243.185C302.694 242.934 302.272 242.809 301.733 242.809H299.055Z" fill="black"/>
<path d="M382.714 267.739H378.909V259.764H382.361C383.068 259.764 383.626 259.938 384.036 260.288C384.446 260.63 384.651 261.1 384.651 261.7C384.651 262.111 384.556 262.464 384.366 262.76C384.184 263.056 383.93 263.265 383.603 263.387C384.135 263.47 384.556 263.702 384.868 264.082C385.179 264.461 385.335 264.94 385.335 265.517C385.335 266.193 385.099 266.732 384.628 267.135C384.157 267.538 383.519 267.739 382.714 267.739ZM379.752 263.877V266.975H382.566C383.159 266.975 383.618 266.839 383.945 266.565C384.271 266.292 384.435 265.908 384.435 265.415C384.435 264.929 384.271 264.553 383.945 264.287C383.618 264.013 383.159 263.877 382.566 263.877H379.752ZM379.752 260.527V263.136H382.224C382.733 263.136 383.125 263.026 383.398 262.806C383.679 262.585 383.819 262.266 383.819 261.849C383.819 261.423 383.679 261.097 383.398 260.869C383.125 260.641 382.733 260.527 382.224 260.527H379.752ZM387.267 267.739H386.39L389.944 259.718H390.73L394.296 267.739H393.408L392.417 265.54H388.235L387.267 267.739ZM390.332 260.778L388.52 264.799H392.143L390.332 260.778ZM396.574 267.739H395.754V259.764H396.483L401.519 266.281V259.764H402.339V267.739H401.621L396.574 261.199V267.739ZM407.197 267.739H404.588V259.764H407.197C408.488 259.764 409.529 260.132 410.319 260.869C411.116 261.613 411.515 262.574 411.515 263.751C411.515 264.936 411.116 265.897 410.319 266.634C409.529 267.37 408.488 267.739 407.197 267.739ZM405.431 260.527V266.975H407.095C408.188 266.975 409.058 266.683 409.704 266.098C410.342 265.521 410.661 264.739 410.661 263.751C410.661 262.764 410.342 261.981 409.704 261.404C409.058 260.819 408.188 260.527 407.095 260.527H405.431Z" fill="black"/>
<path d="M262.922 267.72H260.313V259.744H262.922C264.213 259.744 265.254 260.113 266.044 260.85C266.841 261.594 267.24 262.555 267.24 263.732C267.24 264.917 266.841 265.878 266.044 266.614C265.254 267.351 264.213 267.72 262.922 267.72ZM261.156 260.508V266.956H262.82C263.913 266.956 264.783 266.664 265.429 266.079C266.067 265.502 266.386 264.719 266.386 263.732C266.386 262.745 266.067 261.962 265.429 261.385C264.783 260.8 263.913 260.508 262.82 260.508H261.156ZM268.704 267.72H267.827L271.382 259.699H272.168L275.734 267.72H274.845L273.854 265.521H269.673L268.704 267.72ZM271.769 260.758L269.958 264.78H273.581L271.769 260.758ZM278.012 267.72H277.191V259.744H277.921L282.956 266.261V259.744H283.777V267.72H283.059L278.012 261.18V267.72ZM289.785 267.856C288.623 267.856 287.647 267.469 286.857 266.694C286.083 265.919 285.695 264.932 285.695 263.732C285.695 262.54 286.083 261.556 286.857 260.781C287.64 259.999 288.616 259.608 289.785 259.608C290.651 259.608 291.396 259.805 292.018 260.2V261.066C291.32 260.618 290.579 260.394 289.797 260.394C288.885 260.394 288.114 260.713 287.484 261.351C286.861 261.974 286.55 262.767 286.55 263.732C286.55 264.704 286.861 265.502 287.484 266.125C288.114 266.755 288.893 267.07 289.819 267.07C290.746 267.07 291.536 266.804 292.189 266.273V267.15C291.536 267.621 290.735 267.856 289.785 267.856ZM294.792 267.72H293.949V259.744H294.792V267.72ZM297.916 267.72H297.096V259.744H297.825L302.861 266.261V259.744H303.681V267.72H302.964L297.916 261.18V267.72ZM309.667 267.856C308.52 267.856 307.552 267.469 306.762 266.694C305.987 265.919 305.6 264.932 305.6 263.732C305.6 262.54 305.987 261.556 306.762 260.781C307.544 259.999 308.52 259.608 309.69 259.608C310.7 259.608 311.543 259.862 312.219 260.371V261.226C311.482 260.671 310.655 260.394 309.736 260.394C308.801 260.394 308.019 260.709 307.389 261.339C306.766 261.962 306.454 262.764 306.454 263.743C306.454 264.708 306.762 265.506 307.377 266.136C308 266.759 308.763 267.07 309.667 267.07C310.624 267.07 311.38 266.793 311.934 266.238V263.14H312.766V266.569C312.417 266.964 311.969 267.279 311.422 267.515C310.882 267.742 310.298 267.856 309.667 267.856Z" fill="black"/>
<path d="M599.111 38.1052H343.111L353.993 56.3866H369.54V62.8237H353.993L343.111 81.1052H599.111L585.378 62.8237H571.645V56.3866H585.378L599.111 38.1052Z" stroke="black" stroke-width="2"/>
<circle cx="562.484" cy="164.546" r="53" stroke="black" stroke-width="2"/>
<path d="M641.12 58.773V249.702C633.055 250.051 615.364 256.354 609.12 278.773" stroke="black" stroke-width="3"/>
<path d="M609.425 277.209H213.725C213.034 268.862 206.007 251.175 183.425 247.209" stroke="black" stroke-width="3"/>
<path d="M184.439 247.536V60.474C192.473 59.9572 209.721 53.4462 214.439 31.5362" stroke="black" stroke-width="3"/>
<path d="M214.17 31.3049H608.038C611.839 39.9716 623.586 57.9049 640.17 60.3049" stroke="black" stroke-width="3"/>
<line x1="204.446" y1="94.69" x2="295.446" y2="94.69" stroke="black" stroke-width="2" stroke-dasharray="3.11 3.11"/>
<line x1="63.4853" y1="120.705" x2="63.4853" y2="60.1137" stroke="black" stroke-width="1.55361" stroke-dasharray="3.11 3.11"/>
<line x1="63.4853" y1="243.958" x2="63.4853" y2="183.367" stroke="black" stroke-width="1.55361" stroke-dasharray="3.11 3.11"/>
<line x1="229.98" y1="227.645" x2="466.649" y2="227.645" stroke="black" stroke-width="1.55361" stroke-dasharray="5.18 5.18"/>
<line x1="530.346" y1="95.07" x2="621.491" y2="95.07" stroke="black" stroke-width="1.55361" stroke-dasharray="3.11 3.11"/>
<rect x="204.864" y="108.535" width="282.757" height="114.449" rx="6.99125" stroke="black" stroke-width="1.55361"/>
<line x1="167.059" y1="19.7198" x2="167.059" y2="287.46" stroke="black" stroke-width="1.55361" stroke-dasharray="5.18 5.18"/>
</svg>
