<svg width="1183" height="767" viewBox="0 0 1183 767" fill="none" xmlns="http://www.w3.org/2000/svg">
<path d="M847.214 35.3438L853.484 38.7009C853.845 38.8944 854.29 38.8349 854.588 38.553L859.843 33.5793C860.067 33.3667 860.432 33.5682 860.372 33.8716L858.981 40.8787C858.899 41.2898 859.096 41.7058 859.465 41.9036L865.696 45.2395C865.966 45.3843 865.894 45.7904 865.591 45.8336L858.446 46.8478C858.045 46.9047 857.724 47.2084 857.646 47.6051L856.24 54.6836C856.181 54.9845 855.771 55.034 855.641 54.756L852.653 48.3517C852.476 47.972 852.071 47.7527 851.656 47.8116L844.583 48.8156C844.277 48.8591 844.096 48.4835 844.32 48.2709L849.575 43.2972C849.873 43.0153 849.957 42.5745 849.784 42.2029L846.776 35.7579C846.647 35.4813 846.944 35.1998 847.214 35.3438Z" fill="black" stroke="black" stroke-width="0.634811"/>
<path d="M1094.5 260.065L1099.37 265.678C1099.65 266.001 1100.1 266.109 1100.5 265.945L1107.48 263.055C1107.78 262.931 1108.06 263.264 1107.89 263.537L1103.92 269.852C1103.68 270.223 1103.72 270.702 1104.01 271.033L1108.84 276.61C1109.05 276.852 1108.83 277.221 1108.51 277.15L1101.17 275.474C1100.75 275.38 1100.33 275.557 1100.1 275.914L1096.09 282.294C1095.92 282.565 1095.5 282.46 1095.48 282.141L1094.96 274.78C1094.92 274.344 1094.61 273.979 1094.19 273.881L1086.91 272.222C1086.6 272.15 1086.56 271.716 1086.86 271.593L1093.84 268.702C1094.24 268.539 1094.48 268.14 1094.45 267.713L1093.92 260.305C1093.9 259.987 1094.29 259.824 1094.5 260.065Z" fill="black" stroke="black" stroke-width="0.662859"/>
<path d="M927.943 249.601L929.803 261.349C929.91 262.027 930.439 262.559 931.115 262.672L943.052 264.651C943.563 264.736 943.663 265.426 943.198 265.652L932.453 270.876C931.823 271.183 931.467 271.865 931.576 272.558L933.424 284.231C933.504 284.738 932.89 285.053 932.526 284.691L923.956 276.193C923.476 275.716 922.747 275.595 922.139 275.891L911.285 281.168C910.823 281.393 910.344 280.897 910.583 280.443L916.1 269.991C916.427 269.371 916.311 268.61 915.813 268.117L907.331 259.704C906.963 259.339 907.281 258.718 907.791 258.803L919.729 260.783C920.405 260.895 921.077 260.562 921.397 259.955L926.95 249.436C927.188 248.985 927.864 249.097 927.943 249.601Z" fill="black" stroke="black" stroke-width="1.06165"/>
<path d="M824.184 147.499L820.932 154.313C820.745 154.706 820.83 155.175 821.144 155.477L826.677 160.804C826.913 161.032 826.718 161.429 826.393 161.38L818.894 160.25C818.454 160.184 818.022 160.413 817.831 160.814L814.6 167.586C814.46 167.88 814.025 167.824 813.965 167.504L812.537 159.976C812.457 159.554 812.119 159.229 811.695 159.165L804.119 158.023C803.797 157.975 803.724 157.543 804.013 157.392L810.657 153.907C811.051 153.701 811.264 153.261 811.181 152.824L809.768 145.372C809.707 145.05 810.096 144.839 810.333 145.067L815.866 150.395C816.179 150.697 816.651 150.764 817.036 150.562L823.723 147.055C824.01 146.905 824.323 147.206 824.184 147.499Z" fill="black" stroke="black" stroke-width="0.673926"/>
<path d="M697.066 176.02L692.445 179.45C692.179 179.648 692.069 179.994 692.173 180.309L693.999 185.872C694.077 186.109 693.804 186.307 693.603 186.158L688.954 182.722C688.682 182.52 688.309 182.521 688.037 182.723L683.445 186.132C683.246 186.28 682.973 186.087 683.047 185.85L684.77 180.27C684.867 179.958 684.755 179.618 684.492 179.423L679.796 175.952C679.597 175.804 679.702 175.488 679.95 175.489L685.669 175.511C686.008 175.513 686.308 175.292 686.408 174.968L688.114 169.445C688.188 169.206 688.525 169.203 688.603 169.441L690.43 175.003C690.534 175.319 690.827 175.532 691.159 175.533L696.914 175.557C697.161 175.557 697.264 175.872 697.066 176.02Z" fill="black" stroke="black" stroke-width="0.513678"/>
<path d="M473.685 109.559L468.964 117.295C468.692 117.741 468.736 118.311 469.073 118.71L475.024 125.753C475.278 126.054 474.996 126.504 474.614 126.405L465.799 124.133C465.282 123.999 464.739 124.22 464.461 124.676L459.77 132.363C459.566 132.697 459.054 132.576 459.021 132.186L458.244 123.024C458.2 122.51 457.837 122.08 457.338 121.951L448.433 119.656C448.054 119.558 448.021 119.033 448.384 118.888L456.746 115.546C457.242 115.348 457.55 114.849 457.505 114.316L456.735 105.246C456.701 104.853 457.192 104.65 457.447 104.951L463.397 111.993C463.735 112.392 464.289 112.531 464.774 112.337L473.19 108.973C473.551 108.828 473.888 109.227 473.685 109.559Z" fill="black" stroke="black" stroke-width="0.808911"/>
<path d="M307.934 60.482L301.814 65.3096C301.462 65.5879 301.327 66.0608 301.479 66.4834L304.173 73.9411C304.288 74.2599 303.926 74.5384 303.647 74.3449L297.218 69.8776C296.841 69.6155 296.337 69.6309 295.976 69.9153L289.896 74.7124C289.632 74.9206 289.255 74.6704 289.345 74.3464L291.457 66.7248C291.575 66.2976 291.411 65.8422 291.046 65.5892L284.552 61.0764C284.276 60.8845 284.405 60.4515 284.741 60.443L292.484 60.2469C292.943 60.2352 293.341 59.9248 293.463 59.4823L295.553 51.9375C295.644 51.6108 296.101 51.5934 296.216 51.9122L298.91 59.3699C299.062 59.7925 299.468 60.0699 299.918 60.0586L307.709 59.8612C308.044 59.8527 308.196 60.2749 307.934 60.482Z" fill="black" stroke="black" stroke-width="0.695691"/>
<path d="M29.846 242.916L27.211 249.132C27.0591 249.49 27.1536 249.906 27.4457 250.163L32.5997 254.704C32.82 254.898 32.6608 255.26 32.3688 255.23L25.6244 254.517C25.2288 254.475 24.8524 254.697 24.6971 255.063L22.0788 261.24C21.9651 261.508 21.5749 261.475 21.5081 261.192L19.935 254.524C19.8469 254.15 19.5322 253.873 19.1503 253.832L12.3372 253.112C12.0476 253.081 11.9656 252.698 12.2173 252.552L18.0153 249.176C18.3591 248.976 18.5316 248.574 18.4403 248.187L16.8831 241.587C16.8157 241.301 17.1552 241.097 17.3756 241.291L22.5296 245.832C22.8216 246.089 23.2456 246.131 23.582 245.935L29.4169 242.538C29.6673 242.392 29.959 242.649 29.846 242.916Z" fill="black" stroke="black" stroke-width="0.602651"/>
<path d="M381.982 253.566L378.908 260.818C378.731 261.236 378.841 261.72 379.182 262.02L385.194 267.317C385.451 267.543 385.265 267.966 384.925 267.93L377.057 267.099C376.596 267.05 376.157 267.308 375.976 267.736L372.922 274.941C372.789 275.254 372.334 275.215 372.256 274.885L370.421 267.107C370.318 266.671 369.951 266.347 369.505 266.3L361.558 265.46C361.22 265.424 361.125 264.978 361.418 264.807L368.182 260.869C368.583 260.635 368.784 260.167 368.677 259.716L366.861 252.016C366.782 251.683 367.178 251.445 367.435 251.672L373.447 256.968C373.788 257.268 374.283 257.317 374.675 257.088L381.481 253.125C381.773 252.955 382.114 253.255 381.982 253.566Z" fill="black" stroke="black" stroke-width="0.702976"/>
<path d="M166.003 129.342C159.901 103.664 178.608 82.415 188.248 75C162.507 76.2711 157.357 78.2367 140.898 96.6095C127.233 111.863 125.055 128.388 131.411 149.998C137.767 171.607 153.8 188.069 183.799 191.628C213.798 195.187 232.95 172.349 238.776 160.485C219.073 173.832 173.63 161.438 166.003 129.342Z" fill="black" stroke="black" stroke-width="0.635573"/>
<path d="M1163.95 190.135L1035.12 196.755C1025.93 196.56 1007.96 190.44 1009.59 167.527C1011.21 144.613 1032.05 140.172 1042.26 140.815C1042.04 129.979 1048.32 106.759 1075.24 100.57C1102.15 94.3802 1114.26 119.592 1116.95 132.972C1120.28 129.463 1130.53 124.264 1144.92 131.535C1159.31 138.806 1158.16 152.216 1155.79 158.012C1158.74 157.026 1166.47 157.363 1173.75 166.601C1181.04 175.84 1170.25 186.14 1163.95 190.135Z" stroke="black" stroke-width="3"/>
<path d="M338.779 189.427L195.896 205.77C185.659 206.193 165.237 200.637 165.449 175.028C165.662 149.42 188.532 143.026 199.941 143.031C198.938 130.989 204.311 104.716 233.83 95.953C263.349 87.1904 278.58 114.399 282.505 129.098C285.96 124.962 296.998 118.463 313.518 125.551C330.039 132.638 329.697 147.638 327.462 154.253C330.679 152.95 339.3 152.786 348.048 162.558C356.796 172.329 345.514 184.542 338.779 189.427Z" stroke="black" stroke-width="3"/>
<path d="M411 546C409.5 549.833 403.2 555 398 547" stroke="white" stroke-linecap="round"/>
<path d="M411.5 545C413.167 548 417.8 551.8 423 543" stroke="white" stroke-linecap="round"/>
<path d="M417 532C415.833 536 411.3 542.7 402.5 537.5" stroke="white" stroke-linecap="round"/>
<circle r="4" transform="matrix(-1 0 0 1 369 527)" fill="white"/>
<circle r="4" transform="matrix(-1 0 0 1 421 510)" fill="white"/>
<path d="M621.813 9.01636L628.223 17.2636C628.593 17.739 629.225 17.9245 629.793 17.724L639.813 14.186C640.242 14.0348 640.611 14.5231 640.349 14.8943L634.301 23.4671C633.946 23.97 633.961 24.6457 634.339 25.1317L640.709 33.3268C640.985 33.6825 640.646 34.1846 640.213 34.0612L630.02 31.1578C629.448 30.995 628.836 31.2111 628.494 31.6965L622.383 40.3566C622.124 40.7248 621.545 40.5468 621.536 40.0963L621.348 29.7185C621.337 29.1031 620.925 28.5674 620.333 28.3988L610.243 25.5247C609.806 25.4002 609.787 24.788 610.215 24.6368L620.235 21.0988C620.803 20.8983 621.179 20.3568 621.168 19.7547L620.979 9.31088C620.971 8.86276 621.538 8.66248 621.813 9.01636Z" fill="black" stroke="black" stroke-width="0.932332"/>
<path d="M467.825 478.389C432.667 452.959 392.73 433.739 350.293 421.824C307.855 409.909 263.75 405.533 220.494 408.947C177.238 412.361 135.679 423.496 98.1898 441.719C60.7005 459.941 28.0151 484.893 1.99986 515.15" stroke="black" stroke-width="3"/>
<path d="M1182 535.645C1129.51 492.323 1067.19 457.958 998.603 434.513C930.017 411.067 856.508 399 782.271 399C708.035 399 634.525 411.067 565.939 434.513C497.354 457.958 435.035 492.323 382.542 535.645C330.049 578.967 288.409 630.397 260 687" stroke="black" stroke-width="3"/>
<path d="M120.497 365.292L104.768 361.673L85.2229 370.288L72.4207 383.03L68.1414 404.806L77.4251 427.318L67.9201 436.368L60.581 448.301L59.9007 462.863L62.743 477.726L74.4583 490.085L89.4144 497.754L102.893 496.994L117.756 494.151L118.63 509.627L121.501 524.989L132.133 535.907L145.092 543.689L160.096 543.343L173.933 540.058L183.937 530.979L193.358 520.432L205.601 533.262L221.97 539.349L238.443 538.419L253.609 532.054L265.763 507.83L264.523 485.865L287.712 488.562L300.465 483.836L313.078 476.614L319.222 461.243L320.345 445.655L314.479 430.461L303.903 420.542L295.731 399.97L280.352 384.812L284.885 367.529L280.903 350.226L268.133 336.925L253.676 329.228L240.697 329.96L227.83 332.69L210.733 349.18L203.096 338.093L192.604 329.671L180.812 324.828L169.745 323.95L154.995 328.789L141.138 340.589L135.522 356.431L135.453 372.961L120.497 365.292Z" fill="white" stroke="white" stroke-width="2" stroke-linecap="round"/>
<path d="M135.247 373.017C131.615 369.314 127.288 366.363 122.515 364.332C117.742 362.301 112.616 361.23 107.429 361.18C102.242 361.13 97.0957 362.103 92.2846 364.042C87.4734 365.981 83.0913 368.849 79.3884 372.481C75.6855 376.114 72.7343 380.44 70.7034 385.213C68.6725 389.986 67.6016 395.113 67.5519 400.3C67.5022 405.487 68.4746 410.633 70.4136 415.444C72.3527 420.255 75.2203 424.637 78.8529 428.34" stroke="black" stroke-width="3"/>
<path d="M77.4148 426.214C72.9568 428.866 69.065 432.37 65.9613 436.526C62.8577 440.683 60.603 445.409 59.3262 450.437C58.0493 455.465 57.7752 460.695 58.5195 465.828C59.2639 470.962 61.012 475.898 63.6642 480.356C66.3164 484.814 69.8206 488.706 73.9769 491.81C78.1332 494.913 82.86 497.168 87.8877 498.445C92.9153 499.722 98.1451 499.996 103.279 499.251C108.412 498.507 113.349 496.759 117.807 494.107" stroke="black" stroke-width="3"/>
<path d="M118.284 493.219C116.597 498.124 115.892 503.314 116.211 508.491C116.529 513.669 117.864 518.733 120.139 523.394C122.414 528.056 125.585 532.224 129.471 535.66C133.357 539.096 137.882 541.733 142.787 543.42C147.692 545.108 152.882 545.812 158.059 545.494C163.237 545.176 168.301 543.841 172.962 541.566C177.624 539.29 181.792 536.119 185.228 532.233C188.664 528.347 191.301 523.823 192.988 518.918" stroke="black" stroke-width="3"/>
<path d="M192.588 519.999C194.943 524.62 198.185 528.733 202.13 532.102C206.074 535.471 210.643 538.03 215.577 539.633C220.51 541.236 225.711 541.852 230.882 541.445C236.053 541.038 241.093 539.616 245.715 537.261C250.337 534.907 254.45 531.664 257.819 527.72C261.188 523.776 263.747 519.206 265.35 514.273C266.953 509.34 267.568 504.139 267.161 498.968C266.755 493.797 265.333 488.756 262.978 484.134" stroke="black" stroke-width="3"/>
<path d="M261.007 484.116C265.366 486.929 270.236 488.856 275.339 489.786C280.442 490.717 285.678 490.633 290.749 489.54C295.82 488.447 300.625 486.366 304.892 483.416C309.158 480.465 312.802 476.704 315.614 472.345C318.427 467.987 320.354 463.117 321.284 458.014C322.215 452.911 322.131 447.674 321.038 442.604C319.945 437.533 317.864 432.727 314.914 428.461C311.964 424.194 308.202 420.551 303.843 417.738" stroke="black" stroke-width="3"/>
<path d="M303.492 421.614C303.459 416.427 302.404 411.297 300.389 406.517C298.373 401.738 295.436 397.402 291.744 393.757C288.053 390.113 283.68 387.231 278.875 385.277" stroke="black" stroke-width="3"/>
<path d="M211.284 349.864C209.694 344.926 207.148 340.35 203.79 336.396C200.432 332.443 196.328 329.189 191.713 326.821C187.097 324.454 182.061 323.019 176.891 322.597C171.721 322.176 166.518 322.778 161.581 324.367C156.643 325.956 152.067 328.503 148.113 331.861C144.159 335.219 140.906 339.323 138.538 343.938C136.171 348.553 134.735 353.59 134.314 358.76C133.893 363.93 134.494 369.132 136.084 374.07" stroke="black" stroke-width="3"/>
<path d="M280.623 386.065C283.078 381.496 284.609 376.488 285.129 371.326C285.649 366.165 285.147 360.952 283.652 355.985C282.157 351.018 279.699 346.394 276.417 342.377C273.135 338.36 269.094 335.029 264.524 332.574C259.955 330.119 254.947 328.587 249.786 328.068C244.624 327.548 239.412 328.05 234.444 329.545C229.477 331.04 224.853 333.498 220.836 336.78C216.819 340.062 213.488 344.103 211.033 348.672" stroke="black" stroke-width="3"/>
<path d="M325.82 344.2L316.293 332.758L306.335 330.827L297.342 333.505L291.744 342.107L290.3 352.329L275.113 343.796L260.123 348.259L256.319 358.775L255.808 370.758L244.328 362.346L230.917 363.891L222.656 374.511L223.827 388.033L216.499 400.414L219.168 413.489L230.314 420.778L245.933 419.799L254.941 428.131L266.51 429.99L278.326 420.352L281.166 405.228L292.678 416.486L304.326 415.873L316.549 408.97L319.429 392.61L330.191 404.092L345.515 400.753L353.736 391.37L353.801 377.888L365.65 371.096L368.513 362.9L369.016 354.999L361.395 345.845L350.392 341.778L342.388 336.818L336.098 336.244L325.82 344.2Z" fill="white" stroke="white" stroke-width="2" stroke-linecap="round"/>
<path d="M318.455 392.079C320.219 396.733 323.759 400.496 328.298 402.54C332.836 404.584 338.001 404.742 342.655 402.978C347.31 401.214 351.073 397.673 353.117 393.135C355.161 388.596 355.318 383.432 353.554 378.777" stroke="black" stroke-width="2"/>
<path d="M281.651 405.485C283.415 410.14 286.956 413.903 291.494 415.947C296.032 417.991 301.197 418.148 305.852 416.384C310.506 414.621 314.269 411.08 316.313 406.541C318.357 402.003 318.514 396.838 316.751 392.184" stroke="black" stroke-width="2"/>
<path d="M244.847 418.892C246.611 423.547 250.151 427.31 254.69 429.354C259.228 431.398 264.393 431.555 269.047 429.791C273.702 428.028 277.465 424.487 279.509 419.948C281.553 415.41 281.71 410.245 279.946 405.591" stroke="black" stroke-width="2"/>
<path d="M224.182 387.927C220.026 390.667 217.13 394.945 216.128 399.821C215.127 404.697 216.104 409.771 218.844 413.926C221.584 418.082 225.862 420.979 230.738 421.98C235.614 422.981 240.688 422.004 244.843 419.264" stroke="black" stroke-width="2"/>
<path d="M257.047 371.344C254.858 366.874 250.983 363.456 246.274 361.843C241.565 360.23 236.408 360.553 231.938 362.742C227.468 364.931 224.05 368.807 222.437 373.516C220.824 378.224 221.147 383.381 223.336 387.852" stroke="black" stroke-width="2"/>
<path d="M290.04 353.361C287.851 348.89 283.976 345.473 279.267 343.859C274.558 342.246 269.401 342.57 264.931 344.759C260.461 346.948 257.043 350.823 255.43 355.532C253.817 360.241 254.14 365.398 256.329 369.868" stroke="black" stroke-width="2"/>
<path d="M326.2 344.338C325.065 339.491 322.051 335.294 317.822 332.669C313.593 330.045 308.494 329.208 303.648 330.343C298.801 331.477 294.604 334.491 291.979 338.72C289.355 342.949 288.518 348.048 289.653 352.895" stroke="black" stroke-width="2"/>
<path d="M351.153 341.901C347.559 337.458 342.832 335.072 338.012 335.267C333.191 335.462 328.673 338.224 325.45 342.943" stroke="black" stroke-width="2"/>
<path d="M352.046 378.841C357.019 378.636 361.707 376.465 365.079 372.803C368.451 369.142 370.231 364.291 370.026 359.318C369.822 354.345 367.65 349.656 363.989 346.284C360.328 342.912 355.477 341.132 350.503 341.337" stroke="black" stroke-width="2"/>
<path d="M370.589 409.605C365.033 416.155 353.472 411.031 348.385 407.65L346.448 402.515C356.946 403.061 376.145 403.055 370.589 409.605Z" fill="black" stroke="black" stroke-width="2"/>
<path d="M263.27 444.825C271.504 447.269 278.379 436.654 280.788 431.042L278.444 423.172C269.955 429.372 255.036 442.382 263.27 444.825Z" fill="black" stroke="black" stroke-width="2"/>
<path d="M343.569 491.491C320.422 500.342 290.923 450.325 279.067 424.21L281.667 416.501L282.282 408.975C287.368 412.356 285.352 420.38 304.174 416.734C327.703 412.175 313.035 387.579 320.505 397.593C326.481 405.605 341.385 406.062 345.587 402.363C354.248 427.798 366.717 482.64 343.569 491.491Z" fill="black" stroke="black" stroke-width="2"/>
<circle cx="335.297" cy="419.743" r="2.77251" transform="rotate(-16.5819 335.297 419.743)" fill="white"/>
<circle cx="305.238" cy="431.142" r="2.77251" transform="rotate(-16.5819 305.238 431.142)" fill="white"/>
<path d="M343.892 459.185C344.495 460.582 344.769 462.099 344.693 463.618C344.616 465.138 344.191 466.619 343.45 467.948C342.709 469.277 341.672 470.417 340.42 471.281C339.167 472.145 337.733 472.71 336.228 472.931C334.723 473.151 333.187 473.023 331.739 472.556C330.291 472.088 328.971 471.294 327.879 470.234C326.787 469.174 325.954 467.877 325.444 466.444" stroke="white" stroke-width="2" stroke-linecap="round"/>
<path d="M338.365 472.643L340.373 479.389" stroke="white" stroke-width="2" stroke-linecap="round"/>
<path d="M351.79 550.246L303.074 485.692L288.851 491.002L342.478 557.585L343.764 550L351.79 550.246Z" fill="black" stroke="black" stroke-width="3" stroke-linecap="round"/>
<path d="M53.0991 555.285L86.4469 498.423L99.5954 500.685L63.4274 560.819L59.5648 554.344L53.0991 555.285Z" fill="black" stroke="black" stroke-width="3" stroke-linecap="round"/>
<path d="M290.848 583.099L264.991 517.698L258.901 529.929L280.928 586.041L284.126 580.543L290.848 583.099Z" fill="black" stroke="black" stroke-width="3" stroke-linecap="round"/>
<path d="M94.3078 569.848L116.398 501.239L115.716 510.703L120.586 526.543L104.153 572.542L100.022 566.898L94.3078 569.848Z" fill="black" stroke="black" stroke-width="3" stroke-linecap="round"/>
<path d="M512.002 523.356L495.903 522.198L477.915 533.716L467.224 548.275L466.343 570.45L478.978 591.267L470.977 601.671L465.56 614.59L467.127 629.083L472.221 643.333L485.697 653.744L501.654 659.022L514.855 656.198L529.105 651.104L532.348 666.261L537.546 681L549.731 690.154L563.732 695.851L578.505 693.201L591.672 687.828L600.162 677.319L607.848 665.449L621.918 676.244L639.028 679.742L655.163 676.29L669.17 667.669L677.455 641.865L672.852 620.352L696.18 619.452L708.056 612.821L719.408 603.745L723.115 587.612L721.829 572.037L713.697 557.926L701.721 549.75L690.483 530.679L672.957 518.067L674.778 500.292L668.184 483.807L653.521 472.627L638.052 467.244L625.34 469.964L613.046 474.639L598.687 493.562L589.436 483.781L577.774 477.072L565.378 474.099L554.308 474.934L540.476 481.983L528.599 495.773L525.485 512.29L527.959 528.634L512.002 523.356Z" fill="white" stroke="white" stroke-width="2" stroke-linecap="round"/>
<path d="M527.764 528.721C523.605 525.621 518.876 523.37 513.848 522.097C508.819 520.824 503.589 520.554 498.456 521.302C493.323 522.051 488.388 523.803 483.932 526.458C479.476 529.114 475.587 532.621 472.487 536.78C469.386 540.939 467.135 545.667 465.862 550.696C464.59 555.725 464.32 560.955 465.068 566.088C465.816 571.221 467.568 576.156 470.224 580.612C472.88 585.068 476.387 588.957 480.546 592.057" stroke="black" stroke-width="2"/>
<path d="M478.798 590.177C474.801 593.483 471.494 597.544 469.066 602.128C466.639 606.712 465.138 611.73 464.649 616.894C464.16 622.058 464.694 627.268 466.218 632.226C467.743 637.184 470.229 641.793 473.535 645.79C476.842 649.787 480.902 653.094 485.487 655.522C490.071 657.95 495.088 659.451 500.252 659.939C505.416 660.428 510.626 659.895 515.584 658.37C520.542 656.845 525.151 654.359 529.148 651.053" stroke="black" stroke-width="2"/>
<path d="M529.484 650.103C528.571 655.209 528.672 660.445 529.783 665.512C530.893 670.579 532.991 675.377 535.956 679.634C538.921 683.89 542.695 687.521 547.063 690.318C551.431 693.116 556.307 695.026 561.413 695.939C566.52 696.852 571.756 696.751 576.823 695.64C581.89 694.53 586.688 692.433 590.945 689.468C595.201 686.503 598.832 682.728 601.629 678.36C604.427 673.992 606.337 669.116 607.25 664.01" stroke="black" stroke-width="2"/>
<path d="M607.021 665.139C610.059 669.344 613.895 672.91 618.31 675.632C622.726 678.354 627.634 680.18 632.755 681.006C637.876 681.831 643.11 681.64 648.157 680.443C653.204 679.246 657.966 677.066 662.171 674.029C666.376 670.991 669.941 667.155 672.664 662.74C675.386 658.324 677.212 653.416 678.038 648.295C678.863 643.174 678.672 637.94 677.475 632.893C676.277 627.846 674.098 623.084 671.06 618.879" stroke="black" stroke-width="2"/>
<path d="M669.11 619.164C673.849 621.273 678.957 622.428 684.143 622.563C689.328 622.698 694.49 621.811 699.332 619.951C704.174 618.091 708.603 615.296 712.365 611.725C716.127 608.154 719.149 603.876 721.258 599.137C723.367 594.398 724.522 589.29 724.657 584.105C724.792 578.919 723.905 573.758 722.045 568.916C720.185 564.073 717.39 559.645 713.819 555.882C710.248 552.12 705.97 549.098 701.231 546.989" stroke="black" stroke-width="2"/>
<path d="M701.48 550.873C700.65 545.752 698.819 540.846 696.093 536.433C693.366 532.02 689.797 528.187 685.589 525.154C681.382 522.12 676.618 519.945 671.569 518.753" stroke="black" stroke-width="2"/>
<path d="M599.337 494.153C597.007 489.518 593.788 485.388 589.862 481.997C585.936 478.607 581.38 476.023 576.456 474.393C571.531 472.764 566.334 472.12 561.161 472.498C555.987 472.877 550.939 474.271 546.305 476.601C541.67 478.93 537.54 482.15 534.149 486.076C530.759 490.002 528.175 494.557 526.545 499.482C524.915 504.406 524.272 509.604 524.65 514.777C525.029 519.95 526.423 524.999 528.753 529.633" stroke="black" stroke-width="2"/>
<path d="M673.418 519.263C675.141 514.371 675.884 509.186 675.604 504.007C675.324 498.827 674.027 493.753 671.786 489.075C669.545 484.397 666.405 480.206 662.544 476.741C658.684 473.277 654.179 470.606 649.286 468.883C644.394 467.159 639.21 466.416 634.03 466.696C628.85 466.976 623.776 468.274 619.098 470.515C614.42 472.755 610.229 475.896 606.764 479.756C603.3 483.617 600.629 488.122 598.906 493.014" stroke="black" stroke-width="2"/>
<path d="M711.641 470.946L700.468 461.105L690.332 460.729L681.857 464.757L677.648 474.118L677.793 484.44L661.474 478.344L647.349 485.059L645.207 496.034L646.544 507.954L633.907 501.406L620.894 504.995L614.364 516.758L617.6 529.939L612.262 543.3L616.91 555.81L629.044 561.298L644.326 557.929L654.509 564.777L666.226 564.835L676.42 553.495L676.901 538.114L690.007 547.469L701.422 545.072L712.439 536.372L712.769 519.764L725.168 529.454L739.797 523.799L746.477 513.263L744.469 499.931L755.132 491.399L756.701 482.86L755.983 474.976L747.045 467.103L735.549 464.776L726.877 461.105L720.573 461.505L711.641 470.946Z" fill="white" stroke="white" stroke-width="2" stroke-linecap="round"/>
<path d="M711.724 519.389C714.183 523.717 718.26 526.891 723.059 528.212C727.857 529.534 732.985 528.896 737.313 526.437C741.641 523.979 744.815 519.902 746.137 515.103C747.459 510.304 746.82 505.177 744.361 500.849" stroke="black" stroke-width="2"/>
<path d="M677.419 538.294C679.878 542.622 683.955 545.796 688.754 547.118C693.553 548.44 698.68 547.802 703.008 545.343C707.336 542.884 710.51 538.807 711.832 534.009C713.154 529.21 712.515 524.082 710.056 519.754" stroke="black" stroke-width="2"/>
<path d="M643.114 557.2C645.573 561.528 649.65 564.702 654.449 566.024C659.248 567.346 664.375 566.708 668.703 564.249C673.031 561.79 676.205 557.713 677.527 552.915C678.849 548.116 678.21 542.988 675.752 538.66" stroke="black" stroke-width="2"/>
<path d="M617.934 529.78C614.249 533.126 612.045 537.799 611.805 542.771C611.566 547.743 613.311 552.606 616.657 556.291C620.003 559.976 624.676 562.181 629.648 562.42C634.62 562.66 639.483 560.914 643.168 557.568" stroke="black" stroke-width="2"/>
<path d="M647.859 508.342C645.009 504.261 640.654 501.48 635.753 500.61C630.852 499.74 625.807 500.853 621.726 503.703C617.645 506.553 614.864 510.908 613.994 515.809C613.124 520.71 614.237 525.755 617.087 529.836" stroke="black" stroke-width="2"/>
<path d="M677.695 485.5C674.845 481.419 670.49 478.638 665.589 477.768C660.688 476.898 655.642 478.01 651.562 480.86C647.481 483.711 644.7 488.065 643.83 492.966C642.96 497.867 644.072 502.913 646.923 506.993" stroke="black" stroke-width="2"/>
<path d="M712.037 471.024C710.171 466.41 706.548 462.726 701.965 460.783C697.383 458.84 692.216 458.797 687.602 460.663C682.987 462.529 679.303 466.152 677.36 470.735C675.417 475.318 675.374 480.484 677.24 485.099" stroke="black" stroke-width="2"/>
<path d="M736.319 464.78C732.084 460.943 727.047 459.311 722.314 460.245C717.581 461.179 713.541 464.603 711.082 469.761" stroke="black" stroke-width="2"/>
<path d="M742.88 501.144C747.763 500.177 752.062 497.31 754.831 493.174C757.6 489.038 758.612 483.971 757.646 479.088C756.679 474.205 753.812 469.907 749.676 467.138C745.54 464.369 740.473 463.356 735.59 464.323" stroke="black" stroke-width="2"/>
<path d="M765.933 528.691C761.45 536.017 749.238 532.731 743.693 530.173L740.989 525.397C751.446 524.322 770.416 521.365 765.933 528.691Z" fill="black" stroke="black" stroke-width="2"/>
<path d="M665.305 579.992C673.817 581.141 678.979 569.596 680.496 563.68L676.97 556.264C669.535 563.695 656.793 578.844 665.305 579.992Z" fill="black" stroke="black" stroke-width="2"/>
<path d="M751.825 613.758C730.313 626.062 693.475 581.175 677.745 557.194L679.129 549.177L678.579 541.645C684.125 544.204 683.366 552.443 701.404 545.946C723.952 537.824 705.677 515.775 714.598 524.522C721.734 531.52 736.532 529.68 740.115 525.379C752.584 549.18 773.336 601.453 751.825 613.758Z" fill="black" stroke="black" stroke-width="2"/>
<circle cx="732.619" cy="544.135" r="2.77251" transform="rotate(-25.4261 732.619 544.135)" fill="white"/>
<circle cx="704.67" cy="560.019" r="2.77251" transform="rotate(-25.4261 704.67 560.019)" fill="white"/>
<path d="M747.177 581.786C747.988 583.074 748.491 584.53 748.649 586.043C748.807 587.557 748.614 589.086 748.087 590.513C747.559 591.94 746.71 593.226 745.605 594.272C744.501 595.318 743.17 596.097 741.717 596.546C740.263 596.996 738.726 597.106 737.224 596.866C735.721 596.627 734.294 596.045 733.053 595.165C731.811 594.286 730.788 593.133 730.064 591.795" stroke="white" stroke-width="2" stroke-linecap="round"/>
<path d="M743.784 595.934L746.806 602.29" stroke="white" stroke-width="2" stroke-linecap="round"/>
<path d="M768.981 670.55L710.919 614.253L697.682 621.687L760.908 679.233L761.013 671.541L768.981 670.55Z" fill="black" stroke="black" stroke-width="3" stroke-linecap="round"/>
<path d="M474.616 721.453L498.825 660.139L512.165 660.353L485.673 725.333L480.861 719.529L474.616 721.453Z" fill="black" stroke="black" stroke-width="3" stroke-linecap="round"/>
<path d="M713.815 712.382L678.211 651.735L674.073 664.756L704.465 716.814L706.78 710.89L713.815 712.382Z" fill="black" stroke="black" stroke-width="3" stroke-linecap="round"/>
<path d="M517.574 729.506L528.854 658.316L529.635 667.773L536.882 682.676L527.717 730.655L522.767 725.713L517.574 729.506Z" fill="black" stroke="black" stroke-width="3" stroke-linecap="round"/>
<path d="M1086.85 324.356L1102.95 323.198L1120.94 334.716L1131.63 349.275L1132.51 371.45L1119.88 392.267L1127.88 402.671L1133.29 415.59L1131.73 430.083L1126.63 444.333L1113.16 454.744L1097.2 460.022L1084 457.198L1069.75 452.104L1066.51 467.261L1061.31 482L1049.12 491.154L1035.12 496.851L1020.35 494.201L1007.18 488.828L998.692 478.319L991.006 466.449L976.936 477.244L959.826 480.742L943.691 477.29L929.684 468.669L921.399 442.865L926.002 421.352L902.674 420.452L890.798 413.821L879.446 404.745L875.739 388.612L877.025 373.037L885.157 358.926L897.133 350.75L908.371 331.679L925.897 319.067L924.076 301.292L930.67 284.807L945.333 273.627L960.802 268.244L973.514 270.964L985.808 275.639L1000.17 294.562L1009.42 284.781L1021.08 278.072L1033.48 275.099L1044.55 275.934L1058.38 282.983L1070.26 296.773L1073.37 313.29L1070.9 329.634L1086.85 324.356Z" fill="white" stroke="white" stroke-width="2" stroke-linecap="round"/>
<path d="M1071.09 329.721C1075.25 326.621 1079.98 324.37 1085.01 323.097C1090.03 321.824 1095.27 321.554 1100.4 322.302C1105.53 323.051 1110.47 324.803 1114.92 327.458C1119.38 330.114 1123.27 333.621 1126.37 337.78C1129.47 341.939 1131.72 346.667 1132.99 351.696C1134.26 356.725 1134.53 361.955 1133.79 367.088C1133.04 372.221 1131.29 377.156 1128.63 381.612C1125.97 386.068 1122.47 389.957 1118.31 393.057" stroke="black" stroke-width="2"/>
<path d="M1120.06 391.177C1124.05 394.483 1127.36 398.544 1129.79 403.128C1132.22 407.712 1133.72 412.73 1134.21 417.894C1134.69 423.058 1134.16 428.268 1132.64 433.226C1131.11 438.184 1128.63 442.793 1125.32 446.79C1122.01 450.787 1117.95 454.094 1113.37 456.522C1108.78 458.95 1103.77 460.451 1098.6 460.939C1093.44 461.428 1088.23 460.895 1083.27 459.37C1078.31 457.845 1073.7 455.359 1069.71 452.053" stroke="black" stroke-width="2"/>
<path d="M1069.37 451.103C1070.28 456.209 1070.18 461.445 1069.07 466.512C1067.96 471.579 1065.86 476.377 1062.9 480.634C1059.93 484.89 1056.16 488.521 1051.79 491.318C1047.42 494.116 1042.55 496.026 1037.44 496.939C1032.33 497.852 1027.1 497.751 1022.03 496.64C1016.96 495.53 1012.17 493.433 1007.91 490.468C1003.65 487.503 1000.02 483.728 997.225 479.36C994.427 474.992 992.517 470.116 991.604 465.01" stroke="black" stroke-width="2"/>
<path d="M991.833 466.139C988.795 470.344 984.959 473.91 980.544 476.632C976.128 479.354 971.22 481.18 966.099 482.006C960.978 482.831 955.744 482.64 950.697 481.443C945.65 480.246 940.888 478.066 936.683 475.029C932.478 471.991 928.913 468.155 926.19 463.74C923.468 459.324 921.642 454.416 920.816 449.295C919.991 444.174 920.182 438.94 921.379 433.893C922.577 428.846 924.756 424.084 927.794 419.879" stroke="black" stroke-width="2"/>
<path d="M929.744 420.164C925.005 422.273 919.897 423.428 914.711 423.563C909.526 423.698 904.365 422.811 899.522 420.951C894.68 419.091 890.251 416.296 886.489 412.725C882.727 409.154 879.705 404.876 877.596 400.137C875.487 395.398 874.332 390.29 874.197 385.105C874.062 379.919 874.949 374.758 876.809 369.916C878.669 365.073 881.464 360.645 885.035 356.882C888.607 353.12 892.884 350.098 897.623 347.989" stroke="black" stroke-width="2"/>
<path d="M897.374 351.873C898.204 346.752 900.035 341.846 902.762 337.433C905.488 333.02 909.057 329.187 913.265 326.154C917.472 323.12 922.236 320.945 927.285 319.753" stroke="black" stroke-width="2"/>
<path d="M999.517 295.153C1001.85 290.518 1005.07 286.388 1008.99 282.997C1012.92 279.607 1017.47 277.023 1022.4 275.393C1027.32 273.764 1032.52 273.12 1037.69 273.498C1042.87 273.877 1047.92 275.271 1052.55 277.601C1057.18 279.93 1061.31 283.15 1064.7 287.076C1068.1 291.002 1070.68 295.557 1072.31 300.482C1073.94 305.406 1074.58 310.604 1074.2 315.777C1073.83 320.95 1072.43 325.999 1070.1 330.633" stroke="black" stroke-width="2"/>
<path d="M925.437 320.263C923.713 315.371 922.97 310.186 923.25 305.007C923.53 299.827 924.827 294.753 927.068 290.075C929.309 285.397 932.449 281.206 936.31 277.741C940.17 274.277 944.676 271.606 949.568 269.883C954.461 268.159 959.645 267.416 964.824 267.696C970.004 267.976 975.078 269.274 979.756 271.515C984.434 273.755 988.625 276.896 992.09 280.756C995.555 284.617 998.225 289.122 999.948 294.014" stroke="black" stroke-width="2"/>
<path d="M887.214 271.946L898.386 262.105L908.523 261.729L916.998 265.757L921.206 275.118L921.062 285.44L937.38 279.344L951.505 286.059L953.647 297.034L952.31 308.954L964.947 302.406L977.961 305.995L984.491 317.758L981.255 330.939L986.592 344.3L981.944 356.81L969.811 362.298L954.528 358.929L944.345 365.777L932.629 365.835L922.434 354.495L921.954 339.114L908.848 348.469L897.432 346.072L886.416 337.372L886.086 320.764L873.686 330.454L859.058 324.799L852.377 314.263L854.386 300.931L843.722 292.399L842.154 283.86L842.871 275.976L851.809 268.103L863.306 265.776L871.977 262.105L878.282 262.505L887.214 271.946Z" fill="white" stroke="white" stroke-width="2.34597" stroke-linecap="round"/>
<path d="M887.13 320.389C884.672 324.717 880.595 327.891 875.796 329.212C870.997 330.534 865.87 329.896 861.542 327.437C857.214 324.979 854.04 320.902 852.718 316.103C851.396 311.304 852.035 306.177 854.493 301.849" stroke="black" stroke-width="2"/>
<path d="M921.435 339.294C918.977 343.622 914.9 346.796 910.101 348.118C905.302 349.44 900.175 348.802 895.847 346.343C891.519 343.884 888.345 339.807 887.023 335.009C885.701 330.21 886.339 325.082 888.798 320.754" stroke="black" stroke-width="2"/>
<path d="M955.74 358.2C953.282 362.528 949.205 365.702 944.406 367.024C939.607 368.346 934.48 367.708 930.152 365.249C925.824 362.79 922.65 358.713 921.328 353.915C920.006 349.116 920.645 343.988 923.103 339.66" stroke="black" stroke-width="2"/>
<path d="M980.92 330.78C984.605 334.126 986.81 338.799 987.049 343.771C987.289 348.743 985.544 353.606 982.197 357.291C978.851 360.976 974.178 363.181 969.207 363.42C964.235 363.66 959.371 361.914 955.687 358.568" stroke="black" stroke-width="2"/>
<path d="M950.996 309.342C953.846 305.261 958.201 302.48 963.102 301.61C968.002 300.74 973.048 301.853 977.129 304.703C981.209 307.553 983.991 311.908 984.861 316.809C985.731 321.71 984.618 326.755 981.768 330.836" stroke="black" stroke-width="2"/>
<path d="M921.16 286.5C924.01 282.419 928.364 279.638 933.265 278.768C938.166 277.898 943.212 279.01 947.293 281.86C951.373 284.711 954.155 289.065 955.025 293.966C955.895 298.867 954.782 303.913 951.932 307.993" stroke="black" stroke-width="2"/>
<path d="M886.817 272.024C888.684 267.41 892.307 263.726 896.889 261.783C901.472 259.84 906.639 259.797 911.253 261.663C915.868 263.529 919.551 267.152 921.495 271.735C923.438 276.318 923.481 281.484 921.614 286.099" stroke="black" stroke-width="2"/>
<path d="M862.536 265.78C866.77 261.943 871.808 260.311 876.541 261.245C881.274 262.179 885.314 265.603 887.773 270.761" stroke="black" stroke-width="2"/>
<path d="M855.974 302.144C851.091 301.177 846.793 298.31 844.024 294.174C841.255 290.038 840.242 284.971 841.209 280.088C842.175 275.205 845.042 270.907 849.178 268.138C853.315 265.369 858.381 264.356 863.264 265.323" stroke="black" stroke-width="2.34597"/>
<path d="M832.921 329.691C837.404 337.017 849.616 333.731 855.162 331.173L857.865 326.397C847.409 325.322 828.438 322.365 832.921 329.691Z" fill="black" stroke="black" stroke-width="2.34597"/>
<path d="M933.549 380.992C925.037 382.141 919.876 370.596 918.359 364.68L921.885 357.264C929.319 364.695 942.061 379.844 933.549 380.992Z" fill="black" stroke="black" stroke-width="2.34597"/>
<path d="M847.03 414.758C868.541 427.062 905.379 382.175 921.109 358.194L919.725 350.177L920.275 342.645C914.729 345.204 915.488 353.443 897.45 346.946C874.902 338.824 893.177 316.775 884.257 325.522C877.12 332.52 862.323 330.68 858.739 326.379C846.27 350.18 825.518 402.453 847.03 414.758Z" fill="black" stroke="black" stroke-width="2.34597"/>
<circle r="2.77251" transform="matrix(-0.90314 -0.429347 -0.429347 0.90314 866.235 345.135)" fill="white"/>
<circle r="2.77251" transform="matrix(-0.90314 -0.429347 -0.429347 0.90314 894.184 361.019)" fill="white"/>
<path d="M851.678 382.786C850.867 384.074 850.363 385.53 850.205 387.043C850.048 388.557 850.24 390.086 850.768 391.513C851.296 392.94 852.145 394.226 853.249 395.272C854.354 396.318 855.684 397.097 857.138 397.546C858.591 397.996 860.128 398.106 861.631 397.866C863.133 397.627 864.56 397.045 865.802 396.165C867.044 395.286 868.066 394.133 868.791 392.795" stroke="white" stroke-width="1.85958" stroke-linecap="round"/>
<path d="M855.07 396.934L852.048 403.29" stroke="white" stroke-width="2.34597" stroke-linecap="round"/>
<path d="M829.873 471.55L887.935 415.253L901.173 422.687L837.946 480.233L837.842 472.541L829.873 471.55Z" fill="black" stroke="black" stroke-width="3" stroke-linecap="round"/>
<path d="M1124.24 522.453L1100.03 461.139L1086.69 461.353L1113.18 526.333L1117.99 520.529L1124.24 522.453Z" fill="black" stroke="black" stroke-width="3" stroke-linecap="round"/>
<path d="M885.04 513.382L920.644 452.735L924.782 465.756L894.389 517.814L892.074 511.89L885.04 513.382Z" fill="black" stroke="black" stroke-width="3" stroke-linecap="round"/>
<path d="M1081.28 530.506L1070 459.316L1069.22 468.773L1061.97 483.676L1071.14 531.655L1076.09 526.713L1081.28 530.506Z" fill="black" stroke="black" stroke-width="3" stroke-linecap="round"/>
</svg>
