<svg width="1181" height="47" viewBox="0 0 1181 47" fill="none" xmlns="http://www.w3.org/2000/svg">
<ellipse cx="12.8096" cy="33.4439" rx="12.8096" ry="13.2091" fill="black"/>
<path d="M4.31567 0.5H21.3036V32.6005C21.3036 37.2916 17.5007 41.0945 12.8096 41.0945C8.11855 41.0945 4.31567 37.2916 4.31567 32.6005V0.5Z" fill="white" stroke="black"/>
<ellipse cx="47.8211" cy="33.4439" rx="12.8096" ry="13.2091" fill="black"/>
<path d="M39.3271 0.5H56.3151V32.6005C56.3151 37.2916 52.5122 41.0945 47.8211 41.0945C43.13 41.0945 39.3271 37.2916 39.3271 32.6005V0.5Z" fill="white" stroke="black"/>
<ellipse cx="82.8325" cy="33.4439" rx="12.8096" ry="13.2091" fill="black"/>
<path d="M74.3386 0.5H91.3265V32.6005C91.3265 37.2916 87.5237 41.0945 82.8326 41.0945C78.1415 41.0945 74.3386 37.2916 74.3386 32.6005V0.5Z" fill="white" stroke="black"/>
<ellipse cx="117.844" cy="33.4439" rx="12.8096" ry="13.2091" fill="black"/>
<path d="M109.35 0.5H126.338V32.6005C126.338 37.2916 122.535 41.0945 117.844 41.0945C113.153 41.0945 109.35 37.2916 109.35 32.6005V0.5Z" fill="white" stroke="black"/>
<ellipse cx="152.856" cy="33.4439" rx="12.8096" ry="13.2091" fill="black"/>
<path d="M144.362 0.5H161.35V32.6005C161.35 37.2916 157.547 41.0945 152.856 41.0945C148.165 41.0945 144.362 37.2916 144.362 32.6005V0.5Z" fill="white" stroke="black"/>
<ellipse cx="187.867" cy="33.4439" rx="12.8096" ry="13.2091" fill="black"/>
<path d="M179.373 0.5H196.361V32.6005C196.361 37.2916 192.558 41.0945 187.867 41.0945C183.176 41.0945 179.373 37.2916 179.373 32.6005V0.5Z" fill="white" stroke="black"/>
<ellipse cx="222.69" cy="33.7911" rx="12.8096" ry="13.2091" fill="black"/>
<path d="M214.196 0.847168H231.184V32.9477C231.184 37.6388 227.381 41.4416 222.69 41.4416C217.999 41.4416 214.196 37.6388 214.196 32.9477V0.847168Z" fill="white" stroke="black"/>
<ellipse cx="257.89" cy="33.4439" rx="12.8096" ry="13.2091" fill="black"/>
<path d="M249.396 0.5H266.384V32.6005C266.384 37.2916 262.582 41.0945 257.89 41.0945C253.199 41.0945 249.396 37.2916 249.396 32.6005V0.5Z" fill="white" stroke="black"/>
<ellipse cx="292.902" cy="33.4439" rx="12.8096" ry="13.2091" fill="black"/>
<path d="M284.408 0.5H301.396V32.6005C301.396 37.2916 297.593 41.0945 292.902 41.0945C288.211 41.0945 284.408 37.2916 284.408 32.6005V0.5Z" fill="white" stroke="black"/>
<ellipse cx="327.913" cy="33.4439" rx="12.8096" ry="13.2091" fill="black"/>
<path d="M319.419 0.5H336.407V32.6005C336.407 37.2916 332.604 41.0945 327.913 41.0945C323.222 41.0945 319.419 37.2916 319.419 32.6005V0.5Z" fill="white" stroke="black"/>
<ellipse cx="362.925" cy="33.4439" rx="12.8096" ry="13.2091" fill="black"/>
<path d="M354.431 0.5H371.419V32.6005C371.419 37.2916 367.616 41.0945 362.925 41.0945C358.234 41.0945 354.431 37.2916 354.431 32.6005V0.5Z" fill="white" stroke="black"/>
<ellipse cx="397.937" cy="33.4439" rx="12.8096" ry="13.2091" fill="black"/>
<path d="M389.443 0.5H406.431V32.6005C406.431 37.2916 402.628 41.0945 397.937 41.0945C393.246 41.0945 389.443 37.2916 389.443 32.6005V0.5Z" fill="white" stroke="black"/>
<ellipse cx="432.948" cy="33.4439" rx="12.8096" ry="13.2091" fill="black"/>
<path d="M424.454 0.5H441.442V32.6005C441.442 37.2916 437.639 41.0945 432.948 41.0945C428.257 41.0945 424.454 37.2916 424.454 32.6005V0.5Z" fill="white" stroke="black"/>
<ellipse cx="467.959" cy="33.4439" rx="12.8096" ry="13.2091" fill="black"/>
<path d="M459.466 0.5H476.453V32.6005C476.453 37.2916 472.651 41.0945 467.96 41.0945C463.268 41.0945 459.466 37.2916 459.466 32.6005V0.5Z" fill="white" stroke="black"/>
<ellipse cx="502.971" cy="33.4439" rx="12.8096" ry="13.2091" fill="black"/>
<path d="M494.477 0.5H511.465V32.6005C511.465 37.2916 507.662 41.0945 502.971 41.0945C498.28 41.0945 494.477 37.2916 494.477 32.6005V0.5Z" fill="white" stroke="black"/>
<ellipse cx="537.983" cy="33.4439" rx="12.8096" ry="13.2091" fill="black"/>
<path d="M529.489 0.5H546.477V32.6005C546.477 37.2916 542.674 41.0945 537.983 41.0945C533.292 41.0945 529.489 37.2916 529.489 32.6005V0.5Z" fill="white" stroke="black"/>
<ellipse cx="572.994" cy="33.4439" rx="12.8096" ry="13.2091" fill="black"/>
<path d="M564.5 0.5H581.488V32.6005C581.488 37.2916 577.685 41.0945 572.994 41.0945C568.303 41.0945 564.5 37.2916 564.5 32.6005V0.5Z" fill="white" stroke="black"/>
<ellipse cx="608.006" cy="33.4439" rx="12.8096" ry="13.2091" fill="black"/>
<path d="M599.512 0.5H616.5V32.6005C616.5 37.2916 612.697 41.0945 608.006 41.0945C603.315 41.0945 599.512 37.2916 599.512 32.6005V0.5Z" fill="white" stroke="black"/>
<ellipse cx="643.017" cy="33.4439" rx="12.8096" ry="13.2091" fill="black"/>
<path d="M634.523 0.5H651.511V32.6005C651.511 37.2916 647.708 41.0945 643.017 41.0945C638.326 41.0945 634.523 37.2916 634.523 32.6005V0.5Z" fill="white" stroke="black"/>
<ellipse cx="678.029" cy="33.4439" rx="12.8096" ry="13.2091" fill="black"/>
<path d="M669.535 0.5H686.523V32.6005C686.523 37.2916 682.72 41.0945 678.029 41.0945C673.338 41.0945 669.535 37.2916 669.535 32.6005V0.5Z" fill="white" stroke="black"/>
<ellipse cx="713.04" cy="33.4439" rx="12.8096" ry="13.2091" fill="black"/>
<path d="M704.546 0.5H721.534V32.6005C721.534 37.2916 717.731 41.0945 713.04 41.0945C708.349 41.0945 704.546 37.2916 704.546 32.6005V0.5Z" fill="white" stroke="black"/>
<ellipse cx="748.052" cy="33.4439" rx="12.8096" ry="13.2091" fill="black"/>
<path d="M739.558 0.5H756.546V32.6005C756.546 37.2916 752.743 41.0945 748.052 41.0945C743.361 41.0945 739.558 37.2916 739.558 32.6005V0.5Z" fill="white" stroke="black"/>
<ellipse cx="783.063" cy="33.4439" rx="12.8096" ry="13.2091" fill="black"/>
<path d="M774.57 0.5H791.558V32.6005C791.558 37.2916 787.755 41.0945 783.064 41.0945C778.372 41.0945 774.57 37.2916 774.57 32.6005V0.5Z" fill="white" stroke="black"/>
<ellipse cx="818.075" cy="33.4439" rx="12.8096" ry="13.2091" fill="black"/>
<path d="M809.581 0.5H826.569V32.6005C826.569 37.2916 822.766 41.0945 818.075 41.0945C813.384 41.0945 809.581 37.2916 809.581 32.6005V0.5Z" fill="white" stroke="black"/>
<ellipse cx="853.086" cy="33.4439" rx="12.8096" ry="13.2091" fill="black"/>
<path d="M844.593 0.5H861.581V32.6005C861.581 37.2916 857.778 41.0945 853.087 41.0945C848.396 41.0945 844.593 37.2916 844.593 32.6005V0.5Z" fill="white" stroke="black"/>
<ellipse cx="888.098" cy="33.4439" rx="12.8096" ry="13.2091" fill="black"/>
<path d="M879.604 0.5H896.592V32.6005C896.592 37.2916 892.789 41.0945 888.098 41.0945C883.407 41.0945 879.604 37.2916 879.604 32.6005V0.5Z" fill="white" stroke="black"/>
<ellipse cx="923.11" cy="33.4439" rx="12.8096" ry="13.2091" fill="black"/>
<path d="M914.616 0.5H931.604V32.6005C931.604 37.2916 927.801 41.0945 923.11 41.0945C918.419 41.0945 914.616 37.2916 914.616 32.6005V0.5Z" fill="white" stroke="black"/>
<ellipse cx="958.121" cy="33.4439" rx="12.8096" ry="13.2091" fill="black"/>
<path d="M949.627 0.5H966.615V32.6005C966.615 37.2916 962.812 41.0945 958.121 41.0945C953.43 41.0945 949.627 37.2916 949.627 32.6005V0.5Z" fill="white" stroke="black"/>
<ellipse cx="993.133" cy="33.4439" rx="12.8096" ry="13.2091" fill="black"/>
<path d="M984.639 0.5H1001.63V32.6005C1001.63 37.2916 997.824 41.0945 993.133 41.0945C988.442 41.0945 984.639 37.2916 984.639 32.6005V0.5Z" fill="white" stroke="black"/>
<ellipse cx="1028.14" cy="33.4439" rx="12.8096" ry="13.2091" fill="black"/>
<path d="M1019.65 0.5H1036.64V32.6005C1036.64 37.2916 1032.84 41.0945 1028.14 41.0945C1023.45 41.0945 1019.65 37.2916 1019.65 32.6005V0.5Z" fill="white" stroke="black"/>
<ellipse cx="1063.16" cy="33.4439" rx="12.8096" ry="13.2091" fill="black"/>
<path d="M1054.66 0.5H1071.65V32.6005C1071.65 37.2916 1067.85 41.0945 1063.16 41.0945C1058.46 41.0945 1054.66 37.2916 1054.66 32.6005V0.5Z" fill="white" stroke="black"/>
<ellipse cx="1098.17" cy="33.4439" rx="12.8096" ry="13.2091" fill="black"/>
<path d="M1089.67 0.5H1106.66V32.6005C1106.66 37.2916 1102.86 41.0945 1098.17 41.0945C1093.48 41.0945 1089.67 37.2916 1089.67 32.6005V0.5Z" fill="white" stroke="black"/>
<ellipse cx="1133.18" cy="33.4439" rx="12.8096" ry="13.2091" fill="black"/>
<path d="M1124.68 0.5H1141.67V32.6005C1141.67 37.2916 1137.87 41.0945 1133.18 41.0945C1128.49 41.0945 1124.68 37.2916 1124.68 32.6005V0.5Z" fill="white" stroke="black"/>
<ellipse cx="1168.19" cy="33.4439" rx="12.8096" ry="13.2091" fill="black"/>
<path d="M1159.7 0.5H1176.68V32.6005C1176.68 37.2916 1172.88 41.0945 1168.19 41.0945C1163.5 41.0945 1159.7 37.2916 1159.7 32.6005V0.5Z" fill="white" stroke="black"/>
</svg>
