<svg width="859" height="117" viewBox="0 0 859 117" fill="none" xmlns="http://www.w3.org/2000/svg">
<path d="M726.431 13.2632L725.604 12.4202L730.959 7.15253L731.785 7.99552L729.674 10.0725L732.415 12.8697L734.526 10.7927L735.353 11.6357L729.998 16.9033L729.172 16.0604L731.643 13.6297L728.901 10.8325L726.431 13.2632ZM731.694 18.6337L730.815 17.7371L738.498 14.7844L739.295 15.5967L736.208 23.2395L735.321 22.3352L736.082 20.4434L733.588 17.8991L731.694 18.6337ZM737.826 16.2289L734.616 17.4603L736.538 19.4222L737.826 16.2289ZM737.85 24.9157L737.024 24.0727L742.379 18.805L744.639 21.1118C745.19 21.6737 745.473 22.2536 745.488 22.8512C745.523 23.449 745.308 23.9761 744.844 24.4326C744.38 24.8892 743.84 25.1045 743.223 25.0786C742.622 25.0579 742.046 24.7666 741.496 24.2046L740.061 22.7409L737.85 24.9157ZM742.432 20.4081L740.834 21.9808L742.201 23.3756C742.511 23.6924 742.823 23.8724 743.136 23.9158C743.454 23.9541 743.74 23.8479 743.995 23.597C744.25 23.3462 744.359 23.0636 744.321 22.7494C744.289 22.4402 744.115 22.1247 743.799 21.8028L742.432 20.4081ZM742.823 29.9898L741.997 29.1468L747.351 23.8791L749.612 26.1859C750.163 26.7479 750.446 27.3277 750.46 27.9253C750.495 28.5231 750.281 29.0502 749.817 29.5068C749.353 29.9633 748.813 30.1786 748.196 30.1527C747.595 30.1321 747.019 29.8407 746.468 29.2787L745.034 27.815L742.823 29.9898ZM747.405 25.4822L745.806 27.0549L747.173 28.4497C747.484 28.7665 747.795 28.9465 748.108 28.9899C748.426 29.0282 748.713 28.922 748.968 28.6711C749.223 28.4203 749.332 28.1378 749.294 27.8235C749.261 27.5143 749.087 27.1988 748.772 26.8769L747.405 25.4822ZM749.298 36.5966L748.472 35.7536L750.897 33.3681L751.791 28.4091L752.752 29.3901L752.09 33.0524L755.757 32.4555L756.688 33.4058L751.746 34.1885L749.298 36.5966Z" fill="black"/>
<path d="M719.201 22.129L715.363 18.2129L720.717 12.9453L724.458 16.7617L723.685 17.5217L720.771 14.5483L719.432 15.8652L721.806 18.2869L721.033 19.0469L718.66 16.6252L716.962 18.2958L719.973 21.3689L719.201 22.129ZM720.565 23.5209L719.686 22.6242L727.369 19.6715L728.166 20.4839L725.079 28.1267L724.192 27.2224L724.953 25.3305L722.459 22.7862L720.565 23.5209ZM726.697 21.116L723.487 22.3475L725.409 24.3094L726.697 21.116ZM727.456 30.7513C726.655 29.9339 726.187 29.0739 726.054 28.1714L726.964 27.2759C726.986 27.666 727.106 28.1152 727.323 28.6235C727.546 29.1268 727.838 29.5624 728.198 29.9302C728.554 30.293 728.916 30.5191 729.284 30.6085C729.657 30.703 729.966 30.6299 730.211 30.3891C730.404 30.1985 730.493 29.9562 730.475 29.6624C730.471 29.5459 730.434 29.4013 730.365 29.2285C730.291 29.0101 730.135 28.6821 729.897 28.2444L729.822 28.1071C729.618 27.7356 729.464 27.4304 729.361 27.1914C729.276 27.0033 729.19 26.7367 729.103 26.3916C728.971 25.798 729.151 25.2604 729.64 24.7788C730.084 24.3423 730.609 24.1674 731.214 24.2539C731.825 24.3455 732.423 24.6903 733.009 25.288C733.645 25.9369 734.058 26.6546 734.248 27.4411L733.406 28.2689C733.202 27.3961 732.812 26.666 732.236 26.0784C731.886 25.7208 731.554 25.5102 731.241 25.4466C730.939 25.383 730.685 25.4516 730.481 25.6523C730.308 25.8229 730.25 26.0856 730.307 26.4406C730.317 26.4913 730.337 26.5573 730.366 26.6386C730.401 26.7149 730.441 26.8013 730.485 26.8979C730.53 26.9945 730.562 27.0632 730.582 27.1038L731.007 27.89C731.26 28.3733 731.448 28.8308 731.57 29.2623C731.781 29.9882 731.616 30.6475 731.075 31.24C730.58 31.7267 729.997 31.9137 729.326 31.8013C728.655 31.6888 728.031 31.3388 727.456 30.7513ZM734.656 28.7159L735.428 27.9558L739.732 32.347L738.959 33.1071L737.217 31.3291L732.635 35.8367L731.809 34.9937L736.391 30.4861L734.656 28.7159ZM739.114 42.4479L735.276 38.5318L740.631 33.2642L744.371 37.0806L743.598 37.8406L740.684 34.8672L739.346 36.1841L741.719 38.6058L740.946 39.3658L738.573 36.9441L736.875 38.6147L739.887 41.6878L739.114 42.4479ZM740.914 44.2842L740.088 43.4413L745.442 38.1736L747.838 40.6183C748.379 41.1701 748.661 41.7397 748.686 42.3273C748.711 42.925 748.499 43.4446 748.051 43.8861C747.678 44.2523 747.257 44.4611 746.786 44.5125C746.326 44.564 745.875 44.451 745.433 44.1736L744.729 48.1773L743.73 47.1581L744.41 43.3136L743.178 42.0568L740.914 44.2842ZM745.496 39.7767L743.92 41.3268L745.437 42.8749C745.737 43.1814 746.039 43.3513 746.342 43.3844C746.65 43.4227 746.931 43.3164 747.186 43.0655C747.431 42.8247 747.537 42.5497 747.505 42.2406C747.477 41.9365 747.313 41.6312 747.013 41.3247L745.496 39.7767Z" fill="black"/>
<path d="M32.0638 58.8204L23.9697 53.0278L33.7156 48.0628L37.1845 43.4287L45.7742 42.7667L51.5557 40.1187V42.7667L39.6623 51.3728V56.9999L36.5238 53.0278L32.0638 58.8204Z" fill="black" stroke="black" stroke-width="0.495242"/>
<path d="M827.101 57.3309L835.196 51.5383L825.45 46.5732L821.981 41.9392L813.391 41.2772L807.61 38.6292V41.2772L819.503 49.8833V55.5104L822.641 51.5383L827.101 57.3309Z" fill="black" stroke="black" stroke-width="0.495242"/>
<path d="M78.4809 66.9301V56.6689L74.3513 58.324L62.7883 56.6689L63.6142 60.972L75.3424 63.62L78.4809 66.9301Z" fill="black" stroke="black" stroke-width="0.495242"/>
<path d="M780.684 65.4406V55.1794L784.814 56.8345L796.377 55.1794L795.551 59.4825L783.823 62.1305L780.684 65.4406Z" fill="black" stroke="black" stroke-width="0.495242"/>
<path d="M308.953 27.1773C308.083 27.1773 307.351 26.971 306.757 26.5583V25.3202C306.999 25.5293 307.318 25.7109 307.715 25.8649C308.116 26.0135 308.513 26.0878 308.903 26.0878C309.228 26.0878 309.495 26.03 309.704 25.9145C309.913 25.7934 310.018 25.6283 310.018 25.4192C310.018 25.1936 309.918 25.034 309.72 24.9405C309.638 24.891 309.528 24.8414 309.39 24.7919L309.192 24.7259L308.73 24.5856L308.301 24.4452C308.24 24.4287 308.111 24.382 307.913 24.3049C307.742 24.2389 307.618 24.1811 307.541 24.1316C307.255 23.9335 307.074 23.7657 306.997 23.6281C306.864 23.364 306.798 23.0943 306.798 22.8192C306.798 22.3074 306.994 21.9057 307.384 21.6141C307.775 21.317 308.306 21.1684 308.978 21.1684C309.654 21.1684 310.284 21.328 310.868 21.6471V22.8027C310.279 22.4395 309.654 22.2579 308.994 22.2579C308.339 22.2579 308.012 22.4478 308.012 22.8274C308.012 22.9925 308.114 23.1246 308.317 23.2236C308.438 23.2897 308.595 23.3475 308.788 23.397C309.046 23.4685 309.255 23.529 309.415 23.5786C309.894 23.7271 310.312 23.928 310.67 24.1811C311.055 24.4507 311.247 24.8524 311.247 25.3862C311.247 25.942 311.03 26.3794 310.595 26.6986C310.161 27.0177 309.613 27.1773 308.953 27.1773ZM314.674 27.0948H313.626L311.686 21.2839H313.007L314.195 25.1798L315.499 21.2674H316.424L317.736 25.1798L318.925 21.2839H320.221L318.273 27.0948H317.224L315.962 23.2401L314.674 27.0948ZM322.245 27.0618H321.064V21.2839H322.245V27.0618ZM325.469 27.1773C324.599 27.1773 323.868 26.971 323.273 26.5583V25.3202C323.515 25.5293 323.835 25.7109 324.231 25.8649C324.632 26.0135 325.029 26.0878 325.419 26.0878C325.744 26.0878 326.011 26.03 326.22 25.9145C326.429 25.7934 326.534 25.6283 326.534 25.4192C326.534 25.1936 326.435 25.034 326.237 24.9405C326.154 24.891 326.044 24.8414 325.906 24.7919L325.708 24.7259L325.246 24.5856L324.817 24.4452C324.756 24.4287 324.627 24.382 324.429 24.3049C324.258 24.2389 324.134 24.1811 324.057 24.1316C323.771 23.9335 323.59 23.7657 323.513 23.6281C323.381 23.364 323.315 23.0943 323.315 22.8192C323.315 22.3074 323.51 21.9057 323.901 21.6141C324.291 21.317 324.822 21.1684 325.494 21.1684C326.17 21.1684 326.801 21.328 327.384 21.6471V22.8027C326.795 22.4395 326.17 22.2579 325.51 22.2579C324.855 22.2579 324.528 22.4478 324.528 22.8274C324.528 22.9925 324.63 23.1246 324.833 23.2236C324.954 23.2897 325.111 23.3475 325.304 23.397C325.562 23.4685 325.772 23.529 325.931 23.5786C326.41 23.7271 326.828 23.928 327.186 24.1811C327.571 24.4507 327.764 24.8524 327.764 25.3862C327.764 25.942 327.546 26.3794 327.111 26.6986C326.677 27.0177 326.129 27.1773 325.469 27.1773ZM330.66 27.1773C329.79 27.1773 329.059 26.971 328.464 26.5583V25.3202C328.706 25.5293 329.026 25.7109 329.422 25.8649C329.823 26.0135 330.22 26.0878 330.61 26.0878C330.935 26.0878 331.202 26.03 331.411 25.9145C331.62 25.7934 331.725 25.6283 331.725 25.4192C331.725 25.1936 331.626 25.034 331.428 24.9405C331.345 24.891 331.235 24.8414 331.097 24.7919L330.899 24.7259L330.437 24.5856L330.008 24.4452C329.947 24.4287 329.818 24.382 329.62 24.3049C329.449 24.2389 329.325 24.1811 329.248 24.1316C328.962 23.9335 328.781 23.7657 328.704 23.6281C328.572 23.364 328.506 23.0943 328.506 22.8192C328.506 22.3074 328.701 21.9057 329.092 21.6141C329.482 21.317 330.013 21.1684 330.685 21.1684C331.361 21.1684 331.992 21.328 332.575 21.6471V22.8027C331.986 22.4395 331.361 22.2579 330.701 22.2579C330.046 22.2579 329.719 22.4478 329.719 22.8274C329.719 22.9925 329.821 23.1246 330.024 23.2236C330.145 23.2897 330.302 23.3475 330.495 23.397C330.753 23.4685 330.963 23.529 331.122 23.5786C331.601 23.7271 332.019 23.928 332.377 24.1811C332.762 24.4507 332.955 24.8524 332.955 25.3862C332.955 25.942 332.737 26.3794 332.302 26.6986C331.868 27.0177 331.32 27.1773 330.66 27.1773Z" fill="black"/>
<path d="M340.768 27.0618H339.579V21.2839H340.76L342.435 23.6776L344.111 21.2839H345.283V27.0618H344.111V23.1081L342.782 24.9652H342.121L340.768 23.1081V27.0618ZM347.781 27.0618H346.601V21.2839H347.781V27.0618ZM353.21 27.0618H349.091V21.2839H350.279V25.997H353.21V27.0618ZM355.253 27.0618H354.064V21.2839H355.253V23.5621L357.382 21.2839H358.835L356.384 23.9335L359.256 27.0618H357.737L355.253 24.3957V27.0618Z" fill="black"/>
<path d="M368.609 27.1776C367.712 27.1776 366.966 26.8969 366.372 26.3357C365.778 25.7634 365.481 25.0425 365.481 24.1731C365.481 23.2927 365.775 22.5718 366.364 22.0105C366.958 21.4493 367.706 21.1686 368.609 21.1686C369.17 21.1686 369.679 21.2897 370.136 21.5318V22.7286C369.69 22.4315 369.184 22.2829 368.617 22.2829C368.072 22.2829 367.613 22.4618 367.239 22.8194C366.876 23.1716 366.694 23.6228 366.694 24.1731C366.694 24.7234 366.881 25.1773 367.255 25.535C367.624 25.8872 368.094 26.0633 368.667 26.0633C369.3 26.0633 369.828 25.8954 370.251 25.5598V26.7566C369.784 27.0372 369.236 27.1776 368.609 27.1776ZM372.453 27.062H371.265V21.2842H372.453V23.4467H375.062V21.2842H376.242V27.062H375.062V24.528H372.453V27.062ZM379.038 25.5268C379.38 25.8844 379.806 26.0633 380.318 26.0633C380.824 26.0633 381.248 25.8844 381.589 25.5268C381.93 25.1691 382.101 24.7179 382.101 24.1731C382.101 23.6283 381.93 23.1771 381.589 22.8194C381.248 22.4618 380.824 22.2829 380.318 22.2829C379.806 22.2829 379.38 22.4618 379.038 22.8194C378.703 23.1716 378.535 23.6228 378.535 24.1731C378.535 24.7234 378.703 25.1746 379.038 25.5268ZM377.322 24.1731C377.322 23.3257 377.605 22.6158 378.172 22.0436C378.739 21.4603 379.454 21.1686 380.318 21.1686C381.176 21.1686 381.889 21.4603 382.456 22.0436C383.028 22.6268 383.314 23.3367 383.314 24.1731C383.314 25.004 383.028 25.7139 382.456 26.3026C381.889 26.8859 381.176 27.1776 380.318 27.1776C379.454 27.1776 378.739 26.8859 378.172 26.3026C377.605 25.7194 377.322 25.0095 377.322 24.1731ZM387.318 27.1776C386.421 27.1776 385.675 26.8969 385.081 26.3357C384.486 25.7634 384.189 25.0425 384.189 24.1731C384.189 23.2927 384.484 22.5718 385.072 22.0105C385.667 21.4493 386.415 21.1686 387.318 21.1686C387.879 21.1686 388.388 21.2897 388.845 21.5318V22.7286C388.399 22.4315 387.893 22.2829 387.326 22.2829C386.781 22.2829 386.322 22.4618 385.947 22.8194C385.584 23.1716 385.403 23.6228 385.403 24.1731C385.403 24.7234 385.59 25.1773 385.964 25.535C386.333 25.8872 386.803 26.0633 387.375 26.0633C388.008 26.0633 388.536 25.8954 388.96 25.5598V26.7566C388.492 27.0372 387.945 27.1776 387.318 27.1776ZM391.411 25.5268C391.753 25.8844 392.179 26.0633 392.691 26.0633C393.197 26.0633 393.621 25.8844 393.962 25.5268C394.303 25.1691 394.474 24.7179 394.474 24.1731C394.474 23.6283 394.303 23.1771 393.962 22.8194C393.621 22.4618 393.197 22.2829 392.691 22.2829C392.179 22.2829 391.753 22.4618 391.411 22.8194C391.076 23.1716 390.908 23.6228 390.908 24.1731C390.908 24.7234 391.076 25.1746 391.411 25.5268ZM389.695 24.1731C389.695 23.3257 389.978 22.6158 390.545 22.0436C391.112 21.4603 391.827 21.1686 392.691 21.1686C393.549 21.1686 394.262 21.4603 394.829 22.0436C395.401 22.6268 395.687 23.3367 395.687 24.1731C395.687 25.004 395.401 25.7139 394.829 26.3026C394.262 26.8859 393.549 27.1776 392.691 27.1776C391.827 27.1776 391.112 26.8859 390.545 26.3026C389.978 25.7194 389.695 25.0095 389.695 24.1731ZM400.879 27.062H396.76V21.2842H397.949V25.9972H400.879V27.062ZM402.477 27.062H401.23L403.706 21.2512H404.846L407.322 27.062H406.059L405.489 25.7249H403.046L402.477 27.062ZM404.268 22.7369L403.418 24.7426H405.11L404.268 22.7369ZM412.419 27.062H408.085V21.2842H412.328V22.349H409.274V23.4633H411.734V24.5115H409.274V25.9972H412.419V27.062Z" fill="black"/>
<path d="M421.559 27.095H420.511L418.571 21.2842H419.892L421.081 25.1801L422.385 21.2677H423.309L424.622 25.1801L425.81 21.2842H427.106L425.158 27.095H424.11L422.847 23.2404L421.559 27.095ZM429.13 27.062H427.95V21.2842H429.13V27.062ZM430.051 22.349V21.2842H434.896V22.349H433.064V27.062H431.875V22.349H430.051ZM436.972 27.062H435.783V21.2842H436.972V23.4467H439.58V21.2842H440.761V27.062H439.58V24.528H436.972V27.062Z" fill="black"/>
<path d="M448.964 27.062H447.776V21.2842H448.964V23.4467H451.573V21.2842H452.753V27.062H451.573V24.528H448.964V27.062ZM455.55 25.5268C455.891 25.8844 456.317 26.0633 456.829 26.0633C457.335 26.0633 457.759 25.8844 458.1 25.5268C458.441 25.1691 458.612 24.7179 458.612 24.1731C458.612 23.6283 458.441 23.1771 458.1 22.8194C457.759 22.4618 457.335 22.2829 456.829 22.2829C456.317 22.2829 455.891 22.4618 455.55 22.8194C455.214 23.1716 455.046 23.6228 455.046 24.1731C455.046 24.7234 455.214 25.1746 455.55 25.5268ZM453.833 24.1731C453.833 23.3257 454.116 22.6158 454.683 22.0436C455.25 21.4603 455.965 21.1686 456.829 21.1686C457.687 21.1686 458.4 21.4603 458.967 22.0436C459.539 22.6268 459.825 23.3367 459.825 24.1731C459.825 25.004 459.539 25.7139 458.967 26.3026C458.4 26.8859 457.687 27.1776 456.829 27.1776C455.965 27.1776 455.25 26.8859 454.683 26.3026C454.116 25.7194 453.833 25.0095 453.833 24.1731ZM462.062 27.062H460.898V21.2842H461.914L464.827 24.982V21.2842H465.983V27.062H465.001L462.062 23.3477V27.062ZM471.6 27.062H467.266V21.2842H471.509V22.349H468.455V23.4633H470.915V24.5115H468.455V25.9972H471.6V27.062ZM475.377 27.062H474.197V24.4702L471.96 21.2842H473.363L474.799 23.3394L476.244 21.2842H477.606L475.377 24.4455V27.062Z" fill="black"/>
<path d="M487.55 21.5893V22.7036C487.093 22.357 486.642 22.1836 486.197 22.1836C485.982 22.1836 485.803 22.2442 485.66 22.3652C485.517 22.4863 485.445 22.6349 485.445 22.8109C485.445 22.91 485.47 23.009 485.52 23.1081C485.586 23.2346 485.737 23.4162 485.974 23.6529L487.418 25.0891C487.611 24.7974 487.715 24.404 487.732 23.9087H488.846C488.819 24.6406 488.607 25.2899 488.211 25.8567L489.432 27.0618H487.963L487.484 26.6078C486.972 26.9875 486.395 27.1773 485.751 27.1773C485.14 27.1773 484.631 27.015 484.224 26.6903C483.822 26.3602 483.621 25.9035 483.621 25.3202C483.621 24.9185 483.72 24.5746 483.918 24.2884C484.128 23.9968 484.356 23.7904 484.604 23.6694C484.4 23.3997 484.298 23.0916 484.298 22.7449C484.298 22.2937 484.458 21.9195 484.777 21.6224C485.096 21.3197 485.511 21.1684 486.023 21.1684C486.595 21.1684 487.104 21.3087 487.55 21.5893ZM485.825 26.1621C486.155 26.1621 486.452 26.0548 486.717 25.8402L485.272 24.4122C485.135 24.4783 485.013 24.5911 484.909 24.7506C484.81 24.9102 484.76 25.0835 484.76 25.2706C484.76 25.5458 484.859 25.7631 485.057 25.9227C485.256 26.0823 485.511 26.1621 485.825 26.1621Z" fill="black"/>
<path d="M496.588 27.062H495.341L497.818 21.2512H498.957L501.433 27.062H500.17L499.6 25.7249H497.157L496.588 27.062ZM498.379 22.7369L497.529 24.7426H499.221L498.379 22.7369ZM506.315 27.062H502.197V21.2842H503.385V25.9972H506.315V27.062ZM508.358 27.062H507.17V21.2842H508.35L510.026 23.6779L511.701 21.2842H512.873V27.062H511.701V23.1083L510.372 24.9655H509.712L508.358 23.1083V27.062ZM515.669 25.5268C516.01 25.8844 516.437 26.0633 516.948 26.0633C517.455 26.0633 517.878 25.8844 518.22 25.5268C518.561 25.1691 518.731 24.7179 518.731 24.1731C518.731 23.6283 518.561 23.1771 518.22 22.8194C517.878 22.4618 517.455 22.2829 516.948 22.2829C516.437 22.2829 516.01 22.4618 515.669 22.8194C515.333 23.1716 515.166 23.6228 515.166 24.1731C515.166 24.7234 515.333 25.1746 515.669 25.5268ZM513.952 24.1731C513.952 23.3257 514.236 22.6158 514.802 22.0436C515.369 21.4603 516.085 21.1686 516.948 21.1686C517.807 21.1686 518.52 21.4603 519.086 22.0436C519.659 22.6268 519.945 23.3367 519.945 24.1731C519.945 25.004 519.659 25.7139 519.086 26.3026C518.52 26.8859 517.807 27.1776 516.948 27.1776C516.085 27.1776 515.369 26.8859 514.802 26.3026C514.236 25.7194 513.952 25.0095 513.952 24.1731ZM522.182 27.062H521.018V21.2842H522.033L524.947 24.982V21.2842H526.102V27.062H525.12L522.182 23.3477V27.062ZM529.548 27.062H527.386V21.2842H529.548C530.484 21.2842 531.246 21.5538 531.835 22.0931C532.424 22.6323 532.718 23.3257 532.718 24.1731C532.718 25.026 532.424 25.7221 531.835 26.2614C531.251 26.7951 530.489 27.062 529.548 27.062ZM528.574 22.349V25.9972H529.449C530.093 25.9972 530.594 25.8377 530.952 25.5185C531.315 25.1938 531.496 24.7454 531.496 24.1731C531.496 23.6008 531.315 23.1551 530.952 22.8359C530.594 22.5113 530.093 22.349 529.449 22.349H528.574Z" fill="black"/>
<path d="M540.618 27.062H539.454V21.2842H540.469L543.383 24.982V21.2842H544.538V27.062H543.556L540.618 23.3477V27.062ZM547.34 25.5268C547.682 25.8844 548.108 26.0633 548.62 26.0633C549.126 26.0633 549.55 25.8844 549.891 25.5268C550.232 25.1691 550.403 24.7179 550.403 24.1731C550.403 23.6283 550.232 23.1771 549.891 22.8194C549.55 22.4618 549.126 22.2829 548.62 22.2829C548.108 22.2829 547.682 22.4618 547.34 22.8194C547.005 23.1716 546.837 23.6228 546.837 24.1731C546.837 24.7234 547.005 25.1746 547.34 25.5268ZM545.624 24.1731C545.624 23.3257 545.907 22.6158 546.474 22.0436C547.041 21.4603 547.756 21.1686 548.62 21.1686C549.478 21.1686 550.191 21.4603 550.758 22.0436C551.33 22.6268 551.616 23.3367 551.616 24.1731C551.616 25.004 551.33 25.7139 550.758 26.3026C550.191 26.8859 549.478 27.1776 548.62 27.1776C547.756 27.1776 547.041 26.8859 546.474 26.3026C545.907 25.7194 545.624 25.0095 545.624 24.1731ZM555.083 27.1776C554.362 27.1776 553.771 26.9547 553.308 26.509C552.846 26.0633 552.615 25.4387 552.615 24.6353V21.2842H553.795V24.6766C553.795 25.1223 553.911 25.4662 554.142 25.7083C554.379 25.945 554.692 26.0633 555.083 26.0633C555.479 26.0633 555.793 25.945 556.024 25.7083C556.261 25.4662 556.379 25.1223 556.379 24.6766V21.2842H557.567V24.6353C557.567 25.4387 557.334 26.0633 556.866 26.509C556.404 26.9547 555.809 27.1776 555.083 27.1776ZM561.64 27.1776C560.759 27.1776 560.027 26.8969 559.444 26.3357C558.855 25.7634 558.561 25.0425 558.561 24.1731C558.561 23.2927 558.855 22.5718 559.444 22.0105C560.027 21.4493 560.773 21.1686 561.681 21.1686C562.347 21.1686 562.924 21.3145 563.414 21.6061V22.7782C562.88 22.448 562.33 22.2829 561.763 22.2829C561.175 22.2829 560.696 22.459 560.327 22.8112C559.958 23.1579 559.774 23.6201 559.774 24.1979C559.774 24.7701 559.953 25.2269 560.311 25.568C560.668 25.9092 561.111 26.0798 561.64 26.0798C562.146 26.0798 562.534 25.9532 562.803 25.7001V23.7109H563.992V26.2614C563.744 26.5255 563.414 26.7429 563.001 26.9134C562.572 27.0895 562.118 27.1776 561.64 27.1776ZM565.829 27.062H564.583L567.059 21.2512H568.198L570.674 27.062H569.412L568.842 25.7249H566.399L565.829 27.062ZM567.62 22.7369L566.77 24.7426H568.462L567.62 22.7369ZM570.228 22.349V21.2842H575.073V22.349H573.241V27.062H572.052V22.349H570.228Z" fill="black"/>
<path d="M398.948 104.178C399.289 104.536 399.715 104.715 400.227 104.715C400.733 104.715 401.157 104.536 401.498 104.178C401.839 103.82 402.01 103.369 402.01 102.824C402.01 102.28 401.839 101.828 401.498 101.471C401.157 101.113 400.733 100.934 400.227 100.934C399.715 100.934 399.289 101.113 398.948 101.471C398.612 101.823 398.444 102.274 398.444 102.824C398.444 103.375 398.612 103.826 398.948 104.178ZM397.231 102.824C397.231 101.977 397.514 101.267 398.081 100.695C398.648 100.112 399.363 99.82 400.227 99.82C401.085 99.82 401.798 100.112 402.365 100.695C402.937 101.278 403.223 101.988 403.223 102.824C403.223 103.655 402.937 104.365 402.365 104.954C401.798 105.537 401.085 105.829 400.227 105.829C399.363 105.829 398.648 105.537 398.081 104.954C397.514 104.371 397.231 103.661 397.231 102.824ZM407.466 105.713H406.277V99.9356H410.512V101H407.466V102.172H409.818V103.221H407.466V105.713ZM419.449 105.829C418.58 105.829 417.848 105.623 417.254 105.21V103.972C417.496 104.181 417.815 104.362 418.211 104.517C418.613 104.665 419.009 104.739 419.4 104.739C419.724 104.739 419.991 104.682 420.2 104.566C420.409 104.445 420.514 104.28 420.514 104.071C420.514 103.845 420.415 103.686 420.217 103.592C420.134 103.543 420.024 103.493 419.887 103.444L419.688 103.377L419.226 103.237L418.797 103.097C418.737 103.08 418.607 103.034 418.409 102.957C418.239 102.89 418.115 102.833 418.038 102.783C417.752 102.585 417.57 102.417 417.493 102.28C417.361 102.016 417.295 101.746 417.295 101.471C417.295 100.959 417.49 100.557 417.881 100.266C418.272 99.9686 418.803 99.82 419.474 99.82C420.151 99.82 420.781 99.9796 421.364 100.299V101.454C420.775 101.091 420.151 100.91 419.49 100.91C418.836 100.91 418.508 101.099 418.508 101.479C418.508 101.644 418.61 101.776 418.814 101.875C418.935 101.941 419.091 101.999 419.284 102.049C419.543 102.12 419.752 102.181 419.911 102.23C420.39 102.379 420.808 102.58 421.166 102.833C421.551 103.102 421.744 103.504 421.744 104.038C421.744 104.594 421.526 105.031 421.092 105.35C420.657 105.669 420.109 105.829 419.449 105.829ZM427.151 105.746H426.103L424.163 99.9356H425.484L426.673 103.831L427.977 99.919H428.901L430.214 103.831L431.402 99.9356H432.698L430.75 105.746H429.702L428.439 101.892L427.151 105.746ZM436.703 105.713H435.523V99.9356H436.703V105.713ZM439.605 101V99.9356H444.45V101H442.618V105.713H441.429V101H439.605ZM448.507 105.713H447.318V99.9356H448.507V102.098H451.115V99.9356H452.296V105.713H451.115V103.179H448.507V105.713ZM459.673 105.713H455.554V99.9356H456.743V104.649H459.673V105.713ZM463.252 105.713H462.005L464.481 99.9025H465.62L468.097 105.713H466.834L466.264 104.376H463.821L463.252 105.713ZM465.043 101.388L464.193 103.394H465.885L465.043 101.388ZM472.005 105.713H470.841V99.9356H471.857L474.77 103.633V99.9356H475.926V105.713H474.944L472.005 101.999V105.713ZM481.353 105.713H479.19V99.9356H481.353C482.288 99.9356 483.05 100.205 483.639 100.744C484.228 101.284 484.522 101.977 484.522 102.824C484.522 103.677 484.228 104.373 483.639 104.913C483.056 105.446 482.294 105.713 481.353 105.713ZM480.379 101V104.649H481.254C481.898 104.649 482.398 104.489 482.756 104.17C483.119 103.845 483.301 103.397 483.301 102.824C483.301 102.252 483.119 101.806 482.756 101.487C482.398 101.163 481.898 101 481.254 101H480.379Z" fill="black"/>
<path d="M96.518 2.74243L2 57.8274L96.4693 113.028L96.518 2.74243Z" stroke="black" stroke-width="2"/>
<path d="M97.8076 1.55664L760.532 1.55664V114.098H97.8076" stroke="black" stroke-width="2"/>
<path d="M761.032 1.49268L857 59.1515L761.005 114.284" stroke="black" stroke-width="2"/>
<path d="M384.404 100.527L387.838 106.485H380.971L384.404 100.527Z" fill="black"/>
<path d="M497.722 100.527L501.155 106.485H494.288L497.722 100.527Z" fill="black"/>
<path d="M78.1505 50.0488L79.8024 30.5195L70.552 37.9671L62.2927 39.9531L68.2394 32.34V27.2095L54.6942 37.9671L56.1808 41.4426L48.7475 54.6828L60.9712 44.9182L54.6942 54.6828C58.9339 50.2143 68.0411 41.3102 70.552 41.4426C73.0628 41.575 76.6638 47.2352 78.1505 50.0488Z" fill="black" stroke="black" stroke-width="0.495242"/>
<path d="M781.015 48.5593L779.363 29.03L788.613 36.4776L796.873 38.4636L790.926 30.8505V25.72L804.471 36.4776L802.984 39.9531L810.418 53.1933L798.194 43.4287L804.471 53.1933C800.231 48.7248 791.124 39.8207 788.613 39.9531C786.102 40.0855 782.501 45.7457 781.015 48.5593Z" fill="black" stroke="black" stroke-width="0.495242"/>
<path d="M77.8202 87.2868V93.7414C76.4436 93.7414 72.6003 93.1456 68.2394 90.7623C63.8785 88.3791 42.1952 73.6604 31.8986 66.599L20.0053 63.951L18.1882 54.6829L20.0053 53.1934L25.2912 60.4754L37.5149 62.958L41.0459 61.1122L41.149 60.4754L41.5494 60.849L45.1134 58.9859L45.9394 64.944L41.5494 60.849L41.0459 61.1122L40.1579 66.599L45.1134 70.5711L49.0779 66.599H69.7261L77.8202 71.5641L76.3335 78.8462L64.9357 74.2121L63.7794 76.3636L76.3335 83.9767L73.6905 85.6318L77.8202 87.2868Z" fill="black"/>
<path d="M77.8202 93.7414V87.2868L73.6905 85.6318L76.3335 83.9767L63.7794 76.3636L64.9357 74.2121L76.3335 78.8462L77.8202 71.5641L69.7261 66.599H49.0779L45.1134 70.5711L40.1579 66.599L41.149 60.4754L45.9394 64.944L45.1134 58.9859L37.5149 62.958L25.2912 60.4754L20.0053 53.1934L18.1882 54.6829L20.0053 63.951L31.8986 66.599C42.1952 73.6604 63.8785 88.3791 68.2394 90.7623C72.6003 93.1456 76.4436 93.7414 77.8202 93.7414Z" stroke="black" stroke-width="0.495242"/>
<path d="M158.312 28.26L167.698 14.4593L176.362 30.6311L184.239 36.2802L185.665 50.6718L190.307 60.2764L185.88 60.3751L171.048 40.7351L161.639 40.9449L168.164 35.5293L158.312 28.26Z" fill="black" stroke="black" stroke-width="0.82983"/>
<path d="M146.48 106.467L163.637 106.084L160.717 99.2149L163.055 79.7466L155.89 81.2933L151.898 101.076L146.48 106.467Z" fill="black" stroke="black" stroke-width="0.82983"/>
<path d="M174.692 105.284L207.408 107.328L194.611 92.0806L190.984 78.293L203.934 87.9894L212.513 87.7981L194.023 65.4661L188.266 68.0909L165.852 56.1092L182.633 76.2603L166.072 66.0896C173.702 73.0386 188.928 87.9913 188.8 92.2102C188.672 96.4291 179.341 102.684 174.692 105.284Z" fill="black" stroke="black" stroke-width="0.82983"/>
<path d="M112.416 106.115L101.623 106.355C101.572 104.045 102.425 97.5725 106.249 90.1646C110.072 82.7566 133.878 45.8157 145.304 28.2712L149.29 8.21136L164.72 4.81606L167.278 7.8101L155.298 16.9533L151.6 37.5614L154.818 43.4188L155.886 43.568L155.277 44.254L158.524 50.1662L148.592 51.7746L155.277 44.254L154.818 43.4188L145.61 42.133L139.152 50.5983L145.941 57.1038L146.708 91.7584L138.706 105.528L126.474 103.305L133.8 84.0025L130.159 82.1421L117.895 103.496L115.03 99.122L112.416 106.115Z" fill="black"/>
<path d="M101.623 106.355L112.416 106.115L115.03 99.122L117.895 103.496L130.159 82.1421L133.8 84.0025L126.474 103.305L138.706 105.528L146.708 91.7584L145.941 57.1038L139.152 50.5983L145.61 42.133L155.886 43.568L148.592 51.7746L158.524 50.1662L151.6 37.5614L155.298 16.9533L167.278 7.8101L164.72 4.81606L149.29 8.21136L145.304 28.2712C133.878 45.8157 110.072 82.7566 106.249 90.1646C102.425 97.5725 101.572 104.045 101.623 106.355Z" stroke="black" stroke-width="0.82983"/>
<path d="M781.345 85.7973V92.2519C782.722 92.2519 786.565 91.6561 790.926 89.2728C795.287 86.8896 816.97 72.1709 827.267 65.1095L839.16 62.4615L840.977 53.1934L839.16 51.7039L833.874 58.9859L821.65 61.4685L818.119 59.6227L818.016 58.9859L817.616 59.3595L814.052 57.4964L813.226 63.4545L817.616 59.3595L818.119 59.6227L819.007 65.1095L814.052 69.0816L810.087 65.1095H789.439L781.345 70.0746L782.832 77.3567L794.23 72.7226L795.386 74.8741L782.832 82.4872L785.475 84.1423L781.345 85.7973Z" fill="black"/>
<path d="M781.345 92.2519V85.7973L785.475 84.1423L782.832 82.4872L795.386 74.8741L794.23 72.7226L782.832 77.3567L781.345 70.0746L789.439 65.1095H810.087L814.052 69.0816L819.007 65.1095L818.016 58.9859L813.226 63.4545L814.052 57.4964L821.65 61.4685L833.874 58.9859L839.16 51.7039L840.977 53.1934L839.16 62.4615L827.267 65.1095C816.97 72.1709 795.287 86.8896 790.926 89.2728C786.565 91.6561 782.722 92.2519 781.345 92.2519Z" stroke="black" stroke-width="0.495242"/>
<path d="M730.529 1.25586L760.27 29.0705" stroke="black" stroke-width="2"/>
<path d="M693.03 1.58081L760.629 70.6747" stroke="black" stroke-width="2"/>
</svg>
